G04 #@! TF.GenerationSoftware,KiCad,Pcbnew,(5.1.2)-2*
G04 #@! TF.CreationDate,2019-12-14T23:06:18+01:00*
G04 #@! TF.ProjectId,ttgot5,7474676f-7435-42e6-9b69-6361645f7063,rev?*
G04 #@! TF.SameCoordinates,Original*
G04 #@! TF.FileFunction,Copper,L1,Top*
G04 #@! TF.FilePolarity,Positive*
%FSLAX46Y46*%
G04 Gerber Fmt 4.6, Leading zero omitted, Abs format (unit mm)*
G04 Created by KiCad (PCBNEW (5.1.2)-2) date 2019-12-14 23:06:18*
%MOMM*%
%LPD*%
G04 APERTURE LIST*
%ADD10O,1.700000X1.700000*%
%ADD11R,1.700000X1.700000*%
%ADD12R,1.350000X4.200000*%
%ADD13R,0.400000X0.550000*%
%ADD14C,0.300000*%
%ADD15C,0.100000*%
%ADD16R,0.300000X1.000000*%
%ADD17R,2.200000X1.300000*%
%ADD18R,0.400000X0.600000*%
%ADD19R,0.350000X0.500000*%
%ADD20C,2.200000*%
%ADD21C,0.600000*%
%ADD22C,0.250000*%
%ADD23C,0.300000*%
%ADD24C,0.500000*%
%ADD25C,1.000000*%
%ADD26C,0.254000*%
G04 APERTURE END LIST*
D10*
X131060400Y-151761200D03*
D11*
X131000000Y-154301200D03*
D10*
X131000000Y-158460000D03*
D11*
X131000000Y-161000000D03*
D12*
X110825000Y-103000000D03*
X105175000Y-103000000D03*
D11*
X101850000Y-106000000D03*
D10*
X101850000Y-108540000D03*
X101850000Y-111080000D03*
X101850000Y-113620000D03*
X101850000Y-116160000D03*
X101850000Y-118700000D03*
X101850000Y-121240000D03*
X101850000Y-123780000D03*
X101850000Y-126320000D03*
X101850000Y-128860000D03*
X101850000Y-131400000D03*
X101850000Y-133940000D03*
X101850000Y-136480000D03*
X135000000Y-136480000D03*
X135000000Y-133940000D03*
X135000000Y-131400000D03*
X135000000Y-128860000D03*
X135000000Y-126320000D03*
X135000000Y-123780000D03*
X135000000Y-121240000D03*
X135000000Y-118700000D03*
X135000000Y-116160000D03*
X135000000Y-113620000D03*
X135000000Y-111080000D03*
X135000000Y-108540000D03*
D11*
X135000000Y-106000000D03*
X114000000Y-149000000D03*
D10*
X116540000Y-149000000D03*
X119080000Y-149000000D03*
X121620000Y-149000000D03*
D13*
X104816000Y-151932000D03*
X105616000Y-151932000D03*
X106416000Y-151932000D03*
X107216000Y-151932000D03*
X107216000Y-154232000D03*
X106416000Y-154232000D03*
X105616000Y-154232000D03*
X104816000Y-154232000D03*
D14*
X108005000Y-147621000D03*
D15*
G36*
X107855000Y-146971000D02*
G01*
X108155000Y-147271000D01*
X108155000Y-147971000D01*
X107855000Y-148271000D01*
X107855000Y-146971000D01*
X107855000Y-146971000D01*
G37*
D16*
X108005000Y-147771000D03*
D17*
X106755000Y-147621000D03*
D18*
X105705000Y-148671000D03*
X106305000Y-148671000D03*
X108105000Y-148671000D03*
X107505000Y-148671000D03*
X105705000Y-146571000D03*
X108105000Y-146571000D03*
X107505000Y-146571000D03*
X106905000Y-146571000D03*
X106305000Y-146571000D03*
X106905000Y-148671000D03*
D19*
X103054000Y-152057000D03*
X102404000Y-152057000D03*
X101754000Y-152057000D03*
X101104000Y-152057000D03*
X101104000Y-154107000D03*
X101754000Y-154107000D03*
X102404000Y-154107000D03*
X103054000Y-154107000D03*
D20*
X134510000Y-163780000D03*
X102150000Y-163780000D03*
X102150000Y-102350000D03*
X134500000Y-102350000D03*
X134510000Y-143074400D03*
D21*
X109953000Y-145716000D03*
X112500000Y-101000000D03*
X112500000Y-102000000D03*
X112500000Y-103000000D03*
X112493000Y-104000000D03*
X112500000Y-104949000D03*
X112500000Y-105826000D03*
X112500000Y-107826000D03*
X112493000Y-108826000D03*
X112500000Y-106826000D03*
X112500000Y-109775000D03*
X109000000Y-111000000D03*
X108000000Y-110000000D03*
X106658000Y-106207000D03*
X107300000Y-109200000D03*
X106658000Y-107207000D03*
X106658000Y-108207000D03*
X110080000Y-111934000D03*
X111223000Y-112823000D03*
X113509000Y-109775000D03*
X114652000Y-109775000D03*
X115668000Y-109775000D03*
X116684000Y-109775000D03*
X130400000Y-127809000D03*
X111096000Y-118792000D03*
X130146000Y-132508000D03*
X117573000Y-140001000D03*
X112747000Y-142287000D03*
X109191000Y-139239000D03*
X101825000Y-139112000D03*
X109699000Y-150542000D03*
X111731000Y-150542000D03*
X107286000Y-150415000D03*
X124304000Y-149272000D03*
X124304000Y-144700000D03*
X124812000Y-140001000D03*
X112429500Y-127618500D03*
X112493000Y-133016000D03*
X117954000Y-157844500D03*
X101707643Y-153085545D03*
X102587000Y-158000000D03*
X105616000Y-158000000D03*
X104212600Y-151380200D03*
X104873000Y-156130000D03*
X101190000Y-156130000D03*
X104746000Y-145081000D03*
X106270000Y-139366000D03*
X106143000Y-126158000D03*
X106371600Y-156130000D03*
X118843000Y-105330000D03*
X117573000Y-138477000D03*
X107794000Y-145081000D03*
X101571000Y-150669000D03*
X105635000Y-151319000D03*
X108810000Y-145081000D03*
D22*
X101104000Y-152417002D02*
X101104000Y-152057000D01*
X101754000Y-153067002D02*
X101104000Y-152417002D01*
X101754000Y-154107000D02*
X101754000Y-153067002D01*
X106755000Y-147621000D02*
X108105000Y-147621000D01*
X101000001Y-137329999D02*
X101850000Y-136480000D01*
X100945999Y-137384001D02*
X101000001Y-137329999D01*
X100945999Y-150969001D02*
X100945999Y-137384001D01*
X101104000Y-151127002D02*
X100945999Y-150969001D01*
X101104000Y-152057000D02*
X101104000Y-151127002D01*
X101754000Y-154107000D02*
X101754000Y-153131902D01*
X101754000Y-153131902D02*
X101707643Y-153085545D01*
X109953000Y-146140264D02*
X109953000Y-145716000D01*
X109953000Y-146223000D02*
X109953000Y-146140264D01*
X108405000Y-147771000D02*
X109953000Y-146223000D01*
X108005000Y-147771000D02*
X108405000Y-147771000D01*
D23*
X105616000Y-154232000D02*
X105616000Y-157292000D01*
X105616000Y-157292000D02*
X105616000Y-158000000D01*
D22*
X104764400Y-151932000D02*
X104212600Y-151380200D01*
X104816000Y-151932000D02*
X104764400Y-151932000D01*
X104212600Y-151380200D02*
X104136400Y-151304000D01*
D24*
X104873000Y-154289000D02*
X104816000Y-154232000D01*
X104873000Y-156130000D02*
X104873000Y-154289000D01*
X101104000Y-156044000D02*
X101104000Y-154107000D01*
X101190000Y-156130000D02*
X101104000Y-156044000D01*
X102404000Y-154916000D02*
X101190000Y-156130000D01*
X102404000Y-154107000D02*
X102404000Y-154916000D01*
X106416000Y-154232000D02*
X106416000Y-154587000D01*
D22*
X104619000Y-147820002D02*
X104619000Y-145846264D01*
X105469998Y-148671000D02*
X104619000Y-147820002D01*
X105705000Y-148671000D02*
X105469998Y-148671000D01*
X104746000Y-145719264D02*
X104619000Y-145846264D01*
X104746000Y-145081000D02*
X104746000Y-145719264D01*
D25*
X133150000Y-106000000D02*
X119224000Y-119926000D01*
X135000000Y-106000000D02*
X133150000Y-106000000D01*
X119224000Y-119926000D02*
X119224000Y-134413000D01*
X119224000Y-134413000D02*
X111096000Y-134413000D01*
X111096000Y-134413000D02*
X106270000Y-139239000D01*
X106270000Y-139239000D02*
X106270000Y-139366000D01*
D22*
X106270000Y-143557000D02*
X104746000Y-145081000D01*
X106270000Y-139366000D02*
X106270000Y-143557000D01*
D25*
X106143000Y-129460000D02*
X111096000Y-134413000D01*
X106143000Y-126158000D02*
X106143000Y-129460000D01*
D24*
X101614264Y-156130000D02*
X104873000Y-156130000D01*
D22*
X101190000Y-156130000D02*
X101614264Y-156130000D01*
X106416000Y-154232000D02*
X106416000Y-156085600D01*
X106416000Y-156085600D02*
X106371600Y-156130000D01*
D25*
X118843000Y-113712000D02*
X118843000Y-105330000D01*
X101850000Y-123780000D02*
X108775000Y-123780000D01*
X108775000Y-123780000D02*
X118843000Y-113712000D01*
D23*
X106305000Y-149221000D02*
X106127000Y-149399000D01*
X106305000Y-148671000D02*
X106305000Y-149221000D01*
X106127000Y-149399000D02*
X104238000Y-149399000D01*
X104238000Y-149399000D02*
X103730000Y-148891000D01*
D22*
X103730000Y-133280000D02*
X101850000Y-131400000D01*
D23*
X103730000Y-148891000D02*
X103730000Y-133280000D01*
X106905000Y-146571000D02*
X106905000Y-145408002D01*
X106905000Y-144790998D02*
X113218998Y-138477000D01*
X106905000Y-145408002D02*
X106905000Y-144790998D01*
X113218998Y-138477000D02*
X114017000Y-138477000D01*
X114017000Y-138477000D02*
X117573000Y-138477000D01*
D24*
X102404000Y-152807000D02*
X102679000Y-153082000D01*
X102404000Y-152057000D02*
X102404000Y-152807000D01*
X102679000Y-153082000D02*
X106143000Y-153082000D01*
X106416000Y-152809000D02*
X106416000Y-151932000D01*
X106143000Y-153082000D02*
X106416000Y-152809000D01*
D23*
X102404000Y-150217000D02*
X102404000Y-152057000D01*
X102714000Y-149907000D02*
X102404000Y-150217000D01*
X106799002Y-149907000D02*
X102714000Y-149907000D01*
X107505000Y-148671000D02*
X107505000Y-149201002D01*
X107505000Y-149201002D02*
X106799002Y-149907000D01*
D24*
X114998000Y-153082000D02*
X119080000Y-149000000D01*
X106143000Y-153082000D02*
X114998000Y-153082000D01*
D25*
X127606000Y-126094000D02*
X135000000Y-118700000D01*
X127606000Y-151177000D02*
X127606000Y-126094000D01*
X126463000Y-152320000D02*
X127606000Y-151177000D01*
X119080000Y-149000000D02*
X122400000Y-152320000D01*
X122400000Y-152320000D02*
X126463000Y-152320000D01*
D23*
X108105000Y-149271000D02*
X108105000Y-148671000D01*
X108105000Y-151543000D02*
X108105000Y-149271000D01*
X107716000Y-151932000D02*
X108105000Y-151543000D01*
X107216000Y-151932000D02*
X107716000Y-151932000D01*
X103054000Y-151507000D02*
X103892000Y-150669000D01*
X103054000Y-152057000D02*
X103054000Y-151507000D01*
X107216000Y-151357000D02*
X107216000Y-151932000D01*
X106528000Y-150669000D02*
X107216000Y-151357000D01*
X103892000Y-150669000D02*
X106528000Y-150669000D01*
D25*
X121620000Y-124460000D02*
X135000000Y-111080000D01*
X121620000Y-149000000D02*
X121620000Y-124460000D01*
D24*
X121620000Y-149000000D02*
X117955000Y-145335000D01*
X111941000Y-145335000D02*
X108605000Y-148671000D01*
X117955000Y-145335000D02*
X111941000Y-145335000D01*
D22*
X108105000Y-148671000D02*
X108605000Y-148671000D01*
D23*
X107540000Y-146536000D02*
X107505000Y-146571000D01*
X107505000Y-145370000D02*
X107794000Y-145081000D01*
X107505000Y-146571000D02*
X107505000Y-145370000D01*
D22*
X101754000Y-152057000D02*
X101754000Y-150852000D01*
X101754000Y-150852000D02*
X101571000Y-150669000D01*
X105616000Y-151932000D02*
X105616000Y-151338000D01*
X105616000Y-151338000D02*
X105635000Y-151319000D01*
D23*
X106305000Y-146571000D02*
X105705000Y-146571000D01*
X108105000Y-145971000D02*
X108810000Y-145266000D01*
X108105000Y-146571000D02*
X108105000Y-145971000D01*
X108810000Y-145266000D02*
X108810000Y-145081000D01*
D26*
G36*
X133621401Y-121811034D02*
G01*
X133759294Y-122069014D01*
X133944866Y-122295134D01*
X134170986Y-122480706D01*
X134225791Y-122510000D01*
X134170986Y-122539294D01*
X133944866Y-122724866D01*
X133759294Y-122950986D01*
X133621401Y-123208966D01*
X133536487Y-123488889D01*
X133507815Y-123780000D01*
X133536487Y-124071111D01*
X133621401Y-124351034D01*
X133759294Y-124609014D01*
X133944866Y-124835134D01*
X134170986Y-125020706D01*
X134225791Y-125050000D01*
X134170986Y-125079294D01*
X133944866Y-125264866D01*
X133759294Y-125490986D01*
X133621401Y-125748966D01*
X133536487Y-126028889D01*
X133507815Y-126320000D01*
X133536487Y-126611111D01*
X133621401Y-126891034D01*
X133759294Y-127149014D01*
X133944866Y-127375134D01*
X134170986Y-127560706D01*
X134225791Y-127590000D01*
X134170986Y-127619294D01*
X133944866Y-127804866D01*
X133759294Y-128030986D01*
X133621401Y-128288966D01*
X133536487Y-128568889D01*
X133507815Y-128860000D01*
X133536487Y-129151111D01*
X133621401Y-129431034D01*
X133759294Y-129689014D01*
X133944866Y-129915134D01*
X134170986Y-130100706D01*
X134225791Y-130130000D01*
X134170986Y-130159294D01*
X133944866Y-130344866D01*
X133759294Y-130570986D01*
X133621401Y-130828966D01*
X133536487Y-131108889D01*
X133507815Y-131400000D01*
X133536487Y-131691111D01*
X133621401Y-131971034D01*
X133759294Y-132229014D01*
X133944866Y-132455134D01*
X134170986Y-132640706D01*
X134225791Y-132670000D01*
X134170986Y-132699294D01*
X133944866Y-132884866D01*
X133759294Y-133110986D01*
X133621401Y-133368966D01*
X133536487Y-133648889D01*
X133507815Y-133940000D01*
X133536487Y-134231111D01*
X133621401Y-134511034D01*
X133759294Y-134769014D01*
X133944866Y-134995134D01*
X134170986Y-135180706D01*
X134225791Y-135210000D01*
X134170986Y-135239294D01*
X133944866Y-135424866D01*
X133759294Y-135650986D01*
X133621401Y-135908966D01*
X133536487Y-136188889D01*
X133507815Y-136480000D01*
X133536487Y-136771111D01*
X133621401Y-137051034D01*
X133759294Y-137309014D01*
X133944866Y-137535134D01*
X134170986Y-137720706D01*
X134428966Y-137858599D01*
X134708889Y-137943513D01*
X134927050Y-137965000D01*
X135072950Y-137965000D01*
X135291111Y-137943513D01*
X135571034Y-137858599D01*
X135829014Y-137720706D01*
X136055134Y-137535134D01*
X136065001Y-137523112D01*
X136065001Y-142294730D01*
X136047537Y-142252569D01*
X135857663Y-141968402D01*
X135615998Y-141726737D01*
X135331831Y-141536863D01*
X135016081Y-141406075D01*
X134680883Y-141339400D01*
X134339117Y-141339400D01*
X134003919Y-141406075D01*
X133688169Y-141536863D01*
X133404002Y-141726737D01*
X133162337Y-141968402D01*
X132972463Y-142252569D01*
X132841675Y-142568319D01*
X132775000Y-142903517D01*
X132775000Y-143245283D01*
X132841675Y-143580481D01*
X132972463Y-143896231D01*
X133162337Y-144180398D01*
X133404002Y-144422063D01*
X133688169Y-144611937D01*
X134003919Y-144742725D01*
X134339117Y-144809400D01*
X134680883Y-144809400D01*
X135016081Y-144742725D01*
X135331831Y-144611937D01*
X135615998Y-144422063D01*
X135857663Y-144180398D01*
X136047537Y-143896231D01*
X136065001Y-143854070D01*
X136065001Y-163000331D01*
X136047537Y-162958169D01*
X135857663Y-162674002D01*
X135615998Y-162432337D01*
X135331831Y-162242463D01*
X135016081Y-162111675D01*
X134680883Y-162045000D01*
X134339117Y-162045000D01*
X134003919Y-162111675D01*
X133688169Y-162242463D01*
X133404002Y-162432337D01*
X133162337Y-162674002D01*
X132972463Y-162958169D01*
X132841675Y-163273919D01*
X132775000Y-163609117D01*
X132775000Y-163950883D01*
X132841675Y-164286081D01*
X132972463Y-164601831D01*
X133162337Y-164885998D01*
X133404002Y-165127663D01*
X133688169Y-165317537D01*
X134003919Y-165448325D01*
X134339117Y-165515000D01*
X134680883Y-165515000D01*
X135016081Y-165448325D01*
X135331831Y-165317537D01*
X135615998Y-165127663D01*
X135857663Y-164885998D01*
X136047537Y-164601831D01*
X136065001Y-164559669D01*
X136065001Y-165605000D01*
X100685000Y-165605000D01*
X100685000Y-164710390D01*
X100802337Y-164885998D01*
X101044002Y-165127663D01*
X101328169Y-165317537D01*
X101643919Y-165448325D01*
X101979117Y-165515000D01*
X102320883Y-165515000D01*
X102656081Y-165448325D01*
X102971831Y-165317537D01*
X103255998Y-165127663D01*
X103497663Y-164885998D01*
X103687537Y-164601831D01*
X103818325Y-164286081D01*
X103885000Y-163950883D01*
X103885000Y-163609117D01*
X103818325Y-163273919D01*
X103687537Y-162958169D01*
X103497663Y-162674002D01*
X103255998Y-162432337D01*
X102971831Y-162242463D01*
X102656081Y-162111675D01*
X102320883Y-162045000D01*
X101979117Y-162045000D01*
X101643919Y-162111675D01*
X101328169Y-162242463D01*
X101044002Y-162432337D01*
X100802337Y-162674002D01*
X100685000Y-162849610D01*
X100685000Y-160150000D01*
X129511928Y-160150000D01*
X129511928Y-161850000D01*
X129524188Y-161974482D01*
X129560498Y-162094180D01*
X129619463Y-162204494D01*
X129698815Y-162301185D01*
X129795506Y-162380537D01*
X129905820Y-162439502D01*
X130025518Y-162475812D01*
X130150000Y-162488072D01*
X131850000Y-162488072D01*
X131974482Y-162475812D01*
X132094180Y-162439502D01*
X132204494Y-162380537D01*
X132301185Y-162301185D01*
X132380537Y-162204494D01*
X132439502Y-162094180D01*
X132475812Y-161974482D01*
X132488072Y-161850000D01*
X132488072Y-160150000D01*
X132475812Y-160025518D01*
X132439502Y-159905820D01*
X132380537Y-159795506D01*
X132301185Y-159698815D01*
X132204494Y-159619463D01*
X132094180Y-159560498D01*
X132013534Y-159536034D01*
X132097588Y-159460269D01*
X132271641Y-159226920D01*
X132396825Y-158964099D01*
X132441476Y-158816890D01*
X132320155Y-158587000D01*
X131127000Y-158587000D01*
X131127000Y-158607000D01*
X130873000Y-158607000D01*
X130873000Y-158587000D01*
X129679845Y-158587000D01*
X129558524Y-158816890D01*
X129603175Y-158964099D01*
X129728359Y-159226920D01*
X129902412Y-159460269D01*
X129986466Y-159536034D01*
X129905820Y-159560498D01*
X129795506Y-159619463D01*
X129698815Y-159698815D01*
X129619463Y-159795506D01*
X129560498Y-159905820D01*
X129524188Y-160025518D01*
X129511928Y-160150000D01*
X100685000Y-160150000D01*
X100685000Y-158103110D01*
X129558524Y-158103110D01*
X129679845Y-158333000D01*
X130873000Y-158333000D01*
X130873000Y-157139186D01*
X131127000Y-157139186D01*
X131127000Y-158333000D01*
X132320155Y-158333000D01*
X132441476Y-158103110D01*
X132396825Y-157955901D01*
X132271641Y-157693080D01*
X132097588Y-157459731D01*
X131881355Y-157264822D01*
X131631252Y-157115843D01*
X131356891Y-157018519D01*
X131127000Y-157139186D01*
X130873000Y-157139186D01*
X130643109Y-157018519D01*
X130368748Y-157115843D01*
X130118645Y-157264822D01*
X129902412Y-157459731D01*
X129728359Y-157693080D01*
X129603175Y-157955901D01*
X129558524Y-158103110D01*
X100685000Y-158103110D01*
X100685000Y-156917085D01*
X100747111Y-156958586D01*
X100917271Y-157029068D01*
X101097911Y-157065000D01*
X101282089Y-157065000D01*
X101462729Y-157029068D01*
X101510926Y-157009104D01*
X101570787Y-157015000D01*
X104566308Y-157015000D01*
X104600271Y-157029068D01*
X104780911Y-157065000D01*
X104965089Y-157065000D01*
X105145729Y-157029068D01*
X105315889Y-156958586D01*
X105469028Y-156856262D01*
X105599262Y-156726028D01*
X105622300Y-156691549D01*
X105645338Y-156726028D01*
X105775572Y-156856262D01*
X105928711Y-156958586D01*
X106098871Y-157029068D01*
X106279511Y-157065000D01*
X106463689Y-157065000D01*
X106644329Y-157029068D01*
X106814489Y-156958586D01*
X106967628Y-156856262D01*
X107097862Y-156726028D01*
X107200186Y-156572889D01*
X107270668Y-156402729D01*
X107306600Y-156222089D01*
X107306600Y-156037911D01*
X107270668Y-155857271D01*
X107200186Y-155687111D01*
X107176000Y-155650914D01*
X107176000Y-155145072D01*
X107416000Y-155145072D01*
X107540482Y-155132812D01*
X107660180Y-155096502D01*
X107770494Y-155037537D01*
X107867185Y-154958185D01*
X107946537Y-154861494D01*
X108005502Y-154751180D01*
X108041812Y-154631482D01*
X108054072Y-154507000D01*
X108054072Y-153967000D01*
X114954531Y-153967000D01*
X114998000Y-153971281D01*
X115041469Y-153967000D01*
X115041477Y-153967000D01*
X115171490Y-153954195D01*
X115338313Y-153903589D01*
X115492059Y-153821411D01*
X115626817Y-153710817D01*
X115654534Y-153677044D01*
X118860967Y-150470612D01*
X118954714Y-150479845D01*
X121558009Y-153083141D01*
X121593551Y-153126449D01*
X121766377Y-153268284D01*
X121937602Y-153359805D01*
X121963553Y-153373676D01*
X122177501Y-153438577D01*
X122399999Y-153460491D01*
X122455751Y-153455000D01*
X126407249Y-153455000D01*
X126463000Y-153460491D01*
X126518751Y-153455000D01*
X126518752Y-153455000D01*
X126557334Y-153451200D01*
X129511928Y-153451200D01*
X129511928Y-155151200D01*
X129524188Y-155275682D01*
X129560498Y-155395380D01*
X129619463Y-155505694D01*
X129698815Y-155602385D01*
X129795506Y-155681737D01*
X129905820Y-155740702D01*
X130025518Y-155777012D01*
X130150000Y-155789272D01*
X131850000Y-155789272D01*
X131974482Y-155777012D01*
X132094180Y-155740702D01*
X132204494Y-155681737D01*
X132301185Y-155602385D01*
X132380537Y-155505694D01*
X132439502Y-155395380D01*
X132475812Y-155275682D01*
X132488072Y-155151200D01*
X132488072Y-153451200D01*
X132475812Y-153326718D01*
X132439502Y-153207020D01*
X132380537Y-153096706D01*
X132301185Y-153000015D01*
X132204494Y-152920663D01*
X132094180Y-152861698D01*
X132069413Y-152854185D01*
X132115534Y-152816334D01*
X132301106Y-152590214D01*
X132438999Y-152332234D01*
X132523913Y-152052311D01*
X132552585Y-151761200D01*
X132523913Y-151470089D01*
X132438999Y-151190166D01*
X132301106Y-150932186D01*
X132115534Y-150706066D01*
X131889414Y-150520494D01*
X131631434Y-150382601D01*
X131351511Y-150297687D01*
X131133350Y-150276200D01*
X130987450Y-150276200D01*
X130769289Y-150297687D01*
X130489366Y-150382601D01*
X130231386Y-150520494D01*
X130005266Y-150706066D01*
X129819694Y-150932186D01*
X129681801Y-151190166D01*
X129596887Y-151470089D01*
X129568215Y-151761200D01*
X129596887Y-152052311D01*
X129681801Y-152332234D01*
X129819694Y-152590214D01*
X130005266Y-152816334D01*
X130018786Y-152827430D01*
X129905820Y-152861698D01*
X129795506Y-152920663D01*
X129698815Y-153000015D01*
X129619463Y-153096706D01*
X129560498Y-153207020D01*
X129524188Y-153326718D01*
X129511928Y-153451200D01*
X126557334Y-153451200D01*
X126685499Y-153438577D01*
X126899447Y-153373676D01*
X127096623Y-153268284D01*
X127269449Y-153126449D01*
X127304996Y-153083136D01*
X128369140Y-152018992D01*
X128412449Y-151983449D01*
X128554284Y-151810623D01*
X128659676Y-151613447D01*
X128724577Y-151399499D01*
X128736727Y-151276138D01*
X128746491Y-151177001D01*
X128741000Y-151121249D01*
X128741000Y-126564131D01*
X133591772Y-121713360D01*
X133621401Y-121811034D01*
X133621401Y-121811034D01*
G37*
X133621401Y-121811034D02*
X133759294Y-122069014D01*
X133944866Y-122295134D01*
X134170986Y-122480706D01*
X134225791Y-122510000D01*
X134170986Y-122539294D01*
X133944866Y-122724866D01*
X133759294Y-122950986D01*
X133621401Y-123208966D01*
X133536487Y-123488889D01*
X133507815Y-123780000D01*
X133536487Y-124071111D01*
X133621401Y-124351034D01*
X133759294Y-124609014D01*
X133944866Y-124835134D01*
X134170986Y-125020706D01*
X134225791Y-125050000D01*
X134170986Y-125079294D01*
X133944866Y-125264866D01*
X133759294Y-125490986D01*
X133621401Y-125748966D01*
X133536487Y-126028889D01*
X133507815Y-126320000D01*
X133536487Y-126611111D01*
X133621401Y-126891034D01*
X133759294Y-127149014D01*
X133944866Y-127375134D01*
X134170986Y-127560706D01*
X134225791Y-127590000D01*
X134170986Y-127619294D01*
X133944866Y-127804866D01*
X133759294Y-128030986D01*
X133621401Y-128288966D01*
X133536487Y-128568889D01*
X133507815Y-128860000D01*
X133536487Y-129151111D01*
X133621401Y-129431034D01*
X133759294Y-129689014D01*
X133944866Y-129915134D01*
X134170986Y-130100706D01*
X134225791Y-130130000D01*
X134170986Y-130159294D01*
X133944866Y-130344866D01*
X133759294Y-130570986D01*
X133621401Y-130828966D01*
X133536487Y-131108889D01*
X133507815Y-131400000D01*
X133536487Y-131691111D01*
X133621401Y-131971034D01*
X133759294Y-132229014D01*
X133944866Y-132455134D01*
X134170986Y-132640706D01*
X134225791Y-132670000D01*
X134170986Y-132699294D01*
X133944866Y-132884866D01*
X133759294Y-133110986D01*
X133621401Y-133368966D01*
X133536487Y-133648889D01*
X133507815Y-133940000D01*
X133536487Y-134231111D01*
X133621401Y-134511034D01*
X133759294Y-134769014D01*
X133944866Y-134995134D01*
X134170986Y-135180706D01*
X134225791Y-135210000D01*
X134170986Y-135239294D01*
X133944866Y-135424866D01*
X133759294Y-135650986D01*
X133621401Y-135908966D01*
X133536487Y-136188889D01*
X133507815Y-136480000D01*
X133536487Y-136771111D01*
X133621401Y-137051034D01*
X133759294Y-137309014D01*
X133944866Y-137535134D01*
X134170986Y-137720706D01*
X134428966Y-137858599D01*
X134708889Y-137943513D01*
X134927050Y-137965000D01*
X135072950Y-137965000D01*
X135291111Y-137943513D01*
X135571034Y-137858599D01*
X135829014Y-137720706D01*
X136055134Y-137535134D01*
X136065001Y-137523112D01*
X136065001Y-142294730D01*
X136047537Y-142252569D01*
X135857663Y-141968402D01*
X135615998Y-141726737D01*
X135331831Y-141536863D01*
X135016081Y-141406075D01*
X134680883Y-141339400D01*
X134339117Y-141339400D01*
X134003919Y-141406075D01*
X133688169Y-141536863D01*
X133404002Y-141726737D01*
X133162337Y-141968402D01*
X132972463Y-142252569D01*
X132841675Y-142568319D01*
X132775000Y-142903517D01*
X132775000Y-143245283D01*
X132841675Y-143580481D01*
X132972463Y-143896231D01*
X133162337Y-144180398D01*
X133404002Y-144422063D01*
X133688169Y-144611937D01*
X134003919Y-144742725D01*
X134339117Y-144809400D01*
X134680883Y-144809400D01*
X135016081Y-144742725D01*
X135331831Y-144611937D01*
X135615998Y-144422063D01*
X135857663Y-144180398D01*
X136047537Y-143896231D01*
X136065001Y-143854070D01*
X136065001Y-163000331D01*
X136047537Y-162958169D01*
X135857663Y-162674002D01*
X135615998Y-162432337D01*
X135331831Y-162242463D01*
X135016081Y-162111675D01*
X134680883Y-162045000D01*
X134339117Y-162045000D01*
X134003919Y-162111675D01*
X133688169Y-162242463D01*
X133404002Y-162432337D01*
X133162337Y-162674002D01*
X132972463Y-162958169D01*
X132841675Y-163273919D01*
X132775000Y-163609117D01*
X132775000Y-163950883D01*
X132841675Y-164286081D01*
X132972463Y-164601831D01*
X133162337Y-164885998D01*
X133404002Y-165127663D01*
X133688169Y-165317537D01*
X134003919Y-165448325D01*
X134339117Y-165515000D01*
X134680883Y-165515000D01*
X135016081Y-165448325D01*
X135331831Y-165317537D01*
X135615998Y-165127663D01*
X135857663Y-164885998D01*
X136047537Y-164601831D01*
X136065001Y-164559669D01*
X136065001Y-165605000D01*
X100685000Y-165605000D01*
X100685000Y-164710390D01*
X100802337Y-164885998D01*
X101044002Y-165127663D01*
X101328169Y-165317537D01*
X101643919Y-165448325D01*
X101979117Y-165515000D01*
X102320883Y-165515000D01*
X102656081Y-165448325D01*
X102971831Y-165317537D01*
X103255998Y-165127663D01*
X103497663Y-164885998D01*
X103687537Y-164601831D01*
X103818325Y-164286081D01*
X103885000Y-163950883D01*
X103885000Y-163609117D01*
X103818325Y-163273919D01*
X103687537Y-162958169D01*
X103497663Y-162674002D01*
X103255998Y-162432337D01*
X102971831Y-162242463D01*
X102656081Y-162111675D01*
X102320883Y-162045000D01*
X101979117Y-162045000D01*
X101643919Y-162111675D01*
X101328169Y-162242463D01*
X101044002Y-162432337D01*
X100802337Y-162674002D01*
X100685000Y-162849610D01*
X100685000Y-160150000D01*
X129511928Y-160150000D01*
X129511928Y-161850000D01*
X129524188Y-161974482D01*
X129560498Y-162094180D01*
X129619463Y-162204494D01*
X129698815Y-162301185D01*
X129795506Y-162380537D01*
X129905820Y-162439502D01*
X130025518Y-162475812D01*
X130150000Y-162488072D01*
X131850000Y-162488072D01*
X131974482Y-162475812D01*
X132094180Y-162439502D01*
X132204494Y-162380537D01*
X132301185Y-162301185D01*
X132380537Y-162204494D01*
X132439502Y-162094180D01*
X132475812Y-161974482D01*
X132488072Y-161850000D01*
X132488072Y-160150000D01*
X132475812Y-160025518D01*
X132439502Y-159905820D01*
X132380537Y-159795506D01*
X132301185Y-159698815D01*
X132204494Y-159619463D01*
X132094180Y-159560498D01*
X132013534Y-159536034D01*
X132097588Y-159460269D01*
X132271641Y-159226920D01*
X132396825Y-158964099D01*
X132441476Y-158816890D01*
X132320155Y-158587000D01*
X131127000Y-158587000D01*
X131127000Y-158607000D01*
X130873000Y-158607000D01*
X130873000Y-158587000D01*
X129679845Y-158587000D01*
X129558524Y-158816890D01*
X129603175Y-158964099D01*
X129728359Y-159226920D01*
X129902412Y-159460269D01*
X129986466Y-159536034D01*
X129905820Y-159560498D01*
X129795506Y-159619463D01*
X129698815Y-159698815D01*
X129619463Y-159795506D01*
X129560498Y-159905820D01*
X129524188Y-160025518D01*
X129511928Y-160150000D01*
X100685000Y-160150000D01*
X100685000Y-158103110D01*
X129558524Y-158103110D01*
X129679845Y-158333000D01*
X130873000Y-158333000D01*
X130873000Y-157139186D01*
X131127000Y-157139186D01*
X131127000Y-158333000D01*
X132320155Y-158333000D01*
X132441476Y-158103110D01*
X132396825Y-157955901D01*
X132271641Y-157693080D01*
X132097588Y-157459731D01*
X131881355Y-157264822D01*
X131631252Y-157115843D01*
X131356891Y-157018519D01*
X131127000Y-157139186D01*
X130873000Y-157139186D01*
X130643109Y-157018519D01*
X130368748Y-157115843D01*
X130118645Y-157264822D01*
X129902412Y-157459731D01*
X129728359Y-157693080D01*
X129603175Y-157955901D01*
X129558524Y-158103110D01*
X100685000Y-158103110D01*
X100685000Y-156917085D01*
X100747111Y-156958586D01*
X100917271Y-157029068D01*
X101097911Y-157065000D01*
X101282089Y-157065000D01*
X101462729Y-157029068D01*
X101510926Y-157009104D01*
X101570787Y-157015000D01*
X104566308Y-157015000D01*
X104600271Y-157029068D01*
X104780911Y-157065000D01*
X104965089Y-157065000D01*
X105145729Y-157029068D01*
X105315889Y-156958586D01*
X105469028Y-156856262D01*
X105599262Y-156726028D01*
X105622300Y-156691549D01*
X105645338Y-156726028D01*
X105775572Y-156856262D01*
X105928711Y-156958586D01*
X106098871Y-157029068D01*
X106279511Y-157065000D01*
X106463689Y-157065000D01*
X106644329Y-157029068D01*
X106814489Y-156958586D01*
X106967628Y-156856262D01*
X107097862Y-156726028D01*
X107200186Y-156572889D01*
X107270668Y-156402729D01*
X107306600Y-156222089D01*
X107306600Y-156037911D01*
X107270668Y-155857271D01*
X107200186Y-155687111D01*
X107176000Y-155650914D01*
X107176000Y-155145072D01*
X107416000Y-155145072D01*
X107540482Y-155132812D01*
X107660180Y-155096502D01*
X107770494Y-155037537D01*
X107867185Y-154958185D01*
X107946537Y-154861494D01*
X108005502Y-154751180D01*
X108041812Y-154631482D01*
X108054072Y-154507000D01*
X108054072Y-153967000D01*
X114954531Y-153967000D01*
X114998000Y-153971281D01*
X115041469Y-153967000D01*
X115041477Y-153967000D01*
X115171490Y-153954195D01*
X115338313Y-153903589D01*
X115492059Y-153821411D01*
X115626817Y-153710817D01*
X115654534Y-153677044D01*
X118860967Y-150470612D01*
X118954714Y-150479845D01*
X121558009Y-153083141D01*
X121593551Y-153126449D01*
X121766377Y-153268284D01*
X121937602Y-153359805D01*
X121963553Y-153373676D01*
X122177501Y-153438577D01*
X122399999Y-153460491D01*
X122455751Y-153455000D01*
X126407249Y-153455000D01*
X126463000Y-153460491D01*
X126518751Y-153455000D01*
X126518752Y-153455000D01*
X126557334Y-153451200D01*
X129511928Y-153451200D01*
X129511928Y-155151200D01*
X129524188Y-155275682D01*
X129560498Y-155395380D01*
X129619463Y-155505694D01*
X129698815Y-155602385D01*
X129795506Y-155681737D01*
X129905820Y-155740702D01*
X130025518Y-155777012D01*
X130150000Y-155789272D01*
X131850000Y-155789272D01*
X131974482Y-155777012D01*
X132094180Y-155740702D01*
X132204494Y-155681737D01*
X132301185Y-155602385D01*
X132380537Y-155505694D01*
X132439502Y-155395380D01*
X132475812Y-155275682D01*
X132488072Y-155151200D01*
X132488072Y-153451200D01*
X132475812Y-153326718D01*
X132439502Y-153207020D01*
X132380537Y-153096706D01*
X132301185Y-153000015D01*
X132204494Y-152920663D01*
X132094180Y-152861698D01*
X132069413Y-152854185D01*
X132115534Y-152816334D01*
X132301106Y-152590214D01*
X132438999Y-152332234D01*
X132523913Y-152052311D01*
X132552585Y-151761200D01*
X132523913Y-151470089D01*
X132438999Y-151190166D01*
X132301106Y-150932186D01*
X132115534Y-150706066D01*
X131889414Y-150520494D01*
X131631434Y-150382601D01*
X131351511Y-150297687D01*
X131133350Y-150276200D01*
X130987450Y-150276200D01*
X130769289Y-150297687D01*
X130489366Y-150382601D01*
X130231386Y-150520494D01*
X130005266Y-150706066D01*
X129819694Y-150932186D01*
X129681801Y-151190166D01*
X129596887Y-151470089D01*
X129568215Y-151761200D01*
X129596887Y-152052311D01*
X129681801Y-152332234D01*
X129819694Y-152590214D01*
X130005266Y-152816334D01*
X130018786Y-152827430D01*
X129905820Y-152861698D01*
X129795506Y-152920663D01*
X129698815Y-153000015D01*
X129619463Y-153096706D01*
X129560498Y-153207020D01*
X129524188Y-153326718D01*
X129511928Y-153451200D01*
X126557334Y-153451200D01*
X126685499Y-153438577D01*
X126899447Y-153373676D01*
X127096623Y-153268284D01*
X127269449Y-153126449D01*
X127304996Y-153083136D01*
X128369140Y-152018992D01*
X128412449Y-151983449D01*
X128554284Y-151810623D01*
X128659676Y-151613447D01*
X128724577Y-151399499D01*
X128736727Y-151276138D01*
X128746491Y-151177001D01*
X128741000Y-151121249D01*
X128741000Y-126564131D01*
X133591772Y-121713360D01*
X133621401Y-121811034D01*
G36*
X101127815Y-152758185D02*
G01*
X101152000Y-152778033D01*
X101152000Y-152783250D01*
X101310750Y-152942000D01*
X101420932Y-152929086D01*
X101431069Y-152925699D01*
X101454518Y-152932812D01*
X101527820Y-152940031D01*
X101531805Y-152980490D01*
X101582412Y-153147313D01*
X101626998Y-153230729D01*
X101626998Y-153301748D01*
X101547250Y-153222000D01*
X101437068Y-153234914D01*
X101426931Y-153238301D01*
X101403482Y-153231188D01*
X101279000Y-153218928D01*
X101116286Y-153218928D01*
X101104000Y-153217718D01*
X101091715Y-153218928D01*
X100929000Y-153218928D01*
X100804518Y-153231188D01*
X100685000Y-153267443D01*
X100685000Y-152894979D01*
X100787068Y-152929086D01*
X100897250Y-152942000D01*
X101056000Y-152783250D01*
X101056000Y-152670678D01*
X101127815Y-152758185D01*
X101127815Y-152758185D01*
G37*
X101127815Y-152758185D02*
X101152000Y-152778033D01*
X101152000Y-152783250D01*
X101310750Y-152942000D01*
X101420932Y-152929086D01*
X101431069Y-152925699D01*
X101454518Y-152932812D01*
X101527820Y-152940031D01*
X101531805Y-152980490D01*
X101582412Y-153147313D01*
X101626998Y-153230729D01*
X101626998Y-153301748D01*
X101547250Y-153222000D01*
X101437068Y-153234914D01*
X101426931Y-153238301D01*
X101403482Y-153231188D01*
X101279000Y-153218928D01*
X101116286Y-153218928D01*
X101104000Y-153217718D01*
X101091715Y-153218928D01*
X100929000Y-153218928D01*
X100804518Y-153231188D01*
X100685000Y-153267443D01*
X100685000Y-152894979D01*
X100787068Y-152929086D01*
X100897250Y-152942000D01*
X101056000Y-152783250D01*
X101056000Y-152670678D01*
X101127815Y-152758185D01*
G36*
X104139750Y-151805000D02*
G01*
X104743000Y-151805000D01*
X104743000Y-151785000D01*
X104777928Y-151785000D01*
X104777928Y-152079000D01*
X104743000Y-152079000D01*
X104743000Y-152059000D01*
X104139750Y-152059000D01*
X104001750Y-152197000D01*
X103867072Y-152197000D01*
X103867072Y-151807000D01*
X103866811Y-151804347D01*
X104002954Y-151668204D01*
X104139750Y-151805000D01*
X104139750Y-151805000D01*
G37*
X104139750Y-151805000D02*
X104743000Y-151805000D01*
X104743000Y-151785000D01*
X104777928Y-151785000D01*
X104777928Y-152079000D01*
X104743000Y-152079000D01*
X104743000Y-152059000D01*
X104139750Y-152059000D01*
X104001750Y-152197000D01*
X103867072Y-152197000D01*
X103867072Y-151807000D01*
X103866811Y-151804347D01*
X104002954Y-151668204D01*
X104139750Y-151805000D01*
G36*
X118894506Y-147526085D02*
G01*
X118788889Y-147536487D01*
X118508966Y-147621401D01*
X118250986Y-147759294D01*
X118024866Y-147944866D01*
X117839294Y-148170986D01*
X117804799Y-148235523D01*
X117735178Y-148118645D01*
X117540269Y-147902412D01*
X117306920Y-147728359D01*
X117044099Y-147603175D01*
X116896890Y-147558524D01*
X116667000Y-147679845D01*
X116667000Y-148873000D01*
X116687000Y-148873000D01*
X116687000Y-149127000D01*
X116667000Y-149127000D01*
X116667000Y-149147000D01*
X116413000Y-149147000D01*
X116413000Y-149127000D01*
X116393000Y-149127000D01*
X116393000Y-148873000D01*
X116413000Y-148873000D01*
X116413000Y-147679845D01*
X116183110Y-147558524D01*
X116035901Y-147603175D01*
X115773080Y-147728359D01*
X115539731Y-147902412D01*
X115463966Y-147986466D01*
X115439502Y-147905820D01*
X115380537Y-147795506D01*
X115301185Y-147698815D01*
X115204494Y-147619463D01*
X115094180Y-147560498D01*
X114974482Y-147524188D01*
X114850000Y-147511928D01*
X113150000Y-147511928D01*
X113025518Y-147524188D01*
X112905820Y-147560498D01*
X112795506Y-147619463D01*
X112698815Y-147698815D01*
X112619463Y-147795506D01*
X112560498Y-147905820D01*
X112524188Y-148025518D01*
X112511928Y-148150000D01*
X112511928Y-149850000D01*
X112524188Y-149974482D01*
X112560498Y-150094180D01*
X112619463Y-150204494D01*
X112698815Y-150301185D01*
X112795506Y-150380537D01*
X112905820Y-150439502D01*
X113025518Y-150475812D01*
X113150000Y-150488072D01*
X114850000Y-150488072D01*
X114974482Y-150475812D01*
X115094180Y-150439502D01*
X115204494Y-150380537D01*
X115301185Y-150301185D01*
X115380537Y-150204494D01*
X115439502Y-150094180D01*
X115463966Y-150013534D01*
X115539731Y-150097588D01*
X115773080Y-150271641D01*
X116035901Y-150396825D01*
X116183110Y-150441476D01*
X116412998Y-150320156D01*
X116412998Y-150415423D01*
X114631422Y-152197000D01*
X108561157Y-152197000D01*
X108632811Y-152125346D01*
X108662764Y-152100764D01*
X108760862Y-151981233D01*
X108833754Y-151844860D01*
X108878641Y-151696887D01*
X108890000Y-151581561D01*
X108890000Y-151581554D01*
X108893797Y-151543001D01*
X108890000Y-151504448D01*
X108890000Y-149509368D01*
X108945313Y-149492588D01*
X109099059Y-149410410D01*
X109200046Y-149327532D01*
X112307579Y-146220000D01*
X117588422Y-146220000D01*
X118894506Y-147526085D01*
X118894506Y-147526085D01*
G37*
X118894506Y-147526085D02*
X118788889Y-147536487D01*
X118508966Y-147621401D01*
X118250986Y-147759294D01*
X118024866Y-147944866D01*
X117839294Y-148170986D01*
X117804799Y-148235523D01*
X117735178Y-148118645D01*
X117540269Y-147902412D01*
X117306920Y-147728359D01*
X117044099Y-147603175D01*
X116896890Y-147558524D01*
X116667000Y-147679845D01*
X116667000Y-148873000D01*
X116687000Y-148873000D01*
X116687000Y-149127000D01*
X116667000Y-149127000D01*
X116667000Y-149147000D01*
X116413000Y-149147000D01*
X116413000Y-149127000D01*
X116393000Y-149127000D01*
X116393000Y-148873000D01*
X116413000Y-148873000D01*
X116413000Y-147679845D01*
X116183110Y-147558524D01*
X116035901Y-147603175D01*
X115773080Y-147728359D01*
X115539731Y-147902412D01*
X115463966Y-147986466D01*
X115439502Y-147905820D01*
X115380537Y-147795506D01*
X115301185Y-147698815D01*
X115204494Y-147619463D01*
X115094180Y-147560498D01*
X114974482Y-147524188D01*
X114850000Y-147511928D01*
X113150000Y-147511928D01*
X113025518Y-147524188D01*
X112905820Y-147560498D01*
X112795506Y-147619463D01*
X112698815Y-147698815D01*
X112619463Y-147795506D01*
X112560498Y-147905820D01*
X112524188Y-148025518D01*
X112511928Y-148150000D01*
X112511928Y-149850000D01*
X112524188Y-149974482D01*
X112560498Y-150094180D01*
X112619463Y-150204494D01*
X112698815Y-150301185D01*
X112795506Y-150380537D01*
X112905820Y-150439502D01*
X113025518Y-150475812D01*
X113150000Y-150488072D01*
X114850000Y-150488072D01*
X114974482Y-150475812D01*
X115094180Y-150439502D01*
X115204494Y-150380537D01*
X115301185Y-150301185D01*
X115380537Y-150204494D01*
X115439502Y-150094180D01*
X115463966Y-150013534D01*
X115539731Y-150097588D01*
X115773080Y-150271641D01*
X116035901Y-150396825D01*
X116183110Y-150441476D01*
X116412998Y-150320156D01*
X116412998Y-150415423D01*
X114631422Y-152197000D01*
X108561157Y-152197000D01*
X108632811Y-152125346D01*
X108662764Y-152100764D01*
X108760862Y-151981233D01*
X108833754Y-151844860D01*
X108878641Y-151696887D01*
X108890000Y-151581561D01*
X108890000Y-151581554D01*
X108893797Y-151543001D01*
X108890000Y-151504448D01*
X108890000Y-149509368D01*
X108945313Y-149492588D01*
X109099059Y-149410410D01*
X109200046Y-149327532D01*
X112307579Y-146220000D01*
X117588422Y-146220000D01*
X118894506Y-147526085D01*
G36*
X100742414Y-151111889D02*
G01*
X100790907Y-151184464D01*
X100787068Y-151184914D01*
X100685000Y-151219021D01*
X100685000Y-150973278D01*
X100742414Y-151111889D01*
X100742414Y-151111889D01*
G37*
X100742414Y-151111889D02*
X100790907Y-151184464D01*
X100787068Y-151184914D01*
X100685000Y-151219021D01*
X100685000Y-150973278D01*
X100742414Y-151111889D01*
G36*
X133621401Y-114191034D02*
G01*
X133759294Y-114449014D01*
X133944866Y-114675134D01*
X134170986Y-114860706D01*
X134225791Y-114890000D01*
X134170986Y-114919294D01*
X133944866Y-115104866D01*
X133759294Y-115330986D01*
X133621401Y-115588966D01*
X133536487Y-115868889D01*
X133507815Y-116160000D01*
X133536487Y-116451111D01*
X133621401Y-116731034D01*
X133759294Y-116989014D01*
X133944866Y-117215134D01*
X134170986Y-117400706D01*
X134225791Y-117430000D01*
X134170986Y-117459294D01*
X133944866Y-117644866D01*
X133759294Y-117870986D01*
X133621401Y-118128966D01*
X133536487Y-118408889D01*
X133520155Y-118574713D01*
X126842860Y-125252009D01*
X126799552Y-125287551D01*
X126657717Y-125460377D01*
X126623509Y-125524377D01*
X126552324Y-125657554D01*
X126487423Y-125871502D01*
X126465509Y-126094000D01*
X126471001Y-126149762D01*
X126471000Y-150706868D01*
X125992869Y-151185000D01*
X122870132Y-151185000D01*
X122093360Y-150408228D01*
X122191034Y-150378599D01*
X122449014Y-150240706D01*
X122675134Y-150055134D01*
X122860706Y-149829014D01*
X122998599Y-149571034D01*
X123083513Y-149291111D01*
X123112185Y-149000000D01*
X123083513Y-148708889D01*
X122998599Y-148428966D01*
X122860706Y-148170986D01*
X122755000Y-148042183D01*
X122755000Y-124930131D01*
X133591772Y-114093360D01*
X133621401Y-114191034D01*
X133621401Y-114191034D01*
G37*
X133621401Y-114191034D02*
X133759294Y-114449014D01*
X133944866Y-114675134D01*
X134170986Y-114860706D01*
X134225791Y-114890000D01*
X134170986Y-114919294D01*
X133944866Y-115104866D01*
X133759294Y-115330986D01*
X133621401Y-115588966D01*
X133536487Y-115868889D01*
X133507815Y-116160000D01*
X133536487Y-116451111D01*
X133621401Y-116731034D01*
X133759294Y-116989014D01*
X133944866Y-117215134D01*
X134170986Y-117400706D01*
X134225791Y-117430000D01*
X134170986Y-117459294D01*
X133944866Y-117644866D01*
X133759294Y-117870986D01*
X133621401Y-118128966D01*
X133536487Y-118408889D01*
X133520155Y-118574713D01*
X126842860Y-125252009D01*
X126799552Y-125287551D01*
X126657717Y-125460377D01*
X126623509Y-125524377D01*
X126552324Y-125657554D01*
X126487423Y-125871502D01*
X126465509Y-126094000D01*
X126471001Y-126149762D01*
X126471000Y-150706868D01*
X125992869Y-151185000D01*
X122870132Y-151185000D01*
X122093360Y-150408228D01*
X122191034Y-150378599D01*
X122449014Y-150240706D01*
X122675134Y-150055134D01*
X122860706Y-149829014D01*
X122998599Y-149571034D01*
X123083513Y-149291111D01*
X123112185Y-149000000D01*
X123083513Y-148708889D01*
X122998599Y-148428966D01*
X122860706Y-148170986D01*
X122755000Y-148042183D01*
X122755000Y-124930131D01*
X133591772Y-114093360D01*
X133621401Y-114191034D01*
G36*
X101977000Y-136353000D02*
G01*
X101997000Y-136353000D01*
X101997000Y-136607000D01*
X101977000Y-136607000D01*
X101977000Y-137800814D01*
X102206891Y-137921481D01*
X102481252Y-137824157D01*
X102731355Y-137675178D01*
X102945001Y-137482601D01*
X102945000Y-148852447D01*
X102941203Y-148891000D01*
X102945000Y-148929553D01*
X102945000Y-148929560D01*
X102956359Y-149044886D01*
X102979751Y-149122000D01*
X102752552Y-149122000D01*
X102713999Y-149118203D01*
X102675446Y-149122000D01*
X102675439Y-149122000D01*
X102574490Y-149131943D01*
X102560112Y-149133359D01*
X102455612Y-149165059D01*
X102412140Y-149178246D01*
X102275767Y-149251138D01*
X102156236Y-149349236D01*
X102131655Y-149379188D01*
X101876190Y-149634653D01*
X101846236Y-149659236D01*
X101767787Y-149754826D01*
X101663089Y-149734000D01*
X101478911Y-149734000D01*
X101298271Y-149769932D01*
X101128111Y-149840414D01*
X100974972Y-149942738D01*
X100844738Y-150072972D01*
X100742414Y-150226111D01*
X100685000Y-150364722D01*
X100685000Y-137389891D01*
X100752412Y-137480269D01*
X100968645Y-137675178D01*
X101218748Y-137824157D01*
X101493109Y-137921481D01*
X101723000Y-137800814D01*
X101723000Y-136607000D01*
X101703000Y-136607000D01*
X101703000Y-136353000D01*
X101723000Y-136353000D01*
X101723000Y-136333000D01*
X101977000Y-136333000D01*
X101977000Y-136353000D01*
X101977000Y-136353000D01*
G37*
X101977000Y-136353000D02*
X101997000Y-136353000D01*
X101997000Y-136607000D01*
X101977000Y-136607000D01*
X101977000Y-137800814D01*
X102206891Y-137921481D01*
X102481252Y-137824157D01*
X102731355Y-137675178D01*
X102945001Y-137482601D01*
X102945000Y-148852447D01*
X102941203Y-148891000D01*
X102945000Y-148929553D01*
X102945000Y-148929560D01*
X102956359Y-149044886D01*
X102979751Y-149122000D01*
X102752552Y-149122000D01*
X102713999Y-149118203D01*
X102675446Y-149122000D01*
X102675439Y-149122000D01*
X102574490Y-149131943D01*
X102560112Y-149133359D01*
X102455612Y-149165059D01*
X102412140Y-149178246D01*
X102275767Y-149251138D01*
X102156236Y-149349236D01*
X102131655Y-149379188D01*
X101876190Y-149634653D01*
X101846236Y-149659236D01*
X101767787Y-149754826D01*
X101663089Y-149734000D01*
X101478911Y-149734000D01*
X101298271Y-149769932D01*
X101128111Y-149840414D01*
X100974972Y-149942738D01*
X100844738Y-150072972D01*
X100742414Y-150226111D01*
X100685000Y-150364722D01*
X100685000Y-137389891D01*
X100752412Y-137480269D01*
X100968645Y-137675178D01*
X101218748Y-137824157D01*
X101493109Y-137921481D01*
X101723000Y-137800814D01*
X101723000Y-136607000D01*
X101703000Y-136607000D01*
X101703000Y-136353000D01*
X101723000Y-136353000D01*
X101723000Y-136333000D01*
X101977000Y-136333000D01*
X101977000Y-136353000D01*
G36*
X106705000Y-147509072D02*
G01*
X106902000Y-147509072D01*
X106902000Y-147732928D01*
X106705000Y-147732928D01*
X106608000Y-147742482D01*
X106608000Y-147499518D01*
X106705000Y-147509072D01*
X106705000Y-147509072D01*
G37*
X106705000Y-147509072D02*
X106902000Y-147509072D01*
X106902000Y-147732928D01*
X106705000Y-147732928D01*
X106608000Y-147742482D01*
X106608000Y-147499518D01*
X106705000Y-147509072D01*
G36*
X133619463Y-107204494D02*
G01*
X133698815Y-107301185D01*
X133795506Y-107380537D01*
X133905820Y-107439502D01*
X133986466Y-107463966D01*
X133902412Y-107539731D01*
X133728359Y-107773080D01*
X133603175Y-108035901D01*
X133558524Y-108183110D01*
X133679845Y-108413000D01*
X134873000Y-108413000D01*
X134873000Y-108393000D01*
X135127000Y-108393000D01*
X135127000Y-108413000D01*
X135147000Y-108413000D01*
X135147000Y-108667000D01*
X135127000Y-108667000D01*
X135127000Y-108687000D01*
X134873000Y-108687000D01*
X134873000Y-108667000D01*
X133679845Y-108667000D01*
X133558524Y-108896890D01*
X133603175Y-109044099D01*
X133728359Y-109306920D01*
X133902412Y-109540269D01*
X134118645Y-109735178D01*
X134235523Y-109804799D01*
X134170986Y-109839294D01*
X133944866Y-110024866D01*
X133759294Y-110250986D01*
X133621401Y-110508966D01*
X133536487Y-110788889D01*
X133520155Y-110954713D01*
X120856860Y-123618009D01*
X120813552Y-123653551D01*
X120671717Y-123826377D01*
X120615384Y-123931770D01*
X120566324Y-124023554D01*
X120501423Y-124237502D01*
X120479509Y-124460000D01*
X120485001Y-124515762D01*
X120485000Y-146613422D01*
X118611534Y-144739956D01*
X118583817Y-144706183D01*
X118449059Y-144595589D01*
X118295313Y-144513411D01*
X118128490Y-144462805D01*
X117998477Y-144450000D01*
X117998469Y-144450000D01*
X117955000Y-144445719D01*
X117911531Y-144450000D01*
X111984465Y-144450000D01*
X111940999Y-144445719D01*
X111897533Y-144450000D01*
X111897523Y-144450000D01*
X111767510Y-144462805D01*
X111600687Y-144513411D01*
X111446941Y-144595589D01*
X111446939Y-144595590D01*
X111446940Y-144595590D01*
X111345953Y-144678468D01*
X111345951Y-144678470D01*
X111312183Y-144706183D01*
X111284470Y-144739951D01*
X108877576Y-147146846D01*
X108894502Y-147115180D01*
X108930812Y-146995482D01*
X108943072Y-146871000D01*
X108943072Y-146271000D01*
X108940569Y-146245588D01*
X109324258Y-145861899D01*
X109406028Y-145807262D01*
X109536262Y-145677028D01*
X109638586Y-145523889D01*
X109709068Y-145353729D01*
X109745000Y-145173089D01*
X109745000Y-144988911D01*
X109709068Y-144808271D01*
X109638586Y-144638111D01*
X109536262Y-144484972D01*
X109406028Y-144354738D01*
X109252889Y-144252414D01*
X109082729Y-144181932D01*
X108902089Y-144146000D01*
X108717911Y-144146000D01*
X108645814Y-144160341D01*
X113544155Y-139262000D01*
X117064880Y-139262000D01*
X117130111Y-139305586D01*
X117300271Y-139376068D01*
X117480911Y-139412000D01*
X117665089Y-139412000D01*
X117845729Y-139376068D01*
X118015889Y-139305586D01*
X118169028Y-139203262D01*
X118299262Y-139073028D01*
X118401586Y-138919889D01*
X118472068Y-138749729D01*
X118508000Y-138569089D01*
X118508000Y-138384911D01*
X118472068Y-138204271D01*
X118401586Y-138034111D01*
X118299262Y-137880972D01*
X118169028Y-137750738D01*
X118015889Y-137648414D01*
X117845729Y-137577932D01*
X117665089Y-137542000D01*
X117480911Y-137542000D01*
X117300271Y-137577932D01*
X117130111Y-137648414D01*
X117064880Y-137692000D01*
X113257554Y-137692000D01*
X113218998Y-137688203D01*
X113180442Y-137692000D01*
X113180437Y-137692000D01*
X113140024Y-137695980D01*
X113065111Y-137703358D01*
X112917138Y-137748246D01*
X112780765Y-137821138D01*
X112661234Y-137919236D01*
X112636651Y-137949190D01*
X107033242Y-143552599D01*
X107030000Y-143519678D01*
X107030000Y-140210569D01*
X107076449Y-140172449D01*
X107218284Y-139999623D01*
X107323676Y-139802446D01*
X107328897Y-139785234D01*
X111566133Y-135548000D01*
X119168249Y-135548000D01*
X119224000Y-135553491D01*
X119446499Y-135531577D01*
X119660447Y-135466676D01*
X119857623Y-135361284D01*
X120030449Y-135219449D01*
X120172284Y-135046623D01*
X120277676Y-134849447D01*
X120342577Y-134635499D01*
X120359000Y-134468752D01*
X120364491Y-134413000D01*
X120359000Y-134357248D01*
X120359000Y-120396131D01*
X133595489Y-107159643D01*
X133619463Y-107204494D01*
X133619463Y-107204494D01*
G37*
X133619463Y-107204494D02*
X133698815Y-107301185D01*
X133795506Y-107380537D01*
X133905820Y-107439502D01*
X133986466Y-107463966D01*
X133902412Y-107539731D01*
X133728359Y-107773080D01*
X133603175Y-108035901D01*
X133558524Y-108183110D01*
X133679845Y-108413000D01*
X134873000Y-108413000D01*
X134873000Y-108393000D01*
X135127000Y-108393000D01*
X135127000Y-108413000D01*
X135147000Y-108413000D01*
X135147000Y-108667000D01*
X135127000Y-108667000D01*
X135127000Y-108687000D01*
X134873000Y-108687000D01*
X134873000Y-108667000D01*
X133679845Y-108667000D01*
X133558524Y-108896890D01*
X133603175Y-109044099D01*
X133728359Y-109306920D01*
X133902412Y-109540269D01*
X134118645Y-109735178D01*
X134235523Y-109804799D01*
X134170986Y-109839294D01*
X133944866Y-110024866D01*
X133759294Y-110250986D01*
X133621401Y-110508966D01*
X133536487Y-110788889D01*
X133520155Y-110954713D01*
X120856860Y-123618009D01*
X120813552Y-123653551D01*
X120671717Y-123826377D01*
X120615384Y-123931770D01*
X120566324Y-124023554D01*
X120501423Y-124237502D01*
X120479509Y-124460000D01*
X120485001Y-124515762D01*
X120485000Y-146613422D01*
X118611534Y-144739956D01*
X118583817Y-144706183D01*
X118449059Y-144595589D01*
X118295313Y-144513411D01*
X118128490Y-144462805D01*
X117998477Y-144450000D01*
X117998469Y-144450000D01*
X117955000Y-144445719D01*
X117911531Y-144450000D01*
X111984465Y-144450000D01*
X111940999Y-144445719D01*
X111897533Y-144450000D01*
X111897523Y-144450000D01*
X111767510Y-144462805D01*
X111600687Y-144513411D01*
X111446941Y-144595589D01*
X111446939Y-144595590D01*
X111446940Y-144595590D01*
X111345953Y-144678468D01*
X111345951Y-144678470D01*
X111312183Y-144706183D01*
X111284470Y-144739951D01*
X108877576Y-147146846D01*
X108894502Y-147115180D01*
X108930812Y-146995482D01*
X108943072Y-146871000D01*
X108943072Y-146271000D01*
X108940569Y-146245588D01*
X109324258Y-145861899D01*
X109406028Y-145807262D01*
X109536262Y-145677028D01*
X109638586Y-145523889D01*
X109709068Y-145353729D01*
X109745000Y-145173089D01*
X109745000Y-144988911D01*
X109709068Y-144808271D01*
X109638586Y-144638111D01*
X109536262Y-144484972D01*
X109406028Y-144354738D01*
X109252889Y-144252414D01*
X109082729Y-144181932D01*
X108902089Y-144146000D01*
X108717911Y-144146000D01*
X108645814Y-144160341D01*
X113544155Y-139262000D01*
X117064880Y-139262000D01*
X117130111Y-139305586D01*
X117300271Y-139376068D01*
X117480911Y-139412000D01*
X117665089Y-139412000D01*
X117845729Y-139376068D01*
X118015889Y-139305586D01*
X118169028Y-139203262D01*
X118299262Y-139073028D01*
X118401586Y-138919889D01*
X118472068Y-138749729D01*
X118508000Y-138569089D01*
X118508000Y-138384911D01*
X118472068Y-138204271D01*
X118401586Y-138034111D01*
X118299262Y-137880972D01*
X118169028Y-137750738D01*
X118015889Y-137648414D01*
X117845729Y-137577932D01*
X117665089Y-137542000D01*
X117480911Y-137542000D01*
X117300271Y-137577932D01*
X117130111Y-137648414D01*
X117064880Y-137692000D01*
X113257554Y-137692000D01*
X113218998Y-137688203D01*
X113180442Y-137692000D01*
X113180437Y-137692000D01*
X113140024Y-137695980D01*
X113065111Y-137703358D01*
X112917138Y-137748246D01*
X112780765Y-137821138D01*
X112661234Y-137919236D01*
X112636651Y-137949190D01*
X107033242Y-143552599D01*
X107030000Y-143519678D01*
X107030000Y-140210569D01*
X107076449Y-140172449D01*
X107218284Y-139999623D01*
X107323676Y-139802446D01*
X107328897Y-139785234D01*
X111566133Y-135548000D01*
X119168249Y-135548000D01*
X119224000Y-135553491D01*
X119446499Y-135531577D01*
X119660447Y-135466676D01*
X119857623Y-135361284D01*
X120030449Y-135219449D01*
X120172284Y-135046623D01*
X120277676Y-134849447D01*
X120342577Y-134635499D01*
X120359000Y-134468752D01*
X120364491Y-134413000D01*
X120359000Y-134357248D01*
X120359000Y-120396131D01*
X133595489Y-107159643D01*
X133619463Y-107204494D01*
G36*
X109524188Y-100775518D02*
G01*
X109511928Y-100900000D01*
X109515000Y-102714250D01*
X109673750Y-102873000D01*
X110698000Y-102873000D01*
X110698000Y-102853000D01*
X110952000Y-102853000D01*
X110952000Y-102873000D01*
X111976250Y-102873000D01*
X112135000Y-102714250D01*
X112138072Y-100900000D01*
X112125812Y-100775518D01*
X112098354Y-100685000D01*
X133985892Y-100685000D01*
X133678169Y-100812463D01*
X133394002Y-101002337D01*
X133152337Y-101244002D01*
X132962463Y-101528169D01*
X132831675Y-101843919D01*
X132765000Y-102179117D01*
X132765000Y-102520883D01*
X132831675Y-102856081D01*
X132962463Y-103171831D01*
X133152337Y-103455998D01*
X133394002Y-103697663D01*
X133678169Y-103887537D01*
X133993919Y-104018325D01*
X134329117Y-104085000D01*
X134670883Y-104085000D01*
X135006081Y-104018325D01*
X135321831Y-103887537D01*
X135605998Y-103697663D01*
X135847663Y-103455998D01*
X136037537Y-103171831D01*
X136065000Y-103105529D01*
X136065000Y-104551646D01*
X135974482Y-104524188D01*
X135850000Y-104511928D01*
X134150000Y-104511928D01*
X134025518Y-104524188D01*
X133905820Y-104560498D01*
X133795506Y-104619463D01*
X133698815Y-104698815D01*
X133619463Y-104795506D01*
X133582317Y-104865000D01*
X133205751Y-104865000D01*
X133149999Y-104859509D01*
X133094248Y-104865000D01*
X132927501Y-104881423D01*
X132713553Y-104946324D01*
X132516377Y-105051716D01*
X132343551Y-105193551D01*
X132308009Y-105236859D01*
X118460865Y-119084004D01*
X118417551Y-119119551D01*
X118275716Y-119292377D01*
X118184440Y-119463144D01*
X118170324Y-119489554D01*
X118105423Y-119703502D01*
X118083509Y-119926000D01*
X118089000Y-119981751D01*
X118089001Y-133278000D01*
X111566132Y-133278000D01*
X107278000Y-128989869D01*
X107278000Y-126102248D01*
X107261577Y-125935501D01*
X107196676Y-125721553D01*
X107091284Y-125524377D01*
X106949449Y-125351551D01*
X106776623Y-125209716D01*
X106579446Y-125104324D01*
X106365498Y-125039423D01*
X106143000Y-125017509D01*
X105920501Y-125039423D01*
X105706553Y-125104324D01*
X105509377Y-125209716D01*
X105336551Y-125351551D01*
X105194716Y-125524377D01*
X105089324Y-125721554D01*
X105024423Y-125935502D01*
X105008000Y-126102249D01*
X105008001Y-129404239D01*
X105002509Y-129460000D01*
X105024423Y-129682498D01*
X105089324Y-129896446D01*
X105138384Y-129988230D01*
X105194717Y-130093623D01*
X105336552Y-130266449D01*
X105379860Y-130301991D01*
X109490868Y-134413000D01*
X105506865Y-138397004D01*
X105463551Y-138432551D01*
X105321716Y-138605377D01*
X105233739Y-138769972D01*
X105216324Y-138802554D01*
X105151423Y-139016502D01*
X105129509Y-139239000D01*
X105135000Y-139294751D01*
X105135000Y-139421752D01*
X105151423Y-139588499D01*
X105216324Y-139802447D01*
X105321716Y-139999623D01*
X105463551Y-140172449D01*
X105510000Y-140210569D01*
X105510001Y-143242196D01*
X104594351Y-144157847D01*
X104515000Y-144173631D01*
X104515000Y-133241439D01*
X104503641Y-133126113D01*
X104458754Y-132978140D01*
X104385862Y-132841767D01*
X104287764Y-132722236D01*
X104168233Y-132624138D01*
X104126789Y-132601986D01*
X103290797Y-131765995D01*
X103313513Y-131691111D01*
X103342185Y-131400000D01*
X103313513Y-131108889D01*
X103228599Y-130828966D01*
X103090706Y-130570986D01*
X102905134Y-130344866D01*
X102679014Y-130159294D01*
X102624209Y-130130000D01*
X102679014Y-130100706D01*
X102905134Y-129915134D01*
X103090706Y-129689014D01*
X103228599Y-129431034D01*
X103313513Y-129151111D01*
X103342185Y-128860000D01*
X103313513Y-128568889D01*
X103228599Y-128288966D01*
X103090706Y-128030986D01*
X102905134Y-127804866D01*
X102679014Y-127619294D01*
X102624209Y-127590000D01*
X102679014Y-127560706D01*
X102905134Y-127375134D01*
X103090706Y-127149014D01*
X103228599Y-126891034D01*
X103313513Y-126611111D01*
X103342185Y-126320000D01*
X103313513Y-126028889D01*
X103228599Y-125748966D01*
X103090706Y-125490986D01*
X102905134Y-125264866D01*
X102679014Y-125079294D01*
X102624209Y-125050000D01*
X102679014Y-125020706D01*
X102807817Y-124915000D01*
X108719249Y-124915000D01*
X108775000Y-124920491D01*
X108830751Y-124915000D01*
X108830752Y-124915000D01*
X108997499Y-124898577D01*
X109211447Y-124833676D01*
X109408623Y-124728284D01*
X109581449Y-124586449D01*
X109616996Y-124543135D01*
X119606141Y-114553991D01*
X119649449Y-114518449D01*
X119791284Y-114345623D01*
X119896676Y-114148447D01*
X119961577Y-113934499D01*
X119963881Y-113911111D01*
X119983491Y-113712001D01*
X119978000Y-113656249D01*
X119978000Y-105274248D01*
X119961577Y-105107501D01*
X119896676Y-104893553D01*
X119791284Y-104696377D01*
X119649449Y-104523551D01*
X119476623Y-104381716D01*
X119279447Y-104276324D01*
X119065499Y-104211423D01*
X118843000Y-104189509D01*
X118620502Y-104211423D01*
X118406554Y-104276324D01*
X118209378Y-104381716D01*
X118036552Y-104523551D01*
X117894717Y-104696377D01*
X117789325Y-104893553D01*
X117724424Y-105107501D01*
X117708001Y-105274248D01*
X117708000Y-113241868D01*
X108304869Y-122645000D01*
X102807817Y-122645000D01*
X102679014Y-122539294D01*
X102624209Y-122510000D01*
X102679014Y-122480706D01*
X102905134Y-122295134D01*
X103090706Y-122069014D01*
X103228599Y-121811034D01*
X103313513Y-121531111D01*
X103342185Y-121240000D01*
X103313513Y-120948889D01*
X103228599Y-120668966D01*
X103090706Y-120410986D01*
X102905134Y-120184866D01*
X102679014Y-119999294D01*
X102624209Y-119970000D01*
X102679014Y-119940706D01*
X102905134Y-119755134D01*
X103090706Y-119529014D01*
X103228599Y-119271034D01*
X103313513Y-118991111D01*
X103342185Y-118700000D01*
X103313513Y-118408889D01*
X103228599Y-118128966D01*
X103090706Y-117870986D01*
X102905134Y-117644866D01*
X102679014Y-117459294D01*
X102624209Y-117430000D01*
X102679014Y-117400706D01*
X102905134Y-117215134D01*
X103090706Y-116989014D01*
X103228599Y-116731034D01*
X103313513Y-116451111D01*
X103342185Y-116160000D01*
X103313513Y-115868889D01*
X103228599Y-115588966D01*
X103090706Y-115330986D01*
X102905134Y-115104866D01*
X102679014Y-114919294D01*
X102624209Y-114890000D01*
X102679014Y-114860706D01*
X102905134Y-114675134D01*
X103090706Y-114449014D01*
X103228599Y-114191034D01*
X103313513Y-113911111D01*
X103342185Y-113620000D01*
X103313513Y-113328889D01*
X103228599Y-113048966D01*
X103090706Y-112790986D01*
X102905134Y-112564866D01*
X102679014Y-112379294D01*
X102624209Y-112350000D01*
X102679014Y-112320706D01*
X102905134Y-112135134D01*
X103090706Y-111909014D01*
X103228599Y-111651034D01*
X103313513Y-111371111D01*
X103342185Y-111080000D01*
X103313513Y-110788889D01*
X103228599Y-110508966D01*
X103090706Y-110250986D01*
X102905134Y-110024866D01*
X102679014Y-109839294D01*
X102624209Y-109810000D01*
X102679014Y-109780706D01*
X102905134Y-109595134D01*
X103090706Y-109369014D01*
X103228599Y-109111034D01*
X103313513Y-108831111D01*
X103342185Y-108540000D01*
X103313513Y-108248889D01*
X103228599Y-107968966D01*
X103090706Y-107710986D01*
X102905134Y-107484866D01*
X102875313Y-107460393D01*
X102944180Y-107439502D01*
X103054494Y-107380537D01*
X103151185Y-107301185D01*
X103230537Y-107204494D01*
X103289502Y-107094180D01*
X103325812Y-106974482D01*
X103338072Y-106850000D01*
X103338072Y-105150000D01*
X103333148Y-105100000D01*
X103861928Y-105100000D01*
X103874188Y-105224482D01*
X103910498Y-105344180D01*
X103969463Y-105454494D01*
X104048815Y-105551185D01*
X104145506Y-105630537D01*
X104255820Y-105689502D01*
X104375518Y-105725812D01*
X104500000Y-105738072D01*
X104889250Y-105735000D01*
X105048000Y-105576250D01*
X105048000Y-103127000D01*
X105302000Y-103127000D01*
X105302000Y-105576250D01*
X105460750Y-105735000D01*
X105850000Y-105738072D01*
X105974482Y-105725812D01*
X106094180Y-105689502D01*
X106204494Y-105630537D01*
X106301185Y-105551185D01*
X106380537Y-105454494D01*
X106439502Y-105344180D01*
X106475812Y-105224482D01*
X106488072Y-105100000D01*
X109511928Y-105100000D01*
X109524188Y-105224482D01*
X109560498Y-105344180D01*
X109619463Y-105454494D01*
X109698815Y-105551185D01*
X109795506Y-105630537D01*
X109905820Y-105689502D01*
X110025518Y-105725812D01*
X110150000Y-105738072D01*
X110539250Y-105735000D01*
X110698000Y-105576250D01*
X110698000Y-103127000D01*
X110952000Y-103127000D01*
X110952000Y-105576250D01*
X111110750Y-105735000D01*
X111500000Y-105738072D01*
X111624482Y-105725812D01*
X111744180Y-105689502D01*
X111854494Y-105630537D01*
X111951185Y-105551185D01*
X112030537Y-105454494D01*
X112089502Y-105344180D01*
X112125812Y-105224482D01*
X112138072Y-105100000D01*
X112135000Y-103285750D01*
X111976250Y-103127000D01*
X110952000Y-103127000D01*
X110698000Y-103127000D01*
X109673750Y-103127000D01*
X109515000Y-103285750D01*
X109511928Y-105100000D01*
X106488072Y-105100000D01*
X106485000Y-103285750D01*
X106326250Y-103127000D01*
X105302000Y-103127000D01*
X105048000Y-103127000D01*
X104023750Y-103127000D01*
X103865000Y-103285750D01*
X103861928Y-105100000D01*
X103333148Y-105100000D01*
X103325812Y-105025518D01*
X103289502Y-104905820D01*
X103230537Y-104795506D01*
X103151185Y-104698815D01*
X103054494Y-104619463D01*
X102944180Y-104560498D01*
X102824482Y-104524188D01*
X102700000Y-104511928D01*
X101000000Y-104511928D01*
X100875518Y-104524188D01*
X100755820Y-104560498D01*
X100685000Y-104598353D01*
X100685000Y-103280390D01*
X100802337Y-103455998D01*
X101044002Y-103697663D01*
X101328169Y-103887537D01*
X101643919Y-104018325D01*
X101979117Y-104085000D01*
X102320883Y-104085000D01*
X102656081Y-104018325D01*
X102971831Y-103887537D01*
X103255998Y-103697663D01*
X103497663Y-103455998D01*
X103687537Y-103171831D01*
X103818325Y-102856081D01*
X103864844Y-102622213D01*
X103865000Y-102714250D01*
X104023750Y-102873000D01*
X105048000Y-102873000D01*
X105048000Y-102853000D01*
X105302000Y-102853000D01*
X105302000Y-102873000D01*
X106326250Y-102873000D01*
X106485000Y-102714250D01*
X106488072Y-100900000D01*
X106475812Y-100775518D01*
X106448354Y-100685000D01*
X109551646Y-100685000D01*
X109524188Y-100775518D01*
X109524188Y-100775518D01*
G37*
X109524188Y-100775518D02*
X109511928Y-100900000D01*
X109515000Y-102714250D01*
X109673750Y-102873000D01*
X110698000Y-102873000D01*
X110698000Y-102853000D01*
X110952000Y-102853000D01*
X110952000Y-102873000D01*
X111976250Y-102873000D01*
X112135000Y-102714250D01*
X112138072Y-100900000D01*
X112125812Y-100775518D01*
X112098354Y-100685000D01*
X133985892Y-100685000D01*
X133678169Y-100812463D01*
X133394002Y-101002337D01*
X133152337Y-101244002D01*
X132962463Y-101528169D01*
X132831675Y-101843919D01*
X132765000Y-102179117D01*
X132765000Y-102520883D01*
X132831675Y-102856081D01*
X132962463Y-103171831D01*
X133152337Y-103455998D01*
X133394002Y-103697663D01*
X133678169Y-103887537D01*
X133993919Y-104018325D01*
X134329117Y-104085000D01*
X134670883Y-104085000D01*
X135006081Y-104018325D01*
X135321831Y-103887537D01*
X135605998Y-103697663D01*
X135847663Y-103455998D01*
X136037537Y-103171831D01*
X136065000Y-103105529D01*
X136065000Y-104551646D01*
X135974482Y-104524188D01*
X135850000Y-104511928D01*
X134150000Y-104511928D01*
X134025518Y-104524188D01*
X133905820Y-104560498D01*
X133795506Y-104619463D01*
X133698815Y-104698815D01*
X133619463Y-104795506D01*
X133582317Y-104865000D01*
X133205751Y-104865000D01*
X133149999Y-104859509D01*
X133094248Y-104865000D01*
X132927501Y-104881423D01*
X132713553Y-104946324D01*
X132516377Y-105051716D01*
X132343551Y-105193551D01*
X132308009Y-105236859D01*
X118460865Y-119084004D01*
X118417551Y-119119551D01*
X118275716Y-119292377D01*
X118184440Y-119463144D01*
X118170324Y-119489554D01*
X118105423Y-119703502D01*
X118083509Y-119926000D01*
X118089000Y-119981751D01*
X118089001Y-133278000D01*
X111566132Y-133278000D01*
X107278000Y-128989869D01*
X107278000Y-126102248D01*
X107261577Y-125935501D01*
X107196676Y-125721553D01*
X107091284Y-125524377D01*
X106949449Y-125351551D01*
X106776623Y-125209716D01*
X106579446Y-125104324D01*
X106365498Y-125039423D01*
X106143000Y-125017509D01*
X105920501Y-125039423D01*
X105706553Y-125104324D01*
X105509377Y-125209716D01*
X105336551Y-125351551D01*
X105194716Y-125524377D01*
X105089324Y-125721554D01*
X105024423Y-125935502D01*
X105008000Y-126102249D01*
X105008001Y-129404239D01*
X105002509Y-129460000D01*
X105024423Y-129682498D01*
X105089324Y-129896446D01*
X105138384Y-129988230D01*
X105194717Y-130093623D01*
X105336552Y-130266449D01*
X105379860Y-130301991D01*
X109490868Y-134413000D01*
X105506865Y-138397004D01*
X105463551Y-138432551D01*
X105321716Y-138605377D01*
X105233739Y-138769972D01*
X105216324Y-138802554D01*
X105151423Y-139016502D01*
X105129509Y-139239000D01*
X105135000Y-139294751D01*
X105135000Y-139421752D01*
X105151423Y-139588499D01*
X105216324Y-139802447D01*
X105321716Y-139999623D01*
X105463551Y-140172449D01*
X105510000Y-140210569D01*
X105510001Y-143242196D01*
X104594351Y-144157847D01*
X104515000Y-144173631D01*
X104515000Y-133241439D01*
X104503641Y-133126113D01*
X104458754Y-132978140D01*
X104385862Y-132841767D01*
X104287764Y-132722236D01*
X104168233Y-132624138D01*
X104126789Y-132601986D01*
X103290797Y-131765995D01*
X103313513Y-131691111D01*
X103342185Y-131400000D01*
X103313513Y-131108889D01*
X103228599Y-130828966D01*
X103090706Y-130570986D01*
X102905134Y-130344866D01*
X102679014Y-130159294D01*
X102624209Y-130130000D01*
X102679014Y-130100706D01*
X102905134Y-129915134D01*
X103090706Y-129689014D01*
X103228599Y-129431034D01*
X103313513Y-129151111D01*
X103342185Y-128860000D01*
X103313513Y-128568889D01*
X103228599Y-128288966D01*
X103090706Y-128030986D01*
X102905134Y-127804866D01*
X102679014Y-127619294D01*
X102624209Y-127590000D01*
X102679014Y-127560706D01*
X102905134Y-127375134D01*
X103090706Y-127149014D01*
X103228599Y-126891034D01*
X103313513Y-126611111D01*
X103342185Y-126320000D01*
X103313513Y-126028889D01*
X103228599Y-125748966D01*
X103090706Y-125490986D01*
X102905134Y-125264866D01*
X102679014Y-125079294D01*
X102624209Y-125050000D01*
X102679014Y-125020706D01*
X102807817Y-124915000D01*
X108719249Y-124915000D01*
X108775000Y-124920491D01*
X108830751Y-124915000D01*
X108830752Y-124915000D01*
X108997499Y-124898577D01*
X109211447Y-124833676D01*
X109408623Y-124728284D01*
X109581449Y-124586449D01*
X109616996Y-124543135D01*
X119606141Y-114553991D01*
X119649449Y-114518449D01*
X119791284Y-114345623D01*
X119896676Y-114148447D01*
X119961577Y-113934499D01*
X119963881Y-113911111D01*
X119983491Y-113712001D01*
X119978000Y-113656249D01*
X119978000Y-105274248D01*
X119961577Y-105107501D01*
X119896676Y-104893553D01*
X119791284Y-104696377D01*
X119649449Y-104523551D01*
X119476623Y-104381716D01*
X119279447Y-104276324D01*
X119065499Y-104211423D01*
X118843000Y-104189509D01*
X118620502Y-104211423D01*
X118406554Y-104276324D01*
X118209378Y-104381716D01*
X118036552Y-104523551D01*
X117894717Y-104696377D01*
X117789325Y-104893553D01*
X117724424Y-105107501D01*
X117708001Y-105274248D01*
X117708000Y-113241868D01*
X108304869Y-122645000D01*
X102807817Y-122645000D01*
X102679014Y-122539294D01*
X102624209Y-122510000D01*
X102679014Y-122480706D01*
X102905134Y-122295134D01*
X103090706Y-122069014D01*
X103228599Y-121811034D01*
X103313513Y-121531111D01*
X103342185Y-121240000D01*
X103313513Y-120948889D01*
X103228599Y-120668966D01*
X103090706Y-120410986D01*
X102905134Y-120184866D01*
X102679014Y-119999294D01*
X102624209Y-119970000D01*
X102679014Y-119940706D01*
X102905134Y-119755134D01*
X103090706Y-119529014D01*
X103228599Y-119271034D01*
X103313513Y-118991111D01*
X103342185Y-118700000D01*
X103313513Y-118408889D01*
X103228599Y-118128966D01*
X103090706Y-117870986D01*
X102905134Y-117644866D01*
X102679014Y-117459294D01*
X102624209Y-117430000D01*
X102679014Y-117400706D01*
X102905134Y-117215134D01*
X103090706Y-116989014D01*
X103228599Y-116731034D01*
X103313513Y-116451111D01*
X103342185Y-116160000D01*
X103313513Y-115868889D01*
X103228599Y-115588966D01*
X103090706Y-115330986D01*
X102905134Y-115104866D01*
X102679014Y-114919294D01*
X102624209Y-114890000D01*
X102679014Y-114860706D01*
X102905134Y-114675134D01*
X103090706Y-114449014D01*
X103228599Y-114191034D01*
X103313513Y-113911111D01*
X103342185Y-113620000D01*
X103313513Y-113328889D01*
X103228599Y-113048966D01*
X103090706Y-112790986D01*
X102905134Y-112564866D01*
X102679014Y-112379294D01*
X102624209Y-112350000D01*
X102679014Y-112320706D01*
X102905134Y-112135134D01*
X103090706Y-111909014D01*
X103228599Y-111651034D01*
X103313513Y-111371111D01*
X103342185Y-111080000D01*
X103313513Y-110788889D01*
X103228599Y-110508966D01*
X103090706Y-110250986D01*
X102905134Y-110024866D01*
X102679014Y-109839294D01*
X102624209Y-109810000D01*
X102679014Y-109780706D01*
X102905134Y-109595134D01*
X103090706Y-109369014D01*
X103228599Y-109111034D01*
X103313513Y-108831111D01*
X103342185Y-108540000D01*
X103313513Y-108248889D01*
X103228599Y-107968966D01*
X103090706Y-107710986D01*
X102905134Y-107484866D01*
X102875313Y-107460393D01*
X102944180Y-107439502D01*
X103054494Y-107380537D01*
X103151185Y-107301185D01*
X103230537Y-107204494D01*
X103289502Y-107094180D01*
X103325812Y-106974482D01*
X103338072Y-106850000D01*
X103338072Y-105150000D01*
X103333148Y-105100000D01*
X103861928Y-105100000D01*
X103874188Y-105224482D01*
X103910498Y-105344180D01*
X103969463Y-105454494D01*
X104048815Y-105551185D01*
X104145506Y-105630537D01*
X104255820Y-105689502D01*
X104375518Y-105725812D01*
X104500000Y-105738072D01*
X104889250Y-105735000D01*
X105048000Y-105576250D01*
X105048000Y-103127000D01*
X105302000Y-103127000D01*
X105302000Y-105576250D01*
X105460750Y-105735000D01*
X105850000Y-105738072D01*
X105974482Y-105725812D01*
X106094180Y-105689502D01*
X106204494Y-105630537D01*
X106301185Y-105551185D01*
X106380537Y-105454494D01*
X106439502Y-105344180D01*
X106475812Y-105224482D01*
X106488072Y-105100000D01*
X109511928Y-105100000D01*
X109524188Y-105224482D01*
X109560498Y-105344180D01*
X109619463Y-105454494D01*
X109698815Y-105551185D01*
X109795506Y-105630537D01*
X109905820Y-105689502D01*
X110025518Y-105725812D01*
X110150000Y-105738072D01*
X110539250Y-105735000D01*
X110698000Y-105576250D01*
X110698000Y-103127000D01*
X110952000Y-103127000D01*
X110952000Y-105576250D01*
X111110750Y-105735000D01*
X111500000Y-105738072D01*
X111624482Y-105725812D01*
X111744180Y-105689502D01*
X111854494Y-105630537D01*
X111951185Y-105551185D01*
X112030537Y-105454494D01*
X112089502Y-105344180D01*
X112125812Y-105224482D01*
X112138072Y-105100000D01*
X112135000Y-103285750D01*
X111976250Y-103127000D01*
X110952000Y-103127000D01*
X110698000Y-103127000D01*
X109673750Y-103127000D01*
X109515000Y-103285750D01*
X109511928Y-105100000D01*
X106488072Y-105100000D01*
X106485000Y-103285750D01*
X106326250Y-103127000D01*
X105302000Y-103127000D01*
X105048000Y-103127000D01*
X104023750Y-103127000D01*
X103865000Y-103285750D01*
X103861928Y-105100000D01*
X103333148Y-105100000D01*
X103325812Y-105025518D01*
X103289502Y-104905820D01*
X103230537Y-104795506D01*
X103151185Y-104698815D01*
X103054494Y-104619463D01*
X102944180Y-104560498D01*
X102824482Y-104524188D01*
X102700000Y-104511928D01*
X101000000Y-104511928D01*
X100875518Y-104524188D01*
X100755820Y-104560498D01*
X100685000Y-104598353D01*
X100685000Y-103280390D01*
X100802337Y-103455998D01*
X101044002Y-103697663D01*
X101328169Y-103887537D01*
X101643919Y-104018325D01*
X101979117Y-104085000D01*
X102320883Y-104085000D01*
X102656081Y-104018325D01*
X102971831Y-103887537D01*
X103255998Y-103697663D01*
X103497663Y-103455998D01*
X103687537Y-103171831D01*
X103818325Y-102856081D01*
X103864844Y-102622213D01*
X103865000Y-102714250D01*
X104023750Y-102873000D01*
X105048000Y-102873000D01*
X105048000Y-102853000D01*
X105302000Y-102853000D01*
X105302000Y-102873000D01*
X106326250Y-102873000D01*
X106485000Y-102714250D01*
X106488072Y-100900000D01*
X106475812Y-100775518D01*
X106448354Y-100685000D01*
X109551646Y-100685000D01*
X109524188Y-100775518D01*
M02*
