G04 #@! TF.GenerationSoftware,KiCad,Pcbnew,(5.1.2)-2*
G04 #@! TF.CreationDate,2019-12-14T23:06:18+01:00*
G04 #@! TF.ProjectId,ttgot5,7474676f-7435-42e6-9b69-6361645f7063,rev?*
G04 #@! TF.SameCoordinates,Original*
G04 #@! TF.FileFunction,Paste,Bot*
G04 #@! TF.FilePolarity,Positive*
%FSLAX46Y46*%
G04 Gerber Fmt 4.6, Leading zero omitted, Abs format (unit mm)*
G04 Created by KiCad (PCBNEW (5.1.2)-2) date 2019-12-14 23:06:18*
%MOMM*%
%LPD*%
G04 APERTURE LIST*
%ADD10C,0.100000*%
%ADD11C,1.150000*%
%ADD12R,1.270000X3.600000*%
%ADD13R,1.350000X4.200000*%
%ADD14R,0.450000X0.600000*%
%ADD15R,0.900000X0.800000*%
%ADD16R,1.060000X0.650000*%
%ADD17R,1.000000X2.000000*%
%ADD18R,1.300000X1.600000*%
%ADD19R,2.000000X1.600000*%
G04 APERTURE END LIST*
D10*
G36*
X124321305Y-159384204D02*
G01*
X124345573Y-159387804D01*
X124369372Y-159393765D01*
X124392471Y-159402030D01*
X124414650Y-159412520D01*
X124435693Y-159425132D01*
X124455399Y-159439747D01*
X124473577Y-159456223D01*
X124490053Y-159474401D01*
X124504668Y-159494107D01*
X124517280Y-159515150D01*
X124527770Y-159537329D01*
X124536035Y-159560428D01*
X124541996Y-159584227D01*
X124545596Y-159608495D01*
X124546800Y-159632999D01*
X124546800Y-160283001D01*
X124545596Y-160307505D01*
X124541996Y-160331773D01*
X124536035Y-160355572D01*
X124527770Y-160378671D01*
X124517280Y-160400850D01*
X124504668Y-160421893D01*
X124490053Y-160441599D01*
X124473577Y-160459777D01*
X124455399Y-160476253D01*
X124435693Y-160490868D01*
X124414650Y-160503480D01*
X124392471Y-160513970D01*
X124369372Y-160522235D01*
X124345573Y-160528196D01*
X124321305Y-160531796D01*
X124296801Y-160533000D01*
X123396799Y-160533000D01*
X123372295Y-160531796D01*
X123348027Y-160528196D01*
X123324228Y-160522235D01*
X123301129Y-160513970D01*
X123278950Y-160503480D01*
X123257907Y-160490868D01*
X123238201Y-160476253D01*
X123220023Y-160459777D01*
X123203547Y-160441599D01*
X123188932Y-160421893D01*
X123176320Y-160400850D01*
X123165830Y-160378671D01*
X123157565Y-160355572D01*
X123151604Y-160331773D01*
X123148004Y-160307505D01*
X123146800Y-160283001D01*
X123146800Y-159632999D01*
X123148004Y-159608495D01*
X123151604Y-159584227D01*
X123157565Y-159560428D01*
X123165830Y-159537329D01*
X123176320Y-159515150D01*
X123188932Y-159494107D01*
X123203547Y-159474401D01*
X123220023Y-159456223D01*
X123238201Y-159439747D01*
X123257907Y-159425132D01*
X123278950Y-159412520D01*
X123301129Y-159402030D01*
X123324228Y-159393765D01*
X123348027Y-159387804D01*
X123372295Y-159384204D01*
X123396799Y-159383000D01*
X124296801Y-159383000D01*
X124321305Y-159384204D01*
X124321305Y-159384204D01*
G37*
D11*
X123846800Y-159958000D03*
D10*
G36*
X124321305Y-157334204D02*
G01*
X124345573Y-157337804D01*
X124369372Y-157343765D01*
X124392471Y-157352030D01*
X124414650Y-157362520D01*
X124435693Y-157375132D01*
X124455399Y-157389747D01*
X124473577Y-157406223D01*
X124490053Y-157424401D01*
X124504668Y-157444107D01*
X124517280Y-157465150D01*
X124527770Y-157487329D01*
X124536035Y-157510428D01*
X124541996Y-157534227D01*
X124545596Y-157558495D01*
X124546800Y-157582999D01*
X124546800Y-158233001D01*
X124545596Y-158257505D01*
X124541996Y-158281773D01*
X124536035Y-158305572D01*
X124527770Y-158328671D01*
X124517280Y-158350850D01*
X124504668Y-158371893D01*
X124490053Y-158391599D01*
X124473577Y-158409777D01*
X124455399Y-158426253D01*
X124435693Y-158440868D01*
X124414650Y-158453480D01*
X124392471Y-158463970D01*
X124369372Y-158472235D01*
X124345573Y-158478196D01*
X124321305Y-158481796D01*
X124296801Y-158483000D01*
X123396799Y-158483000D01*
X123372295Y-158481796D01*
X123348027Y-158478196D01*
X123324228Y-158472235D01*
X123301129Y-158463970D01*
X123278950Y-158453480D01*
X123257907Y-158440868D01*
X123238201Y-158426253D01*
X123220023Y-158409777D01*
X123203547Y-158391599D01*
X123188932Y-158371893D01*
X123176320Y-158350850D01*
X123165830Y-158328671D01*
X123157565Y-158305572D01*
X123151604Y-158281773D01*
X123148004Y-158257505D01*
X123146800Y-158233001D01*
X123146800Y-157582999D01*
X123148004Y-157558495D01*
X123151604Y-157534227D01*
X123157565Y-157510428D01*
X123165830Y-157487329D01*
X123176320Y-157465150D01*
X123188932Y-157444107D01*
X123203547Y-157424401D01*
X123220023Y-157406223D01*
X123238201Y-157389747D01*
X123257907Y-157375132D01*
X123278950Y-157362520D01*
X123301129Y-157352030D01*
X123324228Y-157343765D01*
X123348027Y-157337804D01*
X123372295Y-157334204D01*
X123396799Y-157333000D01*
X124296801Y-157333000D01*
X124321305Y-157334204D01*
X124321305Y-157334204D01*
G37*
D11*
X123846800Y-157908000D03*
D10*
G36*
X121832105Y-159417004D02*
G01*
X121856373Y-159420604D01*
X121880172Y-159426565D01*
X121903271Y-159434830D01*
X121925450Y-159445320D01*
X121946493Y-159457932D01*
X121966199Y-159472547D01*
X121984377Y-159489023D01*
X122000853Y-159507201D01*
X122015468Y-159526907D01*
X122028080Y-159547950D01*
X122038570Y-159570129D01*
X122046835Y-159593228D01*
X122052796Y-159617027D01*
X122056396Y-159641295D01*
X122057600Y-159665799D01*
X122057600Y-160315801D01*
X122056396Y-160340305D01*
X122052796Y-160364573D01*
X122046835Y-160388372D01*
X122038570Y-160411471D01*
X122028080Y-160433650D01*
X122015468Y-160454693D01*
X122000853Y-160474399D01*
X121984377Y-160492577D01*
X121966199Y-160509053D01*
X121946493Y-160523668D01*
X121925450Y-160536280D01*
X121903271Y-160546770D01*
X121880172Y-160555035D01*
X121856373Y-160560996D01*
X121832105Y-160564596D01*
X121807601Y-160565800D01*
X120907599Y-160565800D01*
X120883095Y-160564596D01*
X120858827Y-160560996D01*
X120835028Y-160555035D01*
X120811929Y-160546770D01*
X120789750Y-160536280D01*
X120768707Y-160523668D01*
X120749001Y-160509053D01*
X120730823Y-160492577D01*
X120714347Y-160474399D01*
X120699732Y-160454693D01*
X120687120Y-160433650D01*
X120676630Y-160411471D01*
X120668365Y-160388372D01*
X120662404Y-160364573D01*
X120658804Y-160340305D01*
X120657600Y-160315801D01*
X120657600Y-159665799D01*
X120658804Y-159641295D01*
X120662404Y-159617027D01*
X120668365Y-159593228D01*
X120676630Y-159570129D01*
X120687120Y-159547950D01*
X120699732Y-159526907D01*
X120714347Y-159507201D01*
X120730823Y-159489023D01*
X120749001Y-159472547D01*
X120768707Y-159457932D01*
X120789750Y-159445320D01*
X120811929Y-159434830D01*
X120835028Y-159426565D01*
X120858827Y-159420604D01*
X120883095Y-159417004D01*
X120907599Y-159415800D01*
X121807601Y-159415800D01*
X121832105Y-159417004D01*
X121832105Y-159417004D01*
G37*
D11*
X121357600Y-159990800D03*
D10*
G36*
X121832105Y-157367004D02*
G01*
X121856373Y-157370604D01*
X121880172Y-157376565D01*
X121903271Y-157384830D01*
X121925450Y-157395320D01*
X121946493Y-157407932D01*
X121966199Y-157422547D01*
X121984377Y-157439023D01*
X122000853Y-157457201D01*
X122015468Y-157476907D01*
X122028080Y-157497950D01*
X122038570Y-157520129D01*
X122046835Y-157543228D01*
X122052796Y-157567027D01*
X122056396Y-157591295D01*
X122057600Y-157615799D01*
X122057600Y-158265801D01*
X122056396Y-158290305D01*
X122052796Y-158314573D01*
X122046835Y-158338372D01*
X122038570Y-158361471D01*
X122028080Y-158383650D01*
X122015468Y-158404693D01*
X122000853Y-158424399D01*
X121984377Y-158442577D01*
X121966199Y-158459053D01*
X121946493Y-158473668D01*
X121925450Y-158486280D01*
X121903271Y-158496770D01*
X121880172Y-158505035D01*
X121856373Y-158510996D01*
X121832105Y-158514596D01*
X121807601Y-158515800D01*
X120907599Y-158515800D01*
X120883095Y-158514596D01*
X120858827Y-158510996D01*
X120835028Y-158505035D01*
X120811929Y-158496770D01*
X120789750Y-158486280D01*
X120768707Y-158473668D01*
X120749001Y-158459053D01*
X120730823Y-158442577D01*
X120714347Y-158424399D01*
X120699732Y-158404693D01*
X120687120Y-158383650D01*
X120676630Y-158361471D01*
X120668365Y-158338372D01*
X120662404Y-158314573D01*
X120658804Y-158290305D01*
X120657600Y-158265801D01*
X120657600Y-157615799D01*
X120658804Y-157591295D01*
X120662404Y-157567027D01*
X120668365Y-157543228D01*
X120676630Y-157520129D01*
X120687120Y-157497950D01*
X120699732Y-157476907D01*
X120714347Y-157457201D01*
X120730823Y-157439023D01*
X120749001Y-157422547D01*
X120768707Y-157407932D01*
X120789750Y-157395320D01*
X120811929Y-157384830D01*
X120835028Y-157376565D01*
X120858827Y-157370604D01*
X120883095Y-157367004D01*
X120907599Y-157365800D01*
X121807601Y-157365800D01*
X121832105Y-157367004D01*
X121832105Y-157367004D01*
G37*
D11*
X121357600Y-157940800D03*
D12*
X108000000Y-102800000D03*
D13*
X110825000Y-103000000D03*
X105175000Y-103000000D03*
D10*
G36*
X102172505Y-145904204D02*
G01*
X102196773Y-145907804D01*
X102220572Y-145913765D01*
X102243671Y-145922030D01*
X102265850Y-145932520D01*
X102286893Y-145945132D01*
X102306599Y-145959747D01*
X102324777Y-145976223D01*
X102341253Y-145994401D01*
X102355868Y-146014107D01*
X102368480Y-146035150D01*
X102378970Y-146057329D01*
X102387235Y-146080428D01*
X102393196Y-146104227D01*
X102396796Y-146128495D01*
X102398000Y-146152999D01*
X102398000Y-146803001D01*
X102396796Y-146827505D01*
X102393196Y-146851773D01*
X102387235Y-146875572D01*
X102378970Y-146898671D01*
X102368480Y-146920850D01*
X102355868Y-146941893D01*
X102341253Y-146961599D01*
X102324777Y-146979777D01*
X102306599Y-146996253D01*
X102286893Y-147010868D01*
X102265850Y-147023480D01*
X102243671Y-147033970D01*
X102220572Y-147042235D01*
X102196773Y-147048196D01*
X102172505Y-147051796D01*
X102148001Y-147053000D01*
X101247999Y-147053000D01*
X101223495Y-147051796D01*
X101199227Y-147048196D01*
X101175428Y-147042235D01*
X101152329Y-147033970D01*
X101130150Y-147023480D01*
X101109107Y-147010868D01*
X101089401Y-146996253D01*
X101071223Y-146979777D01*
X101054747Y-146961599D01*
X101040132Y-146941893D01*
X101027520Y-146920850D01*
X101017030Y-146898671D01*
X101008765Y-146875572D01*
X101002804Y-146851773D01*
X100999204Y-146827505D01*
X100998000Y-146803001D01*
X100998000Y-146152999D01*
X100999204Y-146128495D01*
X101002804Y-146104227D01*
X101008765Y-146080428D01*
X101017030Y-146057329D01*
X101027520Y-146035150D01*
X101040132Y-146014107D01*
X101054747Y-145994401D01*
X101071223Y-145976223D01*
X101089401Y-145959747D01*
X101109107Y-145945132D01*
X101130150Y-145932520D01*
X101152329Y-145922030D01*
X101175428Y-145913765D01*
X101199227Y-145907804D01*
X101223495Y-145904204D01*
X101247999Y-145903000D01*
X102148001Y-145903000D01*
X102172505Y-145904204D01*
X102172505Y-145904204D01*
G37*
D11*
X101698000Y-146478000D03*
D10*
G36*
X102172505Y-147954204D02*
G01*
X102196773Y-147957804D01*
X102220572Y-147963765D01*
X102243671Y-147972030D01*
X102265850Y-147982520D01*
X102286893Y-147995132D01*
X102306599Y-148009747D01*
X102324777Y-148026223D01*
X102341253Y-148044401D01*
X102355868Y-148064107D01*
X102368480Y-148085150D01*
X102378970Y-148107329D01*
X102387235Y-148130428D01*
X102393196Y-148154227D01*
X102396796Y-148178495D01*
X102398000Y-148202999D01*
X102398000Y-148853001D01*
X102396796Y-148877505D01*
X102393196Y-148901773D01*
X102387235Y-148925572D01*
X102378970Y-148948671D01*
X102368480Y-148970850D01*
X102355868Y-148991893D01*
X102341253Y-149011599D01*
X102324777Y-149029777D01*
X102306599Y-149046253D01*
X102286893Y-149060868D01*
X102265850Y-149073480D01*
X102243671Y-149083970D01*
X102220572Y-149092235D01*
X102196773Y-149098196D01*
X102172505Y-149101796D01*
X102148001Y-149103000D01*
X101247999Y-149103000D01*
X101223495Y-149101796D01*
X101199227Y-149098196D01*
X101175428Y-149092235D01*
X101152329Y-149083970D01*
X101130150Y-149073480D01*
X101109107Y-149060868D01*
X101089401Y-149046253D01*
X101071223Y-149029777D01*
X101054747Y-149011599D01*
X101040132Y-148991893D01*
X101027520Y-148970850D01*
X101017030Y-148948671D01*
X101008765Y-148925572D01*
X101002804Y-148901773D01*
X100999204Y-148877505D01*
X100998000Y-148853001D01*
X100998000Y-148202999D01*
X100999204Y-148178495D01*
X101002804Y-148154227D01*
X101008765Y-148130428D01*
X101017030Y-148107329D01*
X101027520Y-148085150D01*
X101040132Y-148064107D01*
X101054747Y-148044401D01*
X101071223Y-148026223D01*
X101089401Y-148009747D01*
X101109107Y-147995132D01*
X101130150Y-147982520D01*
X101152329Y-147972030D01*
X101175428Y-147963765D01*
X101199227Y-147957804D01*
X101223495Y-147954204D01*
X101247999Y-147953000D01*
X102148001Y-147953000D01*
X102172505Y-147954204D01*
X102172505Y-147954204D01*
G37*
D11*
X101698000Y-148528000D03*
D10*
G36*
X104458505Y-143119204D02*
G01*
X104482773Y-143122804D01*
X104506572Y-143128765D01*
X104529671Y-143137030D01*
X104551850Y-143147520D01*
X104572893Y-143160132D01*
X104592599Y-143174747D01*
X104610777Y-143191223D01*
X104627253Y-143209401D01*
X104641868Y-143229107D01*
X104654480Y-143250150D01*
X104664970Y-143272329D01*
X104673235Y-143295428D01*
X104679196Y-143319227D01*
X104682796Y-143343495D01*
X104684000Y-143367999D01*
X104684000Y-144018001D01*
X104682796Y-144042505D01*
X104679196Y-144066773D01*
X104673235Y-144090572D01*
X104664970Y-144113671D01*
X104654480Y-144135850D01*
X104641868Y-144156893D01*
X104627253Y-144176599D01*
X104610777Y-144194777D01*
X104592599Y-144211253D01*
X104572893Y-144225868D01*
X104551850Y-144238480D01*
X104529671Y-144248970D01*
X104506572Y-144257235D01*
X104482773Y-144263196D01*
X104458505Y-144266796D01*
X104434001Y-144268000D01*
X103533999Y-144268000D01*
X103509495Y-144266796D01*
X103485227Y-144263196D01*
X103461428Y-144257235D01*
X103438329Y-144248970D01*
X103416150Y-144238480D01*
X103395107Y-144225868D01*
X103375401Y-144211253D01*
X103357223Y-144194777D01*
X103340747Y-144176599D01*
X103326132Y-144156893D01*
X103313520Y-144135850D01*
X103303030Y-144113671D01*
X103294765Y-144090572D01*
X103288804Y-144066773D01*
X103285204Y-144042505D01*
X103284000Y-144018001D01*
X103284000Y-143367999D01*
X103285204Y-143343495D01*
X103288804Y-143319227D01*
X103294765Y-143295428D01*
X103303030Y-143272329D01*
X103313520Y-143250150D01*
X103326132Y-143229107D01*
X103340747Y-143209401D01*
X103357223Y-143191223D01*
X103375401Y-143174747D01*
X103395107Y-143160132D01*
X103416150Y-143147520D01*
X103438329Y-143137030D01*
X103461428Y-143128765D01*
X103485227Y-143122804D01*
X103509495Y-143119204D01*
X103533999Y-143118000D01*
X104434001Y-143118000D01*
X104458505Y-143119204D01*
X104458505Y-143119204D01*
G37*
D11*
X103984000Y-143693000D03*
D10*
G36*
X104458505Y-141069204D02*
G01*
X104482773Y-141072804D01*
X104506572Y-141078765D01*
X104529671Y-141087030D01*
X104551850Y-141097520D01*
X104572893Y-141110132D01*
X104592599Y-141124747D01*
X104610777Y-141141223D01*
X104627253Y-141159401D01*
X104641868Y-141179107D01*
X104654480Y-141200150D01*
X104664970Y-141222329D01*
X104673235Y-141245428D01*
X104679196Y-141269227D01*
X104682796Y-141293495D01*
X104684000Y-141317999D01*
X104684000Y-141968001D01*
X104682796Y-141992505D01*
X104679196Y-142016773D01*
X104673235Y-142040572D01*
X104664970Y-142063671D01*
X104654480Y-142085850D01*
X104641868Y-142106893D01*
X104627253Y-142126599D01*
X104610777Y-142144777D01*
X104592599Y-142161253D01*
X104572893Y-142175868D01*
X104551850Y-142188480D01*
X104529671Y-142198970D01*
X104506572Y-142207235D01*
X104482773Y-142213196D01*
X104458505Y-142216796D01*
X104434001Y-142218000D01*
X103533999Y-142218000D01*
X103509495Y-142216796D01*
X103485227Y-142213196D01*
X103461428Y-142207235D01*
X103438329Y-142198970D01*
X103416150Y-142188480D01*
X103395107Y-142175868D01*
X103375401Y-142161253D01*
X103357223Y-142144777D01*
X103340747Y-142126599D01*
X103326132Y-142106893D01*
X103313520Y-142085850D01*
X103303030Y-142063671D01*
X103294765Y-142040572D01*
X103288804Y-142016773D01*
X103285204Y-141992505D01*
X103284000Y-141968001D01*
X103284000Y-141317999D01*
X103285204Y-141293495D01*
X103288804Y-141269227D01*
X103294765Y-141245428D01*
X103303030Y-141222329D01*
X103313520Y-141200150D01*
X103326132Y-141179107D01*
X103340747Y-141159401D01*
X103357223Y-141141223D01*
X103375401Y-141124747D01*
X103395107Y-141110132D01*
X103416150Y-141097520D01*
X103438329Y-141087030D01*
X103461428Y-141078765D01*
X103485227Y-141072804D01*
X103509495Y-141069204D01*
X103533999Y-141068000D01*
X104434001Y-141068000D01*
X104458505Y-141069204D01*
X104458505Y-141069204D01*
G37*
D11*
X103984000Y-141643000D03*
D10*
G36*
X121222505Y-131036204D02*
G01*
X121246773Y-131039804D01*
X121270572Y-131045765D01*
X121293671Y-131054030D01*
X121315850Y-131064520D01*
X121336893Y-131077132D01*
X121356599Y-131091747D01*
X121374777Y-131108223D01*
X121391253Y-131126401D01*
X121405868Y-131146107D01*
X121418480Y-131167150D01*
X121428970Y-131189329D01*
X121437235Y-131212428D01*
X121443196Y-131236227D01*
X121446796Y-131260495D01*
X121448000Y-131284999D01*
X121448000Y-131935001D01*
X121446796Y-131959505D01*
X121443196Y-131983773D01*
X121437235Y-132007572D01*
X121428970Y-132030671D01*
X121418480Y-132052850D01*
X121405868Y-132073893D01*
X121391253Y-132093599D01*
X121374777Y-132111777D01*
X121356599Y-132128253D01*
X121336893Y-132142868D01*
X121315850Y-132155480D01*
X121293671Y-132165970D01*
X121270572Y-132174235D01*
X121246773Y-132180196D01*
X121222505Y-132183796D01*
X121198001Y-132185000D01*
X120297999Y-132185000D01*
X120273495Y-132183796D01*
X120249227Y-132180196D01*
X120225428Y-132174235D01*
X120202329Y-132165970D01*
X120180150Y-132155480D01*
X120159107Y-132142868D01*
X120139401Y-132128253D01*
X120121223Y-132111777D01*
X120104747Y-132093599D01*
X120090132Y-132073893D01*
X120077520Y-132052850D01*
X120067030Y-132030671D01*
X120058765Y-132007572D01*
X120052804Y-131983773D01*
X120049204Y-131959505D01*
X120048000Y-131935001D01*
X120048000Y-131284999D01*
X120049204Y-131260495D01*
X120052804Y-131236227D01*
X120058765Y-131212428D01*
X120067030Y-131189329D01*
X120077520Y-131167150D01*
X120090132Y-131146107D01*
X120104747Y-131126401D01*
X120121223Y-131108223D01*
X120139401Y-131091747D01*
X120159107Y-131077132D01*
X120180150Y-131064520D01*
X120202329Y-131054030D01*
X120225428Y-131045765D01*
X120249227Y-131039804D01*
X120273495Y-131036204D01*
X120297999Y-131035000D01*
X121198001Y-131035000D01*
X121222505Y-131036204D01*
X121222505Y-131036204D01*
G37*
D11*
X120748000Y-131610000D03*
D10*
G36*
X121222505Y-133086204D02*
G01*
X121246773Y-133089804D01*
X121270572Y-133095765D01*
X121293671Y-133104030D01*
X121315850Y-133114520D01*
X121336893Y-133127132D01*
X121356599Y-133141747D01*
X121374777Y-133158223D01*
X121391253Y-133176401D01*
X121405868Y-133196107D01*
X121418480Y-133217150D01*
X121428970Y-133239329D01*
X121437235Y-133262428D01*
X121443196Y-133286227D01*
X121446796Y-133310495D01*
X121448000Y-133334999D01*
X121448000Y-133985001D01*
X121446796Y-134009505D01*
X121443196Y-134033773D01*
X121437235Y-134057572D01*
X121428970Y-134080671D01*
X121418480Y-134102850D01*
X121405868Y-134123893D01*
X121391253Y-134143599D01*
X121374777Y-134161777D01*
X121356599Y-134178253D01*
X121336893Y-134192868D01*
X121315850Y-134205480D01*
X121293671Y-134215970D01*
X121270572Y-134224235D01*
X121246773Y-134230196D01*
X121222505Y-134233796D01*
X121198001Y-134235000D01*
X120297999Y-134235000D01*
X120273495Y-134233796D01*
X120249227Y-134230196D01*
X120225428Y-134224235D01*
X120202329Y-134215970D01*
X120180150Y-134205480D01*
X120159107Y-134192868D01*
X120139401Y-134178253D01*
X120121223Y-134161777D01*
X120104747Y-134143599D01*
X120090132Y-134123893D01*
X120077520Y-134102850D01*
X120067030Y-134080671D01*
X120058765Y-134057572D01*
X120052804Y-134033773D01*
X120049204Y-134009505D01*
X120048000Y-133985001D01*
X120048000Y-133334999D01*
X120049204Y-133310495D01*
X120052804Y-133286227D01*
X120058765Y-133262428D01*
X120067030Y-133239329D01*
X120077520Y-133217150D01*
X120090132Y-133196107D01*
X120104747Y-133176401D01*
X120121223Y-133158223D01*
X120139401Y-133141747D01*
X120159107Y-133127132D01*
X120180150Y-133114520D01*
X120202329Y-133104030D01*
X120225428Y-133095765D01*
X120249227Y-133089804D01*
X120273495Y-133086204D01*
X120297999Y-133085000D01*
X121198001Y-133085000D01*
X121222505Y-133086204D01*
X121222505Y-133086204D01*
G37*
D11*
X120748000Y-133660000D03*
D10*
G36*
X124270505Y-106661204D02*
G01*
X124294773Y-106664804D01*
X124318572Y-106670765D01*
X124341671Y-106679030D01*
X124363850Y-106689520D01*
X124384893Y-106702132D01*
X124404599Y-106716747D01*
X124422777Y-106733223D01*
X124439253Y-106751401D01*
X124453868Y-106771107D01*
X124466480Y-106792150D01*
X124476970Y-106814329D01*
X124485235Y-106837428D01*
X124491196Y-106861227D01*
X124494796Y-106885495D01*
X124496000Y-106909999D01*
X124496000Y-107560001D01*
X124494796Y-107584505D01*
X124491196Y-107608773D01*
X124485235Y-107632572D01*
X124476970Y-107655671D01*
X124466480Y-107677850D01*
X124453868Y-107698893D01*
X124439253Y-107718599D01*
X124422777Y-107736777D01*
X124404599Y-107753253D01*
X124384893Y-107767868D01*
X124363850Y-107780480D01*
X124341671Y-107790970D01*
X124318572Y-107799235D01*
X124294773Y-107805196D01*
X124270505Y-107808796D01*
X124246001Y-107810000D01*
X123345999Y-107810000D01*
X123321495Y-107808796D01*
X123297227Y-107805196D01*
X123273428Y-107799235D01*
X123250329Y-107790970D01*
X123228150Y-107780480D01*
X123207107Y-107767868D01*
X123187401Y-107753253D01*
X123169223Y-107736777D01*
X123152747Y-107718599D01*
X123138132Y-107698893D01*
X123125520Y-107677850D01*
X123115030Y-107655671D01*
X123106765Y-107632572D01*
X123100804Y-107608773D01*
X123097204Y-107584505D01*
X123096000Y-107560001D01*
X123096000Y-106909999D01*
X123097204Y-106885495D01*
X123100804Y-106861227D01*
X123106765Y-106837428D01*
X123115030Y-106814329D01*
X123125520Y-106792150D01*
X123138132Y-106771107D01*
X123152747Y-106751401D01*
X123169223Y-106733223D01*
X123187401Y-106716747D01*
X123207107Y-106702132D01*
X123228150Y-106689520D01*
X123250329Y-106679030D01*
X123273428Y-106670765D01*
X123297227Y-106664804D01*
X123321495Y-106661204D01*
X123345999Y-106660000D01*
X124246001Y-106660000D01*
X124270505Y-106661204D01*
X124270505Y-106661204D01*
G37*
D11*
X123796000Y-107235000D03*
D10*
G36*
X124270505Y-108711204D02*
G01*
X124294773Y-108714804D01*
X124318572Y-108720765D01*
X124341671Y-108729030D01*
X124363850Y-108739520D01*
X124384893Y-108752132D01*
X124404599Y-108766747D01*
X124422777Y-108783223D01*
X124439253Y-108801401D01*
X124453868Y-108821107D01*
X124466480Y-108842150D01*
X124476970Y-108864329D01*
X124485235Y-108887428D01*
X124491196Y-108911227D01*
X124494796Y-108935495D01*
X124496000Y-108959999D01*
X124496000Y-109610001D01*
X124494796Y-109634505D01*
X124491196Y-109658773D01*
X124485235Y-109682572D01*
X124476970Y-109705671D01*
X124466480Y-109727850D01*
X124453868Y-109748893D01*
X124439253Y-109768599D01*
X124422777Y-109786777D01*
X124404599Y-109803253D01*
X124384893Y-109817868D01*
X124363850Y-109830480D01*
X124341671Y-109840970D01*
X124318572Y-109849235D01*
X124294773Y-109855196D01*
X124270505Y-109858796D01*
X124246001Y-109860000D01*
X123345999Y-109860000D01*
X123321495Y-109858796D01*
X123297227Y-109855196D01*
X123273428Y-109849235D01*
X123250329Y-109840970D01*
X123228150Y-109830480D01*
X123207107Y-109817868D01*
X123187401Y-109803253D01*
X123169223Y-109786777D01*
X123152747Y-109768599D01*
X123138132Y-109748893D01*
X123125520Y-109727850D01*
X123115030Y-109705671D01*
X123106765Y-109682572D01*
X123100804Y-109658773D01*
X123097204Y-109634505D01*
X123096000Y-109610001D01*
X123096000Y-108959999D01*
X123097204Y-108935495D01*
X123100804Y-108911227D01*
X123106765Y-108887428D01*
X123115030Y-108864329D01*
X123125520Y-108842150D01*
X123138132Y-108821107D01*
X123152747Y-108801401D01*
X123169223Y-108783223D01*
X123187401Y-108766747D01*
X123207107Y-108752132D01*
X123228150Y-108739520D01*
X123250329Y-108729030D01*
X123273428Y-108720765D01*
X123297227Y-108714804D01*
X123321495Y-108711204D01*
X123345999Y-108710000D01*
X124246001Y-108710000D01*
X124270505Y-108711204D01*
X124270505Y-108711204D01*
G37*
D11*
X123796000Y-109285000D03*
D10*
G36*
X114491505Y-143736204D02*
G01*
X114515773Y-143739804D01*
X114539572Y-143745765D01*
X114562671Y-143754030D01*
X114584850Y-143764520D01*
X114605893Y-143777132D01*
X114625599Y-143791747D01*
X114643777Y-143808223D01*
X114660253Y-143826401D01*
X114674868Y-143846107D01*
X114687480Y-143867150D01*
X114697970Y-143889329D01*
X114706235Y-143912428D01*
X114712196Y-143936227D01*
X114715796Y-143960495D01*
X114717000Y-143984999D01*
X114717000Y-144635001D01*
X114715796Y-144659505D01*
X114712196Y-144683773D01*
X114706235Y-144707572D01*
X114697970Y-144730671D01*
X114687480Y-144752850D01*
X114674868Y-144773893D01*
X114660253Y-144793599D01*
X114643777Y-144811777D01*
X114625599Y-144828253D01*
X114605893Y-144842868D01*
X114584850Y-144855480D01*
X114562671Y-144865970D01*
X114539572Y-144874235D01*
X114515773Y-144880196D01*
X114491505Y-144883796D01*
X114467001Y-144885000D01*
X113566999Y-144885000D01*
X113542495Y-144883796D01*
X113518227Y-144880196D01*
X113494428Y-144874235D01*
X113471329Y-144865970D01*
X113449150Y-144855480D01*
X113428107Y-144842868D01*
X113408401Y-144828253D01*
X113390223Y-144811777D01*
X113373747Y-144793599D01*
X113359132Y-144773893D01*
X113346520Y-144752850D01*
X113336030Y-144730671D01*
X113327765Y-144707572D01*
X113321804Y-144683773D01*
X113318204Y-144659505D01*
X113317000Y-144635001D01*
X113317000Y-143984999D01*
X113318204Y-143960495D01*
X113321804Y-143936227D01*
X113327765Y-143912428D01*
X113336030Y-143889329D01*
X113346520Y-143867150D01*
X113359132Y-143846107D01*
X113373747Y-143826401D01*
X113390223Y-143808223D01*
X113408401Y-143791747D01*
X113428107Y-143777132D01*
X113449150Y-143764520D01*
X113471329Y-143754030D01*
X113494428Y-143745765D01*
X113518227Y-143739804D01*
X113542495Y-143736204D01*
X113566999Y-143735000D01*
X114467001Y-143735000D01*
X114491505Y-143736204D01*
X114491505Y-143736204D01*
G37*
D11*
X114017000Y-144310000D03*
D10*
G36*
X114491505Y-145786204D02*
G01*
X114515773Y-145789804D01*
X114539572Y-145795765D01*
X114562671Y-145804030D01*
X114584850Y-145814520D01*
X114605893Y-145827132D01*
X114625599Y-145841747D01*
X114643777Y-145858223D01*
X114660253Y-145876401D01*
X114674868Y-145896107D01*
X114687480Y-145917150D01*
X114697970Y-145939329D01*
X114706235Y-145962428D01*
X114712196Y-145986227D01*
X114715796Y-146010495D01*
X114717000Y-146034999D01*
X114717000Y-146685001D01*
X114715796Y-146709505D01*
X114712196Y-146733773D01*
X114706235Y-146757572D01*
X114697970Y-146780671D01*
X114687480Y-146802850D01*
X114674868Y-146823893D01*
X114660253Y-146843599D01*
X114643777Y-146861777D01*
X114625599Y-146878253D01*
X114605893Y-146892868D01*
X114584850Y-146905480D01*
X114562671Y-146915970D01*
X114539572Y-146924235D01*
X114515773Y-146930196D01*
X114491505Y-146933796D01*
X114467001Y-146935000D01*
X113566999Y-146935000D01*
X113542495Y-146933796D01*
X113518227Y-146930196D01*
X113494428Y-146924235D01*
X113471329Y-146915970D01*
X113449150Y-146905480D01*
X113428107Y-146892868D01*
X113408401Y-146878253D01*
X113390223Y-146861777D01*
X113373747Y-146843599D01*
X113359132Y-146823893D01*
X113346520Y-146802850D01*
X113336030Y-146780671D01*
X113327765Y-146757572D01*
X113321804Y-146733773D01*
X113318204Y-146709505D01*
X113317000Y-146685001D01*
X113317000Y-146034999D01*
X113318204Y-146010495D01*
X113321804Y-145986227D01*
X113327765Y-145962428D01*
X113336030Y-145939329D01*
X113346520Y-145917150D01*
X113359132Y-145896107D01*
X113373747Y-145876401D01*
X113390223Y-145858223D01*
X113408401Y-145841747D01*
X113428107Y-145827132D01*
X113449150Y-145814520D01*
X113471329Y-145804030D01*
X113494428Y-145795765D01*
X113518227Y-145789804D01*
X113542495Y-145786204D01*
X113566999Y-145785000D01*
X114467001Y-145785000D01*
X114491505Y-145786204D01*
X114491505Y-145786204D01*
G37*
D11*
X114017000Y-146360000D03*
D10*
G36*
X126286505Y-157717204D02*
G01*
X126310773Y-157720804D01*
X126334572Y-157726765D01*
X126357671Y-157735030D01*
X126379850Y-157745520D01*
X126400893Y-157758132D01*
X126420599Y-157772747D01*
X126438777Y-157789223D01*
X126455253Y-157807401D01*
X126469868Y-157827107D01*
X126482480Y-157848150D01*
X126492970Y-157870329D01*
X126501235Y-157893428D01*
X126507196Y-157917227D01*
X126510796Y-157941495D01*
X126512000Y-157965999D01*
X126512000Y-158866001D01*
X126510796Y-158890505D01*
X126507196Y-158914773D01*
X126501235Y-158938572D01*
X126492970Y-158961671D01*
X126482480Y-158983850D01*
X126469868Y-159004893D01*
X126455253Y-159024599D01*
X126438777Y-159042777D01*
X126420599Y-159059253D01*
X126400893Y-159073868D01*
X126379850Y-159086480D01*
X126357671Y-159096970D01*
X126334572Y-159105235D01*
X126310773Y-159111196D01*
X126286505Y-159114796D01*
X126262001Y-159116000D01*
X125611999Y-159116000D01*
X125587495Y-159114796D01*
X125563227Y-159111196D01*
X125539428Y-159105235D01*
X125516329Y-159096970D01*
X125494150Y-159086480D01*
X125473107Y-159073868D01*
X125453401Y-159059253D01*
X125435223Y-159042777D01*
X125418747Y-159024599D01*
X125404132Y-159004893D01*
X125391520Y-158983850D01*
X125381030Y-158961671D01*
X125372765Y-158938572D01*
X125366804Y-158914773D01*
X125363204Y-158890505D01*
X125362000Y-158866001D01*
X125362000Y-157965999D01*
X125363204Y-157941495D01*
X125366804Y-157917227D01*
X125372765Y-157893428D01*
X125381030Y-157870329D01*
X125391520Y-157848150D01*
X125404132Y-157827107D01*
X125418747Y-157807401D01*
X125435223Y-157789223D01*
X125453401Y-157772747D01*
X125473107Y-157758132D01*
X125494150Y-157745520D01*
X125516329Y-157735030D01*
X125539428Y-157726765D01*
X125563227Y-157720804D01*
X125587495Y-157717204D01*
X125611999Y-157716000D01*
X126262001Y-157716000D01*
X126286505Y-157717204D01*
X126286505Y-157717204D01*
G37*
D11*
X125937000Y-158416000D03*
D10*
G36*
X128336505Y-157717204D02*
G01*
X128360773Y-157720804D01*
X128384572Y-157726765D01*
X128407671Y-157735030D01*
X128429850Y-157745520D01*
X128450893Y-157758132D01*
X128470599Y-157772747D01*
X128488777Y-157789223D01*
X128505253Y-157807401D01*
X128519868Y-157827107D01*
X128532480Y-157848150D01*
X128542970Y-157870329D01*
X128551235Y-157893428D01*
X128557196Y-157917227D01*
X128560796Y-157941495D01*
X128562000Y-157965999D01*
X128562000Y-158866001D01*
X128560796Y-158890505D01*
X128557196Y-158914773D01*
X128551235Y-158938572D01*
X128542970Y-158961671D01*
X128532480Y-158983850D01*
X128519868Y-159004893D01*
X128505253Y-159024599D01*
X128488777Y-159042777D01*
X128470599Y-159059253D01*
X128450893Y-159073868D01*
X128429850Y-159086480D01*
X128407671Y-159096970D01*
X128384572Y-159105235D01*
X128360773Y-159111196D01*
X128336505Y-159114796D01*
X128312001Y-159116000D01*
X127661999Y-159116000D01*
X127637495Y-159114796D01*
X127613227Y-159111196D01*
X127589428Y-159105235D01*
X127566329Y-159096970D01*
X127544150Y-159086480D01*
X127523107Y-159073868D01*
X127503401Y-159059253D01*
X127485223Y-159042777D01*
X127468747Y-159024599D01*
X127454132Y-159004893D01*
X127441520Y-158983850D01*
X127431030Y-158961671D01*
X127422765Y-158938572D01*
X127416804Y-158914773D01*
X127413204Y-158890505D01*
X127412000Y-158866001D01*
X127412000Y-157965999D01*
X127413204Y-157941495D01*
X127416804Y-157917227D01*
X127422765Y-157893428D01*
X127431030Y-157870329D01*
X127441520Y-157848150D01*
X127454132Y-157827107D01*
X127468747Y-157807401D01*
X127485223Y-157789223D01*
X127503401Y-157772747D01*
X127523107Y-157758132D01*
X127544150Y-157745520D01*
X127566329Y-157735030D01*
X127589428Y-157726765D01*
X127613227Y-157720804D01*
X127637495Y-157717204D01*
X127661999Y-157716000D01*
X128312001Y-157716000D01*
X128336505Y-157717204D01*
X128336505Y-157717204D01*
G37*
D11*
X127987000Y-158416000D03*
D10*
G36*
X121857505Y-108693204D02*
G01*
X121881773Y-108696804D01*
X121905572Y-108702765D01*
X121928671Y-108711030D01*
X121950850Y-108721520D01*
X121971893Y-108734132D01*
X121991599Y-108748747D01*
X122009777Y-108765223D01*
X122026253Y-108783401D01*
X122040868Y-108803107D01*
X122053480Y-108824150D01*
X122063970Y-108846329D01*
X122072235Y-108869428D01*
X122078196Y-108893227D01*
X122081796Y-108917495D01*
X122083000Y-108941999D01*
X122083000Y-109592001D01*
X122081796Y-109616505D01*
X122078196Y-109640773D01*
X122072235Y-109664572D01*
X122063970Y-109687671D01*
X122053480Y-109709850D01*
X122040868Y-109730893D01*
X122026253Y-109750599D01*
X122009777Y-109768777D01*
X121991599Y-109785253D01*
X121971893Y-109799868D01*
X121950850Y-109812480D01*
X121928671Y-109822970D01*
X121905572Y-109831235D01*
X121881773Y-109837196D01*
X121857505Y-109840796D01*
X121833001Y-109842000D01*
X120932999Y-109842000D01*
X120908495Y-109840796D01*
X120884227Y-109837196D01*
X120860428Y-109831235D01*
X120837329Y-109822970D01*
X120815150Y-109812480D01*
X120794107Y-109799868D01*
X120774401Y-109785253D01*
X120756223Y-109768777D01*
X120739747Y-109750599D01*
X120725132Y-109730893D01*
X120712520Y-109709850D01*
X120702030Y-109687671D01*
X120693765Y-109664572D01*
X120687804Y-109640773D01*
X120684204Y-109616505D01*
X120683000Y-109592001D01*
X120683000Y-108941999D01*
X120684204Y-108917495D01*
X120687804Y-108893227D01*
X120693765Y-108869428D01*
X120702030Y-108846329D01*
X120712520Y-108824150D01*
X120725132Y-108803107D01*
X120739747Y-108783401D01*
X120756223Y-108765223D01*
X120774401Y-108748747D01*
X120794107Y-108734132D01*
X120815150Y-108721520D01*
X120837329Y-108711030D01*
X120860428Y-108702765D01*
X120884227Y-108696804D01*
X120908495Y-108693204D01*
X120932999Y-108692000D01*
X121833001Y-108692000D01*
X121857505Y-108693204D01*
X121857505Y-108693204D01*
G37*
D11*
X121383000Y-109267000D03*
D10*
G36*
X121857505Y-106643204D02*
G01*
X121881773Y-106646804D01*
X121905572Y-106652765D01*
X121928671Y-106661030D01*
X121950850Y-106671520D01*
X121971893Y-106684132D01*
X121991599Y-106698747D01*
X122009777Y-106715223D01*
X122026253Y-106733401D01*
X122040868Y-106753107D01*
X122053480Y-106774150D01*
X122063970Y-106796329D01*
X122072235Y-106819428D01*
X122078196Y-106843227D01*
X122081796Y-106867495D01*
X122083000Y-106891999D01*
X122083000Y-107542001D01*
X122081796Y-107566505D01*
X122078196Y-107590773D01*
X122072235Y-107614572D01*
X122063970Y-107637671D01*
X122053480Y-107659850D01*
X122040868Y-107680893D01*
X122026253Y-107700599D01*
X122009777Y-107718777D01*
X121991599Y-107735253D01*
X121971893Y-107749868D01*
X121950850Y-107762480D01*
X121928671Y-107772970D01*
X121905572Y-107781235D01*
X121881773Y-107787196D01*
X121857505Y-107790796D01*
X121833001Y-107792000D01*
X120932999Y-107792000D01*
X120908495Y-107790796D01*
X120884227Y-107787196D01*
X120860428Y-107781235D01*
X120837329Y-107772970D01*
X120815150Y-107762480D01*
X120794107Y-107749868D01*
X120774401Y-107735253D01*
X120756223Y-107718777D01*
X120739747Y-107700599D01*
X120725132Y-107680893D01*
X120712520Y-107659850D01*
X120702030Y-107637671D01*
X120693765Y-107614572D01*
X120687804Y-107590773D01*
X120684204Y-107566505D01*
X120683000Y-107542001D01*
X120683000Y-106891999D01*
X120684204Y-106867495D01*
X120687804Y-106843227D01*
X120693765Y-106819428D01*
X120702030Y-106796329D01*
X120712520Y-106774150D01*
X120725132Y-106753107D01*
X120739747Y-106733401D01*
X120756223Y-106715223D01*
X120774401Y-106698747D01*
X120794107Y-106684132D01*
X120815150Y-106671520D01*
X120837329Y-106661030D01*
X120860428Y-106652765D01*
X120884227Y-106646804D01*
X120908495Y-106643204D01*
X120932999Y-106642000D01*
X121833001Y-106642000D01*
X121857505Y-106643204D01*
X121857505Y-106643204D01*
G37*
D11*
X121383000Y-107217000D03*
D14*
X130908000Y-109428000D03*
X130908000Y-107328000D03*
X128622000Y-107328000D03*
X128622000Y-109428000D03*
X126336000Y-109428000D03*
X126336000Y-107328000D03*
D15*
X128273000Y-148825000D03*
X128273000Y-146925000D03*
X130273000Y-147875000D03*
D10*
G36*
X112205505Y-152118204D02*
G01*
X112229773Y-152121804D01*
X112253572Y-152127765D01*
X112276671Y-152136030D01*
X112298850Y-152146520D01*
X112319893Y-152159132D01*
X112339599Y-152173747D01*
X112357777Y-152190223D01*
X112374253Y-152208401D01*
X112388868Y-152228107D01*
X112401480Y-152249150D01*
X112411970Y-152271329D01*
X112420235Y-152294428D01*
X112426196Y-152318227D01*
X112429796Y-152342495D01*
X112431000Y-152366999D01*
X112431000Y-153017001D01*
X112429796Y-153041505D01*
X112426196Y-153065773D01*
X112420235Y-153089572D01*
X112411970Y-153112671D01*
X112401480Y-153134850D01*
X112388868Y-153155893D01*
X112374253Y-153175599D01*
X112357777Y-153193777D01*
X112339599Y-153210253D01*
X112319893Y-153224868D01*
X112298850Y-153237480D01*
X112276671Y-153247970D01*
X112253572Y-153256235D01*
X112229773Y-153262196D01*
X112205505Y-153265796D01*
X112181001Y-153267000D01*
X111280999Y-153267000D01*
X111256495Y-153265796D01*
X111232227Y-153262196D01*
X111208428Y-153256235D01*
X111185329Y-153247970D01*
X111163150Y-153237480D01*
X111142107Y-153224868D01*
X111122401Y-153210253D01*
X111104223Y-153193777D01*
X111087747Y-153175599D01*
X111073132Y-153155893D01*
X111060520Y-153134850D01*
X111050030Y-153112671D01*
X111041765Y-153089572D01*
X111035804Y-153065773D01*
X111032204Y-153041505D01*
X111031000Y-153017001D01*
X111031000Y-152366999D01*
X111032204Y-152342495D01*
X111035804Y-152318227D01*
X111041765Y-152294428D01*
X111050030Y-152271329D01*
X111060520Y-152249150D01*
X111073132Y-152228107D01*
X111087747Y-152208401D01*
X111104223Y-152190223D01*
X111122401Y-152173747D01*
X111142107Y-152159132D01*
X111163150Y-152146520D01*
X111185329Y-152136030D01*
X111208428Y-152127765D01*
X111232227Y-152121804D01*
X111256495Y-152118204D01*
X111280999Y-152117000D01*
X112181001Y-152117000D01*
X112205505Y-152118204D01*
X112205505Y-152118204D01*
G37*
D11*
X111731000Y-152692000D03*
D10*
G36*
X112205505Y-154168204D02*
G01*
X112229773Y-154171804D01*
X112253572Y-154177765D01*
X112276671Y-154186030D01*
X112298850Y-154196520D01*
X112319893Y-154209132D01*
X112339599Y-154223747D01*
X112357777Y-154240223D01*
X112374253Y-154258401D01*
X112388868Y-154278107D01*
X112401480Y-154299150D01*
X112411970Y-154321329D01*
X112420235Y-154344428D01*
X112426196Y-154368227D01*
X112429796Y-154392495D01*
X112431000Y-154416999D01*
X112431000Y-155067001D01*
X112429796Y-155091505D01*
X112426196Y-155115773D01*
X112420235Y-155139572D01*
X112411970Y-155162671D01*
X112401480Y-155184850D01*
X112388868Y-155205893D01*
X112374253Y-155225599D01*
X112357777Y-155243777D01*
X112339599Y-155260253D01*
X112319893Y-155274868D01*
X112298850Y-155287480D01*
X112276671Y-155297970D01*
X112253572Y-155306235D01*
X112229773Y-155312196D01*
X112205505Y-155315796D01*
X112181001Y-155317000D01*
X111280999Y-155317000D01*
X111256495Y-155315796D01*
X111232227Y-155312196D01*
X111208428Y-155306235D01*
X111185329Y-155297970D01*
X111163150Y-155287480D01*
X111142107Y-155274868D01*
X111122401Y-155260253D01*
X111104223Y-155243777D01*
X111087747Y-155225599D01*
X111073132Y-155205893D01*
X111060520Y-155184850D01*
X111050030Y-155162671D01*
X111041765Y-155139572D01*
X111035804Y-155115773D01*
X111032204Y-155091505D01*
X111031000Y-155067001D01*
X111031000Y-154416999D01*
X111032204Y-154392495D01*
X111035804Y-154368227D01*
X111041765Y-154344428D01*
X111050030Y-154321329D01*
X111060520Y-154299150D01*
X111073132Y-154278107D01*
X111087747Y-154258401D01*
X111104223Y-154240223D01*
X111122401Y-154223747D01*
X111142107Y-154209132D01*
X111163150Y-154196520D01*
X111185329Y-154186030D01*
X111208428Y-154177765D01*
X111232227Y-154171804D01*
X111256495Y-154168204D01*
X111280999Y-154167000D01*
X112181001Y-154167000D01*
X112205505Y-154168204D01*
X112205505Y-154168204D01*
G37*
D11*
X111731000Y-154742000D03*
D10*
G36*
X126286505Y-154923204D02*
G01*
X126310773Y-154926804D01*
X126334572Y-154932765D01*
X126357671Y-154941030D01*
X126379850Y-154951520D01*
X126400893Y-154964132D01*
X126420599Y-154978747D01*
X126438777Y-154995223D01*
X126455253Y-155013401D01*
X126469868Y-155033107D01*
X126482480Y-155054150D01*
X126492970Y-155076329D01*
X126501235Y-155099428D01*
X126507196Y-155123227D01*
X126510796Y-155147495D01*
X126512000Y-155171999D01*
X126512000Y-156072001D01*
X126510796Y-156096505D01*
X126507196Y-156120773D01*
X126501235Y-156144572D01*
X126492970Y-156167671D01*
X126482480Y-156189850D01*
X126469868Y-156210893D01*
X126455253Y-156230599D01*
X126438777Y-156248777D01*
X126420599Y-156265253D01*
X126400893Y-156279868D01*
X126379850Y-156292480D01*
X126357671Y-156302970D01*
X126334572Y-156311235D01*
X126310773Y-156317196D01*
X126286505Y-156320796D01*
X126262001Y-156322000D01*
X125611999Y-156322000D01*
X125587495Y-156320796D01*
X125563227Y-156317196D01*
X125539428Y-156311235D01*
X125516329Y-156302970D01*
X125494150Y-156292480D01*
X125473107Y-156279868D01*
X125453401Y-156265253D01*
X125435223Y-156248777D01*
X125418747Y-156230599D01*
X125404132Y-156210893D01*
X125391520Y-156189850D01*
X125381030Y-156167671D01*
X125372765Y-156144572D01*
X125366804Y-156120773D01*
X125363204Y-156096505D01*
X125362000Y-156072001D01*
X125362000Y-155171999D01*
X125363204Y-155147495D01*
X125366804Y-155123227D01*
X125372765Y-155099428D01*
X125381030Y-155076329D01*
X125391520Y-155054150D01*
X125404132Y-155033107D01*
X125418747Y-155013401D01*
X125435223Y-154995223D01*
X125453401Y-154978747D01*
X125473107Y-154964132D01*
X125494150Y-154951520D01*
X125516329Y-154941030D01*
X125539428Y-154932765D01*
X125563227Y-154926804D01*
X125587495Y-154923204D01*
X125611999Y-154922000D01*
X126262001Y-154922000D01*
X126286505Y-154923204D01*
X126286505Y-154923204D01*
G37*
D11*
X125937000Y-155622000D03*
D10*
G36*
X128336505Y-154923204D02*
G01*
X128360773Y-154926804D01*
X128384572Y-154932765D01*
X128407671Y-154941030D01*
X128429850Y-154951520D01*
X128450893Y-154964132D01*
X128470599Y-154978747D01*
X128488777Y-154995223D01*
X128505253Y-155013401D01*
X128519868Y-155033107D01*
X128532480Y-155054150D01*
X128542970Y-155076329D01*
X128551235Y-155099428D01*
X128557196Y-155123227D01*
X128560796Y-155147495D01*
X128562000Y-155171999D01*
X128562000Y-156072001D01*
X128560796Y-156096505D01*
X128557196Y-156120773D01*
X128551235Y-156144572D01*
X128542970Y-156167671D01*
X128532480Y-156189850D01*
X128519868Y-156210893D01*
X128505253Y-156230599D01*
X128488777Y-156248777D01*
X128470599Y-156265253D01*
X128450893Y-156279868D01*
X128429850Y-156292480D01*
X128407671Y-156302970D01*
X128384572Y-156311235D01*
X128360773Y-156317196D01*
X128336505Y-156320796D01*
X128312001Y-156322000D01*
X127661999Y-156322000D01*
X127637495Y-156320796D01*
X127613227Y-156317196D01*
X127589428Y-156311235D01*
X127566329Y-156302970D01*
X127544150Y-156292480D01*
X127523107Y-156279868D01*
X127503401Y-156265253D01*
X127485223Y-156248777D01*
X127468747Y-156230599D01*
X127454132Y-156210893D01*
X127441520Y-156189850D01*
X127431030Y-156167671D01*
X127422765Y-156144572D01*
X127416804Y-156120773D01*
X127413204Y-156096505D01*
X127412000Y-156072001D01*
X127412000Y-155171999D01*
X127413204Y-155147495D01*
X127416804Y-155123227D01*
X127422765Y-155099428D01*
X127431030Y-155076329D01*
X127441520Y-155054150D01*
X127454132Y-155033107D01*
X127468747Y-155013401D01*
X127485223Y-154995223D01*
X127503401Y-154978747D01*
X127523107Y-154964132D01*
X127544150Y-154951520D01*
X127566329Y-154941030D01*
X127589428Y-154932765D01*
X127613227Y-154926804D01*
X127637495Y-154923204D01*
X127661999Y-154922000D01*
X128312001Y-154922000D01*
X128336505Y-154923204D01*
X128336505Y-154923204D01*
G37*
D11*
X127987000Y-155622000D03*
D10*
G36*
X110173505Y-154168204D02*
G01*
X110197773Y-154171804D01*
X110221572Y-154177765D01*
X110244671Y-154186030D01*
X110266850Y-154196520D01*
X110287893Y-154209132D01*
X110307599Y-154223747D01*
X110325777Y-154240223D01*
X110342253Y-154258401D01*
X110356868Y-154278107D01*
X110369480Y-154299150D01*
X110379970Y-154321329D01*
X110388235Y-154344428D01*
X110394196Y-154368227D01*
X110397796Y-154392495D01*
X110399000Y-154416999D01*
X110399000Y-155067001D01*
X110397796Y-155091505D01*
X110394196Y-155115773D01*
X110388235Y-155139572D01*
X110379970Y-155162671D01*
X110369480Y-155184850D01*
X110356868Y-155205893D01*
X110342253Y-155225599D01*
X110325777Y-155243777D01*
X110307599Y-155260253D01*
X110287893Y-155274868D01*
X110266850Y-155287480D01*
X110244671Y-155297970D01*
X110221572Y-155306235D01*
X110197773Y-155312196D01*
X110173505Y-155315796D01*
X110149001Y-155317000D01*
X109248999Y-155317000D01*
X109224495Y-155315796D01*
X109200227Y-155312196D01*
X109176428Y-155306235D01*
X109153329Y-155297970D01*
X109131150Y-155287480D01*
X109110107Y-155274868D01*
X109090401Y-155260253D01*
X109072223Y-155243777D01*
X109055747Y-155225599D01*
X109041132Y-155205893D01*
X109028520Y-155184850D01*
X109018030Y-155162671D01*
X109009765Y-155139572D01*
X109003804Y-155115773D01*
X109000204Y-155091505D01*
X108999000Y-155067001D01*
X108999000Y-154416999D01*
X109000204Y-154392495D01*
X109003804Y-154368227D01*
X109009765Y-154344428D01*
X109018030Y-154321329D01*
X109028520Y-154299150D01*
X109041132Y-154278107D01*
X109055747Y-154258401D01*
X109072223Y-154240223D01*
X109090401Y-154223747D01*
X109110107Y-154209132D01*
X109131150Y-154196520D01*
X109153329Y-154186030D01*
X109176428Y-154177765D01*
X109200227Y-154171804D01*
X109224495Y-154168204D01*
X109248999Y-154167000D01*
X110149001Y-154167000D01*
X110173505Y-154168204D01*
X110173505Y-154168204D01*
G37*
D11*
X109699000Y-154742000D03*
D10*
G36*
X110173505Y-152118204D02*
G01*
X110197773Y-152121804D01*
X110221572Y-152127765D01*
X110244671Y-152136030D01*
X110266850Y-152146520D01*
X110287893Y-152159132D01*
X110307599Y-152173747D01*
X110325777Y-152190223D01*
X110342253Y-152208401D01*
X110356868Y-152228107D01*
X110369480Y-152249150D01*
X110379970Y-152271329D01*
X110388235Y-152294428D01*
X110394196Y-152318227D01*
X110397796Y-152342495D01*
X110399000Y-152366999D01*
X110399000Y-153017001D01*
X110397796Y-153041505D01*
X110394196Y-153065773D01*
X110388235Y-153089572D01*
X110379970Y-153112671D01*
X110369480Y-153134850D01*
X110356868Y-153155893D01*
X110342253Y-153175599D01*
X110325777Y-153193777D01*
X110307599Y-153210253D01*
X110287893Y-153224868D01*
X110266850Y-153237480D01*
X110244671Y-153247970D01*
X110221572Y-153256235D01*
X110197773Y-153262196D01*
X110173505Y-153265796D01*
X110149001Y-153267000D01*
X109248999Y-153267000D01*
X109224495Y-153265796D01*
X109200227Y-153262196D01*
X109176428Y-153256235D01*
X109153329Y-153247970D01*
X109131150Y-153237480D01*
X109110107Y-153224868D01*
X109090401Y-153210253D01*
X109072223Y-153193777D01*
X109055747Y-153175599D01*
X109041132Y-153155893D01*
X109028520Y-153134850D01*
X109018030Y-153112671D01*
X109009765Y-153089572D01*
X109003804Y-153065773D01*
X109000204Y-153041505D01*
X108999000Y-153017001D01*
X108999000Y-152366999D01*
X109000204Y-152342495D01*
X109003804Y-152318227D01*
X109009765Y-152294428D01*
X109018030Y-152271329D01*
X109028520Y-152249150D01*
X109041132Y-152228107D01*
X109055747Y-152208401D01*
X109072223Y-152190223D01*
X109090401Y-152173747D01*
X109110107Y-152159132D01*
X109131150Y-152146520D01*
X109153329Y-152136030D01*
X109176428Y-152127765D01*
X109200227Y-152121804D01*
X109224495Y-152118204D01*
X109248999Y-152117000D01*
X110149001Y-152117000D01*
X110173505Y-152118204D01*
X110173505Y-152118204D01*
G37*
D11*
X109699000Y-152692000D03*
D10*
G36*
X121857505Y-143745204D02*
G01*
X121881773Y-143748804D01*
X121905572Y-143754765D01*
X121928671Y-143763030D01*
X121950850Y-143773520D01*
X121971893Y-143786132D01*
X121991599Y-143800747D01*
X122009777Y-143817223D01*
X122026253Y-143835401D01*
X122040868Y-143855107D01*
X122053480Y-143876150D01*
X122063970Y-143898329D01*
X122072235Y-143921428D01*
X122078196Y-143945227D01*
X122081796Y-143969495D01*
X122083000Y-143993999D01*
X122083000Y-144644001D01*
X122081796Y-144668505D01*
X122078196Y-144692773D01*
X122072235Y-144716572D01*
X122063970Y-144739671D01*
X122053480Y-144761850D01*
X122040868Y-144782893D01*
X122026253Y-144802599D01*
X122009777Y-144820777D01*
X121991599Y-144837253D01*
X121971893Y-144851868D01*
X121950850Y-144864480D01*
X121928671Y-144874970D01*
X121905572Y-144883235D01*
X121881773Y-144889196D01*
X121857505Y-144892796D01*
X121833001Y-144894000D01*
X120932999Y-144894000D01*
X120908495Y-144892796D01*
X120884227Y-144889196D01*
X120860428Y-144883235D01*
X120837329Y-144874970D01*
X120815150Y-144864480D01*
X120794107Y-144851868D01*
X120774401Y-144837253D01*
X120756223Y-144820777D01*
X120739747Y-144802599D01*
X120725132Y-144782893D01*
X120712520Y-144761850D01*
X120702030Y-144739671D01*
X120693765Y-144716572D01*
X120687804Y-144692773D01*
X120684204Y-144668505D01*
X120683000Y-144644001D01*
X120683000Y-143993999D01*
X120684204Y-143969495D01*
X120687804Y-143945227D01*
X120693765Y-143921428D01*
X120702030Y-143898329D01*
X120712520Y-143876150D01*
X120725132Y-143855107D01*
X120739747Y-143835401D01*
X120756223Y-143817223D01*
X120774401Y-143800747D01*
X120794107Y-143786132D01*
X120815150Y-143773520D01*
X120837329Y-143763030D01*
X120860428Y-143754765D01*
X120884227Y-143748804D01*
X120908495Y-143745204D01*
X120932999Y-143744000D01*
X121833001Y-143744000D01*
X121857505Y-143745204D01*
X121857505Y-143745204D01*
G37*
D11*
X121383000Y-144319000D03*
D10*
G36*
X121857505Y-145795204D02*
G01*
X121881773Y-145798804D01*
X121905572Y-145804765D01*
X121928671Y-145813030D01*
X121950850Y-145823520D01*
X121971893Y-145836132D01*
X121991599Y-145850747D01*
X122009777Y-145867223D01*
X122026253Y-145885401D01*
X122040868Y-145905107D01*
X122053480Y-145926150D01*
X122063970Y-145948329D01*
X122072235Y-145971428D01*
X122078196Y-145995227D01*
X122081796Y-146019495D01*
X122083000Y-146043999D01*
X122083000Y-146694001D01*
X122081796Y-146718505D01*
X122078196Y-146742773D01*
X122072235Y-146766572D01*
X122063970Y-146789671D01*
X122053480Y-146811850D01*
X122040868Y-146832893D01*
X122026253Y-146852599D01*
X122009777Y-146870777D01*
X121991599Y-146887253D01*
X121971893Y-146901868D01*
X121950850Y-146914480D01*
X121928671Y-146924970D01*
X121905572Y-146933235D01*
X121881773Y-146939196D01*
X121857505Y-146942796D01*
X121833001Y-146944000D01*
X120932999Y-146944000D01*
X120908495Y-146942796D01*
X120884227Y-146939196D01*
X120860428Y-146933235D01*
X120837329Y-146924970D01*
X120815150Y-146914480D01*
X120794107Y-146901868D01*
X120774401Y-146887253D01*
X120756223Y-146870777D01*
X120739747Y-146852599D01*
X120725132Y-146832893D01*
X120712520Y-146811850D01*
X120702030Y-146789671D01*
X120693765Y-146766572D01*
X120687804Y-146742773D01*
X120684204Y-146718505D01*
X120683000Y-146694001D01*
X120683000Y-146043999D01*
X120684204Y-146019495D01*
X120687804Y-145995227D01*
X120693765Y-145971428D01*
X120702030Y-145948329D01*
X120712520Y-145926150D01*
X120725132Y-145905107D01*
X120739747Y-145885401D01*
X120756223Y-145867223D01*
X120774401Y-145850747D01*
X120794107Y-145836132D01*
X120815150Y-145823520D01*
X120837329Y-145813030D01*
X120860428Y-145804765D01*
X120884227Y-145798804D01*
X120908495Y-145795204D01*
X120932999Y-145794000D01*
X121833001Y-145794000D01*
X121857505Y-145795204D01*
X121857505Y-145795204D01*
G37*
D11*
X121383000Y-146369000D03*
D10*
G36*
X119444505Y-143727204D02*
G01*
X119468773Y-143730804D01*
X119492572Y-143736765D01*
X119515671Y-143745030D01*
X119537850Y-143755520D01*
X119558893Y-143768132D01*
X119578599Y-143782747D01*
X119596777Y-143799223D01*
X119613253Y-143817401D01*
X119627868Y-143837107D01*
X119640480Y-143858150D01*
X119650970Y-143880329D01*
X119659235Y-143903428D01*
X119665196Y-143927227D01*
X119668796Y-143951495D01*
X119670000Y-143975999D01*
X119670000Y-144626001D01*
X119668796Y-144650505D01*
X119665196Y-144674773D01*
X119659235Y-144698572D01*
X119650970Y-144721671D01*
X119640480Y-144743850D01*
X119627868Y-144764893D01*
X119613253Y-144784599D01*
X119596777Y-144802777D01*
X119578599Y-144819253D01*
X119558893Y-144833868D01*
X119537850Y-144846480D01*
X119515671Y-144856970D01*
X119492572Y-144865235D01*
X119468773Y-144871196D01*
X119444505Y-144874796D01*
X119420001Y-144876000D01*
X118519999Y-144876000D01*
X118495495Y-144874796D01*
X118471227Y-144871196D01*
X118447428Y-144865235D01*
X118424329Y-144856970D01*
X118402150Y-144846480D01*
X118381107Y-144833868D01*
X118361401Y-144819253D01*
X118343223Y-144802777D01*
X118326747Y-144784599D01*
X118312132Y-144764893D01*
X118299520Y-144743850D01*
X118289030Y-144721671D01*
X118280765Y-144698572D01*
X118274804Y-144674773D01*
X118271204Y-144650505D01*
X118270000Y-144626001D01*
X118270000Y-143975999D01*
X118271204Y-143951495D01*
X118274804Y-143927227D01*
X118280765Y-143903428D01*
X118289030Y-143880329D01*
X118299520Y-143858150D01*
X118312132Y-143837107D01*
X118326747Y-143817401D01*
X118343223Y-143799223D01*
X118361401Y-143782747D01*
X118381107Y-143768132D01*
X118402150Y-143755520D01*
X118424329Y-143745030D01*
X118447428Y-143736765D01*
X118471227Y-143730804D01*
X118495495Y-143727204D01*
X118519999Y-143726000D01*
X119420001Y-143726000D01*
X119444505Y-143727204D01*
X119444505Y-143727204D01*
G37*
D11*
X118970000Y-144301000D03*
D10*
G36*
X119444505Y-145777204D02*
G01*
X119468773Y-145780804D01*
X119492572Y-145786765D01*
X119515671Y-145795030D01*
X119537850Y-145805520D01*
X119558893Y-145818132D01*
X119578599Y-145832747D01*
X119596777Y-145849223D01*
X119613253Y-145867401D01*
X119627868Y-145887107D01*
X119640480Y-145908150D01*
X119650970Y-145930329D01*
X119659235Y-145953428D01*
X119665196Y-145977227D01*
X119668796Y-146001495D01*
X119670000Y-146025999D01*
X119670000Y-146676001D01*
X119668796Y-146700505D01*
X119665196Y-146724773D01*
X119659235Y-146748572D01*
X119650970Y-146771671D01*
X119640480Y-146793850D01*
X119627868Y-146814893D01*
X119613253Y-146834599D01*
X119596777Y-146852777D01*
X119578599Y-146869253D01*
X119558893Y-146883868D01*
X119537850Y-146896480D01*
X119515671Y-146906970D01*
X119492572Y-146915235D01*
X119468773Y-146921196D01*
X119444505Y-146924796D01*
X119420001Y-146926000D01*
X118519999Y-146926000D01*
X118495495Y-146924796D01*
X118471227Y-146921196D01*
X118447428Y-146915235D01*
X118424329Y-146906970D01*
X118402150Y-146896480D01*
X118381107Y-146883868D01*
X118361401Y-146869253D01*
X118343223Y-146852777D01*
X118326747Y-146834599D01*
X118312132Y-146814893D01*
X118299520Y-146793850D01*
X118289030Y-146771671D01*
X118280765Y-146748572D01*
X118274804Y-146724773D01*
X118271204Y-146700505D01*
X118270000Y-146676001D01*
X118270000Y-146025999D01*
X118271204Y-146001495D01*
X118274804Y-145977227D01*
X118280765Y-145953428D01*
X118289030Y-145930329D01*
X118299520Y-145908150D01*
X118312132Y-145887107D01*
X118326747Y-145867401D01*
X118343223Y-145849223D01*
X118361401Y-145832747D01*
X118381107Y-145818132D01*
X118402150Y-145805520D01*
X118424329Y-145795030D01*
X118447428Y-145786765D01*
X118471227Y-145780804D01*
X118495495Y-145777204D01*
X118519999Y-145776000D01*
X119420001Y-145776000D01*
X119444505Y-145777204D01*
X119444505Y-145777204D01*
G37*
D11*
X118970000Y-146351000D03*
D10*
G36*
X126304505Y-160511204D02*
G01*
X126328773Y-160514804D01*
X126352572Y-160520765D01*
X126375671Y-160529030D01*
X126397850Y-160539520D01*
X126418893Y-160552132D01*
X126438599Y-160566747D01*
X126456777Y-160583223D01*
X126473253Y-160601401D01*
X126487868Y-160621107D01*
X126500480Y-160642150D01*
X126510970Y-160664329D01*
X126519235Y-160687428D01*
X126525196Y-160711227D01*
X126528796Y-160735495D01*
X126530000Y-160759999D01*
X126530000Y-161660001D01*
X126528796Y-161684505D01*
X126525196Y-161708773D01*
X126519235Y-161732572D01*
X126510970Y-161755671D01*
X126500480Y-161777850D01*
X126487868Y-161798893D01*
X126473253Y-161818599D01*
X126456777Y-161836777D01*
X126438599Y-161853253D01*
X126418893Y-161867868D01*
X126397850Y-161880480D01*
X126375671Y-161890970D01*
X126352572Y-161899235D01*
X126328773Y-161905196D01*
X126304505Y-161908796D01*
X126280001Y-161910000D01*
X125629999Y-161910000D01*
X125605495Y-161908796D01*
X125581227Y-161905196D01*
X125557428Y-161899235D01*
X125534329Y-161890970D01*
X125512150Y-161880480D01*
X125491107Y-161867868D01*
X125471401Y-161853253D01*
X125453223Y-161836777D01*
X125436747Y-161818599D01*
X125422132Y-161798893D01*
X125409520Y-161777850D01*
X125399030Y-161755671D01*
X125390765Y-161732572D01*
X125384804Y-161708773D01*
X125381204Y-161684505D01*
X125380000Y-161660001D01*
X125380000Y-160759999D01*
X125381204Y-160735495D01*
X125384804Y-160711227D01*
X125390765Y-160687428D01*
X125399030Y-160664329D01*
X125409520Y-160642150D01*
X125422132Y-160621107D01*
X125436747Y-160601401D01*
X125453223Y-160583223D01*
X125471401Y-160566747D01*
X125491107Y-160552132D01*
X125512150Y-160539520D01*
X125534329Y-160529030D01*
X125557428Y-160520765D01*
X125581227Y-160514804D01*
X125605495Y-160511204D01*
X125629999Y-160510000D01*
X126280001Y-160510000D01*
X126304505Y-160511204D01*
X126304505Y-160511204D01*
G37*
D11*
X125955000Y-161210000D03*
D10*
G36*
X128354505Y-160511204D02*
G01*
X128378773Y-160514804D01*
X128402572Y-160520765D01*
X128425671Y-160529030D01*
X128447850Y-160539520D01*
X128468893Y-160552132D01*
X128488599Y-160566747D01*
X128506777Y-160583223D01*
X128523253Y-160601401D01*
X128537868Y-160621107D01*
X128550480Y-160642150D01*
X128560970Y-160664329D01*
X128569235Y-160687428D01*
X128575196Y-160711227D01*
X128578796Y-160735495D01*
X128580000Y-160759999D01*
X128580000Y-161660001D01*
X128578796Y-161684505D01*
X128575196Y-161708773D01*
X128569235Y-161732572D01*
X128560970Y-161755671D01*
X128550480Y-161777850D01*
X128537868Y-161798893D01*
X128523253Y-161818599D01*
X128506777Y-161836777D01*
X128488599Y-161853253D01*
X128468893Y-161867868D01*
X128447850Y-161880480D01*
X128425671Y-161890970D01*
X128402572Y-161899235D01*
X128378773Y-161905196D01*
X128354505Y-161908796D01*
X128330001Y-161910000D01*
X127679999Y-161910000D01*
X127655495Y-161908796D01*
X127631227Y-161905196D01*
X127607428Y-161899235D01*
X127584329Y-161890970D01*
X127562150Y-161880480D01*
X127541107Y-161867868D01*
X127521401Y-161853253D01*
X127503223Y-161836777D01*
X127486747Y-161818599D01*
X127472132Y-161798893D01*
X127459520Y-161777850D01*
X127449030Y-161755671D01*
X127440765Y-161732572D01*
X127434804Y-161708773D01*
X127431204Y-161684505D01*
X127430000Y-161660001D01*
X127430000Y-160759999D01*
X127431204Y-160735495D01*
X127434804Y-160711227D01*
X127440765Y-160687428D01*
X127449030Y-160664329D01*
X127459520Y-160642150D01*
X127472132Y-160621107D01*
X127486747Y-160601401D01*
X127503223Y-160583223D01*
X127521401Y-160566747D01*
X127541107Y-160552132D01*
X127562150Y-160539520D01*
X127584329Y-160529030D01*
X127607428Y-160520765D01*
X127631227Y-160514804D01*
X127655495Y-160511204D01*
X127679999Y-160510000D01*
X128330001Y-160510000D01*
X128354505Y-160511204D01*
X128354505Y-160511204D01*
G37*
D11*
X128005000Y-161210000D03*
D10*
G36*
X124905505Y-152399204D02*
G01*
X124929773Y-152402804D01*
X124953572Y-152408765D01*
X124976671Y-152417030D01*
X124998850Y-152427520D01*
X125019893Y-152440132D01*
X125039599Y-152454747D01*
X125057777Y-152471223D01*
X125074253Y-152489401D01*
X125088868Y-152509107D01*
X125101480Y-152530150D01*
X125111970Y-152552329D01*
X125120235Y-152575428D01*
X125126196Y-152599227D01*
X125129796Y-152623495D01*
X125131000Y-152647999D01*
X125131000Y-153298001D01*
X125129796Y-153322505D01*
X125126196Y-153346773D01*
X125120235Y-153370572D01*
X125111970Y-153393671D01*
X125101480Y-153415850D01*
X125088868Y-153436893D01*
X125074253Y-153456599D01*
X125057777Y-153474777D01*
X125039599Y-153491253D01*
X125019893Y-153505868D01*
X124998850Y-153518480D01*
X124976671Y-153528970D01*
X124953572Y-153537235D01*
X124929773Y-153543196D01*
X124905505Y-153546796D01*
X124881001Y-153548000D01*
X123980999Y-153548000D01*
X123956495Y-153546796D01*
X123932227Y-153543196D01*
X123908428Y-153537235D01*
X123885329Y-153528970D01*
X123863150Y-153518480D01*
X123842107Y-153505868D01*
X123822401Y-153491253D01*
X123804223Y-153474777D01*
X123787747Y-153456599D01*
X123773132Y-153436893D01*
X123760520Y-153415850D01*
X123750030Y-153393671D01*
X123741765Y-153370572D01*
X123735804Y-153346773D01*
X123732204Y-153322505D01*
X123731000Y-153298001D01*
X123731000Y-152647999D01*
X123732204Y-152623495D01*
X123735804Y-152599227D01*
X123741765Y-152575428D01*
X123750030Y-152552329D01*
X123760520Y-152530150D01*
X123773132Y-152509107D01*
X123787747Y-152489401D01*
X123804223Y-152471223D01*
X123822401Y-152454747D01*
X123842107Y-152440132D01*
X123863150Y-152427520D01*
X123885329Y-152417030D01*
X123908428Y-152408765D01*
X123932227Y-152402804D01*
X123956495Y-152399204D01*
X123980999Y-152398000D01*
X124881001Y-152398000D01*
X124905505Y-152399204D01*
X124905505Y-152399204D01*
G37*
D11*
X124431000Y-152973000D03*
D10*
G36*
X124905505Y-150349204D02*
G01*
X124929773Y-150352804D01*
X124953572Y-150358765D01*
X124976671Y-150367030D01*
X124998850Y-150377520D01*
X125019893Y-150390132D01*
X125039599Y-150404747D01*
X125057777Y-150421223D01*
X125074253Y-150439401D01*
X125088868Y-150459107D01*
X125101480Y-150480150D01*
X125111970Y-150502329D01*
X125120235Y-150525428D01*
X125126196Y-150549227D01*
X125129796Y-150573495D01*
X125131000Y-150597999D01*
X125131000Y-151248001D01*
X125129796Y-151272505D01*
X125126196Y-151296773D01*
X125120235Y-151320572D01*
X125111970Y-151343671D01*
X125101480Y-151365850D01*
X125088868Y-151386893D01*
X125074253Y-151406599D01*
X125057777Y-151424777D01*
X125039599Y-151441253D01*
X125019893Y-151455868D01*
X124998850Y-151468480D01*
X124976671Y-151478970D01*
X124953572Y-151487235D01*
X124929773Y-151493196D01*
X124905505Y-151496796D01*
X124881001Y-151498000D01*
X123980999Y-151498000D01*
X123956495Y-151496796D01*
X123932227Y-151493196D01*
X123908428Y-151487235D01*
X123885329Y-151478970D01*
X123863150Y-151468480D01*
X123842107Y-151455868D01*
X123822401Y-151441253D01*
X123804223Y-151424777D01*
X123787747Y-151406599D01*
X123773132Y-151386893D01*
X123760520Y-151365850D01*
X123750030Y-151343671D01*
X123741765Y-151320572D01*
X123735804Y-151296773D01*
X123732204Y-151272505D01*
X123731000Y-151248001D01*
X123731000Y-150597999D01*
X123732204Y-150573495D01*
X123735804Y-150549227D01*
X123741765Y-150525428D01*
X123750030Y-150502329D01*
X123760520Y-150480150D01*
X123773132Y-150459107D01*
X123787747Y-150439401D01*
X123804223Y-150421223D01*
X123822401Y-150404747D01*
X123842107Y-150390132D01*
X123863150Y-150377520D01*
X123885329Y-150367030D01*
X123908428Y-150358765D01*
X123932227Y-150352804D01*
X123956495Y-150349204D01*
X123980999Y-150348000D01*
X124881001Y-150348000D01*
X124905505Y-150349204D01*
X124905505Y-150349204D01*
G37*
D11*
X124431000Y-150923000D03*
D16*
X119902000Y-155175000D03*
X119902000Y-154225000D03*
X119902000Y-153275000D03*
X122102000Y-153275000D03*
X122102000Y-155175000D03*
X122102000Y-154225000D03*
D17*
X128637000Y-127808000D03*
X126637000Y-127808000D03*
X124637000Y-127808000D03*
X122637000Y-127808000D03*
X120637000Y-127808000D03*
X118637000Y-127808000D03*
X116637000Y-127808000D03*
X114637000Y-127808000D03*
X114637000Y-111808000D03*
X116637000Y-111808000D03*
X118637000Y-111808000D03*
X120637000Y-111808000D03*
X122637000Y-111808000D03*
X124637000Y-111808000D03*
X126637000Y-111808000D03*
X128637000Y-111808000D03*
D10*
G36*
X127191505Y-150331204D02*
G01*
X127215773Y-150334804D01*
X127239572Y-150340765D01*
X127262671Y-150349030D01*
X127284850Y-150359520D01*
X127305893Y-150372132D01*
X127325599Y-150386747D01*
X127343777Y-150403223D01*
X127360253Y-150421401D01*
X127374868Y-150441107D01*
X127387480Y-150462150D01*
X127397970Y-150484329D01*
X127406235Y-150507428D01*
X127412196Y-150531227D01*
X127415796Y-150555495D01*
X127417000Y-150579999D01*
X127417000Y-151230001D01*
X127415796Y-151254505D01*
X127412196Y-151278773D01*
X127406235Y-151302572D01*
X127397970Y-151325671D01*
X127387480Y-151347850D01*
X127374868Y-151368893D01*
X127360253Y-151388599D01*
X127343777Y-151406777D01*
X127325599Y-151423253D01*
X127305893Y-151437868D01*
X127284850Y-151450480D01*
X127262671Y-151460970D01*
X127239572Y-151469235D01*
X127215773Y-151475196D01*
X127191505Y-151478796D01*
X127167001Y-151480000D01*
X126266999Y-151480000D01*
X126242495Y-151478796D01*
X126218227Y-151475196D01*
X126194428Y-151469235D01*
X126171329Y-151460970D01*
X126149150Y-151450480D01*
X126128107Y-151437868D01*
X126108401Y-151423253D01*
X126090223Y-151406777D01*
X126073747Y-151388599D01*
X126059132Y-151368893D01*
X126046520Y-151347850D01*
X126036030Y-151325671D01*
X126027765Y-151302572D01*
X126021804Y-151278773D01*
X126018204Y-151254505D01*
X126017000Y-151230001D01*
X126017000Y-150579999D01*
X126018204Y-150555495D01*
X126021804Y-150531227D01*
X126027765Y-150507428D01*
X126036030Y-150484329D01*
X126046520Y-150462150D01*
X126059132Y-150441107D01*
X126073747Y-150421401D01*
X126090223Y-150403223D01*
X126108401Y-150386747D01*
X126128107Y-150372132D01*
X126149150Y-150359520D01*
X126171329Y-150349030D01*
X126194428Y-150340765D01*
X126218227Y-150334804D01*
X126242495Y-150331204D01*
X126266999Y-150330000D01*
X127167001Y-150330000D01*
X127191505Y-150331204D01*
X127191505Y-150331204D01*
G37*
D11*
X126717000Y-150905000D03*
D10*
G36*
X127191505Y-152381204D02*
G01*
X127215773Y-152384804D01*
X127239572Y-152390765D01*
X127262671Y-152399030D01*
X127284850Y-152409520D01*
X127305893Y-152422132D01*
X127325599Y-152436747D01*
X127343777Y-152453223D01*
X127360253Y-152471401D01*
X127374868Y-152491107D01*
X127387480Y-152512150D01*
X127397970Y-152534329D01*
X127406235Y-152557428D01*
X127412196Y-152581227D01*
X127415796Y-152605495D01*
X127417000Y-152629999D01*
X127417000Y-153280001D01*
X127415796Y-153304505D01*
X127412196Y-153328773D01*
X127406235Y-153352572D01*
X127397970Y-153375671D01*
X127387480Y-153397850D01*
X127374868Y-153418893D01*
X127360253Y-153438599D01*
X127343777Y-153456777D01*
X127325599Y-153473253D01*
X127305893Y-153487868D01*
X127284850Y-153500480D01*
X127262671Y-153510970D01*
X127239572Y-153519235D01*
X127215773Y-153525196D01*
X127191505Y-153528796D01*
X127167001Y-153530000D01*
X126266999Y-153530000D01*
X126242495Y-153528796D01*
X126218227Y-153525196D01*
X126194428Y-153519235D01*
X126171329Y-153510970D01*
X126149150Y-153500480D01*
X126128107Y-153487868D01*
X126108401Y-153473253D01*
X126090223Y-153456777D01*
X126073747Y-153438599D01*
X126059132Y-153418893D01*
X126046520Y-153397850D01*
X126036030Y-153375671D01*
X126027765Y-153352572D01*
X126021804Y-153328773D01*
X126018204Y-153304505D01*
X126017000Y-153280001D01*
X126017000Y-152629999D01*
X126018204Y-152605495D01*
X126021804Y-152581227D01*
X126027765Y-152557428D01*
X126036030Y-152534329D01*
X126046520Y-152512150D01*
X126059132Y-152491107D01*
X126073747Y-152471401D01*
X126090223Y-152453223D01*
X126108401Y-152436747D01*
X126128107Y-152422132D01*
X126149150Y-152409520D01*
X126171329Y-152399030D01*
X126194428Y-152390765D01*
X126218227Y-152384804D01*
X126242495Y-152381204D01*
X126266999Y-152380000D01*
X127167001Y-152380000D01*
X127191505Y-152381204D01*
X127191505Y-152381204D01*
G37*
D11*
X126717000Y-152955000D03*
D10*
G36*
X105855505Y-154168204D02*
G01*
X105879773Y-154171804D01*
X105903572Y-154177765D01*
X105926671Y-154186030D01*
X105948850Y-154196520D01*
X105969893Y-154209132D01*
X105989599Y-154223747D01*
X106007777Y-154240223D01*
X106024253Y-154258401D01*
X106038868Y-154278107D01*
X106051480Y-154299150D01*
X106061970Y-154321329D01*
X106070235Y-154344428D01*
X106076196Y-154368227D01*
X106079796Y-154392495D01*
X106081000Y-154416999D01*
X106081000Y-155067001D01*
X106079796Y-155091505D01*
X106076196Y-155115773D01*
X106070235Y-155139572D01*
X106061970Y-155162671D01*
X106051480Y-155184850D01*
X106038868Y-155205893D01*
X106024253Y-155225599D01*
X106007777Y-155243777D01*
X105989599Y-155260253D01*
X105969893Y-155274868D01*
X105948850Y-155287480D01*
X105926671Y-155297970D01*
X105903572Y-155306235D01*
X105879773Y-155312196D01*
X105855505Y-155315796D01*
X105831001Y-155317000D01*
X104930999Y-155317000D01*
X104906495Y-155315796D01*
X104882227Y-155312196D01*
X104858428Y-155306235D01*
X104835329Y-155297970D01*
X104813150Y-155287480D01*
X104792107Y-155274868D01*
X104772401Y-155260253D01*
X104754223Y-155243777D01*
X104737747Y-155225599D01*
X104723132Y-155205893D01*
X104710520Y-155184850D01*
X104700030Y-155162671D01*
X104691765Y-155139572D01*
X104685804Y-155115773D01*
X104682204Y-155091505D01*
X104681000Y-155067001D01*
X104681000Y-154416999D01*
X104682204Y-154392495D01*
X104685804Y-154368227D01*
X104691765Y-154344428D01*
X104700030Y-154321329D01*
X104710520Y-154299150D01*
X104723132Y-154278107D01*
X104737747Y-154258401D01*
X104754223Y-154240223D01*
X104772401Y-154223747D01*
X104792107Y-154209132D01*
X104813150Y-154196520D01*
X104835329Y-154186030D01*
X104858428Y-154177765D01*
X104882227Y-154171804D01*
X104906495Y-154168204D01*
X104930999Y-154167000D01*
X105831001Y-154167000D01*
X105855505Y-154168204D01*
X105855505Y-154168204D01*
G37*
D11*
X105381000Y-154742000D03*
D10*
G36*
X105855505Y-152118204D02*
G01*
X105879773Y-152121804D01*
X105903572Y-152127765D01*
X105926671Y-152136030D01*
X105948850Y-152146520D01*
X105969893Y-152159132D01*
X105989599Y-152173747D01*
X106007777Y-152190223D01*
X106024253Y-152208401D01*
X106038868Y-152228107D01*
X106051480Y-152249150D01*
X106061970Y-152271329D01*
X106070235Y-152294428D01*
X106076196Y-152318227D01*
X106079796Y-152342495D01*
X106081000Y-152366999D01*
X106081000Y-153017001D01*
X106079796Y-153041505D01*
X106076196Y-153065773D01*
X106070235Y-153089572D01*
X106061970Y-153112671D01*
X106051480Y-153134850D01*
X106038868Y-153155893D01*
X106024253Y-153175599D01*
X106007777Y-153193777D01*
X105989599Y-153210253D01*
X105969893Y-153224868D01*
X105948850Y-153237480D01*
X105926671Y-153247970D01*
X105903572Y-153256235D01*
X105879773Y-153262196D01*
X105855505Y-153265796D01*
X105831001Y-153267000D01*
X104930999Y-153267000D01*
X104906495Y-153265796D01*
X104882227Y-153262196D01*
X104858428Y-153256235D01*
X104835329Y-153247970D01*
X104813150Y-153237480D01*
X104792107Y-153224868D01*
X104772401Y-153210253D01*
X104754223Y-153193777D01*
X104737747Y-153175599D01*
X104723132Y-153155893D01*
X104710520Y-153134850D01*
X104700030Y-153112671D01*
X104691765Y-153089572D01*
X104685804Y-153065773D01*
X104682204Y-153041505D01*
X104681000Y-153017001D01*
X104681000Y-152366999D01*
X104682204Y-152342495D01*
X104685804Y-152318227D01*
X104691765Y-152294428D01*
X104700030Y-152271329D01*
X104710520Y-152249150D01*
X104723132Y-152228107D01*
X104737747Y-152208401D01*
X104754223Y-152190223D01*
X104772401Y-152173747D01*
X104792107Y-152159132D01*
X104813150Y-152146520D01*
X104835329Y-152136030D01*
X104858428Y-152127765D01*
X104882227Y-152121804D01*
X104906495Y-152118204D01*
X104930999Y-152117000D01*
X105831001Y-152117000D01*
X105855505Y-152118204D01*
X105855505Y-152118204D01*
G37*
D11*
X105381000Y-152692000D03*
D10*
G36*
X108014505Y-154168204D02*
G01*
X108038773Y-154171804D01*
X108062572Y-154177765D01*
X108085671Y-154186030D01*
X108107850Y-154196520D01*
X108128893Y-154209132D01*
X108148599Y-154223747D01*
X108166777Y-154240223D01*
X108183253Y-154258401D01*
X108197868Y-154278107D01*
X108210480Y-154299150D01*
X108220970Y-154321329D01*
X108229235Y-154344428D01*
X108235196Y-154368227D01*
X108238796Y-154392495D01*
X108240000Y-154416999D01*
X108240000Y-155067001D01*
X108238796Y-155091505D01*
X108235196Y-155115773D01*
X108229235Y-155139572D01*
X108220970Y-155162671D01*
X108210480Y-155184850D01*
X108197868Y-155205893D01*
X108183253Y-155225599D01*
X108166777Y-155243777D01*
X108148599Y-155260253D01*
X108128893Y-155274868D01*
X108107850Y-155287480D01*
X108085671Y-155297970D01*
X108062572Y-155306235D01*
X108038773Y-155312196D01*
X108014505Y-155315796D01*
X107990001Y-155317000D01*
X107089999Y-155317000D01*
X107065495Y-155315796D01*
X107041227Y-155312196D01*
X107017428Y-155306235D01*
X106994329Y-155297970D01*
X106972150Y-155287480D01*
X106951107Y-155274868D01*
X106931401Y-155260253D01*
X106913223Y-155243777D01*
X106896747Y-155225599D01*
X106882132Y-155205893D01*
X106869520Y-155184850D01*
X106859030Y-155162671D01*
X106850765Y-155139572D01*
X106844804Y-155115773D01*
X106841204Y-155091505D01*
X106840000Y-155067001D01*
X106840000Y-154416999D01*
X106841204Y-154392495D01*
X106844804Y-154368227D01*
X106850765Y-154344428D01*
X106859030Y-154321329D01*
X106869520Y-154299150D01*
X106882132Y-154278107D01*
X106896747Y-154258401D01*
X106913223Y-154240223D01*
X106931401Y-154223747D01*
X106951107Y-154209132D01*
X106972150Y-154196520D01*
X106994329Y-154186030D01*
X107017428Y-154177765D01*
X107041227Y-154171804D01*
X107065495Y-154168204D01*
X107089999Y-154167000D01*
X107990001Y-154167000D01*
X108014505Y-154168204D01*
X108014505Y-154168204D01*
G37*
D11*
X107540000Y-154742000D03*
D10*
G36*
X108014505Y-152118204D02*
G01*
X108038773Y-152121804D01*
X108062572Y-152127765D01*
X108085671Y-152136030D01*
X108107850Y-152146520D01*
X108128893Y-152159132D01*
X108148599Y-152173747D01*
X108166777Y-152190223D01*
X108183253Y-152208401D01*
X108197868Y-152228107D01*
X108210480Y-152249150D01*
X108220970Y-152271329D01*
X108229235Y-152294428D01*
X108235196Y-152318227D01*
X108238796Y-152342495D01*
X108240000Y-152366999D01*
X108240000Y-153017001D01*
X108238796Y-153041505D01*
X108235196Y-153065773D01*
X108229235Y-153089572D01*
X108220970Y-153112671D01*
X108210480Y-153134850D01*
X108197868Y-153155893D01*
X108183253Y-153175599D01*
X108166777Y-153193777D01*
X108148599Y-153210253D01*
X108128893Y-153224868D01*
X108107850Y-153237480D01*
X108085671Y-153247970D01*
X108062572Y-153256235D01*
X108038773Y-153262196D01*
X108014505Y-153265796D01*
X107990001Y-153267000D01*
X107089999Y-153267000D01*
X107065495Y-153265796D01*
X107041227Y-153262196D01*
X107017428Y-153256235D01*
X106994329Y-153247970D01*
X106972150Y-153237480D01*
X106951107Y-153224868D01*
X106931401Y-153210253D01*
X106913223Y-153193777D01*
X106896747Y-153175599D01*
X106882132Y-153155893D01*
X106869520Y-153134850D01*
X106859030Y-153112671D01*
X106850765Y-153089572D01*
X106844804Y-153065773D01*
X106841204Y-153041505D01*
X106840000Y-153017001D01*
X106840000Y-152366999D01*
X106841204Y-152342495D01*
X106844804Y-152318227D01*
X106850765Y-152294428D01*
X106859030Y-152271329D01*
X106869520Y-152249150D01*
X106882132Y-152228107D01*
X106896747Y-152208401D01*
X106913223Y-152190223D01*
X106931401Y-152173747D01*
X106951107Y-152159132D01*
X106972150Y-152146520D01*
X106994329Y-152136030D01*
X107017428Y-152127765D01*
X107041227Y-152121804D01*
X107065495Y-152118204D01*
X107089999Y-152117000D01*
X107990001Y-152117000D01*
X108014505Y-152118204D01*
X108014505Y-152118204D01*
G37*
D11*
X107540000Y-152692000D03*
D10*
G36*
X117158505Y-143736204D02*
G01*
X117182773Y-143739804D01*
X117206572Y-143745765D01*
X117229671Y-143754030D01*
X117251850Y-143764520D01*
X117272893Y-143777132D01*
X117292599Y-143791747D01*
X117310777Y-143808223D01*
X117327253Y-143826401D01*
X117341868Y-143846107D01*
X117354480Y-143867150D01*
X117364970Y-143889329D01*
X117373235Y-143912428D01*
X117379196Y-143936227D01*
X117382796Y-143960495D01*
X117384000Y-143984999D01*
X117384000Y-144635001D01*
X117382796Y-144659505D01*
X117379196Y-144683773D01*
X117373235Y-144707572D01*
X117364970Y-144730671D01*
X117354480Y-144752850D01*
X117341868Y-144773893D01*
X117327253Y-144793599D01*
X117310777Y-144811777D01*
X117292599Y-144828253D01*
X117272893Y-144842868D01*
X117251850Y-144855480D01*
X117229671Y-144865970D01*
X117206572Y-144874235D01*
X117182773Y-144880196D01*
X117158505Y-144883796D01*
X117134001Y-144885000D01*
X116233999Y-144885000D01*
X116209495Y-144883796D01*
X116185227Y-144880196D01*
X116161428Y-144874235D01*
X116138329Y-144865970D01*
X116116150Y-144855480D01*
X116095107Y-144842868D01*
X116075401Y-144828253D01*
X116057223Y-144811777D01*
X116040747Y-144793599D01*
X116026132Y-144773893D01*
X116013520Y-144752850D01*
X116003030Y-144730671D01*
X115994765Y-144707572D01*
X115988804Y-144683773D01*
X115985204Y-144659505D01*
X115984000Y-144635001D01*
X115984000Y-143984999D01*
X115985204Y-143960495D01*
X115988804Y-143936227D01*
X115994765Y-143912428D01*
X116003030Y-143889329D01*
X116013520Y-143867150D01*
X116026132Y-143846107D01*
X116040747Y-143826401D01*
X116057223Y-143808223D01*
X116075401Y-143791747D01*
X116095107Y-143777132D01*
X116116150Y-143764520D01*
X116138329Y-143754030D01*
X116161428Y-143745765D01*
X116185227Y-143739804D01*
X116209495Y-143736204D01*
X116233999Y-143735000D01*
X117134001Y-143735000D01*
X117158505Y-143736204D01*
X117158505Y-143736204D01*
G37*
D11*
X116684000Y-144310000D03*
D10*
G36*
X117158505Y-145786204D02*
G01*
X117182773Y-145789804D01*
X117206572Y-145795765D01*
X117229671Y-145804030D01*
X117251850Y-145814520D01*
X117272893Y-145827132D01*
X117292599Y-145841747D01*
X117310777Y-145858223D01*
X117327253Y-145876401D01*
X117341868Y-145896107D01*
X117354480Y-145917150D01*
X117364970Y-145939329D01*
X117373235Y-145962428D01*
X117379196Y-145986227D01*
X117382796Y-146010495D01*
X117384000Y-146034999D01*
X117384000Y-146685001D01*
X117382796Y-146709505D01*
X117379196Y-146733773D01*
X117373235Y-146757572D01*
X117364970Y-146780671D01*
X117354480Y-146802850D01*
X117341868Y-146823893D01*
X117327253Y-146843599D01*
X117310777Y-146861777D01*
X117292599Y-146878253D01*
X117272893Y-146892868D01*
X117251850Y-146905480D01*
X117229671Y-146915970D01*
X117206572Y-146924235D01*
X117182773Y-146930196D01*
X117158505Y-146933796D01*
X117134001Y-146935000D01*
X116233999Y-146935000D01*
X116209495Y-146933796D01*
X116185227Y-146930196D01*
X116161428Y-146924235D01*
X116138329Y-146915970D01*
X116116150Y-146905480D01*
X116095107Y-146892868D01*
X116075401Y-146878253D01*
X116057223Y-146861777D01*
X116040747Y-146843599D01*
X116026132Y-146823893D01*
X116013520Y-146802850D01*
X116003030Y-146780671D01*
X115994765Y-146757572D01*
X115988804Y-146733773D01*
X115985204Y-146709505D01*
X115984000Y-146685001D01*
X115984000Y-146034999D01*
X115985204Y-146010495D01*
X115988804Y-145986227D01*
X115994765Y-145962428D01*
X116003030Y-145939329D01*
X116013520Y-145917150D01*
X116026132Y-145896107D01*
X116040747Y-145876401D01*
X116057223Y-145858223D01*
X116075401Y-145841747D01*
X116095107Y-145827132D01*
X116116150Y-145814520D01*
X116138329Y-145804030D01*
X116161428Y-145795765D01*
X116185227Y-145789804D01*
X116209495Y-145786204D01*
X116233999Y-145785000D01*
X117134001Y-145785000D01*
X117158505Y-145786204D01*
X117158505Y-145786204D01*
G37*
D11*
X116684000Y-146360000D03*
D10*
G36*
X104712505Y-147954204D02*
G01*
X104736773Y-147957804D01*
X104760572Y-147963765D01*
X104783671Y-147972030D01*
X104805850Y-147982520D01*
X104826893Y-147995132D01*
X104846599Y-148009747D01*
X104864777Y-148026223D01*
X104881253Y-148044401D01*
X104895868Y-148064107D01*
X104908480Y-148085150D01*
X104918970Y-148107329D01*
X104927235Y-148130428D01*
X104933196Y-148154227D01*
X104936796Y-148178495D01*
X104938000Y-148202999D01*
X104938000Y-148853001D01*
X104936796Y-148877505D01*
X104933196Y-148901773D01*
X104927235Y-148925572D01*
X104918970Y-148948671D01*
X104908480Y-148970850D01*
X104895868Y-148991893D01*
X104881253Y-149011599D01*
X104864777Y-149029777D01*
X104846599Y-149046253D01*
X104826893Y-149060868D01*
X104805850Y-149073480D01*
X104783671Y-149083970D01*
X104760572Y-149092235D01*
X104736773Y-149098196D01*
X104712505Y-149101796D01*
X104688001Y-149103000D01*
X103787999Y-149103000D01*
X103763495Y-149101796D01*
X103739227Y-149098196D01*
X103715428Y-149092235D01*
X103692329Y-149083970D01*
X103670150Y-149073480D01*
X103649107Y-149060868D01*
X103629401Y-149046253D01*
X103611223Y-149029777D01*
X103594747Y-149011599D01*
X103580132Y-148991893D01*
X103567520Y-148970850D01*
X103557030Y-148948671D01*
X103548765Y-148925572D01*
X103542804Y-148901773D01*
X103539204Y-148877505D01*
X103538000Y-148853001D01*
X103538000Y-148202999D01*
X103539204Y-148178495D01*
X103542804Y-148154227D01*
X103548765Y-148130428D01*
X103557030Y-148107329D01*
X103567520Y-148085150D01*
X103580132Y-148064107D01*
X103594747Y-148044401D01*
X103611223Y-148026223D01*
X103629401Y-148009747D01*
X103649107Y-147995132D01*
X103670150Y-147982520D01*
X103692329Y-147972030D01*
X103715428Y-147963765D01*
X103739227Y-147957804D01*
X103763495Y-147954204D01*
X103787999Y-147953000D01*
X104688001Y-147953000D01*
X104712505Y-147954204D01*
X104712505Y-147954204D01*
G37*
D11*
X104238000Y-148528000D03*
D10*
G36*
X104712505Y-145904204D02*
G01*
X104736773Y-145907804D01*
X104760572Y-145913765D01*
X104783671Y-145922030D01*
X104805850Y-145932520D01*
X104826893Y-145945132D01*
X104846599Y-145959747D01*
X104864777Y-145976223D01*
X104881253Y-145994401D01*
X104895868Y-146014107D01*
X104908480Y-146035150D01*
X104918970Y-146057329D01*
X104927235Y-146080428D01*
X104933196Y-146104227D01*
X104936796Y-146128495D01*
X104938000Y-146152999D01*
X104938000Y-146803001D01*
X104936796Y-146827505D01*
X104933196Y-146851773D01*
X104927235Y-146875572D01*
X104918970Y-146898671D01*
X104908480Y-146920850D01*
X104895868Y-146941893D01*
X104881253Y-146961599D01*
X104864777Y-146979777D01*
X104846599Y-146996253D01*
X104826893Y-147010868D01*
X104805850Y-147023480D01*
X104783671Y-147033970D01*
X104760572Y-147042235D01*
X104736773Y-147048196D01*
X104712505Y-147051796D01*
X104688001Y-147053000D01*
X103787999Y-147053000D01*
X103763495Y-147051796D01*
X103739227Y-147048196D01*
X103715428Y-147042235D01*
X103692329Y-147033970D01*
X103670150Y-147023480D01*
X103649107Y-147010868D01*
X103629401Y-146996253D01*
X103611223Y-146979777D01*
X103594747Y-146961599D01*
X103580132Y-146941893D01*
X103567520Y-146920850D01*
X103557030Y-146898671D01*
X103548765Y-146875572D01*
X103542804Y-146851773D01*
X103539204Y-146827505D01*
X103538000Y-146803001D01*
X103538000Y-146152999D01*
X103539204Y-146128495D01*
X103542804Y-146104227D01*
X103548765Y-146080428D01*
X103557030Y-146057329D01*
X103567520Y-146035150D01*
X103580132Y-146014107D01*
X103594747Y-145994401D01*
X103611223Y-145976223D01*
X103629401Y-145959747D01*
X103649107Y-145945132D01*
X103670150Y-145932520D01*
X103692329Y-145922030D01*
X103715428Y-145913765D01*
X103739227Y-145907804D01*
X103763495Y-145904204D01*
X103787999Y-145903000D01*
X104688001Y-145903000D01*
X104712505Y-145904204D01*
X104712505Y-145904204D01*
G37*
D11*
X104238000Y-146478000D03*
D10*
G36*
X106617505Y-141060204D02*
G01*
X106641773Y-141063804D01*
X106665572Y-141069765D01*
X106688671Y-141078030D01*
X106710850Y-141088520D01*
X106731893Y-141101132D01*
X106751599Y-141115747D01*
X106769777Y-141132223D01*
X106786253Y-141150401D01*
X106800868Y-141170107D01*
X106813480Y-141191150D01*
X106823970Y-141213329D01*
X106832235Y-141236428D01*
X106838196Y-141260227D01*
X106841796Y-141284495D01*
X106843000Y-141308999D01*
X106843000Y-141959001D01*
X106841796Y-141983505D01*
X106838196Y-142007773D01*
X106832235Y-142031572D01*
X106823970Y-142054671D01*
X106813480Y-142076850D01*
X106800868Y-142097893D01*
X106786253Y-142117599D01*
X106769777Y-142135777D01*
X106751599Y-142152253D01*
X106731893Y-142166868D01*
X106710850Y-142179480D01*
X106688671Y-142189970D01*
X106665572Y-142198235D01*
X106641773Y-142204196D01*
X106617505Y-142207796D01*
X106593001Y-142209000D01*
X105692999Y-142209000D01*
X105668495Y-142207796D01*
X105644227Y-142204196D01*
X105620428Y-142198235D01*
X105597329Y-142189970D01*
X105575150Y-142179480D01*
X105554107Y-142166868D01*
X105534401Y-142152253D01*
X105516223Y-142135777D01*
X105499747Y-142117599D01*
X105485132Y-142097893D01*
X105472520Y-142076850D01*
X105462030Y-142054671D01*
X105453765Y-142031572D01*
X105447804Y-142007773D01*
X105444204Y-141983505D01*
X105443000Y-141959001D01*
X105443000Y-141308999D01*
X105444204Y-141284495D01*
X105447804Y-141260227D01*
X105453765Y-141236428D01*
X105462030Y-141213329D01*
X105472520Y-141191150D01*
X105485132Y-141170107D01*
X105499747Y-141150401D01*
X105516223Y-141132223D01*
X105534401Y-141115747D01*
X105554107Y-141101132D01*
X105575150Y-141088520D01*
X105597329Y-141078030D01*
X105620428Y-141069765D01*
X105644227Y-141063804D01*
X105668495Y-141060204D01*
X105692999Y-141059000D01*
X106593001Y-141059000D01*
X106617505Y-141060204D01*
X106617505Y-141060204D01*
G37*
D11*
X106143000Y-141634000D03*
D10*
G36*
X106617505Y-143110204D02*
G01*
X106641773Y-143113804D01*
X106665572Y-143119765D01*
X106688671Y-143128030D01*
X106710850Y-143138520D01*
X106731893Y-143151132D01*
X106751599Y-143165747D01*
X106769777Y-143182223D01*
X106786253Y-143200401D01*
X106800868Y-143220107D01*
X106813480Y-143241150D01*
X106823970Y-143263329D01*
X106832235Y-143286428D01*
X106838196Y-143310227D01*
X106841796Y-143334495D01*
X106843000Y-143358999D01*
X106843000Y-144009001D01*
X106841796Y-144033505D01*
X106838196Y-144057773D01*
X106832235Y-144081572D01*
X106823970Y-144104671D01*
X106813480Y-144126850D01*
X106800868Y-144147893D01*
X106786253Y-144167599D01*
X106769777Y-144185777D01*
X106751599Y-144202253D01*
X106731893Y-144216868D01*
X106710850Y-144229480D01*
X106688671Y-144239970D01*
X106665572Y-144248235D01*
X106641773Y-144254196D01*
X106617505Y-144257796D01*
X106593001Y-144259000D01*
X105692999Y-144259000D01*
X105668495Y-144257796D01*
X105644227Y-144254196D01*
X105620428Y-144248235D01*
X105597329Y-144239970D01*
X105575150Y-144229480D01*
X105554107Y-144216868D01*
X105534401Y-144202253D01*
X105516223Y-144185777D01*
X105499747Y-144167599D01*
X105485132Y-144147893D01*
X105472520Y-144126850D01*
X105462030Y-144104671D01*
X105453765Y-144081572D01*
X105447804Y-144057773D01*
X105444204Y-144033505D01*
X105443000Y-144009001D01*
X105443000Y-143358999D01*
X105444204Y-143334495D01*
X105447804Y-143310227D01*
X105453765Y-143286428D01*
X105462030Y-143263329D01*
X105472520Y-143241150D01*
X105485132Y-143220107D01*
X105499747Y-143200401D01*
X105516223Y-143182223D01*
X105534401Y-143165747D01*
X105554107Y-143151132D01*
X105575150Y-143138520D01*
X105597329Y-143128030D01*
X105620428Y-143119765D01*
X105644227Y-143113804D01*
X105668495Y-143110204D01*
X105692999Y-143109000D01*
X106593001Y-143109000D01*
X106617505Y-143110204D01*
X106617505Y-143110204D01*
G37*
D11*
X106143000Y-143684000D03*
D10*
G36*
X109157505Y-140933204D02*
G01*
X109181773Y-140936804D01*
X109205572Y-140942765D01*
X109228671Y-140951030D01*
X109250850Y-140961520D01*
X109271893Y-140974132D01*
X109291599Y-140988747D01*
X109309777Y-141005223D01*
X109326253Y-141023401D01*
X109340868Y-141043107D01*
X109353480Y-141064150D01*
X109363970Y-141086329D01*
X109372235Y-141109428D01*
X109378196Y-141133227D01*
X109381796Y-141157495D01*
X109383000Y-141181999D01*
X109383000Y-141832001D01*
X109381796Y-141856505D01*
X109378196Y-141880773D01*
X109372235Y-141904572D01*
X109363970Y-141927671D01*
X109353480Y-141949850D01*
X109340868Y-141970893D01*
X109326253Y-141990599D01*
X109309777Y-142008777D01*
X109291599Y-142025253D01*
X109271893Y-142039868D01*
X109250850Y-142052480D01*
X109228671Y-142062970D01*
X109205572Y-142071235D01*
X109181773Y-142077196D01*
X109157505Y-142080796D01*
X109133001Y-142082000D01*
X108232999Y-142082000D01*
X108208495Y-142080796D01*
X108184227Y-142077196D01*
X108160428Y-142071235D01*
X108137329Y-142062970D01*
X108115150Y-142052480D01*
X108094107Y-142039868D01*
X108074401Y-142025253D01*
X108056223Y-142008777D01*
X108039747Y-141990599D01*
X108025132Y-141970893D01*
X108012520Y-141949850D01*
X108002030Y-141927671D01*
X107993765Y-141904572D01*
X107987804Y-141880773D01*
X107984204Y-141856505D01*
X107983000Y-141832001D01*
X107983000Y-141181999D01*
X107984204Y-141157495D01*
X107987804Y-141133227D01*
X107993765Y-141109428D01*
X108002030Y-141086329D01*
X108012520Y-141064150D01*
X108025132Y-141043107D01*
X108039747Y-141023401D01*
X108056223Y-141005223D01*
X108074401Y-140988747D01*
X108094107Y-140974132D01*
X108115150Y-140961520D01*
X108137329Y-140951030D01*
X108160428Y-140942765D01*
X108184227Y-140936804D01*
X108208495Y-140933204D01*
X108232999Y-140932000D01*
X109133001Y-140932000D01*
X109157505Y-140933204D01*
X109157505Y-140933204D01*
G37*
D11*
X108683000Y-141507000D03*
D10*
G36*
X109157505Y-142983204D02*
G01*
X109181773Y-142986804D01*
X109205572Y-142992765D01*
X109228671Y-143001030D01*
X109250850Y-143011520D01*
X109271893Y-143024132D01*
X109291599Y-143038747D01*
X109309777Y-143055223D01*
X109326253Y-143073401D01*
X109340868Y-143093107D01*
X109353480Y-143114150D01*
X109363970Y-143136329D01*
X109372235Y-143159428D01*
X109378196Y-143183227D01*
X109381796Y-143207495D01*
X109383000Y-143231999D01*
X109383000Y-143882001D01*
X109381796Y-143906505D01*
X109378196Y-143930773D01*
X109372235Y-143954572D01*
X109363970Y-143977671D01*
X109353480Y-143999850D01*
X109340868Y-144020893D01*
X109326253Y-144040599D01*
X109309777Y-144058777D01*
X109291599Y-144075253D01*
X109271893Y-144089868D01*
X109250850Y-144102480D01*
X109228671Y-144112970D01*
X109205572Y-144121235D01*
X109181773Y-144127196D01*
X109157505Y-144130796D01*
X109133001Y-144132000D01*
X108232999Y-144132000D01*
X108208495Y-144130796D01*
X108184227Y-144127196D01*
X108160428Y-144121235D01*
X108137329Y-144112970D01*
X108115150Y-144102480D01*
X108094107Y-144089868D01*
X108074401Y-144075253D01*
X108056223Y-144058777D01*
X108039747Y-144040599D01*
X108025132Y-144020893D01*
X108012520Y-143999850D01*
X108002030Y-143977671D01*
X107993765Y-143954572D01*
X107987804Y-143930773D01*
X107984204Y-143906505D01*
X107983000Y-143882001D01*
X107983000Y-143231999D01*
X107984204Y-143207495D01*
X107987804Y-143183227D01*
X107993765Y-143159428D01*
X108002030Y-143136329D01*
X108012520Y-143114150D01*
X108025132Y-143093107D01*
X108039747Y-143073401D01*
X108056223Y-143055223D01*
X108074401Y-143038747D01*
X108094107Y-143024132D01*
X108115150Y-143011520D01*
X108137329Y-143001030D01*
X108160428Y-142992765D01*
X108184227Y-142986804D01*
X108208495Y-142983204D01*
X108232999Y-142982000D01*
X109133001Y-142982000D01*
X109157505Y-142983204D01*
X109157505Y-142983204D01*
G37*
D11*
X108683000Y-143557000D03*
D10*
G36*
X119190505Y-106643204D02*
G01*
X119214773Y-106646804D01*
X119238572Y-106652765D01*
X119261671Y-106661030D01*
X119283850Y-106671520D01*
X119304893Y-106684132D01*
X119324599Y-106698747D01*
X119342777Y-106715223D01*
X119359253Y-106733401D01*
X119373868Y-106753107D01*
X119386480Y-106774150D01*
X119396970Y-106796329D01*
X119405235Y-106819428D01*
X119411196Y-106843227D01*
X119414796Y-106867495D01*
X119416000Y-106891999D01*
X119416000Y-107542001D01*
X119414796Y-107566505D01*
X119411196Y-107590773D01*
X119405235Y-107614572D01*
X119396970Y-107637671D01*
X119386480Y-107659850D01*
X119373868Y-107680893D01*
X119359253Y-107700599D01*
X119342777Y-107718777D01*
X119324599Y-107735253D01*
X119304893Y-107749868D01*
X119283850Y-107762480D01*
X119261671Y-107772970D01*
X119238572Y-107781235D01*
X119214773Y-107787196D01*
X119190505Y-107790796D01*
X119166001Y-107792000D01*
X118265999Y-107792000D01*
X118241495Y-107790796D01*
X118217227Y-107787196D01*
X118193428Y-107781235D01*
X118170329Y-107772970D01*
X118148150Y-107762480D01*
X118127107Y-107749868D01*
X118107401Y-107735253D01*
X118089223Y-107718777D01*
X118072747Y-107700599D01*
X118058132Y-107680893D01*
X118045520Y-107659850D01*
X118035030Y-107637671D01*
X118026765Y-107614572D01*
X118020804Y-107590773D01*
X118017204Y-107566505D01*
X118016000Y-107542001D01*
X118016000Y-106891999D01*
X118017204Y-106867495D01*
X118020804Y-106843227D01*
X118026765Y-106819428D01*
X118035030Y-106796329D01*
X118045520Y-106774150D01*
X118058132Y-106753107D01*
X118072747Y-106733401D01*
X118089223Y-106715223D01*
X118107401Y-106698747D01*
X118127107Y-106684132D01*
X118148150Y-106671520D01*
X118170329Y-106661030D01*
X118193428Y-106652765D01*
X118217227Y-106646804D01*
X118241495Y-106643204D01*
X118265999Y-106642000D01*
X119166001Y-106642000D01*
X119190505Y-106643204D01*
X119190505Y-106643204D01*
G37*
D11*
X118716000Y-107217000D03*
D10*
G36*
X119190505Y-108693204D02*
G01*
X119214773Y-108696804D01*
X119238572Y-108702765D01*
X119261671Y-108711030D01*
X119283850Y-108721520D01*
X119304893Y-108734132D01*
X119324599Y-108748747D01*
X119342777Y-108765223D01*
X119359253Y-108783401D01*
X119373868Y-108803107D01*
X119386480Y-108824150D01*
X119396970Y-108846329D01*
X119405235Y-108869428D01*
X119411196Y-108893227D01*
X119414796Y-108917495D01*
X119416000Y-108941999D01*
X119416000Y-109592001D01*
X119414796Y-109616505D01*
X119411196Y-109640773D01*
X119405235Y-109664572D01*
X119396970Y-109687671D01*
X119386480Y-109709850D01*
X119373868Y-109730893D01*
X119359253Y-109750599D01*
X119342777Y-109768777D01*
X119324599Y-109785253D01*
X119304893Y-109799868D01*
X119283850Y-109812480D01*
X119261671Y-109822970D01*
X119238572Y-109831235D01*
X119214773Y-109837196D01*
X119190505Y-109840796D01*
X119166001Y-109842000D01*
X118265999Y-109842000D01*
X118241495Y-109840796D01*
X118217227Y-109837196D01*
X118193428Y-109831235D01*
X118170329Y-109822970D01*
X118148150Y-109812480D01*
X118127107Y-109799868D01*
X118107401Y-109785253D01*
X118089223Y-109768777D01*
X118072747Y-109750599D01*
X118058132Y-109730893D01*
X118045520Y-109709850D01*
X118035030Y-109687671D01*
X118026765Y-109664572D01*
X118020804Y-109640773D01*
X118017204Y-109616505D01*
X118016000Y-109592001D01*
X118016000Y-108941999D01*
X118017204Y-108917495D01*
X118020804Y-108893227D01*
X118026765Y-108869428D01*
X118035030Y-108846329D01*
X118045520Y-108824150D01*
X118058132Y-108803107D01*
X118072747Y-108783401D01*
X118089223Y-108765223D01*
X118107401Y-108748747D01*
X118127107Y-108734132D01*
X118148150Y-108721520D01*
X118170329Y-108711030D01*
X118193428Y-108702765D01*
X118217227Y-108696804D01*
X118241495Y-108693204D01*
X118265999Y-108692000D01*
X119166001Y-108692000D01*
X119190505Y-108693204D01*
X119190505Y-108693204D01*
G37*
D11*
X118716000Y-109267000D03*
D18*
X114418000Y-152150000D03*
D19*
X115668000Y-155050000D03*
D18*
X116918000Y-152150000D03*
M02*
