M48
; DRILL file {KiCad (5.1.2)-2} date 14.12.2019 23:06:21
; FORMAT={-:-/ absolute / inch / decimal}
; #@! TF.CreationDate,2019-12-14T23:06:21+01:00
; #@! TF.GenerationSoftware,Kicad,Pcbnew,(5.1.2)-2
; #@! TF.FileFunction,Plated,1,2,PTH
FMAT,2
INCH
T1C0.0157
T2C0.0394
T3C0.0787
%
G90
G05
T1
X3.9839Y-6.1469
X3.9989Y-5.9319
X4.0042Y-6.027
X4.0089Y-5.4769
X4.0389Y-6.2205
X4.1029Y-5.9599
X4.1239Y-5.7119
X4.1289Y-6.1469
X4.1581Y-6.2205
X4.1589Y-5.9574
X4.1789Y-4.9669
X4.1839Y-5.4869
X4.1879Y-6.1469
X4.1991Y-4.1814
X4.1991Y-4.2207
X4.1991Y-4.2601
X4.2239Y-5.9219
X4.2244Y-4.2992
X4.2439Y-5.7119
X4.252Y-4.3307
X4.2839Y-5.7119
X4.2913Y-4.3701
X4.2989Y-5.4819
X4.3189Y-5.9269
X4.3289Y-5.7369
X4.3339Y-4.4069
X4.3739Y-4.6769
X4.3789Y-4.4419
X4.3989Y-5.9269
X4.4264Y-5.0244
X4.4289Y-4.0945
X4.4289Y-4.2845
X4.4289Y-5.2369
X4.4291Y-3.9764
X4.4291Y-4.0157
X4.4291Y-4.0551
X4.4291Y-4.1319
X4.4291Y-4.1664
X4.4291Y-4.2057
X4.4291Y-4.2451
X4.4291Y-4.3219
X4.4389Y-5.6019
X4.4689Y-4.3219
X4.5139Y-4.3219
X4.5539Y-4.3219
X4.5939Y-4.3219
X4.6289Y-5.4519
X4.6289Y-5.5119
X4.6439Y-6.2144
X4.6789Y-4.1469
X4.8939Y-5.6969
X4.8939Y-5.8769
X4.9139Y-5.5119
X5.1239Y-5.2169
X5.1339Y-5.0319
T2
X5.1575Y-6.0749
X5.1599Y-5.9749
X4.0098Y-4.1732
X4.0098Y-4.2732
X4.0098Y-4.3732
X4.0098Y-4.4732
X4.0098Y-4.5732
X4.0098Y-4.6732
X4.0098Y-4.7732
X4.0098Y-4.8732
X4.0098Y-4.9732
X4.0098Y-5.0732
X4.0098Y-5.1732
X4.0098Y-5.2732
X4.0098Y-5.3732
X4.4882Y-5.8661
X4.5882Y-5.8661
X4.6882Y-5.8661
X4.7882Y-5.8661
X5.1575Y-6.2386
X5.1575Y-6.3386
X5.315Y-4.1732
X5.315Y-4.2732
X5.315Y-4.3732
X5.315Y-4.4732
X5.315Y-4.5732
X5.315Y-4.6732
X5.315Y-4.7732
X5.315Y-4.8732
X5.315Y-4.9732
X5.315Y-5.0732
X5.315Y-5.1732
X5.315Y-5.2732
X5.315Y-5.3732
T3
X4.0217Y-4.0295
X4.0217Y-6.448
X5.2953Y-4.0295
X5.2957Y-5.6329
X5.2957Y-6.448
T0
M30
