G04 #@! TF.GenerationSoftware,KiCad,Pcbnew,(5.1.2)-2*
G04 #@! TF.CreationDate,2019-12-14T23:06:18+01:00*
G04 #@! TF.ProjectId,ttgot5,7474676f-7435-42e6-9b69-6361645f7063,rev?*
G04 #@! TF.SameCoordinates,Original*
G04 #@! TF.FileFunction,Soldermask,Top*
G04 #@! TF.FilePolarity,Negative*
%FSLAX46Y46*%
G04 Gerber Fmt 4.6, Leading zero omitted, Abs format (unit mm)*
G04 Created by KiCad (PCBNEW (5.1.2)-2) date 2019-12-14 23:06:18*
%MOMM*%
%LPD*%
G04 APERTURE LIST*
%ADD10O,1.700000X1.700000*%
%ADD11R,1.700000X1.700000*%
%ADD12R,1.350000X4.200000*%
%ADD13R,0.400000X0.550000*%
%ADD14C,0.300000*%
%ADD15C,0.100000*%
%ADD16R,0.300000X1.000000*%
%ADD17R,2.200000X1.300000*%
%ADD18R,0.400000X0.600000*%
%ADD19R,0.350000X0.500000*%
G04 APERTURE END LIST*
D10*
X131060400Y-151761200D03*
D11*
X131000000Y-154301200D03*
D10*
X131000000Y-158460000D03*
D11*
X131000000Y-161000000D03*
D12*
X110825000Y-103000000D03*
X105175000Y-103000000D03*
D11*
X101850000Y-106000000D03*
D10*
X101850000Y-108540000D03*
X101850000Y-111080000D03*
X101850000Y-113620000D03*
X101850000Y-116160000D03*
X101850000Y-118700000D03*
X101850000Y-121240000D03*
X101850000Y-123780000D03*
X101850000Y-126320000D03*
X101850000Y-128860000D03*
X101850000Y-131400000D03*
X101850000Y-133940000D03*
X101850000Y-136480000D03*
X135000000Y-136480000D03*
X135000000Y-133940000D03*
X135000000Y-131400000D03*
X135000000Y-128860000D03*
X135000000Y-126320000D03*
X135000000Y-123780000D03*
X135000000Y-121240000D03*
X135000000Y-118700000D03*
X135000000Y-116160000D03*
X135000000Y-113620000D03*
X135000000Y-111080000D03*
X135000000Y-108540000D03*
D11*
X135000000Y-106000000D03*
X114000000Y-149000000D03*
D10*
X116540000Y-149000000D03*
X119080000Y-149000000D03*
X121620000Y-149000000D03*
D13*
X104816000Y-151932000D03*
X105616000Y-151932000D03*
X106416000Y-151932000D03*
X107216000Y-151932000D03*
X107216000Y-154232000D03*
X106416000Y-154232000D03*
X105616000Y-154232000D03*
X104816000Y-154232000D03*
D14*
X108005000Y-147621000D03*
D15*
G36*
X107855000Y-146971000D02*
G01*
X108155000Y-147271000D01*
X108155000Y-147971000D01*
X107855000Y-148271000D01*
X107855000Y-146971000D01*
X107855000Y-146971000D01*
G37*
D16*
X108005000Y-147771000D03*
D17*
X106755000Y-147621000D03*
D18*
X105705000Y-148671000D03*
X106305000Y-148671000D03*
X108105000Y-148671000D03*
X107505000Y-148671000D03*
X105705000Y-146571000D03*
X108105000Y-146571000D03*
X107505000Y-146571000D03*
X106905000Y-146571000D03*
X106305000Y-146571000D03*
X106905000Y-148671000D03*
D19*
X103054000Y-152057000D03*
X102404000Y-152057000D03*
X101754000Y-152057000D03*
X101104000Y-152057000D03*
X101104000Y-154107000D03*
X101754000Y-154107000D03*
X102404000Y-154107000D03*
X103054000Y-154107000D03*
M02*
