G04 #@! TF.GenerationSoftware,KiCad,Pcbnew,(5.1.10)-1*
G04 #@! TF.CreationDate,2022-01-12T20:10:35+01:00*
G04 #@! TF.ProjectId,ttgot5,7474676f-7435-42e6-9b69-6361645f7063,rev?*
G04 #@! TF.SameCoordinates,Original*
G04 #@! TF.FileFunction,Legend,Top*
G04 #@! TF.FilePolarity,Positive*
%FSLAX46Y46*%
G04 Gerber Fmt 4.6, Leading zero omitted, Abs format (unit mm)*
G04 Created by KiCad (PCBNEW (5.1.10)-1) date 2022-01-12 20:10:35*
%MOMM*%
%LPD*%
G01*
G04 APERTURE LIST*
%ADD10C,0.150000*%
%ADD11C,0.300000*%
%ADD12C,0.200000*%
%ADD13C,0.120000*%
%ADD14C,0.100000*%
G04 APERTURE END LIST*
D10*
X107802000Y-149510095D02*
X107754380Y-149605333D01*
X107754380Y-149748190D01*
X107802000Y-149891047D01*
X107897238Y-149986285D01*
X107992476Y-150033904D01*
X108182952Y-150081523D01*
X108325809Y-150081523D01*
X108516285Y-150033904D01*
X108611523Y-149986285D01*
X108706761Y-149891047D01*
X108754380Y-149748190D01*
X108754380Y-149652952D01*
X108706761Y-149510095D01*
X108659142Y-149462476D01*
X108325809Y-149462476D01*
X108325809Y-149652952D01*
X108754380Y-149033904D02*
X107754380Y-149033904D01*
X107754380Y-148795809D01*
X107802000Y-148652952D01*
X107897238Y-148557714D01*
X107992476Y-148510095D01*
X108182952Y-148462476D01*
X108325809Y-148462476D01*
X108516285Y-148510095D01*
X108611523Y-148557714D01*
X108706761Y-148652952D01*
X108754380Y-148795809D01*
X108754380Y-149033904D01*
X106428761Y-148724380D02*
X106619238Y-148724380D01*
X106714476Y-148772000D01*
X106809714Y-148867238D01*
X106857333Y-149057714D01*
X106857333Y-149391047D01*
X106809714Y-149581523D01*
X106714476Y-149676761D01*
X106619238Y-149724380D01*
X106428761Y-149724380D01*
X106333523Y-149676761D01*
X106238285Y-149581523D01*
X106190666Y-149391047D01*
X106190666Y-149057714D01*
X106238285Y-148867238D01*
X106333523Y-148772000D01*
X106428761Y-148724380D01*
X108556000Y-146422380D02*
X108556000Y-145755714D01*
X108556000Y-145422380D02*
X108508380Y-145470000D01*
X108556000Y-145517619D01*
X108603619Y-145470000D01*
X108556000Y-145422380D01*
X108556000Y-145517619D01*
D11*
X105952571Y-163095142D02*
X107095428Y-163095142D01*
X112620095Y-163130857D02*
X114143904Y-163130857D01*
X113382000Y-163892761D02*
X113382000Y-162368952D01*
D10*
X125010380Y-140064380D02*
X124010380Y-140064380D01*
X125010380Y-139064380D02*
X125010380Y-139635809D01*
X125010380Y-139350095D02*
X124010380Y-139350095D01*
X124153238Y-139445333D01*
X124248476Y-139540571D01*
X124296095Y-139635809D01*
X124010380Y-138731047D02*
X124010380Y-138112000D01*
X124391333Y-138445333D01*
X124391333Y-138302476D01*
X124438952Y-138207238D01*
X124486571Y-138159619D01*
X124581809Y-138112000D01*
X124819904Y-138112000D01*
X124915142Y-138159619D01*
X124962761Y-138207238D01*
X125010380Y-138302476D01*
X125010380Y-138588190D01*
X124962761Y-138683428D01*
X124915142Y-138731047D01*
X127804380Y-140064380D02*
X126804380Y-140064380D01*
X126899619Y-139635809D02*
X126852000Y-139588190D01*
X126804380Y-139492952D01*
X126804380Y-139254857D01*
X126852000Y-139159619D01*
X126899619Y-139112000D01*
X126994857Y-139064380D01*
X127090095Y-139064380D01*
X127232952Y-139112000D01*
X127804380Y-139683428D01*
X127804380Y-139064380D01*
X126804380Y-138731047D02*
X126804380Y-138064380D01*
X127804380Y-138492952D01*
X113748780Y-140400895D02*
X113748780Y-139781847D01*
X114129733Y-140115180D01*
X114129733Y-139972323D01*
X114177352Y-139877085D01*
X114224971Y-139829466D01*
X114320209Y-139781847D01*
X114558304Y-139781847D01*
X114653542Y-139829466D01*
X114701161Y-139877085D01*
X114748780Y-139972323D01*
X114748780Y-140258038D01*
X114701161Y-140353276D01*
X114653542Y-140400895D01*
X113748780Y-139496133D02*
X114748780Y-139162800D01*
X113748780Y-138829466D01*
X113748780Y-138591371D02*
X113748780Y-137972323D01*
X114129733Y-138305657D01*
X114129733Y-138162800D01*
X114177352Y-138067561D01*
X114224971Y-138019942D01*
X114320209Y-137972323D01*
X114558304Y-137972323D01*
X114653542Y-138019942D01*
X114701161Y-138067561D01*
X114748780Y-138162800D01*
X114748780Y-138448514D01*
X114701161Y-138543752D01*
X114653542Y-138591371D01*
X119628761Y-140759676D02*
X119676380Y-140616819D01*
X119676380Y-140378723D01*
X119628761Y-140283485D01*
X119581142Y-140235866D01*
X119485904Y-140188247D01*
X119390666Y-140188247D01*
X119295428Y-140235866D01*
X119247809Y-140283485D01*
X119200190Y-140378723D01*
X119152571Y-140569200D01*
X119104952Y-140664438D01*
X119057333Y-140712057D01*
X118962095Y-140759676D01*
X118866857Y-140759676D01*
X118771619Y-140712057D01*
X118724000Y-140664438D01*
X118676380Y-140569200D01*
X118676380Y-140331104D01*
X118724000Y-140188247D01*
X119581142Y-139188247D02*
X119628761Y-139235866D01*
X119676380Y-139378723D01*
X119676380Y-139473961D01*
X119628761Y-139616819D01*
X119533523Y-139712057D01*
X119438285Y-139759676D01*
X119247809Y-139807295D01*
X119104952Y-139807295D01*
X118914476Y-139759676D01*
X118819238Y-139712057D01*
X118724000Y-139616819D01*
X118676380Y-139473961D01*
X118676380Y-139378723D01*
X118724000Y-139235866D01*
X118771619Y-139188247D01*
X119676380Y-138283485D02*
X119676380Y-138759676D01*
X118676380Y-138759676D01*
X116133200Y-140127904D02*
X116085580Y-140223142D01*
X116085580Y-140366000D01*
X116133200Y-140508857D01*
X116228438Y-140604095D01*
X116323676Y-140651714D01*
X116514152Y-140699333D01*
X116657009Y-140699333D01*
X116847485Y-140651714D01*
X116942723Y-140604095D01*
X117037961Y-140508857D01*
X117085580Y-140366000D01*
X117085580Y-140270761D01*
X117037961Y-140127904D01*
X116990342Y-140080285D01*
X116657009Y-140080285D01*
X116657009Y-140270761D01*
X117085580Y-139651714D02*
X116085580Y-139651714D01*
X117085580Y-139080285D01*
X116085580Y-139080285D01*
X117085580Y-138604095D02*
X116085580Y-138604095D01*
X116085580Y-138366000D01*
X116133200Y-138223142D01*
X116228438Y-138127904D01*
X116323676Y-138080285D01*
X116514152Y-138032666D01*
X116657009Y-138032666D01*
X116847485Y-138080285D01*
X116942723Y-138127904D01*
X117037961Y-138223142D01*
X117085580Y-138366000D01*
X117085580Y-138604095D01*
X122219561Y-140783485D02*
X122267180Y-140640628D01*
X122267180Y-140402533D01*
X122219561Y-140307295D01*
X122171942Y-140259676D01*
X122076704Y-140212057D01*
X121981466Y-140212057D01*
X121886228Y-140259676D01*
X121838609Y-140307295D01*
X121790990Y-140402533D01*
X121743371Y-140593009D01*
X121695752Y-140688247D01*
X121648133Y-140735866D01*
X121552895Y-140783485D01*
X121457657Y-140783485D01*
X121362419Y-140735866D01*
X121314800Y-140688247D01*
X121267180Y-140593009D01*
X121267180Y-140354914D01*
X121314800Y-140212057D01*
X122267180Y-139783485D02*
X121267180Y-139783485D01*
X121267180Y-139545390D01*
X121314800Y-139402533D01*
X121410038Y-139307295D01*
X121505276Y-139259676D01*
X121695752Y-139212057D01*
X121838609Y-139212057D01*
X122029085Y-139259676D01*
X122124323Y-139307295D01*
X122219561Y-139402533D01*
X122267180Y-139545390D01*
X122267180Y-139783485D01*
X121981466Y-138831104D02*
X121981466Y-138354914D01*
X122267180Y-138926342D02*
X121267180Y-138593009D01*
X122267180Y-138259676D01*
X110507261Y-110992380D02*
X110031071Y-110992380D01*
X110031071Y-109992380D01*
X111031071Y-109992380D02*
X111221547Y-109992380D01*
X111316785Y-110040000D01*
X111412023Y-110135238D01*
X111459642Y-110325714D01*
X111459642Y-110659047D01*
X111412023Y-110849523D01*
X111316785Y-110944761D01*
X111221547Y-110992380D01*
X111031071Y-110992380D01*
X110935833Y-110944761D01*
X110840595Y-110849523D01*
X110792976Y-110659047D01*
X110792976Y-110325714D01*
X110840595Y-110135238D01*
X110935833Y-110040000D01*
X111031071Y-109992380D01*
X112459642Y-110992380D02*
X112126309Y-110516190D01*
X111888214Y-110992380D02*
X111888214Y-109992380D01*
X112269166Y-109992380D01*
X112364404Y-110040000D01*
X112412023Y-110087619D01*
X112459642Y-110182857D01*
X112459642Y-110325714D01*
X112412023Y-110420952D01*
X112364404Y-110468571D01*
X112269166Y-110516190D01*
X111888214Y-110516190D01*
X112840595Y-110706666D02*
X113316785Y-110706666D01*
X112745357Y-110992380D02*
X113078690Y-109992380D01*
X113412023Y-110992380D01*
X114459642Y-109944761D02*
X113602500Y-111230476D01*
X114650119Y-109992380D02*
X115221547Y-109992380D01*
X114935833Y-110992380D02*
X114935833Y-109992380D01*
X115412023Y-109992380D02*
X115983452Y-109992380D01*
X115697738Y-110992380D02*
X115697738Y-109992380D01*
X116316785Y-110992380D02*
X116316785Y-109992380D01*
X116888214Y-110992380D01*
X116888214Y-109992380D01*
X117364404Y-110897142D02*
X117412023Y-110944761D01*
X117364404Y-110992380D01*
X117316785Y-110944761D01*
X117364404Y-110897142D01*
X117364404Y-110992380D01*
X117364404Y-110373333D02*
X117412023Y-110420952D01*
X117364404Y-110468571D01*
X117316785Y-110420952D01*
X117364404Y-110373333D01*
X117364404Y-110468571D01*
X111554880Y-112642380D02*
X111554880Y-111642380D01*
X111888214Y-112356666D01*
X112221547Y-111642380D01*
X112221547Y-112642380D01*
X112888214Y-111642380D02*
X113078690Y-111642380D01*
X113173928Y-111690000D01*
X113269166Y-111785238D01*
X113316785Y-111975714D01*
X113316785Y-112309047D01*
X113269166Y-112499523D01*
X113173928Y-112594761D01*
X113078690Y-112642380D01*
X112888214Y-112642380D01*
X112792976Y-112594761D01*
X112697738Y-112499523D01*
X112650119Y-112309047D01*
X112650119Y-111975714D01*
X112697738Y-111785238D01*
X112792976Y-111690000D01*
X112888214Y-111642380D01*
X113697738Y-112594761D02*
X113840595Y-112642380D01*
X114078690Y-112642380D01*
X114173928Y-112594761D01*
X114221547Y-112547142D01*
X114269166Y-112451904D01*
X114269166Y-112356666D01*
X114221547Y-112261428D01*
X114173928Y-112213809D01*
X114078690Y-112166190D01*
X113888214Y-112118571D01*
X113792976Y-112070952D01*
X113745357Y-112023333D01*
X113697738Y-111928095D01*
X113697738Y-111832857D01*
X113745357Y-111737619D01*
X113792976Y-111690000D01*
X113888214Y-111642380D01*
X114126309Y-111642380D01*
X114269166Y-111690000D01*
X114697738Y-112642380D02*
X114697738Y-111642380D01*
X116459642Y-112642380D02*
X115888214Y-112642380D01*
X116173928Y-112642380D02*
X116173928Y-111642380D01*
X116078690Y-111785238D01*
X115983452Y-111880476D01*
X115888214Y-111928095D01*
X117364404Y-111642380D02*
X116888214Y-111642380D01*
X116840595Y-112118571D01*
X116888214Y-112070952D01*
X116983452Y-112023333D01*
X117221547Y-112023333D01*
X117316785Y-112070952D01*
X117364404Y-112118571D01*
X117412023Y-112213809D01*
X117412023Y-112451904D01*
X117364404Y-112547142D01*
X117316785Y-112594761D01*
X117221547Y-112642380D01*
X116983452Y-112642380D01*
X116888214Y-112594761D01*
X116840595Y-112547142D01*
X111554880Y-114292380D02*
X111554880Y-113292380D01*
X111888214Y-114006666D01*
X112221547Y-113292380D01*
X112221547Y-114292380D01*
X112697738Y-114292380D02*
X112697738Y-113292380D01*
X113126309Y-114244761D02*
X113269166Y-114292380D01*
X113507261Y-114292380D01*
X113602500Y-114244761D01*
X113650119Y-114197142D01*
X113697738Y-114101904D01*
X113697738Y-114006666D01*
X113650119Y-113911428D01*
X113602500Y-113863809D01*
X113507261Y-113816190D01*
X113316785Y-113768571D01*
X113221547Y-113720952D01*
X113173928Y-113673333D01*
X113126309Y-113578095D01*
X113126309Y-113482857D01*
X113173928Y-113387619D01*
X113221547Y-113340000D01*
X113316785Y-113292380D01*
X113554880Y-113292380D01*
X113697738Y-113340000D01*
X114316785Y-113292380D02*
X114507261Y-113292380D01*
X114602500Y-113340000D01*
X114697738Y-113435238D01*
X114745357Y-113625714D01*
X114745357Y-113959047D01*
X114697738Y-114149523D01*
X114602500Y-114244761D01*
X114507261Y-114292380D01*
X114316785Y-114292380D01*
X114221547Y-114244761D01*
X114126309Y-114149523D01*
X114078690Y-113959047D01*
X114078690Y-113625714D01*
X114126309Y-113435238D01*
X114221547Y-113340000D01*
X114316785Y-113292380D01*
X116126309Y-113292380D02*
X116221547Y-113292380D01*
X116316785Y-113340000D01*
X116364404Y-113387619D01*
X116412023Y-113482857D01*
X116459642Y-113673333D01*
X116459642Y-113911428D01*
X116412023Y-114101904D01*
X116364404Y-114197142D01*
X116316785Y-114244761D01*
X116221547Y-114292380D01*
X116126309Y-114292380D01*
X116031071Y-114244761D01*
X115983452Y-114197142D01*
X115935833Y-114101904D01*
X115888214Y-113911428D01*
X115888214Y-113673333D01*
X115935833Y-113482857D01*
X115983452Y-113387619D01*
X116031071Y-113340000D01*
X116126309Y-113292380D01*
X116840595Y-113387619D02*
X116888214Y-113340000D01*
X116983452Y-113292380D01*
X117221547Y-113292380D01*
X117316785Y-113340000D01*
X117364404Y-113387619D01*
X117412023Y-113482857D01*
X117412023Y-113578095D01*
X117364404Y-113720952D01*
X116792976Y-114292380D01*
X117412023Y-114292380D01*
X112173928Y-115847142D02*
X112126309Y-115894761D01*
X111983452Y-115942380D01*
X111888214Y-115942380D01*
X111745357Y-115894761D01*
X111650119Y-115799523D01*
X111602500Y-115704285D01*
X111554880Y-115513809D01*
X111554880Y-115370952D01*
X111602500Y-115180476D01*
X111650119Y-115085238D01*
X111745357Y-114990000D01*
X111888214Y-114942380D01*
X111983452Y-114942380D01*
X112126309Y-114990000D01*
X112173928Y-115037619D01*
X113078690Y-115942380D02*
X112602500Y-115942380D01*
X112602500Y-114942380D01*
X113412023Y-115942380D02*
X113412023Y-114942380D01*
X113983452Y-115942380D02*
X113554880Y-115370952D01*
X113983452Y-114942380D02*
X113412023Y-115513809D01*
X116459642Y-115942380D02*
X115888214Y-115942380D01*
X116173928Y-115942380D02*
X116173928Y-114942380D01*
X116078690Y-115085238D01*
X115983452Y-115180476D01*
X115888214Y-115228095D01*
X117316785Y-115275714D02*
X117316785Y-115942380D01*
X117078690Y-114894761D02*
X116840595Y-115609047D01*
X117459642Y-115609047D01*
X112269166Y-117592380D02*
X111935833Y-117116190D01*
X111697738Y-117592380D02*
X111697738Y-116592380D01*
X112078690Y-116592380D01*
X112173928Y-116640000D01*
X112221547Y-116687619D01*
X112269166Y-116782857D01*
X112269166Y-116925714D01*
X112221547Y-117020952D01*
X112173928Y-117068571D01*
X112078690Y-117116190D01*
X111697738Y-117116190D01*
X112650119Y-117544761D02*
X112792976Y-117592380D01*
X113031071Y-117592380D01*
X113126309Y-117544761D01*
X113173928Y-117497142D01*
X113221547Y-117401904D01*
X113221547Y-117306666D01*
X113173928Y-117211428D01*
X113126309Y-117163809D01*
X113031071Y-117116190D01*
X112840595Y-117068571D01*
X112745357Y-117020952D01*
X112697738Y-116973333D01*
X112650119Y-116878095D01*
X112650119Y-116782857D01*
X112697738Y-116687619D01*
X112745357Y-116640000D01*
X112840595Y-116592380D01*
X113078690Y-116592380D01*
X113221547Y-116640000D01*
X113507261Y-116592380D02*
X114078690Y-116592380D01*
X113792976Y-117592380D02*
X113792976Y-116592380D01*
X115840595Y-116592380D02*
X116459642Y-116592380D01*
X116126309Y-116973333D01*
X116269166Y-116973333D01*
X116364404Y-117020952D01*
X116412023Y-117068571D01*
X116459642Y-117163809D01*
X116459642Y-117401904D01*
X116412023Y-117497142D01*
X116364404Y-117544761D01*
X116269166Y-117592380D01*
X115983452Y-117592380D01*
X115888214Y-117544761D01*
X115840595Y-117497142D01*
X117316785Y-116925714D02*
X117316785Y-117592380D01*
X117078690Y-116544761D02*
X116840595Y-117259047D01*
X117459642Y-117259047D01*
X111888214Y-119242380D02*
X111888214Y-118242380D01*
X112935833Y-119242380D02*
X112602500Y-118766190D01*
X112364404Y-119242380D02*
X112364404Y-118242380D01*
X112745357Y-118242380D01*
X112840595Y-118290000D01*
X112888214Y-118337619D01*
X112935833Y-118432857D01*
X112935833Y-118575714D01*
X112888214Y-118670952D01*
X112840595Y-118718571D01*
X112745357Y-118766190D01*
X112364404Y-118766190D01*
X114031071Y-119337619D02*
X113935833Y-119290000D01*
X113840595Y-119194761D01*
X113697738Y-119051904D01*
X113602500Y-119004285D01*
X113507261Y-119004285D01*
X113554880Y-119242380D02*
X113459642Y-119194761D01*
X113364404Y-119099523D01*
X113316785Y-118909047D01*
X113316785Y-118575714D01*
X113364404Y-118385238D01*
X113459642Y-118290000D01*
X113554880Y-118242380D01*
X113745357Y-118242380D01*
X113840595Y-118290000D01*
X113935833Y-118385238D01*
X113983452Y-118575714D01*
X113983452Y-118909047D01*
X113935833Y-119099523D01*
X113840595Y-119194761D01*
X113745357Y-119242380D01*
X113554880Y-119242380D01*
X115888214Y-118337619D02*
X115935833Y-118290000D01*
X116031071Y-118242380D01*
X116269166Y-118242380D01*
X116364404Y-118290000D01*
X116412023Y-118337619D01*
X116459642Y-118432857D01*
X116459642Y-118528095D01*
X116412023Y-118670952D01*
X115840595Y-119242380D01*
X116459642Y-119242380D01*
X117364404Y-118242380D02*
X116888214Y-118242380D01*
X116840595Y-118718571D01*
X116888214Y-118670952D01*
X116983452Y-118623333D01*
X117221547Y-118623333D01*
X117316785Y-118670952D01*
X117364404Y-118718571D01*
X117412023Y-118813809D01*
X117412023Y-119051904D01*
X117364404Y-119147142D01*
X117316785Y-119194761D01*
X117221547Y-119242380D01*
X116983452Y-119242380D01*
X116888214Y-119194761D01*
X116840595Y-119147142D01*
X113031071Y-120797142D02*
X112983452Y-120844761D01*
X112840595Y-120892380D01*
X112745357Y-120892380D01*
X112602500Y-120844761D01*
X112507261Y-120749523D01*
X112459642Y-120654285D01*
X112412023Y-120463809D01*
X112412023Y-120320952D01*
X112459642Y-120130476D01*
X112507261Y-120035238D01*
X112602500Y-119940000D01*
X112745357Y-119892380D01*
X112840595Y-119892380D01*
X112983452Y-119940000D01*
X113031071Y-119987619D01*
X113412023Y-120844761D02*
X113554880Y-120892380D01*
X113792976Y-120892380D01*
X113888214Y-120844761D01*
X113935833Y-120797142D01*
X113983452Y-120701904D01*
X113983452Y-120606666D01*
X113935833Y-120511428D01*
X113888214Y-120463809D01*
X113792976Y-120416190D01*
X113602500Y-120368571D01*
X113507261Y-120320952D01*
X113459642Y-120273333D01*
X113412023Y-120178095D01*
X113412023Y-120082857D01*
X113459642Y-119987619D01*
X113507261Y-119940000D01*
X113602500Y-119892380D01*
X113840595Y-119892380D01*
X113983452Y-119940000D01*
X115888214Y-119987619D02*
X115935833Y-119940000D01*
X116031071Y-119892380D01*
X116269166Y-119892380D01*
X116364404Y-119940000D01*
X116412023Y-119987619D01*
X116459642Y-120082857D01*
X116459642Y-120178095D01*
X116412023Y-120320952D01*
X115840595Y-120892380D01*
X116459642Y-120892380D01*
X117316785Y-119892380D02*
X117126309Y-119892380D01*
X117031071Y-119940000D01*
X116983452Y-119987619D01*
X116888214Y-120130476D01*
X116840595Y-120320952D01*
X116840595Y-120701904D01*
X116888214Y-120797142D01*
X116935833Y-120844761D01*
X117031071Y-120892380D01*
X117221547Y-120892380D01*
X117316785Y-120844761D01*
X117364404Y-120797142D01*
X117412023Y-120701904D01*
X117412023Y-120463809D01*
X117364404Y-120368571D01*
X117316785Y-120320952D01*
X117221547Y-120273333D01*
X117031071Y-120273333D01*
X116935833Y-120320952D01*
X116888214Y-120368571D01*
X116840595Y-120463809D01*
D12*
X131212761Y-156999142D02*
X130603238Y-156999142D01*
D11*
X131365142Y-156999142D02*
X130450857Y-156999142D01*
D10*
X133994000Y-162900000D02*
G75*
G03*
X133994000Y-162900000I-800000J0D01*
G01*
D11*
X120411142Y-101682485D02*
X120339714Y-101611057D01*
X120196857Y-101539628D01*
X120054000Y-101539628D01*
X119911142Y-101611057D01*
X119839714Y-101682485D01*
X119768285Y-101825342D01*
X119768285Y-101968200D01*
X119839714Y-102111057D01*
X119911142Y-102182485D01*
X120054000Y-102253914D01*
X120196857Y-102253914D01*
X120339714Y-102182485D01*
X120411142Y-102111057D01*
X120411142Y-101539628D02*
X120411142Y-102111057D01*
X120482571Y-102182485D01*
X120554000Y-102182485D01*
X120696857Y-102111057D01*
X120768285Y-101968200D01*
X120768285Y-101611057D01*
X120625428Y-101396771D01*
X120411142Y-101253914D01*
X120125428Y-101182485D01*
X119839714Y-101253914D01*
X119625428Y-101396771D01*
X119482571Y-101611057D01*
X119411142Y-101896771D01*
X119482571Y-102182485D01*
X119625428Y-102396771D01*
X119839714Y-102539628D01*
X120125428Y-102611057D01*
X120411142Y-102539628D01*
X120625428Y-102396771D01*
X121339714Y-102325342D02*
X121554000Y-102396771D01*
X121911142Y-102396771D01*
X122054000Y-102325342D01*
X122125428Y-102253914D01*
X122196857Y-102111057D01*
X122196857Y-101968200D01*
X122125428Y-101825342D01*
X122054000Y-101753914D01*
X121911142Y-101682485D01*
X121625428Y-101611057D01*
X121482571Y-101539628D01*
X121411142Y-101468200D01*
X121339714Y-101325342D01*
X121339714Y-101182485D01*
X121411142Y-101039628D01*
X121482571Y-100968200D01*
X121625428Y-100896771D01*
X121982571Y-100896771D01*
X122196857Y-100968200D01*
X122839714Y-102396771D02*
X122839714Y-100896771D01*
X123411142Y-100896771D01*
X123554000Y-100968200D01*
X123625428Y-101039628D01*
X123696857Y-101182485D01*
X123696857Y-101396771D01*
X123625428Y-101539628D01*
X123554000Y-101611057D01*
X123411142Y-101682485D01*
X122839714Y-101682485D01*
X124339714Y-102396771D02*
X124339714Y-100896771D01*
X124911142Y-100896771D02*
X125911142Y-100896771D01*
X124911142Y-102396771D01*
X125911142Y-102396771D01*
X126482571Y-102396771D02*
X126482571Y-100896771D01*
X127982571Y-100968200D02*
X127839714Y-100896771D01*
X127625428Y-100896771D01*
X127411142Y-100968200D01*
X127268285Y-101111057D01*
X127196857Y-101253914D01*
X127125428Y-101539628D01*
X127125428Y-101753914D01*
X127196857Y-102039628D01*
X127268285Y-102182485D01*
X127411142Y-102325342D01*
X127625428Y-102396771D01*
X127768285Y-102396771D01*
X127982571Y-102325342D01*
X128054000Y-102253914D01*
X128054000Y-101753914D01*
X127768285Y-101753914D01*
X119875428Y-103446771D02*
X120018285Y-103446771D01*
X120161142Y-103518200D01*
X120232571Y-103589628D01*
X120304000Y-103732485D01*
X120375428Y-104018200D01*
X120375428Y-104375342D01*
X120304000Y-104661057D01*
X120232571Y-104803914D01*
X120161142Y-104875342D01*
X120018285Y-104946771D01*
X119875428Y-104946771D01*
X119732571Y-104875342D01*
X119661142Y-104803914D01*
X119589714Y-104661057D01*
X119518285Y-104375342D01*
X119518285Y-104018200D01*
X119589714Y-103732485D01*
X119661142Y-103589628D01*
X119732571Y-103518200D01*
X119875428Y-103446771D01*
X120946857Y-103589628D02*
X121018285Y-103518200D01*
X121161142Y-103446771D01*
X121518285Y-103446771D01*
X121661142Y-103518200D01*
X121732571Y-103589628D01*
X121804000Y-103732485D01*
X121804000Y-103875342D01*
X121732571Y-104089628D01*
X120875428Y-104946771D01*
X121804000Y-104946771D01*
X123518285Y-103375342D02*
X122232571Y-105303914D01*
X123946857Y-103589628D02*
X124018285Y-103518200D01*
X124161142Y-103446771D01*
X124518285Y-103446771D01*
X124661142Y-103518200D01*
X124732571Y-103589628D01*
X124804000Y-103732485D01*
X124804000Y-103875342D01*
X124732571Y-104089628D01*
X123875428Y-104946771D01*
X124804000Y-104946771D01*
X125732571Y-103446771D02*
X125875428Y-103446771D01*
X126018285Y-103518200D01*
X126089714Y-103589628D01*
X126161142Y-103732485D01*
X126232571Y-104018200D01*
X126232571Y-104375342D01*
X126161142Y-104661057D01*
X126089714Y-104803914D01*
X126018285Y-104875342D01*
X125875428Y-104946771D01*
X125732571Y-104946771D01*
X125589714Y-104875342D01*
X125518285Y-104803914D01*
X125446857Y-104661057D01*
X125375428Y-104375342D01*
X125375428Y-104018200D01*
X125446857Y-103732485D01*
X125518285Y-103589628D01*
X125589714Y-103518200D01*
X125732571Y-103446771D01*
X126804000Y-103589628D02*
X126875428Y-103518200D01*
X127018285Y-103446771D01*
X127375428Y-103446771D01*
X127518285Y-103518200D01*
X127589714Y-103589628D01*
X127661142Y-103732485D01*
X127661142Y-103875342D01*
X127589714Y-104089628D01*
X126732571Y-104946771D01*
X127661142Y-104946771D01*
X128232571Y-103589628D02*
X128304000Y-103518200D01*
X128446857Y-103446771D01*
X128804000Y-103446771D01*
X128946857Y-103518200D01*
X129018285Y-103589628D01*
X129089714Y-103732485D01*
X129089714Y-103875342D01*
X129018285Y-104089628D01*
X128161142Y-104946771D01*
X129089714Y-104946771D01*
X129721714Y-150133142D02*
X129936000Y-150204571D01*
X130293142Y-150204571D01*
X130436000Y-150133142D01*
X130507428Y-150061714D01*
X130578857Y-149918857D01*
X130578857Y-149776000D01*
X130507428Y-149633142D01*
X130436000Y-149561714D01*
X130293142Y-149490285D01*
X130007428Y-149418857D01*
X129864571Y-149347428D01*
X129793142Y-149276000D01*
X129721714Y-149133142D01*
X129721714Y-148990285D01*
X129793142Y-148847428D01*
X129864571Y-148776000D01*
X130007428Y-148704571D01*
X130364571Y-148704571D01*
X130578857Y-148776000D01*
X131007428Y-148704571D02*
X131864571Y-148704571D01*
X131436000Y-150204571D02*
X131436000Y-148704571D01*
X132293142Y-149776000D02*
X133007428Y-149776000D01*
X132150285Y-150204571D02*
X132650285Y-148704571D01*
X133150285Y-150204571D01*
X134507428Y-150204571D02*
X134007428Y-149490285D01*
X133650285Y-150204571D02*
X133650285Y-148704571D01*
X134221714Y-148704571D01*
X134364571Y-148776000D01*
X134436000Y-148847428D01*
X134507428Y-148990285D01*
X134507428Y-149204571D01*
X134436000Y-149347428D01*
X134364571Y-149418857D01*
X134221714Y-149490285D01*
X133650285Y-149490285D01*
X134936000Y-148704571D02*
X135793142Y-148704571D01*
X135364571Y-150204571D02*
X135364571Y-148704571D01*
D10*
X118258895Y-146047619D02*
X118306514Y-146000000D01*
X118401752Y-145952380D01*
X118639847Y-145952380D01*
X118735085Y-146000000D01*
X118782704Y-146047619D01*
X118830323Y-146142857D01*
X118830323Y-146238095D01*
X118782704Y-146380952D01*
X118211276Y-146952380D01*
X118830323Y-146952380D01*
X119211276Y-146047619D02*
X119258895Y-146000000D01*
X119354133Y-145952380D01*
X119592228Y-145952380D01*
X119687466Y-146000000D01*
X119735085Y-146047619D01*
X119782704Y-146142857D01*
X119782704Y-146238095D01*
X119735085Y-146380952D01*
X119163657Y-146952380D01*
X119782704Y-146952380D01*
X120951295Y-146047619D02*
X120998914Y-146000000D01*
X121094152Y-145952380D01*
X121332247Y-145952380D01*
X121427485Y-146000000D01*
X121475104Y-146047619D01*
X121522723Y-146142857D01*
X121522723Y-146238095D01*
X121475104Y-146380952D01*
X120903676Y-146952380D01*
X121522723Y-146952380D01*
X122475104Y-146952380D02*
X121903676Y-146952380D01*
X122189390Y-146952380D02*
X122189390Y-145952380D01*
X122094152Y-146095238D01*
X121998914Y-146190476D01*
X121903676Y-146238095D01*
X119559595Y-110468571D02*
X119892928Y-110468571D01*
X120035785Y-110992380D02*
X119559595Y-110992380D01*
X119559595Y-109992380D01*
X120035785Y-109992380D01*
X120464357Y-110611428D02*
X121226261Y-110611428D01*
X121702452Y-110992380D02*
X121702452Y-109992380D01*
X122178642Y-110992380D02*
X122178642Y-109992380D01*
X122750071Y-110992380D01*
X122750071Y-109992380D01*
X123226261Y-110992380D02*
X123226261Y-109992380D01*
X123797690Y-110992380D02*
X123369119Y-110420952D01*
X123797690Y-109992380D02*
X123226261Y-110563809D01*
X124226261Y-110897142D02*
X124273880Y-110944761D01*
X124226261Y-110992380D01*
X124178642Y-110944761D01*
X124226261Y-110897142D01*
X124226261Y-110992380D01*
X124226261Y-110373333D02*
X124273880Y-110420952D01*
X124226261Y-110468571D01*
X124178642Y-110420952D01*
X124226261Y-110373333D01*
X124226261Y-110468571D01*
X119750071Y-111642380D02*
X119845309Y-111642380D01*
X119940547Y-111690000D01*
X119988166Y-111737619D01*
X120035785Y-111832857D01*
X120083404Y-112023333D01*
X120083404Y-112261428D01*
X120035785Y-112451904D01*
X119988166Y-112547142D01*
X119940547Y-112594761D01*
X119845309Y-112642380D01*
X119750071Y-112642380D01*
X119654833Y-112594761D01*
X119607214Y-112547142D01*
X119559595Y-112451904D01*
X119511976Y-112261428D01*
X119511976Y-112023333D01*
X119559595Y-111832857D01*
X119607214Y-111737619D01*
X119654833Y-111690000D01*
X119750071Y-111642380D01*
X120940547Y-111975714D02*
X120940547Y-112642380D01*
X120702452Y-111594761D02*
X120464357Y-112309047D01*
X121083404Y-112309047D01*
X122559595Y-112118571D02*
X122702452Y-112166190D01*
X122750071Y-112213809D01*
X122797690Y-112309047D01*
X122797690Y-112451904D01*
X122750071Y-112547142D01*
X122702452Y-112594761D01*
X122607214Y-112642380D01*
X122226261Y-112642380D01*
X122226261Y-111642380D01*
X122559595Y-111642380D01*
X122654833Y-111690000D01*
X122702452Y-111737619D01*
X122750071Y-111832857D01*
X122750071Y-111928095D01*
X122702452Y-112023333D01*
X122654833Y-112070952D01*
X122559595Y-112118571D01*
X122226261Y-112118571D01*
X123654833Y-111975714D02*
X123654833Y-112642380D01*
X123226261Y-111975714D02*
X123226261Y-112499523D01*
X123273880Y-112594761D01*
X123369119Y-112642380D01*
X123511976Y-112642380D01*
X123607214Y-112594761D01*
X123654833Y-112547142D01*
X124083404Y-112594761D02*
X124178642Y-112642380D01*
X124369119Y-112642380D01*
X124464357Y-112594761D01*
X124511976Y-112499523D01*
X124511976Y-112451904D01*
X124464357Y-112356666D01*
X124369119Y-112309047D01*
X124226261Y-112309047D01*
X124131023Y-112261428D01*
X124083404Y-112166190D01*
X124083404Y-112118571D01*
X124131023Y-112023333D01*
X124226261Y-111975714D01*
X124369119Y-111975714D01*
X124464357Y-112023333D01*
X124845309Y-111975714D02*
X125083404Y-112642380D01*
X125321500Y-111975714D02*
X125083404Y-112642380D01*
X124988166Y-112880476D01*
X124940547Y-112928095D01*
X124845309Y-112975714D01*
X119750071Y-113292380D02*
X119845309Y-113292380D01*
X119940547Y-113340000D01*
X119988166Y-113387619D01*
X120035785Y-113482857D01*
X120083404Y-113673333D01*
X120083404Y-113911428D01*
X120035785Y-114101904D01*
X119988166Y-114197142D01*
X119940547Y-114244761D01*
X119845309Y-114292380D01*
X119750071Y-114292380D01*
X119654833Y-114244761D01*
X119607214Y-114197142D01*
X119559595Y-114101904D01*
X119511976Y-113911428D01*
X119511976Y-113673333D01*
X119559595Y-113482857D01*
X119607214Y-113387619D01*
X119654833Y-113340000D01*
X119750071Y-113292380D01*
X120988166Y-113292380D02*
X120511976Y-113292380D01*
X120464357Y-113768571D01*
X120511976Y-113720952D01*
X120607214Y-113673333D01*
X120845309Y-113673333D01*
X120940547Y-113720952D01*
X120988166Y-113768571D01*
X121035785Y-113863809D01*
X121035785Y-114101904D01*
X120988166Y-114197142D01*
X120940547Y-114244761D01*
X120845309Y-114292380D01*
X120607214Y-114292380D01*
X120511976Y-114244761D01*
X120464357Y-114197142D01*
X122797690Y-114197142D02*
X122750071Y-114244761D01*
X122607214Y-114292380D01*
X122511976Y-114292380D01*
X122369119Y-114244761D01*
X122273880Y-114149523D01*
X122226261Y-114054285D01*
X122178642Y-113863809D01*
X122178642Y-113720952D01*
X122226261Y-113530476D01*
X122273880Y-113435238D01*
X122369119Y-113340000D01*
X122511976Y-113292380D01*
X122607214Y-113292380D01*
X122750071Y-113340000D01*
X122797690Y-113387619D01*
X123178642Y-114244761D02*
X123321500Y-114292380D01*
X123559595Y-114292380D01*
X123654833Y-114244761D01*
X123702452Y-114197142D01*
X123750071Y-114101904D01*
X123750071Y-114006666D01*
X123702452Y-113911428D01*
X123654833Y-113863809D01*
X123559595Y-113816190D01*
X123369119Y-113768571D01*
X123273880Y-113720952D01*
X123226261Y-113673333D01*
X123178642Y-113578095D01*
X123178642Y-113482857D01*
X123226261Y-113387619D01*
X123273880Y-113340000D01*
X123369119Y-113292380D01*
X123607214Y-113292380D01*
X123750071Y-113340000D01*
X120083404Y-115942380D02*
X119511976Y-115942380D01*
X119797690Y-115942380D02*
X119797690Y-114942380D01*
X119702452Y-115085238D01*
X119607214Y-115180476D01*
X119511976Y-115228095D01*
X120940547Y-114942380D02*
X120750071Y-114942380D01*
X120654833Y-114990000D01*
X120607214Y-115037619D01*
X120511976Y-115180476D01*
X120464357Y-115370952D01*
X120464357Y-115751904D01*
X120511976Y-115847142D01*
X120559595Y-115894761D01*
X120654833Y-115942380D01*
X120845309Y-115942380D01*
X120940547Y-115894761D01*
X120988166Y-115847142D01*
X121035785Y-115751904D01*
X121035785Y-115513809D01*
X120988166Y-115418571D01*
X120940547Y-115370952D01*
X120845309Y-115323333D01*
X120654833Y-115323333D01*
X120559595Y-115370952D01*
X120511976Y-115418571D01*
X120464357Y-115513809D01*
X122797690Y-115942380D02*
X122464357Y-115466190D01*
X122226261Y-115942380D02*
X122226261Y-114942380D01*
X122607214Y-114942380D01*
X122702452Y-114990000D01*
X122750071Y-115037619D01*
X122797690Y-115132857D01*
X122797690Y-115275714D01*
X122750071Y-115370952D01*
X122702452Y-115418571D01*
X122607214Y-115466190D01*
X122226261Y-115466190D01*
X123178642Y-115894761D02*
X123321500Y-115942380D01*
X123559595Y-115942380D01*
X123654833Y-115894761D01*
X123702452Y-115847142D01*
X123750071Y-115751904D01*
X123750071Y-115656666D01*
X123702452Y-115561428D01*
X123654833Y-115513809D01*
X123559595Y-115466190D01*
X123369119Y-115418571D01*
X123273880Y-115370952D01*
X123226261Y-115323333D01*
X123178642Y-115228095D01*
X123178642Y-115132857D01*
X123226261Y-115037619D01*
X123273880Y-114990000D01*
X123369119Y-114942380D01*
X123607214Y-114942380D01*
X123750071Y-114990000D01*
X124035785Y-114942380D02*
X124607214Y-114942380D01*
X124321500Y-115942380D02*
X124321500Y-114942380D01*
X120083404Y-117592380D02*
X119511976Y-117592380D01*
X119797690Y-117592380D02*
X119797690Y-116592380D01*
X119702452Y-116735238D01*
X119607214Y-116830476D01*
X119511976Y-116878095D01*
X120416738Y-116592380D02*
X121083404Y-116592380D01*
X120654833Y-117592380D01*
X122226261Y-117592380D02*
X122226261Y-116592380D01*
X122464357Y-116592380D01*
X122607214Y-116640000D01*
X122702452Y-116735238D01*
X122750071Y-116830476D01*
X122797690Y-117020952D01*
X122797690Y-117163809D01*
X122750071Y-117354285D01*
X122702452Y-117449523D01*
X122607214Y-117544761D01*
X122464357Y-117592380D01*
X122226261Y-117592380D01*
X123797690Y-117497142D02*
X123750071Y-117544761D01*
X123607214Y-117592380D01*
X123511976Y-117592380D01*
X123369119Y-117544761D01*
X123273880Y-117449523D01*
X123226261Y-117354285D01*
X123178642Y-117163809D01*
X123178642Y-117020952D01*
X123226261Y-116830476D01*
X123273880Y-116735238D01*
X123369119Y-116640000D01*
X123511976Y-116592380D01*
X123607214Y-116592380D01*
X123750071Y-116640000D01*
X123797690Y-116687619D01*
X120083404Y-119242380D02*
X119511976Y-119242380D01*
X119797690Y-119242380D02*
X119797690Y-118242380D01*
X119702452Y-118385238D01*
X119607214Y-118480476D01*
X119511976Y-118528095D01*
X120654833Y-118670952D02*
X120559595Y-118623333D01*
X120511976Y-118575714D01*
X120464357Y-118480476D01*
X120464357Y-118432857D01*
X120511976Y-118337619D01*
X120559595Y-118290000D01*
X120654833Y-118242380D01*
X120845309Y-118242380D01*
X120940547Y-118290000D01*
X120988166Y-118337619D01*
X121035785Y-118432857D01*
X121035785Y-118480476D01*
X120988166Y-118575714D01*
X120940547Y-118623333D01*
X120845309Y-118670952D01*
X120654833Y-118670952D01*
X120559595Y-118718571D01*
X120511976Y-118766190D01*
X120464357Y-118861428D01*
X120464357Y-119051904D01*
X120511976Y-119147142D01*
X120559595Y-119194761D01*
X120654833Y-119242380D01*
X120845309Y-119242380D01*
X120940547Y-119194761D01*
X120988166Y-119147142D01*
X121035785Y-119051904D01*
X121035785Y-118861428D01*
X120988166Y-118766190D01*
X120940547Y-118718571D01*
X120845309Y-118670952D01*
X122797690Y-119147142D02*
X122750071Y-119194761D01*
X122607214Y-119242380D01*
X122511976Y-119242380D01*
X122369119Y-119194761D01*
X122273880Y-119099523D01*
X122226261Y-119004285D01*
X122178642Y-118813809D01*
X122178642Y-118670952D01*
X122226261Y-118480476D01*
X122273880Y-118385238D01*
X122369119Y-118290000D01*
X122511976Y-118242380D01*
X122607214Y-118242380D01*
X122750071Y-118290000D01*
X122797690Y-118337619D01*
X123702452Y-119242380D02*
X123226261Y-119242380D01*
X123226261Y-118242380D01*
X124035785Y-119242380D02*
X124035785Y-118242380D01*
X124607214Y-119242380D02*
X124178642Y-118670952D01*
X124607214Y-118242380D02*
X124035785Y-118813809D01*
X119511976Y-119987619D02*
X119559595Y-119940000D01*
X119654833Y-119892380D01*
X119892928Y-119892380D01*
X119988166Y-119940000D01*
X120035785Y-119987619D01*
X120083404Y-120082857D01*
X120083404Y-120178095D01*
X120035785Y-120320952D01*
X119464357Y-120892380D01*
X120083404Y-120892380D01*
X120416738Y-119892380D02*
X121035785Y-119892380D01*
X120702452Y-120273333D01*
X120845309Y-120273333D01*
X120940547Y-120320952D01*
X120988166Y-120368571D01*
X121035785Y-120463809D01*
X121035785Y-120701904D01*
X120988166Y-120797142D01*
X120940547Y-120844761D01*
X120845309Y-120892380D01*
X120559595Y-120892380D01*
X120464357Y-120844761D01*
X120416738Y-120797142D01*
X122226261Y-120892380D02*
X122226261Y-119892380D01*
X122559595Y-120606666D01*
X122892928Y-119892380D01*
X122892928Y-120892380D01*
X123559595Y-119892380D02*
X123750071Y-119892380D01*
X123845309Y-119940000D01*
X123940547Y-120035238D01*
X123988166Y-120225714D01*
X123988166Y-120559047D01*
X123940547Y-120749523D01*
X123845309Y-120844761D01*
X123750071Y-120892380D01*
X123559595Y-120892380D01*
X123464357Y-120844761D01*
X123369119Y-120749523D01*
X123321500Y-120559047D01*
X123321500Y-120225714D01*
X123369119Y-120035238D01*
X123464357Y-119940000D01*
X123559595Y-119892380D01*
X124369119Y-120844761D02*
X124511976Y-120892380D01*
X124750071Y-120892380D01*
X124845309Y-120844761D01*
X124892928Y-120797142D01*
X124940547Y-120701904D01*
X124940547Y-120606666D01*
X124892928Y-120511428D01*
X124845309Y-120463809D01*
X124750071Y-120416190D01*
X124559595Y-120368571D01*
X124464357Y-120320952D01*
X124416738Y-120273333D01*
X124369119Y-120178095D01*
X124369119Y-120082857D01*
X124416738Y-119987619D01*
X124464357Y-119940000D01*
X124559595Y-119892380D01*
X124797690Y-119892380D01*
X124940547Y-119940000D01*
X125369119Y-120892380D02*
X125369119Y-119892380D01*
X113923976Y-123262761D02*
X114066833Y-123310380D01*
X114304928Y-123310380D01*
X114400166Y-123262761D01*
X114447785Y-123215142D01*
X114495404Y-123119904D01*
X114495404Y-123024666D01*
X114447785Y-122929428D01*
X114400166Y-122881809D01*
X114304928Y-122834190D01*
X114114452Y-122786571D01*
X114019214Y-122738952D01*
X113971595Y-122691333D01*
X113923976Y-122596095D01*
X113923976Y-122500857D01*
X113971595Y-122405619D01*
X114019214Y-122358000D01*
X114114452Y-122310380D01*
X114352547Y-122310380D01*
X114495404Y-122358000D01*
X114923976Y-123310380D02*
X114923976Y-122310380D01*
X115162071Y-122310380D01*
X115304928Y-122358000D01*
X115400166Y-122453238D01*
X115447785Y-122548476D01*
X115495404Y-122738952D01*
X115495404Y-122881809D01*
X115447785Y-123072285D01*
X115400166Y-123167523D01*
X115304928Y-123262761D01*
X115162071Y-123310380D01*
X114923976Y-123310380D01*
X115923976Y-122929428D02*
X116685880Y-122929428D01*
X117733500Y-123215142D02*
X117685880Y-123262761D01*
X117543023Y-123310380D01*
X117447785Y-123310380D01*
X117304928Y-123262761D01*
X117209690Y-123167523D01*
X117162071Y-123072285D01*
X117114452Y-122881809D01*
X117114452Y-122738952D01*
X117162071Y-122548476D01*
X117209690Y-122453238D01*
X117304928Y-122358000D01*
X117447785Y-122310380D01*
X117543023Y-122310380D01*
X117685880Y-122358000D01*
X117733500Y-122405619D01*
X118590642Y-123310380D02*
X118590642Y-122786571D01*
X118543023Y-122691333D01*
X118447785Y-122643714D01*
X118257309Y-122643714D01*
X118162071Y-122691333D01*
X118590642Y-123262761D02*
X118495404Y-123310380D01*
X118257309Y-123310380D01*
X118162071Y-123262761D01*
X118114452Y-123167523D01*
X118114452Y-123072285D01*
X118162071Y-122977047D01*
X118257309Y-122929428D01*
X118495404Y-122929428D01*
X118590642Y-122881809D01*
X119066833Y-123310380D02*
X119066833Y-122643714D01*
X119066833Y-122834190D02*
X119114452Y-122738952D01*
X119162071Y-122691333D01*
X119257309Y-122643714D01*
X119352547Y-122643714D01*
X120114452Y-123310380D02*
X120114452Y-122310380D01*
X120114452Y-123262761D02*
X120019214Y-123310380D01*
X119828738Y-123310380D01*
X119733500Y-123262761D01*
X119685880Y-123215142D01*
X119638261Y-123119904D01*
X119638261Y-122834190D01*
X119685880Y-122738952D01*
X119733500Y-122691333D01*
X119828738Y-122643714D01*
X120019214Y-122643714D01*
X120114452Y-122691333D01*
X120590642Y-123215142D02*
X120638261Y-123262761D01*
X120590642Y-123310380D01*
X120543023Y-123262761D01*
X120590642Y-123215142D01*
X120590642Y-123310380D01*
X120590642Y-122691333D02*
X120638261Y-122738952D01*
X120590642Y-122786571D01*
X120543023Y-122738952D01*
X120590642Y-122691333D01*
X120590642Y-122786571D01*
X114162071Y-123960380D02*
X114257309Y-123960380D01*
X114352547Y-124008000D01*
X114400166Y-124055619D01*
X114447785Y-124150857D01*
X114495404Y-124341333D01*
X114495404Y-124579428D01*
X114447785Y-124769904D01*
X114400166Y-124865142D01*
X114352547Y-124912761D01*
X114257309Y-124960380D01*
X114162071Y-124960380D01*
X114066833Y-124912761D01*
X114019214Y-124865142D01*
X113971595Y-124769904D01*
X113923976Y-124579428D01*
X113923976Y-124341333D01*
X113971595Y-124150857D01*
X114019214Y-124055619D01*
X114066833Y-124008000D01*
X114162071Y-123960380D01*
X114876357Y-124055619D02*
X114923976Y-124008000D01*
X115019214Y-123960380D01*
X115257309Y-123960380D01*
X115352547Y-124008000D01*
X115400166Y-124055619D01*
X115447785Y-124150857D01*
X115447785Y-124246095D01*
X115400166Y-124388952D01*
X114828738Y-124960380D01*
X115447785Y-124960380D01*
X116638261Y-124960380D02*
X116638261Y-123960380D01*
X116971595Y-124674666D01*
X117304928Y-123960380D01*
X117304928Y-124960380D01*
X117781119Y-124960380D02*
X117781119Y-123960380D01*
X118209690Y-124912761D02*
X118352547Y-124960380D01*
X118590642Y-124960380D01*
X118685880Y-124912761D01*
X118733500Y-124865142D01*
X118781119Y-124769904D01*
X118781119Y-124674666D01*
X118733500Y-124579428D01*
X118685880Y-124531809D01*
X118590642Y-124484190D01*
X118400166Y-124436571D01*
X118304928Y-124388952D01*
X118257309Y-124341333D01*
X118209690Y-124246095D01*
X118209690Y-124150857D01*
X118257309Y-124055619D01*
X118304928Y-124008000D01*
X118400166Y-123960380D01*
X118638261Y-123960380D01*
X118781119Y-124008000D01*
X119400166Y-123960380D02*
X119590642Y-123960380D01*
X119685880Y-124008000D01*
X119781119Y-124103238D01*
X119828738Y-124293714D01*
X119828738Y-124627047D01*
X119781119Y-124817523D01*
X119685880Y-124912761D01*
X119590642Y-124960380D01*
X119400166Y-124960380D01*
X119304928Y-124912761D01*
X119209690Y-124817523D01*
X119162071Y-124627047D01*
X119162071Y-124293714D01*
X119209690Y-124103238D01*
X119304928Y-124008000D01*
X119400166Y-123960380D01*
X114495404Y-126610380D02*
X113923976Y-126610380D01*
X114209690Y-126610380D02*
X114209690Y-125610380D01*
X114114452Y-125753238D01*
X114019214Y-125848476D01*
X113923976Y-125896095D01*
X114828738Y-125610380D02*
X115447785Y-125610380D01*
X115114452Y-125991333D01*
X115257309Y-125991333D01*
X115352547Y-126038952D01*
X115400166Y-126086571D01*
X115447785Y-126181809D01*
X115447785Y-126419904D01*
X115400166Y-126515142D01*
X115352547Y-126562761D01*
X115257309Y-126610380D01*
X114971595Y-126610380D01*
X114876357Y-126562761D01*
X114828738Y-126515142D01*
X117209690Y-126515142D02*
X117162071Y-126562761D01*
X117019214Y-126610380D01*
X116923976Y-126610380D01*
X116781119Y-126562761D01*
X116685880Y-126467523D01*
X116638261Y-126372285D01*
X116590642Y-126181809D01*
X116590642Y-126038952D01*
X116638261Y-125848476D01*
X116685880Y-125753238D01*
X116781119Y-125658000D01*
X116923976Y-125610380D01*
X117019214Y-125610380D01*
X117162071Y-125658000D01*
X117209690Y-125705619D01*
X117590642Y-126562761D02*
X117733500Y-126610380D01*
X117971595Y-126610380D01*
X118066833Y-126562761D01*
X118114452Y-126515142D01*
X118162071Y-126419904D01*
X118162071Y-126324666D01*
X118114452Y-126229428D01*
X118066833Y-126181809D01*
X117971595Y-126134190D01*
X117781119Y-126086571D01*
X117685880Y-126038952D01*
X117638261Y-125991333D01*
X117590642Y-125896095D01*
X117590642Y-125800857D01*
X117638261Y-125705619D01*
X117685880Y-125658000D01*
X117781119Y-125610380D01*
X118019214Y-125610380D01*
X118162071Y-125658000D01*
X114495404Y-128260380D02*
X113923976Y-128260380D01*
X114209690Y-128260380D02*
X114209690Y-127260380D01*
X114114452Y-127403238D01*
X114019214Y-127498476D01*
X113923976Y-127546095D01*
X115352547Y-127593714D02*
X115352547Y-128260380D01*
X115114452Y-127212761D02*
X114876357Y-127927047D01*
X115495404Y-127927047D01*
X116590642Y-128212761D02*
X116733500Y-128260380D01*
X116971595Y-128260380D01*
X117066833Y-128212761D01*
X117114452Y-128165142D01*
X117162071Y-128069904D01*
X117162071Y-127974666D01*
X117114452Y-127879428D01*
X117066833Y-127831809D01*
X116971595Y-127784190D01*
X116781119Y-127736571D01*
X116685880Y-127688952D01*
X116638261Y-127641333D01*
X116590642Y-127546095D01*
X116590642Y-127450857D01*
X116638261Y-127355619D01*
X116685880Y-127308000D01*
X116781119Y-127260380D01*
X117019214Y-127260380D01*
X117162071Y-127308000D01*
X118162071Y-128165142D02*
X118114452Y-128212761D01*
X117971595Y-128260380D01*
X117876357Y-128260380D01*
X117733500Y-128212761D01*
X117638261Y-128117523D01*
X117590642Y-128022285D01*
X117543023Y-127831809D01*
X117543023Y-127688952D01*
X117590642Y-127498476D01*
X117638261Y-127403238D01*
X117733500Y-127308000D01*
X117876357Y-127260380D01*
X117971595Y-127260380D01*
X118114452Y-127308000D01*
X118162071Y-127355619D01*
X118590642Y-128260380D02*
X118590642Y-127260380D01*
X119162071Y-128260380D02*
X118733500Y-127688952D01*
X119162071Y-127260380D02*
X118590642Y-127831809D01*
X114495404Y-129910380D02*
X113923976Y-129910380D01*
X114209690Y-129910380D02*
X114209690Y-128910380D01*
X114114452Y-129053238D01*
X114019214Y-129148476D01*
X113923976Y-129196095D01*
X115400166Y-128910380D02*
X114923976Y-128910380D01*
X114876357Y-129386571D01*
X114923976Y-129338952D01*
X115019214Y-129291333D01*
X115257309Y-129291333D01*
X115352547Y-129338952D01*
X115400166Y-129386571D01*
X115447785Y-129481809D01*
X115447785Y-129719904D01*
X115400166Y-129815142D01*
X115352547Y-129862761D01*
X115257309Y-129910380D01*
X115019214Y-129910380D01*
X114923976Y-129862761D01*
X114876357Y-129815142D01*
X116638261Y-129910380D02*
X116638261Y-128910380D01*
X116971595Y-129624666D01*
X117304928Y-128910380D01*
X117304928Y-129910380D01*
X117971595Y-128910380D02*
X118162071Y-128910380D01*
X118257309Y-128958000D01*
X118352547Y-129053238D01*
X118400166Y-129243714D01*
X118400166Y-129577047D01*
X118352547Y-129767523D01*
X118257309Y-129862761D01*
X118162071Y-129910380D01*
X117971595Y-129910380D01*
X117876357Y-129862761D01*
X117781119Y-129767523D01*
X117733500Y-129577047D01*
X117733500Y-129243714D01*
X117781119Y-129053238D01*
X117876357Y-128958000D01*
X117971595Y-128910380D01*
X118781119Y-129862761D02*
X118923976Y-129910380D01*
X119162071Y-129910380D01*
X119257309Y-129862761D01*
X119304928Y-129815142D01*
X119352547Y-129719904D01*
X119352547Y-129624666D01*
X119304928Y-129529428D01*
X119257309Y-129481809D01*
X119162071Y-129434190D01*
X118971595Y-129386571D01*
X118876357Y-129338952D01*
X118828738Y-129291333D01*
X118781119Y-129196095D01*
X118781119Y-129100857D01*
X118828738Y-129005619D01*
X118876357Y-128958000D01*
X118971595Y-128910380D01*
X119209690Y-128910380D01*
X119352547Y-128958000D01*
X119781119Y-129910380D02*
X119781119Y-128910380D01*
X129283452Y-104546428D02*
X129902500Y-104546428D01*
X129569166Y-105175000D01*
X129712023Y-105175000D01*
X129807261Y-105253571D01*
X129854880Y-105332142D01*
X129902500Y-105489285D01*
X129902500Y-105882142D01*
X129854880Y-106039285D01*
X129807261Y-106117857D01*
X129712023Y-106196428D01*
X129426309Y-106196428D01*
X129331071Y-106117857D01*
X129283452Y-106039285D01*
X130188214Y-104546428D02*
X130521547Y-106196428D01*
X130854880Y-104546428D01*
X131092976Y-104546428D02*
X131712023Y-104546428D01*
X131378690Y-105175000D01*
X131521547Y-105175000D01*
X131616785Y-105253571D01*
X131664404Y-105332142D01*
X131712023Y-105489285D01*
X131712023Y-105882142D01*
X131664404Y-106039285D01*
X131616785Y-106117857D01*
X131521547Y-106196428D01*
X131235833Y-106196428D01*
X131140595Y-106117857D01*
X131092976Y-106039285D01*
X129616785Y-107250000D02*
X129521547Y-107171428D01*
X129378690Y-107171428D01*
X129235833Y-107250000D01*
X129140595Y-107407142D01*
X129092976Y-107564285D01*
X129045357Y-107878571D01*
X129045357Y-108114285D01*
X129092976Y-108428571D01*
X129140595Y-108585714D01*
X129235833Y-108742857D01*
X129378690Y-108821428D01*
X129473928Y-108821428D01*
X129616785Y-108742857D01*
X129664404Y-108664285D01*
X129664404Y-108114285D01*
X129473928Y-108114285D01*
X130092976Y-108821428D02*
X130092976Y-107171428D01*
X130664404Y-108821428D01*
X130664404Y-107171428D01*
X131140595Y-108821428D02*
X131140595Y-107171428D01*
X131378690Y-107171428D01*
X131521547Y-107250000D01*
X131616785Y-107407142D01*
X131664404Y-107564285D01*
X131712023Y-107878571D01*
X131712023Y-108114285D01*
X131664404Y-108428571D01*
X131616785Y-108585714D01*
X131521547Y-108742857D01*
X131378690Y-108821428D01*
X131140595Y-108821428D01*
X126616785Y-111367857D02*
X126759642Y-111446428D01*
X126997738Y-111446428D01*
X127092976Y-111367857D01*
X127140595Y-111289285D01*
X127188214Y-111132142D01*
X127188214Y-110975000D01*
X127140595Y-110817857D01*
X127092976Y-110739285D01*
X126997738Y-110660714D01*
X126807261Y-110582142D01*
X126712023Y-110503571D01*
X126664404Y-110425000D01*
X126616785Y-110267857D01*
X126616785Y-110110714D01*
X126664404Y-109953571D01*
X126712023Y-109875000D01*
X126807261Y-109796428D01*
X127045357Y-109796428D01*
X127188214Y-109875000D01*
X127616785Y-111446428D02*
X127616785Y-109796428D01*
X127854880Y-109796428D01*
X127997738Y-109875000D01*
X128092976Y-110032142D01*
X128140595Y-110189285D01*
X128188214Y-110503571D01*
X128188214Y-110739285D01*
X128140595Y-111053571D01*
X128092976Y-111210714D01*
X127997738Y-111367857D01*
X127854880Y-111446428D01*
X127616785Y-111446428D01*
X128569166Y-110975000D02*
X129045357Y-110975000D01*
X128473928Y-111446428D02*
X128807261Y-109796428D01*
X129140595Y-111446428D01*
X130188214Y-109953571D02*
X130235833Y-109875000D01*
X130331071Y-109796428D01*
X130569166Y-109796428D01*
X130664404Y-109875000D01*
X130712023Y-109953571D01*
X130759642Y-110110714D01*
X130759642Y-110267857D01*
X130712023Y-110503571D01*
X130140595Y-111446428D01*
X130759642Y-111446428D01*
X131712023Y-111446428D02*
X131140595Y-111446428D01*
X131426309Y-111446428D02*
X131426309Y-109796428D01*
X131331071Y-110032142D01*
X131235833Y-110189285D01*
X131140595Y-110267857D01*
X129283452Y-112421428D02*
X129854880Y-112421428D01*
X129569166Y-114071428D02*
X129569166Y-112421428D01*
X130092976Y-112421428D02*
X130759642Y-114071428D01*
X130759642Y-112421428D02*
X130092976Y-114071428D01*
X131140595Y-114071428D02*
X131140595Y-112421428D01*
X131378690Y-112421428D01*
X131521547Y-112500000D01*
X131616785Y-112657142D01*
X131664404Y-112814285D01*
X131712023Y-113128571D01*
X131712023Y-113364285D01*
X131664404Y-113678571D01*
X131616785Y-113835714D01*
X131521547Y-113992857D01*
X131378690Y-114071428D01*
X131140595Y-114071428D01*
X129759642Y-116696428D02*
X129426309Y-115910714D01*
X129188214Y-116696428D02*
X129188214Y-115046428D01*
X129569166Y-115046428D01*
X129664404Y-115125000D01*
X129712023Y-115203571D01*
X129759642Y-115360714D01*
X129759642Y-115596428D01*
X129712023Y-115753571D01*
X129664404Y-115832142D01*
X129569166Y-115910714D01*
X129188214Y-115910714D01*
X130092976Y-115046428D02*
X130759642Y-116696428D01*
X130759642Y-115046428D02*
X130092976Y-116696428D01*
X131140595Y-116696428D02*
X131140595Y-115046428D01*
X131378690Y-115046428D01*
X131521547Y-115125000D01*
X131616785Y-115282142D01*
X131664404Y-115439285D01*
X131712023Y-115753571D01*
X131712023Y-115989285D01*
X131664404Y-116303571D01*
X131616785Y-116460714D01*
X131521547Y-116617857D01*
X131378690Y-116696428D01*
X131140595Y-116696428D01*
X126664404Y-119242857D02*
X126807261Y-119321428D01*
X127045357Y-119321428D01*
X127140595Y-119242857D01*
X127188214Y-119164285D01*
X127235833Y-119007142D01*
X127235833Y-118850000D01*
X127188214Y-118692857D01*
X127140595Y-118614285D01*
X127045357Y-118535714D01*
X126854880Y-118457142D01*
X126759642Y-118378571D01*
X126712023Y-118300000D01*
X126664404Y-118142857D01*
X126664404Y-117985714D01*
X126712023Y-117828571D01*
X126759642Y-117750000D01*
X126854880Y-117671428D01*
X127092976Y-117671428D01*
X127235833Y-117750000D01*
X128235833Y-119164285D02*
X128188214Y-119242857D01*
X128045357Y-119321428D01*
X127950119Y-119321428D01*
X127807261Y-119242857D01*
X127712023Y-119085714D01*
X127664404Y-118928571D01*
X127616785Y-118614285D01*
X127616785Y-118378571D01*
X127664404Y-118064285D01*
X127712023Y-117907142D01*
X127807261Y-117750000D01*
X127950119Y-117671428D01*
X128045357Y-117671428D01*
X128188214Y-117750000D01*
X128235833Y-117828571D01*
X129140595Y-119321428D02*
X128664404Y-119321428D01*
X128664404Y-117671428D01*
X130188214Y-117828571D02*
X130235833Y-117750000D01*
X130331071Y-117671428D01*
X130569166Y-117671428D01*
X130664404Y-117750000D01*
X130712023Y-117828571D01*
X130759642Y-117985714D01*
X130759642Y-118142857D01*
X130712023Y-118378571D01*
X130140595Y-119321428D01*
X130759642Y-119321428D01*
X131140595Y-117828571D02*
X131188214Y-117750000D01*
X131283452Y-117671428D01*
X131521547Y-117671428D01*
X131616785Y-117750000D01*
X131664404Y-117828571D01*
X131712023Y-117985714D01*
X131712023Y-118142857D01*
X131664404Y-118378571D01*
X131092976Y-119321428D01*
X131712023Y-119321428D01*
X127235833Y-121946428D02*
X126759642Y-121946428D01*
X126759642Y-120296428D01*
X127569166Y-121082142D02*
X127902500Y-121082142D01*
X128045357Y-121946428D02*
X127569166Y-121946428D01*
X127569166Y-120296428D01*
X128045357Y-120296428D01*
X128473928Y-121946428D02*
X128473928Y-120296428D01*
X128712023Y-120296428D01*
X128854880Y-120375000D01*
X128950119Y-120532142D01*
X128997738Y-120689285D01*
X129045357Y-121003571D01*
X129045357Y-121239285D01*
X128997738Y-121553571D01*
X128950119Y-121710714D01*
X128854880Y-121867857D01*
X128712023Y-121946428D01*
X128473928Y-121946428D01*
X130759642Y-121946428D02*
X130188214Y-121946428D01*
X130473928Y-121946428D02*
X130473928Y-120296428D01*
X130378690Y-120532142D01*
X130283452Y-120689285D01*
X130188214Y-120767857D01*
X131235833Y-121946428D02*
X131426309Y-121946428D01*
X131521547Y-121867857D01*
X131569166Y-121789285D01*
X131664404Y-121553571D01*
X131712023Y-121239285D01*
X131712023Y-120610714D01*
X131664404Y-120453571D01*
X131616785Y-120375000D01*
X131521547Y-120296428D01*
X131331071Y-120296428D01*
X131235833Y-120375000D01*
X131188214Y-120453571D01*
X131140595Y-120610714D01*
X131140595Y-121003571D01*
X131188214Y-121160714D01*
X131235833Y-121239285D01*
X131331071Y-121317857D01*
X131521547Y-121317857D01*
X131616785Y-121239285D01*
X131664404Y-121160714D01*
X131712023Y-121003571D01*
X122569166Y-124571428D02*
X122235833Y-123785714D01*
X121997738Y-124571428D02*
X121997738Y-122921428D01*
X122378690Y-122921428D01*
X122473928Y-123000000D01*
X122521547Y-123078571D01*
X122569166Y-123235714D01*
X122569166Y-123471428D01*
X122521547Y-123628571D01*
X122473928Y-123707142D01*
X122378690Y-123785714D01*
X121997738Y-123785714D01*
X123331071Y-123707142D02*
X122997738Y-123707142D01*
X122997738Y-124571428D02*
X122997738Y-122921428D01*
X123473928Y-122921428D01*
X123854880Y-124571428D02*
X123854880Y-122921428D01*
X124188214Y-124100000D01*
X124521547Y-122921428D01*
X124521547Y-124571428D01*
X125712023Y-124492857D02*
X125854880Y-124571428D01*
X126092976Y-124571428D01*
X126188214Y-124492857D01*
X126235833Y-124414285D01*
X126283452Y-124257142D01*
X126283452Y-124100000D01*
X126235833Y-123942857D01*
X126188214Y-123864285D01*
X126092976Y-123785714D01*
X125902500Y-123707142D01*
X125807261Y-123628571D01*
X125759642Y-123550000D01*
X125712023Y-123392857D01*
X125712023Y-123235714D01*
X125759642Y-123078571D01*
X125807261Y-123000000D01*
X125902500Y-122921428D01*
X126140595Y-122921428D01*
X126283452Y-123000000D01*
X127283452Y-124414285D02*
X127235833Y-124492857D01*
X127092976Y-124571428D01*
X126997738Y-124571428D01*
X126854880Y-124492857D01*
X126759642Y-124335714D01*
X126712023Y-124178571D01*
X126664404Y-123864285D01*
X126664404Y-123628571D01*
X126712023Y-123314285D01*
X126759642Y-123157142D01*
X126854880Y-123000000D01*
X126997738Y-122921428D01*
X127092976Y-122921428D01*
X127235833Y-123000000D01*
X127283452Y-123078571D01*
X127712023Y-124571428D02*
X127712023Y-122921428D01*
X128283452Y-124571428D02*
X127854880Y-123628571D01*
X128283452Y-122921428D02*
X127712023Y-123864285D01*
X130759642Y-124571428D02*
X130188214Y-124571428D01*
X130473928Y-124571428D02*
X130473928Y-122921428D01*
X130378690Y-123157142D01*
X130283452Y-123314285D01*
X130188214Y-123392857D01*
X131616785Y-123471428D02*
X131616785Y-124571428D01*
X131378690Y-122842857D02*
X131140595Y-124021428D01*
X131759642Y-124021428D01*
X122664404Y-127196428D02*
X122331071Y-126410714D01*
X122092976Y-127196428D02*
X122092976Y-125546428D01*
X122473928Y-125546428D01*
X122569166Y-125625000D01*
X122616785Y-125703571D01*
X122664404Y-125860714D01*
X122664404Y-126096428D01*
X122616785Y-126253571D01*
X122569166Y-126332142D01*
X122473928Y-126410714D01*
X122092976Y-126410714D01*
X123426309Y-126332142D02*
X123092976Y-126332142D01*
X123092976Y-127196428D02*
X123092976Y-125546428D01*
X123569166Y-125546428D01*
X123950119Y-127196428D02*
X123950119Y-125546428D01*
X124283452Y-126725000D01*
X124616785Y-125546428D01*
X124616785Y-127196428D01*
X125854880Y-127196428D02*
X125854880Y-125546428D01*
X126188214Y-126725000D01*
X126521547Y-125546428D01*
X126521547Y-127196428D01*
X126997738Y-127196428D02*
X126997738Y-125546428D01*
X127426309Y-127117857D02*
X127569166Y-127196428D01*
X127807261Y-127196428D01*
X127902500Y-127117857D01*
X127950119Y-127039285D01*
X127997738Y-126882142D01*
X127997738Y-126725000D01*
X127950119Y-126567857D01*
X127902500Y-126489285D01*
X127807261Y-126410714D01*
X127616785Y-126332142D01*
X127521547Y-126253571D01*
X127473928Y-126175000D01*
X127426309Y-126017857D01*
X127426309Y-125860714D01*
X127473928Y-125703571D01*
X127521547Y-125625000D01*
X127616785Y-125546428D01*
X127854880Y-125546428D01*
X127997738Y-125625000D01*
X128616785Y-125546428D02*
X128807261Y-125546428D01*
X128902500Y-125625000D01*
X128997738Y-125782142D01*
X129045357Y-126096428D01*
X129045357Y-126646428D01*
X128997738Y-126960714D01*
X128902500Y-127117857D01*
X128807261Y-127196428D01*
X128616785Y-127196428D01*
X128521547Y-127117857D01*
X128426309Y-126960714D01*
X128378690Y-126646428D01*
X128378690Y-126096428D01*
X128426309Y-125782142D01*
X128521547Y-125625000D01*
X128616785Y-125546428D01*
X130426309Y-125546428D02*
X130521547Y-125546428D01*
X130616785Y-125625000D01*
X130664404Y-125703571D01*
X130712023Y-125860714D01*
X130759642Y-126175000D01*
X130759642Y-126567857D01*
X130712023Y-126882142D01*
X130664404Y-127039285D01*
X130616785Y-127117857D01*
X130521547Y-127196428D01*
X130426309Y-127196428D01*
X130331071Y-127117857D01*
X130283452Y-127039285D01*
X130235833Y-126882142D01*
X130188214Y-126567857D01*
X130188214Y-126175000D01*
X130235833Y-125860714D01*
X130283452Y-125703571D01*
X130331071Y-125625000D01*
X130426309Y-125546428D01*
X131140595Y-125703571D02*
X131188214Y-125625000D01*
X131283452Y-125546428D01*
X131521547Y-125546428D01*
X131616785Y-125625000D01*
X131664404Y-125703571D01*
X131712023Y-125860714D01*
X131712023Y-126017857D01*
X131664404Y-126253571D01*
X131092976Y-127196428D01*
X131712023Y-127196428D01*
X122664404Y-129821428D02*
X122331071Y-129035714D01*
X122092976Y-129821428D02*
X122092976Y-128171428D01*
X122473928Y-128171428D01*
X122569166Y-128250000D01*
X122616785Y-128328571D01*
X122664404Y-128485714D01*
X122664404Y-128721428D01*
X122616785Y-128878571D01*
X122569166Y-128957142D01*
X122473928Y-129035714D01*
X122092976Y-129035714D01*
X123426309Y-128957142D02*
X123092976Y-128957142D01*
X123092976Y-129821428D02*
X123092976Y-128171428D01*
X123569166Y-128171428D01*
X123950119Y-129821428D02*
X123950119Y-128171428D01*
X124283452Y-129350000D01*
X124616785Y-128171428D01*
X124616785Y-129821428D01*
X125854880Y-129821428D02*
X125854880Y-128171428D01*
X126188214Y-129350000D01*
X126521547Y-128171428D01*
X126521547Y-129821428D01*
X127188214Y-128171428D02*
X127378690Y-128171428D01*
X127473928Y-128250000D01*
X127569166Y-128407142D01*
X127616785Y-128721428D01*
X127616785Y-129271428D01*
X127569166Y-129585714D01*
X127473928Y-129742857D01*
X127378690Y-129821428D01*
X127188214Y-129821428D01*
X127092976Y-129742857D01*
X126997738Y-129585714D01*
X126950119Y-129271428D01*
X126950119Y-128721428D01*
X126997738Y-128407142D01*
X127092976Y-128250000D01*
X127188214Y-128171428D01*
X127997738Y-129742857D02*
X128140595Y-129821428D01*
X128378690Y-129821428D01*
X128473928Y-129742857D01*
X128521547Y-129664285D01*
X128569166Y-129507142D01*
X128569166Y-129350000D01*
X128521547Y-129192857D01*
X128473928Y-129114285D01*
X128378690Y-129035714D01*
X128188214Y-128957142D01*
X128092976Y-128878571D01*
X128045357Y-128800000D01*
X127997738Y-128642857D01*
X127997738Y-128485714D01*
X128045357Y-128328571D01*
X128092976Y-128250000D01*
X128188214Y-128171428D01*
X128426309Y-128171428D01*
X128569166Y-128250000D01*
X128997738Y-129821428D02*
X128997738Y-128171428D01*
X130759642Y-129821428D02*
X130188214Y-129821428D01*
X130473928Y-129821428D02*
X130473928Y-128171428D01*
X130378690Y-128407142D01*
X130283452Y-128564285D01*
X130188214Y-128642857D01*
X131664404Y-128171428D02*
X131188214Y-128171428D01*
X131140595Y-128957142D01*
X131188214Y-128878571D01*
X131283452Y-128800000D01*
X131521547Y-128800000D01*
X131616785Y-128878571D01*
X131664404Y-128957142D01*
X131712023Y-129114285D01*
X131712023Y-129507142D01*
X131664404Y-129664285D01*
X131616785Y-129742857D01*
X131521547Y-129821428D01*
X131283452Y-129821428D01*
X131188214Y-129742857D01*
X131140595Y-129664285D01*
X124045357Y-132289285D02*
X123997738Y-132367857D01*
X123854880Y-132446428D01*
X123759642Y-132446428D01*
X123616785Y-132367857D01*
X123521547Y-132210714D01*
X123473928Y-132053571D01*
X123426309Y-131739285D01*
X123426309Y-131503571D01*
X123473928Y-131189285D01*
X123521547Y-131032142D01*
X123616785Y-130875000D01*
X123759642Y-130796428D01*
X123854880Y-130796428D01*
X123997738Y-130875000D01*
X124045357Y-130953571D01*
X125045357Y-132289285D02*
X124997738Y-132367857D01*
X124854880Y-132446428D01*
X124759642Y-132446428D01*
X124616785Y-132367857D01*
X124521547Y-132210714D01*
X124473928Y-132053571D01*
X124426309Y-131739285D01*
X124426309Y-131503571D01*
X124473928Y-131189285D01*
X124521547Y-131032142D01*
X124616785Y-130875000D01*
X124759642Y-130796428D01*
X124854880Y-130796428D01*
X124997738Y-130875000D01*
X125045357Y-130953571D01*
X125426309Y-132367857D02*
X125569166Y-132446428D01*
X125807261Y-132446428D01*
X125902500Y-132367857D01*
X125950119Y-132289285D01*
X125997738Y-132132142D01*
X125997738Y-131975000D01*
X125950119Y-131817857D01*
X125902500Y-131739285D01*
X125807261Y-131660714D01*
X125616785Y-131582142D01*
X125521547Y-131503571D01*
X125473928Y-131425000D01*
X125426309Y-131267857D01*
X125426309Y-131110714D01*
X125473928Y-130953571D01*
X125521547Y-130875000D01*
X125616785Y-130796428D01*
X125854880Y-130796428D01*
X125997738Y-130875000D01*
X127188214Y-132446428D02*
X127188214Y-130796428D01*
X127664404Y-132446428D02*
X127664404Y-130796428D01*
X128235833Y-132446428D01*
X128235833Y-130796428D01*
X128569166Y-130796428D02*
X129140595Y-130796428D01*
X128854880Y-132446428D02*
X128854880Y-130796428D01*
X130759642Y-132446428D02*
X130188214Y-132446428D01*
X130473928Y-132446428D02*
X130473928Y-130796428D01*
X130378690Y-131032142D01*
X130283452Y-131189285D01*
X130188214Y-131267857D01*
X131092976Y-130796428D02*
X131712023Y-130796428D01*
X131378690Y-131425000D01*
X131521547Y-131425000D01*
X131616785Y-131503571D01*
X131664404Y-131582142D01*
X131712023Y-131739285D01*
X131712023Y-132132142D01*
X131664404Y-132289285D01*
X131616785Y-132367857D01*
X131521547Y-132446428D01*
X131235833Y-132446428D01*
X131140595Y-132367857D01*
X131092976Y-132289285D01*
X130807261Y-133421428D02*
X130331071Y-133421428D01*
X130283452Y-134207142D01*
X130331071Y-134128571D01*
X130426309Y-134050000D01*
X130664404Y-134050000D01*
X130759642Y-134128571D01*
X130807261Y-134207142D01*
X130854880Y-134364285D01*
X130854880Y-134757142D01*
X130807261Y-134914285D01*
X130759642Y-134992857D01*
X130664404Y-135071428D01*
X130426309Y-135071428D01*
X130331071Y-134992857D01*
X130283452Y-134914285D01*
X131140595Y-133421428D02*
X131473928Y-135071428D01*
X131807261Y-133421428D01*
X128521547Y-136046428D02*
X128854880Y-137696428D01*
X129188214Y-136046428D01*
X129854880Y-136832142D02*
X129997738Y-136910714D01*
X130045357Y-136989285D01*
X130092976Y-137146428D01*
X130092976Y-137382142D01*
X130045357Y-137539285D01*
X129997738Y-137617857D01*
X129902500Y-137696428D01*
X129521547Y-137696428D01*
X129521547Y-136046428D01*
X129854880Y-136046428D01*
X129950119Y-136125000D01*
X129997738Y-136203571D01*
X130045357Y-136360714D01*
X130045357Y-136517857D01*
X129997738Y-136675000D01*
X129950119Y-136753571D01*
X129854880Y-136832142D01*
X129521547Y-136832142D01*
X130473928Y-137225000D02*
X130950119Y-137225000D01*
X130378690Y-137696428D02*
X130712023Y-136046428D01*
X131045357Y-137696428D01*
X131235833Y-136046428D02*
X131807261Y-136046428D01*
X131521547Y-137696428D02*
X131521547Y-136046428D01*
X104192738Y-104546428D02*
X104526071Y-106196428D01*
X104859404Y-104546428D01*
X105192738Y-106196428D02*
X105192738Y-104546428D01*
X105573690Y-104546428D01*
X105668928Y-104625000D01*
X105716547Y-104703571D01*
X105764166Y-104860714D01*
X105764166Y-105096428D01*
X105716547Y-105253571D01*
X105668928Y-105332142D01*
X105573690Y-105410714D01*
X105192738Y-105410714D01*
X104192738Y-107171428D02*
X104526071Y-108821428D01*
X104859404Y-107171428D01*
X105192738Y-108821428D02*
X105192738Y-107171428D01*
X105764166Y-108821428D01*
X105764166Y-107171428D01*
X104907023Y-111446428D02*
X104573690Y-110660714D01*
X104335595Y-111446428D02*
X104335595Y-109796428D01*
X104716547Y-109796428D01*
X104811785Y-109875000D01*
X104859404Y-109953571D01*
X104907023Y-110110714D01*
X104907023Y-110346428D01*
X104859404Y-110503571D01*
X104811785Y-110582142D01*
X104716547Y-110660714D01*
X104335595Y-110660714D01*
X105287976Y-111367857D02*
X105430833Y-111446428D01*
X105668928Y-111446428D01*
X105764166Y-111367857D01*
X105811785Y-111289285D01*
X105859404Y-111132142D01*
X105859404Y-110975000D01*
X105811785Y-110817857D01*
X105764166Y-110739285D01*
X105668928Y-110660714D01*
X105478452Y-110582142D01*
X105383214Y-110503571D01*
X105335595Y-110425000D01*
X105287976Y-110267857D01*
X105287976Y-110110714D01*
X105335595Y-109953571D01*
X105383214Y-109875000D01*
X105478452Y-109796428D01*
X105716547Y-109796428D01*
X105859404Y-109875000D01*
X106145119Y-109796428D02*
X106716547Y-109796428D01*
X106430833Y-111446428D02*
X106430833Y-109796428D01*
X104240357Y-112421428D02*
X104859404Y-112421428D01*
X104526071Y-113050000D01*
X104668928Y-113050000D01*
X104764166Y-113128571D01*
X104811785Y-113207142D01*
X104859404Y-113364285D01*
X104859404Y-113757142D01*
X104811785Y-113914285D01*
X104764166Y-113992857D01*
X104668928Y-114071428D01*
X104383214Y-114071428D01*
X104287976Y-113992857D01*
X104240357Y-113914285D01*
X105716547Y-112971428D02*
X105716547Y-114071428D01*
X105478452Y-112342857D02*
X105240357Y-113521428D01*
X105859404Y-113521428D01*
X106954642Y-113600000D02*
X107430833Y-113600000D01*
X106859404Y-114071428D02*
X107192738Y-112421428D01*
X107526071Y-114071428D01*
X107859404Y-114071428D02*
X107859404Y-112421428D01*
X108097500Y-112421428D01*
X108240357Y-112500000D01*
X108335595Y-112657142D01*
X108383214Y-112814285D01*
X108430833Y-113128571D01*
X108430833Y-113364285D01*
X108383214Y-113678571D01*
X108335595Y-113835714D01*
X108240357Y-113992857D01*
X108097500Y-114071428D01*
X107859404Y-114071428D01*
X109430833Y-113914285D02*
X109383214Y-113992857D01*
X109240357Y-114071428D01*
X109145119Y-114071428D01*
X109002261Y-113992857D01*
X108907023Y-113835714D01*
X108859404Y-113678571D01*
X108811785Y-113364285D01*
X108811785Y-113128571D01*
X108859404Y-112814285D01*
X108907023Y-112657142D01*
X109002261Y-112500000D01*
X109145119Y-112421428D01*
X109240357Y-112421428D01*
X109383214Y-112500000D01*
X109430833Y-112578571D01*
X104240357Y-115046428D02*
X104859404Y-115046428D01*
X104526071Y-115675000D01*
X104668928Y-115675000D01*
X104764166Y-115753571D01*
X104811785Y-115832142D01*
X104859404Y-115989285D01*
X104859404Y-116382142D01*
X104811785Y-116539285D01*
X104764166Y-116617857D01*
X104668928Y-116696428D01*
X104383214Y-116696428D01*
X104287976Y-116617857D01*
X104240357Y-116539285D01*
X105145119Y-115046428D02*
X105478452Y-116696428D01*
X105811785Y-115046428D01*
X106049880Y-115046428D02*
X106668928Y-115046428D01*
X106335595Y-115675000D01*
X106478452Y-115675000D01*
X106573690Y-115753571D01*
X106621309Y-115832142D01*
X106668928Y-115989285D01*
X106668928Y-116382142D01*
X106621309Y-116539285D01*
X106573690Y-116617857D01*
X106478452Y-116696428D01*
X106192738Y-116696428D01*
X106097500Y-116617857D01*
X106049880Y-116539285D01*
X104240357Y-117671428D02*
X104859404Y-117671428D01*
X104526071Y-118300000D01*
X104668928Y-118300000D01*
X104764166Y-118378571D01*
X104811785Y-118457142D01*
X104859404Y-118614285D01*
X104859404Y-119007142D01*
X104811785Y-119164285D01*
X104764166Y-119242857D01*
X104668928Y-119321428D01*
X104383214Y-119321428D01*
X104287976Y-119242857D01*
X104240357Y-119164285D01*
X105240357Y-117828571D02*
X105287976Y-117750000D01*
X105383214Y-117671428D01*
X105621309Y-117671428D01*
X105716547Y-117750000D01*
X105764166Y-117828571D01*
X105811785Y-117985714D01*
X105811785Y-118142857D01*
X105764166Y-118378571D01*
X105192738Y-119321428D01*
X105811785Y-119321428D01*
X106907023Y-117671428D02*
X107573690Y-119321428D01*
X107573690Y-117671428D02*
X106907023Y-119321428D01*
X107811785Y-117671428D02*
X108383214Y-117671428D01*
X108097500Y-119321428D02*
X108097500Y-117671428D01*
X108668928Y-118850000D02*
X109145119Y-118850000D01*
X108573690Y-119321428D02*
X108907023Y-117671428D01*
X109240357Y-119321428D01*
X110049880Y-119321428D02*
X109573690Y-119321428D01*
X109573690Y-117671428D01*
X104240357Y-120296428D02*
X104859404Y-120296428D01*
X104526071Y-120925000D01*
X104668928Y-120925000D01*
X104764166Y-121003571D01*
X104811785Y-121082142D01*
X104859404Y-121239285D01*
X104859404Y-121632142D01*
X104811785Y-121789285D01*
X104764166Y-121867857D01*
X104668928Y-121946428D01*
X104383214Y-121946428D01*
X104287976Y-121867857D01*
X104240357Y-121789285D01*
X105192738Y-120296428D02*
X105811785Y-120296428D01*
X105478452Y-120925000D01*
X105621309Y-120925000D01*
X105716547Y-121003571D01*
X105764166Y-121082142D01*
X105811785Y-121239285D01*
X105811785Y-121632142D01*
X105764166Y-121789285D01*
X105716547Y-121867857D01*
X105621309Y-121946428D01*
X105335595Y-121946428D01*
X105240357Y-121867857D01*
X105192738Y-121789285D01*
X106907023Y-120296428D02*
X107573690Y-121946428D01*
X107573690Y-120296428D02*
X106907023Y-121946428D01*
X107811785Y-120296428D02*
X108383214Y-120296428D01*
X108097500Y-121946428D02*
X108097500Y-120296428D01*
X108668928Y-121475000D02*
X109145119Y-121475000D01*
X108573690Y-121946428D02*
X108907023Y-120296428D01*
X109240357Y-121946428D01*
X110049880Y-121946428D02*
X109573690Y-121946428D01*
X109573690Y-120296428D01*
X104287976Y-123078571D02*
X104335595Y-123000000D01*
X104430833Y-122921428D01*
X104668928Y-122921428D01*
X104764166Y-123000000D01*
X104811785Y-123078571D01*
X104859404Y-123235714D01*
X104859404Y-123392857D01*
X104811785Y-123628571D01*
X104240357Y-124571428D01*
X104859404Y-124571428D01*
X105764166Y-122921428D02*
X105287976Y-122921428D01*
X105240357Y-123707142D01*
X105287976Y-123628571D01*
X105383214Y-123550000D01*
X105621309Y-123550000D01*
X105716547Y-123628571D01*
X105764166Y-123707142D01*
X105811785Y-123864285D01*
X105811785Y-124257142D01*
X105764166Y-124414285D01*
X105716547Y-124492857D01*
X105621309Y-124571428D01*
X105383214Y-124571428D01*
X105287976Y-124492857D01*
X105240357Y-124414285D01*
X107573690Y-124571428D02*
X107240357Y-123785714D01*
X107002261Y-124571428D02*
X107002261Y-122921428D01*
X107383214Y-122921428D01*
X107478452Y-123000000D01*
X107526071Y-123078571D01*
X107573690Y-123235714D01*
X107573690Y-123471428D01*
X107526071Y-123628571D01*
X107478452Y-123707142D01*
X107383214Y-123785714D01*
X107002261Y-123785714D01*
X108335595Y-123707142D02*
X108002261Y-123707142D01*
X108002261Y-124571428D02*
X108002261Y-122921428D01*
X108478452Y-122921428D01*
X108859404Y-124571428D02*
X108859404Y-122921428D01*
X109192738Y-124100000D01*
X109526071Y-122921428D01*
X109526071Y-124571428D01*
X110764166Y-124571428D02*
X110764166Y-122921428D01*
X111811785Y-124571428D02*
X111478452Y-123785714D01*
X111240357Y-124571428D02*
X111240357Y-122921428D01*
X111621309Y-122921428D01*
X111716547Y-123000000D01*
X111764166Y-123078571D01*
X111811785Y-123235714D01*
X111811785Y-123471428D01*
X111764166Y-123628571D01*
X111716547Y-123707142D01*
X111621309Y-123785714D01*
X111240357Y-123785714D01*
X112907023Y-124728571D02*
X112811785Y-124650000D01*
X112716547Y-124492857D01*
X112573690Y-124257142D01*
X112478452Y-124178571D01*
X112383214Y-124178571D01*
X112430833Y-124571428D02*
X112335595Y-124492857D01*
X112240357Y-124335714D01*
X112192738Y-124021428D01*
X112192738Y-123471428D01*
X112240357Y-123157142D01*
X112335595Y-123000000D01*
X112430833Y-122921428D01*
X112621309Y-122921428D01*
X112716547Y-123000000D01*
X112811785Y-123157142D01*
X112859404Y-123471428D01*
X112859404Y-124021428D01*
X112811785Y-124335714D01*
X112716547Y-124492857D01*
X112621309Y-124571428D01*
X112430833Y-124571428D01*
X104287976Y-125703571D02*
X104335595Y-125625000D01*
X104430833Y-125546428D01*
X104668928Y-125546428D01*
X104764166Y-125625000D01*
X104811785Y-125703571D01*
X104859404Y-125860714D01*
X104859404Y-126017857D01*
X104811785Y-126253571D01*
X104240357Y-127196428D01*
X104859404Y-127196428D01*
X105716547Y-125546428D02*
X105526071Y-125546428D01*
X105430833Y-125625000D01*
X105383214Y-125703571D01*
X105287976Y-125939285D01*
X105240357Y-126253571D01*
X105240357Y-126882142D01*
X105287976Y-127039285D01*
X105335595Y-127117857D01*
X105430833Y-127196428D01*
X105621309Y-127196428D01*
X105716547Y-127117857D01*
X105764166Y-127039285D01*
X105811785Y-126882142D01*
X105811785Y-126489285D01*
X105764166Y-126332142D01*
X105716547Y-126253571D01*
X105621309Y-126175000D01*
X105430833Y-126175000D01*
X105335595Y-126253571D01*
X105287976Y-126332142D01*
X105240357Y-126489285D01*
X107573690Y-127196428D02*
X107240357Y-126410714D01*
X107002261Y-127196428D02*
X107002261Y-125546428D01*
X107383214Y-125546428D01*
X107478452Y-125625000D01*
X107526071Y-125703571D01*
X107573690Y-125860714D01*
X107573690Y-126096428D01*
X107526071Y-126253571D01*
X107478452Y-126332142D01*
X107383214Y-126410714D01*
X107002261Y-126410714D01*
X108335595Y-126332142D02*
X108002261Y-126332142D01*
X108002261Y-127196428D02*
X108002261Y-125546428D01*
X108478452Y-125546428D01*
X108859404Y-127196428D02*
X108859404Y-125546428D01*
X109192738Y-126725000D01*
X109526071Y-125546428D01*
X109526071Y-127196428D01*
X111335595Y-127039285D02*
X111287976Y-127117857D01*
X111145119Y-127196428D01*
X111049880Y-127196428D01*
X110907023Y-127117857D01*
X110811785Y-126960714D01*
X110764166Y-126803571D01*
X110716547Y-126489285D01*
X110716547Y-126253571D01*
X110764166Y-125939285D01*
X110811785Y-125782142D01*
X110907023Y-125625000D01*
X111049880Y-125546428D01*
X111145119Y-125546428D01*
X111287976Y-125625000D01*
X111335595Y-125703571D01*
X111716547Y-127117857D02*
X111859404Y-127196428D01*
X112097500Y-127196428D01*
X112192738Y-127117857D01*
X112240357Y-127039285D01*
X112287976Y-126882142D01*
X112287976Y-126725000D01*
X112240357Y-126567857D01*
X112192738Y-126489285D01*
X112097500Y-126410714D01*
X111907023Y-126332142D01*
X111811785Y-126253571D01*
X111764166Y-126175000D01*
X111716547Y-126017857D01*
X111716547Y-125860714D01*
X111764166Y-125703571D01*
X111811785Y-125625000D01*
X111907023Y-125546428D01*
X112145119Y-125546428D01*
X112287976Y-125625000D01*
X104287976Y-128328571D02*
X104335595Y-128250000D01*
X104430833Y-128171428D01*
X104668928Y-128171428D01*
X104764166Y-128250000D01*
X104811785Y-128328571D01*
X104859404Y-128485714D01*
X104859404Y-128642857D01*
X104811785Y-128878571D01*
X104240357Y-129821428D01*
X104859404Y-129821428D01*
X105192738Y-128171428D02*
X105859404Y-128171428D01*
X105430833Y-129821428D01*
X107002261Y-129821428D02*
X107002261Y-128171428D01*
X107430833Y-128328571D02*
X107478452Y-128250000D01*
X107573690Y-128171428D01*
X107811785Y-128171428D01*
X107907023Y-128250000D01*
X107954642Y-128328571D01*
X108002261Y-128485714D01*
X108002261Y-128642857D01*
X107954642Y-128878571D01*
X107383214Y-129821428D01*
X108002261Y-129821428D01*
X109002261Y-129664285D02*
X108954642Y-129742857D01*
X108811785Y-129821428D01*
X108716547Y-129821428D01*
X108573690Y-129742857D01*
X108478452Y-129585714D01*
X108430833Y-129428571D01*
X108383214Y-129114285D01*
X108383214Y-128878571D01*
X108430833Y-128564285D01*
X108478452Y-128407142D01*
X108573690Y-128250000D01*
X108716547Y-128171428D01*
X108811785Y-128171428D01*
X108954642Y-128250000D01*
X109002261Y-128328571D01*
X110716547Y-129821428D02*
X110145119Y-129821428D01*
X110430833Y-129821428D02*
X110430833Y-128171428D01*
X110335595Y-128407142D01*
X110240357Y-128564285D01*
X110145119Y-128642857D01*
X104859404Y-132446428D02*
X104287976Y-132446428D01*
X104573690Y-132446428D02*
X104573690Y-130796428D01*
X104478452Y-131032142D01*
X104383214Y-131189285D01*
X104287976Y-131267857D01*
X105240357Y-130953571D02*
X105287976Y-130875000D01*
X105383214Y-130796428D01*
X105621309Y-130796428D01*
X105716547Y-130875000D01*
X105764166Y-130953571D01*
X105811785Y-131110714D01*
X105811785Y-131267857D01*
X105764166Y-131503571D01*
X105192738Y-132446428D01*
X105811785Y-132446428D01*
X106907023Y-130796428D02*
X107145119Y-132446428D01*
X107335595Y-131267857D01*
X107526071Y-132446428D01*
X107764166Y-130796428D01*
X108097500Y-132367857D02*
X108240357Y-132446428D01*
X108478452Y-132446428D01*
X108573690Y-132367857D01*
X108621309Y-132289285D01*
X108668928Y-132132142D01*
X108668928Y-131975000D01*
X108621309Y-131817857D01*
X108573690Y-131739285D01*
X108478452Y-131660714D01*
X108287976Y-131582142D01*
X108192738Y-131503571D01*
X108145119Y-131425000D01*
X108097500Y-131267857D01*
X108097500Y-131110714D01*
X108145119Y-130953571D01*
X108192738Y-130875000D01*
X108287976Y-130796428D01*
X108526071Y-130796428D01*
X108668928Y-130875000D01*
X109049880Y-130953571D02*
X109097500Y-130875000D01*
X109192738Y-130796428D01*
X109430833Y-130796428D01*
X109526071Y-130875000D01*
X109573690Y-130953571D01*
X109621309Y-131110714D01*
X109621309Y-131267857D01*
X109573690Y-131503571D01*
X109002261Y-132446428D01*
X109621309Y-132446428D01*
X110192738Y-131503571D02*
X110097500Y-131425000D01*
X110049880Y-131346428D01*
X110002261Y-131189285D01*
X110002261Y-131110714D01*
X110049880Y-130953571D01*
X110097500Y-130875000D01*
X110192738Y-130796428D01*
X110383214Y-130796428D01*
X110478452Y-130875000D01*
X110526071Y-130953571D01*
X110573690Y-131110714D01*
X110573690Y-131189285D01*
X110526071Y-131346428D01*
X110478452Y-131425000D01*
X110383214Y-131503571D01*
X110192738Y-131503571D01*
X110097500Y-131582142D01*
X110049880Y-131660714D01*
X110002261Y-131817857D01*
X110002261Y-132132142D01*
X110049880Y-132289285D01*
X110097500Y-132367857D01*
X110192738Y-132446428D01*
X110383214Y-132446428D01*
X110478452Y-132367857D01*
X110526071Y-132289285D01*
X110573690Y-132132142D01*
X110573690Y-131817857D01*
X110526071Y-131660714D01*
X110478452Y-131582142D01*
X110383214Y-131503571D01*
X111526071Y-132446428D02*
X110954642Y-132446428D01*
X111240357Y-132446428D02*
X111240357Y-130796428D01*
X111145119Y-131032142D01*
X111049880Y-131189285D01*
X110954642Y-131267857D01*
X111907023Y-130953571D02*
X111954642Y-130875000D01*
X112049880Y-130796428D01*
X112287976Y-130796428D01*
X112383214Y-130875000D01*
X112430833Y-130953571D01*
X112478452Y-131110714D01*
X112478452Y-131267857D01*
X112430833Y-131503571D01*
X111859404Y-132446428D01*
X112478452Y-132446428D01*
X104526071Y-133421428D02*
X104621309Y-133421428D01*
X104716547Y-133500000D01*
X104764166Y-133578571D01*
X104811785Y-133735714D01*
X104859404Y-134050000D01*
X104859404Y-134442857D01*
X104811785Y-134757142D01*
X104764166Y-134914285D01*
X104716547Y-134992857D01*
X104621309Y-135071428D01*
X104526071Y-135071428D01*
X104430833Y-134992857D01*
X104383214Y-134914285D01*
X104335595Y-134757142D01*
X104287976Y-134442857D01*
X104287976Y-134050000D01*
X104335595Y-133735714D01*
X104383214Y-133578571D01*
X104430833Y-133500000D01*
X104526071Y-133421428D01*
X105478452Y-133421428D02*
X105573690Y-133421428D01*
X105668928Y-133500000D01*
X105716547Y-133578571D01*
X105764166Y-133735714D01*
X105811785Y-134050000D01*
X105811785Y-134442857D01*
X105764166Y-134757142D01*
X105716547Y-134914285D01*
X105668928Y-134992857D01*
X105573690Y-135071428D01*
X105478452Y-135071428D01*
X105383214Y-134992857D01*
X105335595Y-134914285D01*
X105287976Y-134757142D01*
X105240357Y-134442857D01*
X105240357Y-134050000D01*
X105287976Y-133735714D01*
X105335595Y-133578571D01*
X105383214Y-133500000D01*
X105478452Y-133421428D01*
X107002261Y-135071428D02*
X107002261Y-133421428D01*
X107383214Y-133421428D01*
X107478452Y-133500000D01*
X107526071Y-133578571D01*
X107573690Y-133735714D01*
X107573690Y-133971428D01*
X107526071Y-134128571D01*
X107478452Y-134207142D01*
X107383214Y-134285714D01*
X107002261Y-134285714D01*
X107907023Y-133421428D02*
X108145119Y-135071428D01*
X108335595Y-133892857D01*
X108526071Y-135071428D01*
X108764166Y-133421428D01*
X109716547Y-135071428D02*
X109383214Y-134285714D01*
X109145119Y-135071428D02*
X109145119Y-133421428D01*
X109526071Y-133421428D01*
X109621309Y-133500000D01*
X109668928Y-133578571D01*
X109716547Y-133735714D01*
X109716547Y-133971428D01*
X109668928Y-134128571D01*
X109621309Y-134207142D01*
X109526071Y-134285714D01*
X109145119Y-134285714D01*
X110907023Y-135071428D02*
X110907023Y-133421428D01*
X111145119Y-133421428D01*
X111287976Y-133500000D01*
X111383214Y-133657142D01*
X111430833Y-133814285D01*
X111478452Y-134128571D01*
X111478452Y-134364285D01*
X111430833Y-134678571D01*
X111383214Y-134835714D01*
X111287976Y-134992857D01*
X111145119Y-135071428D01*
X110907023Y-135071428D01*
X112097500Y-133421428D02*
X112287976Y-133421428D01*
X112383214Y-133500000D01*
X112478452Y-133657142D01*
X112526071Y-133971428D01*
X112526071Y-134521428D01*
X112478452Y-134835714D01*
X112383214Y-134992857D01*
X112287976Y-135071428D01*
X112097500Y-135071428D01*
X112002261Y-134992857D01*
X111907023Y-134835714D01*
X111859404Y-134521428D01*
X111859404Y-133971428D01*
X111907023Y-133657142D01*
X112002261Y-133500000D01*
X112097500Y-133421428D01*
X112954642Y-135071428D02*
X112954642Y-133421428D01*
X113526071Y-135071428D01*
X113526071Y-133421428D01*
X114002261Y-134207142D02*
X114335595Y-134207142D01*
X114478452Y-135071428D02*
X114002261Y-135071428D01*
X114002261Y-133421428D01*
X114478452Y-133421428D01*
X104859404Y-136125000D02*
X104764166Y-136046428D01*
X104621309Y-136046428D01*
X104478452Y-136125000D01*
X104383214Y-136282142D01*
X104335595Y-136439285D01*
X104287976Y-136753571D01*
X104287976Y-136989285D01*
X104335595Y-137303571D01*
X104383214Y-137460714D01*
X104478452Y-137617857D01*
X104621309Y-137696428D01*
X104716547Y-137696428D01*
X104859404Y-137617857D01*
X104907023Y-137539285D01*
X104907023Y-136989285D01*
X104716547Y-136989285D01*
X105335595Y-137696428D02*
X105335595Y-136046428D01*
X105907023Y-137696428D01*
X105907023Y-136046428D01*
X106383214Y-137696428D02*
X106383214Y-136046428D01*
X106621309Y-136046428D01*
X106764166Y-136125000D01*
X106859404Y-136282142D01*
X106907023Y-136439285D01*
X106954642Y-136753571D01*
X106954642Y-136989285D01*
X106907023Y-137303571D01*
X106859404Y-137460714D01*
X106764166Y-137617857D01*
X106621309Y-137696428D01*
X106383214Y-137696428D01*
X122168761Y-153026285D02*
X122216380Y-152883428D01*
X122216380Y-152645333D01*
X122168761Y-152550095D01*
X122121142Y-152502476D01*
X122025904Y-152454857D01*
X121930666Y-152454857D01*
X121835428Y-152502476D01*
X121787809Y-152550095D01*
X121740190Y-152645333D01*
X121692571Y-152835809D01*
X121644952Y-152931047D01*
X121597333Y-152978666D01*
X121502095Y-153026285D01*
X121406857Y-153026285D01*
X121311619Y-152978666D01*
X121264000Y-152931047D01*
X121216380Y-152835809D01*
X121216380Y-152597714D01*
X121264000Y-152454857D01*
X122216380Y-152026285D02*
X121216380Y-152026285D01*
X121216380Y-151788190D01*
X121264000Y-151645333D01*
X121359238Y-151550095D01*
X121454476Y-151502476D01*
X121644952Y-151454857D01*
X121787809Y-151454857D01*
X121978285Y-151502476D01*
X122073523Y-151550095D01*
X122168761Y-151645333D01*
X122216380Y-151788190D01*
X122216380Y-152026285D01*
X121930666Y-151073904D02*
X121930666Y-150597714D01*
X122216380Y-151169142D02*
X121216380Y-150835809D01*
X122216380Y-150502476D01*
X120136761Y-153002476D02*
X120184380Y-152859619D01*
X120184380Y-152621523D01*
X120136761Y-152526285D01*
X120089142Y-152478666D01*
X119993904Y-152431047D01*
X119898666Y-152431047D01*
X119803428Y-152478666D01*
X119755809Y-152526285D01*
X119708190Y-152621523D01*
X119660571Y-152812000D01*
X119612952Y-152907238D01*
X119565333Y-152954857D01*
X119470095Y-153002476D01*
X119374857Y-153002476D01*
X119279619Y-152954857D01*
X119232000Y-152907238D01*
X119184380Y-152812000D01*
X119184380Y-152573904D01*
X119232000Y-152431047D01*
X120089142Y-151431047D02*
X120136761Y-151478666D01*
X120184380Y-151621523D01*
X120184380Y-151716761D01*
X120136761Y-151859619D01*
X120041523Y-151954857D01*
X119946285Y-152002476D01*
X119755809Y-152050095D01*
X119612952Y-152050095D01*
X119422476Y-152002476D01*
X119327238Y-151954857D01*
X119232000Y-151859619D01*
X119184380Y-151716761D01*
X119184380Y-151621523D01*
X119232000Y-151478666D01*
X119279619Y-151431047D01*
X120184380Y-150526285D02*
X120184380Y-151002476D01*
X119184380Y-151002476D01*
X115879200Y-152573904D02*
X115831580Y-152669142D01*
X115831580Y-152812000D01*
X115879200Y-152954857D01*
X115974438Y-153050095D01*
X116069676Y-153097714D01*
X116260152Y-153145333D01*
X116403009Y-153145333D01*
X116593485Y-153097714D01*
X116688723Y-153050095D01*
X116783961Y-152954857D01*
X116831580Y-152812000D01*
X116831580Y-152716761D01*
X116783961Y-152573904D01*
X116736342Y-152526285D01*
X116403009Y-152526285D01*
X116403009Y-152716761D01*
X116831580Y-152097714D02*
X115831580Y-152097714D01*
X116831580Y-151526285D01*
X115831580Y-151526285D01*
X116831580Y-151050095D02*
X115831580Y-151050095D01*
X115831580Y-150812000D01*
X115879200Y-150669142D01*
X115974438Y-150573904D01*
X116069676Y-150526285D01*
X116260152Y-150478666D01*
X116403009Y-150478666D01*
X116593485Y-150526285D01*
X116688723Y-150573904D01*
X116783961Y-150669142D01*
X116831580Y-150812000D01*
X116831580Y-151050095D01*
X113494780Y-153050095D02*
X113494780Y-152431047D01*
X113875733Y-152764380D01*
X113875733Y-152621523D01*
X113923352Y-152526285D01*
X113970971Y-152478666D01*
X114066209Y-152431047D01*
X114304304Y-152431047D01*
X114399542Y-152478666D01*
X114447161Y-152526285D01*
X114494780Y-152621523D01*
X114494780Y-152907238D01*
X114447161Y-153002476D01*
X114399542Y-153050095D01*
X113494780Y-152145333D02*
X114494780Y-151812000D01*
X113494780Y-151478666D01*
X113494780Y-151240571D02*
X113494780Y-150621523D01*
X113875733Y-150954857D01*
X113875733Y-150812000D01*
X113923352Y-150716761D01*
X113970971Y-150669142D01*
X114066209Y-150621523D01*
X114304304Y-150621523D01*
X114399542Y-150669142D01*
X114447161Y-150716761D01*
X114494780Y-150812000D01*
X114494780Y-151097714D01*
X114447161Y-151192952D01*
X114399542Y-151240571D01*
D11*
X133765428Y-162841142D02*
X132622571Y-162841142D01*
X133194000Y-163412571D02*
X133194000Y-162269714D01*
X129546857Y-162880857D02*
X129761142Y-162952285D01*
X129832571Y-163023714D01*
X129904000Y-163166571D01*
X129904000Y-163380857D01*
X129832571Y-163523714D01*
X129761142Y-163595142D01*
X129618285Y-163666571D01*
X129046857Y-163666571D01*
X129046857Y-162166571D01*
X129546857Y-162166571D01*
X129689714Y-162238000D01*
X129761142Y-162309428D01*
X129832571Y-162452285D01*
X129832571Y-162595142D01*
X129761142Y-162738000D01*
X129689714Y-162809428D01*
X129546857Y-162880857D01*
X129046857Y-162880857D01*
X130475428Y-163238000D02*
X131189714Y-163238000D01*
X130332571Y-163666571D02*
X130832571Y-162166571D01*
X131332571Y-163666571D01*
X131618285Y-162166571D02*
X132475428Y-162166571D01*
X132046857Y-163666571D02*
X132046857Y-162166571D01*
D13*
X126026000Y-159176000D02*
X126026000Y-157716000D01*
X129186000Y-159176000D02*
X129186000Y-157016000D01*
X129186000Y-159176000D02*
X128256000Y-159176000D01*
X126026000Y-159176000D02*
X126956000Y-159176000D01*
X125880000Y-154344748D02*
X125880000Y-154867252D01*
X127300000Y-154344748D02*
X127300000Y-154867252D01*
X111874252Y-159888000D02*
X111351748Y-159888000D01*
X111874252Y-158468000D02*
X111351748Y-158468000D01*
X123803252Y-159126000D02*
X123280748Y-159126000D01*
X123803252Y-157706000D02*
X123280748Y-157706000D01*
X123803252Y-161158000D02*
X123280748Y-161158000D01*
X123803252Y-159738000D02*
X123280748Y-159738000D01*
X112934000Y-163666000D02*
X107734000Y-163666000D01*
X107734000Y-163666000D02*
X107734000Y-166326000D01*
X107734000Y-166326000D02*
X112934000Y-166326000D01*
X112934000Y-166326000D02*
X112934000Y-163666000D01*
X111984000Y-166326000D02*
X111984000Y-172326000D01*
X111984000Y-172326000D02*
X111224000Y-172326000D01*
X111224000Y-172326000D02*
X111224000Y-166326000D01*
X111924000Y-166326000D02*
X111924000Y-172326000D01*
X111804000Y-166326000D02*
X111804000Y-172326000D01*
X111684000Y-166326000D02*
X111684000Y-172326000D01*
X111564000Y-166326000D02*
X111564000Y-172326000D01*
X111444000Y-166326000D02*
X111444000Y-172326000D01*
X111324000Y-166326000D02*
X111324000Y-172326000D01*
X111984000Y-163336000D02*
X111984000Y-163666000D01*
X111224000Y-163336000D02*
X111224000Y-163666000D01*
X110334000Y-163666000D02*
X110334000Y-166326000D01*
X109444000Y-166326000D02*
X109444000Y-172326000D01*
X109444000Y-172326000D02*
X108684000Y-172326000D01*
X108684000Y-172326000D02*
X108684000Y-166326000D01*
X109444000Y-163268929D02*
X109444000Y-163666000D01*
X108684000Y-163268929D02*
X108684000Y-163666000D01*
X111604000Y-160956000D02*
X112874000Y-160956000D01*
X112874000Y-160956000D02*
X112874000Y-162226000D01*
X118810500Y-155312000D02*
X121495500Y-155312000D01*
X121495500Y-155312000D02*
X121495500Y-153392000D01*
X121495500Y-153392000D02*
X118810500Y-153392000D01*
X118810500Y-157344000D02*
X121495500Y-157344000D01*
X121495500Y-157344000D02*
X121495500Y-155424000D01*
X121495500Y-155424000D02*
X118810500Y-155424000D01*
X127613252Y-161920000D02*
X127090748Y-161920000D01*
X127613252Y-160500000D02*
X127090748Y-160500000D01*
D10*
X115371000Y-158127000D02*
X115371000Y-158177000D01*
X119521000Y-158127000D02*
X119521000Y-158272000D01*
X119521000Y-163277000D02*
X119521000Y-163132000D01*
X115371000Y-163277000D02*
X115371000Y-163132000D01*
X115371000Y-158127000D02*
X119521000Y-158127000D01*
X115371000Y-163277000D02*
X119521000Y-163277000D01*
X115371000Y-158177000D02*
X113971000Y-158177000D01*
D13*
X104000000Y-144410000D02*
X106000000Y-144410000D01*
X106000000Y-144410000D02*
X106000000Y-140510000D01*
X104000000Y-144410000D02*
X104000000Y-140510000D01*
X100622000Y-146792000D02*
X103282000Y-146792000D01*
X100622000Y-141652000D02*
X100622000Y-146792000D01*
X103282000Y-141652000D02*
X103282000Y-146792000D01*
X100622000Y-141652000D02*
X103282000Y-141652000D01*
X100622000Y-140382000D02*
X100622000Y-139052000D01*
X100622000Y-139052000D02*
X101952000Y-139052000D01*
X103890000Y-144744000D02*
X111190000Y-144744000D01*
X103890000Y-150244000D02*
X111190000Y-150244000D01*
X111190000Y-150244000D02*
X111190000Y-149094000D01*
X128428000Y-137394000D02*
X128428000Y-134734000D01*
X115668000Y-137394000D02*
X128428000Y-137394000D01*
X115668000Y-134734000D02*
X128428000Y-134734000D01*
X115668000Y-137394000D02*
X115668000Y-134734000D01*
X114398000Y-137394000D02*
X113068000Y-137394000D01*
X113068000Y-137394000D02*
X113068000Y-136064000D01*
X100520000Y-104670000D02*
X101850000Y-104670000D01*
X100520000Y-106000000D02*
X100520000Y-104670000D01*
X100520000Y-107270000D02*
X103180000Y-107270000D01*
X103180000Y-107270000D02*
X103180000Y-137810000D01*
X100520000Y-107270000D02*
X100520000Y-137810000D01*
X100520000Y-137810000D02*
X103180000Y-137810000D01*
X133670000Y-137810000D02*
X136330000Y-137810000D01*
X133670000Y-107270000D02*
X133670000Y-137810000D01*
X136330000Y-107270000D02*
X136330000Y-137810000D01*
X133670000Y-107270000D02*
X136330000Y-107270000D01*
X133670000Y-106000000D02*
X133670000Y-104670000D01*
X133670000Y-104670000D02*
X135000000Y-104670000D01*
X112670000Y-150330000D02*
X112670000Y-149000000D01*
X114000000Y-150330000D02*
X112670000Y-150330000D01*
X115270000Y-150330000D02*
X115270000Y-147670000D01*
X115270000Y-147670000D02*
X122950000Y-147670000D01*
X115270000Y-150330000D02*
X122950000Y-150330000D01*
X122950000Y-150330000D02*
X122950000Y-147670000D01*
X107626000Y-151582000D02*
X107626000Y-154582000D01*
X104406000Y-153082000D02*
X104406000Y-154582000D01*
D14*
X100729000Y-151882000D02*
X100729000Y-151632000D01*
X103429000Y-151732000D02*
X103429000Y-151882000D01*
X103279000Y-151732000D02*
X103429000Y-151732000D01*
X103429000Y-154432000D02*
X103279000Y-154432000D01*
X103429000Y-154432000D02*
X103429000Y-154282000D01*
X100729000Y-154432000D02*
X100729000Y-154282000D01*
X100729000Y-154442000D02*
X100879000Y-154442000D01*
D10*
X126844095Y-157868380D02*
X126844095Y-158677904D01*
X126891714Y-158773142D01*
X126939333Y-158820761D01*
X127034571Y-158868380D01*
X127225047Y-158868380D01*
X127320285Y-158820761D01*
X127367904Y-158773142D01*
X127415523Y-158677904D01*
X127415523Y-157868380D01*
X127796476Y-157868380D02*
X128415523Y-157868380D01*
X128082190Y-158249333D01*
X128225047Y-158249333D01*
X128320285Y-158296952D01*
X128367904Y-158344571D01*
X128415523Y-158439809D01*
X128415523Y-158677904D01*
X128367904Y-158773142D01*
X128320285Y-158820761D01*
X128225047Y-158868380D01*
X127939333Y-158868380D01*
X127844095Y-158820761D01*
X127796476Y-158773142D01*
X128566380Y-155248857D02*
X128090190Y-155582190D01*
X128566380Y-155820285D02*
X127566380Y-155820285D01*
X127566380Y-155439333D01*
X127614000Y-155344095D01*
X127661619Y-155296476D01*
X127756857Y-155248857D01*
X127899714Y-155248857D01*
X127994952Y-155296476D01*
X128042571Y-155344095D01*
X128090190Y-155439333D01*
X128090190Y-155820285D01*
X128566380Y-154296476D02*
X128566380Y-154867904D01*
X128566380Y-154582190D02*
X127566380Y-154582190D01*
X127709238Y-154677428D01*
X127804476Y-154772666D01*
X127852095Y-154867904D01*
X127994952Y-153725047D02*
X127947333Y-153820285D01*
X127899714Y-153867904D01*
X127804476Y-153915523D01*
X127756857Y-153915523D01*
X127661619Y-153867904D01*
X127614000Y-153820285D01*
X127566380Y-153725047D01*
X127566380Y-153534571D01*
X127614000Y-153439333D01*
X127661619Y-153391714D01*
X127756857Y-153344095D01*
X127804476Y-153344095D01*
X127899714Y-153391714D01*
X127947333Y-153439333D01*
X127994952Y-153534571D01*
X127994952Y-153725047D01*
X128042571Y-153820285D01*
X128090190Y-153867904D01*
X128185428Y-153915523D01*
X128375904Y-153915523D01*
X128471142Y-153867904D01*
X128518761Y-153820285D01*
X128566380Y-153725047D01*
X128566380Y-153534571D01*
X128518761Y-153439333D01*
X128471142Y-153391714D01*
X128375904Y-153344095D01*
X128185428Y-153344095D01*
X128090190Y-153391714D01*
X128042571Y-153439333D01*
X127994952Y-153534571D01*
X110707142Y-157852380D02*
X110373809Y-157376190D01*
X110135714Y-157852380D02*
X110135714Y-156852380D01*
X110516666Y-156852380D01*
X110611904Y-156900000D01*
X110659523Y-156947619D01*
X110707142Y-157042857D01*
X110707142Y-157185714D01*
X110659523Y-157280952D01*
X110611904Y-157328571D01*
X110516666Y-157376190D01*
X110135714Y-157376190D01*
X111659523Y-157852380D02*
X111088095Y-157852380D01*
X111373809Y-157852380D02*
X111373809Y-156852380D01*
X111278571Y-156995238D01*
X111183333Y-157090476D01*
X111088095Y-157138095D01*
X112516666Y-157185714D02*
X112516666Y-157852380D01*
X112278571Y-156804761D02*
X112040476Y-157519047D01*
X112659523Y-157519047D01*
X122899142Y-162424380D02*
X122565809Y-161948190D01*
X122327714Y-162424380D02*
X122327714Y-161424380D01*
X122708666Y-161424380D01*
X122803904Y-161472000D01*
X122851523Y-161519619D01*
X122899142Y-161614857D01*
X122899142Y-161757714D01*
X122851523Y-161852952D01*
X122803904Y-161900571D01*
X122708666Y-161948190D01*
X122327714Y-161948190D01*
X123851523Y-162424380D02*
X123280095Y-162424380D01*
X123565809Y-162424380D02*
X123565809Y-161424380D01*
X123470571Y-161567238D01*
X123375333Y-161662476D01*
X123280095Y-161710095D01*
X124184857Y-161424380D02*
X124803904Y-161424380D01*
X124470571Y-161805333D01*
X124613428Y-161805333D01*
X124708666Y-161852952D01*
X124756285Y-161900571D01*
X124803904Y-161995809D01*
X124803904Y-162233904D01*
X124756285Y-162329142D01*
X124708666Y-162376761D01*
X124613428Y-162424380D01*
X124327714Y-162424380D01*
X124232476Y-162376761D01*
X124184857Y-162329142D01*
X122899142Y-163694380D02*
X122565809Y-163218190D01*
X122327714Y-163694380D02*
X122327714Y-162694380D01*
X122708666Y-162694380D01*
X122803904Y-162742000D01*
X122851523Y-162789619D01*
X122899142Y-162884857D01*
X122899142Y-163027714D01*
X122851523Y-163122952D01*
X122803904Y-163170571D01*
X122708666Y-163218190D01*
X122327714Y-163218190D01*
X123851523Y-163694380D02*
X123280095Y-163694380D01*
X123565809Y-163694380D02*
X123565809Y-162694380D01*
X123470571Y-162837238D01*
X123375333Y-162932476D01*
X123280095Y-162980095D01*
X124803904Y-163694380D02*
X124232476Y-163694380D01*
X124518190Y-163694380D02*
X124518190Y-162694380D01*
X124422952Y-162837238D01*
X124327714Y-162932476D01*
X124232476Y-162980095D01*
X107619619Y-160154380D02*
X107952952Y-161154380D01*
X108286285Y-160154380D01*
X108381523Y-161249619D02*
X109143428Y-161249619D01*
X109381523Y-161154380D02*
X109381523Y-160154380D01*
X109857714Y-161154380D02*
X109857714Y-160154380D01*
X110429142Y-161154380D01*
X110429142Y-160154380D01*
X111429142Y-161154380D02*
X110857714Y-161154380D01*
X111143428Y-161154380D02*
X111143428Y-160154380D01*
X111048190Y-160297238D01*
X110952952Y-160392476D01*
X110857714Y-160440095D01*
X116199904Y-154804380D02*
X116199904Y-153804380D01*
X116438000Y-153804380D01*
X116580857Y-153852000D01*
X116676095Y-153947238D01*
X116723714Y-154042476D01*
X116771333Y-154232952D01*
X116771333Y-154375809D01*
X116723714Y-154566285D01*
X116676095Y-154661523D01*
X116580857Y-154756761D01*
X116438000Y-154804380D01*
X116199904Y-154804380D01*
X117342761Y-154232952D02*
X117247523Y-154185333D01*
X117199904Y-154137714D01*
X117152285Y-154042476D01*
X117152285Y-153994857D01*
X117199904Y-153899619D01*
X117247523Y-153852000D01*
X117342761Y-153804380D01*
X117533238Y-153804380D01*
X117628476Y-153852000D01*
X117676095Y-153899619D01*
X117723714Y-153994857D01*
X117723714Y-154042476D01*
X117676095Y-154137714D01*
X117628476Y-154185333D01*
X117533238Y-154232952D01*
X117342761Y-154232952D01*
X117247523Y-154280571D01*
X117199904Y-154328190D01*
X117152285Y-154423428D01*
X117152285Y-154613904D01*
X117199904Y-154709142D01*
X117247523Y-154756761D01*
X117342761Y-154804380D01*
X117533238Y-154804380D01*
X117628476Y-154756761D01*
X117676095Y-154709142D01*
X117723714Y-154613904D01*
X117723714Y-154423428D01*
X117676095Y-154328190D01*
X117628476Y-154280571D01*
X117533238Y-154232952D01*
X116199904Y-156836380D02*
X116199904Y-155836380D01*
X116438000Y-155836380D01*
X116580857Y-155884000D01*
X116676095Y-155979238D01*
X116723714Y-156074476D01*
X116771333Y-156264952D01*
X116771333Y-156407809D01*
X116723714Y-156598285D01*
X116676095Y-156693523D01*
X116580857Y-156788761D01*
X116438000Y-156836380D01*
X116199904Y-156836380D01*
X117104666Y-155836380D02*
X117771333Y-155836380D01*
X117342761Y-156836380D01*
X126709142Y-163217142D02*
X126661523Y-163264761D01*
X126518666Y-163312380D01*
X126423428Y-163312380D01*
X126280571Y-163264761D01*
X126185333Y-163169523D01*
X126137714Y-163074285D01*
X126090095Y-162883809D01*
X126090095Y-162740952D01*
X126137714Y-162550476D01*
X126185333Y-162455238D01*
X126280571Y-162360000D01*
X126423428Y-162312380D01*
X126518666Y-162312380D01*
X126661523Y-162360000D01*
X126709142Y-162407619D01*
X127661523Y-163312380D02*
X127090095Y-163312380D01*
X127375809Y-163312380D02*
X127375809Y-162312380D01*
X127280571Y-162455238D01*
X127185333Y-162550476D01*
X127090095Y-162598095D01*
X128613904Y-163312380D02*
X128042476Y-163312380D01*
X128328190Y-163312380D02*
X128328190Y-162312380D01*
X128232952Y-162455238D01*
X128137714Y-162550476D01*
X128042476Y-162598095D01*
X116684095Y-158376380D02*
X116684095Y-159185904D01*
X116731714Y-159281142D01*
X116779333Y-159328761D01*
X116874571Y-159376380D01*
X117065047Y-159376380D01*
X117160285Y-159328761D01*
X117207904Y-159281142D01*
X117255523Y-159185904D01*
X117255523Y-158376380D01*
X118255523Y-159376380D02*
X117684095Y-159376380D01*
X117969809Y-159376380D02*
X117969809Y-158376380D01*
X117874571Y-158519238D01*
X117779333Y-158614476D01*
X117684095Y-158662095D01*
X105452380Y-142898095D02*
X104452380Y-142898095D01*
X104452380Y-142660000D01*
X104500000Y-142517142D01*
X104595238Y-142421904D01*
X104690476Y-142374285D01*
X104880952Y-142326666D01*
X105023809Y-142326666D01*
X105214285Y-142374285D01*
X105309523Y-142421904D01*
X105404761Y-142517142D01*
X105452380Y-142660000D01*
X105452380Y-142898095D01*
X104452380Y-141469523D02*
X104452380Y-141660000D01*
X104500000Y-141755238D01*
X104547619Y-141802857D01*
X104690476Y-141898095D01*
X104880952Y-141945714D01*
X105261904Y-141945714D01*
X105357142Y-141898095D01*
X105404761Y-141850476D01*
X105452380Y-141755238D01*
X105452380Y-141564761D01*
X105404761Y-141469523D01*
X105357142Y-141421904D01*
X105261904Y-141374285D01*
X105023809Y-141374285D01*
X104928571Y-141421904D01*
X104880952Y-141469523D01*
X104833333Y-141564761D01*
X104833333Y-141755238D01*
X104880952Y-141850476D01*
X104928571Y-141898095D01*
X105023809Y-141945714D01*
X100944095Y-147708380D02*
X101515523Y-147708380D01*
X101229809Y-148708380D02*
X101229809Y-147708380D01*
X101848857Y-148708380D02*
X101848857Y-147708380D01*
X102229809Y-147708380D01*
X102325047Y-147756000D01*
X102372666Y-147803619D01*
X102420285Y-147898857D01*
X102420285Y-148041714D01*
X102372666Y-148136952D01*
X102325047Y-148184571D01*
X102229809Y-148232190D01*
X101848857Y-148232190D01*
X103372666Y-148708380D02*
X102801238Y-148708380D01*
X103086952Y-148708380D02*
X103086952Y-147708380D01*
X102991714Y-147851238D01*
X102896476Y-147946476D01*
X102801238Y-147994095D01*
X107309904Y-148200380D02*
X107309904Y-147200380D01*
X107548000Y-147200380D01*
X107690857Y-147248000D01*
X107786095Y-147343238D01*
X107833714Y-147438476D01*
X107881333Y-147628952D01*
X107881333Y-147771809D01*
X107833714Y-147962285D01*
X107786095Y-148057523D01*
X107690857Y-148152761D01*
X107548000Y-148200380D01*
X107309904Y-148200380D01*
X108738476Y-147533714D02*
X108738476Y-148200380D01*
X108500380Y-147152761D02*
X108262285Y-147867047D01*
X108881333Y-147867047D01*
X106841523Y-145422380D02*
X106365333Y-145422380D01*
X106317714Y-145898571D01*
X106365333Y-145850952D01*
X106460571Y-145803333D01*
X106698666Y-145803333D01*
X106793904Y-145850952D01*
X106841523Y-145898571D01*
X106889142Y-145993809D01*
X106889142Y-146231904D01*
X106841523Y-146327142D01*
X106793904Y-146374761D01*
X106698666Y-146422380D01*
X106460571Y-146422380D01*
X106365333Y-146374761D01*
X106317714Y-146327142D01*
X107174857Y-145422380D02*
X107508190Y-146422380D01*
X107841523Y-145422380D01*
X117517619Y-133468380D02*
X117517619Y-132468380D01*
X117946190Y-132563619D02*
X117993809Y-132516000D01*
X118089047Y-132468380D01*
X118327142Y-132468380D01*
X118422380Y-132516000D01*
X118470000Y-132563619D01*
X118517619Y-132658857D01*
X118517619Y-132754095D01*
X118470000Y-132896952D01*
X117898571Y-133468380D01*
X118517619Y-133468380D01*
X119517619Y-133373142D02*
X119470000Y-133420761D01*
X119327142Y-133468380D01*
X119231904Y-133468380D01*
X119089047Y-133420761D01*
X118993809Y-133325523D01*
X118946190Y-133230285D01*
X118898571Y-133039809D01*
X118898571Y-132896952D01*
X118946190Y-132706476D01*
X118993809Y-132611238D01*
X119089047Y-132516000D01*
X119231904Y-132468380D01*
X119327142Y-132468380D01*
X119470000Y-132516000D01*
X119517619Y-132563619D01*
X119898571Y-132563619D02*
X119946190Y-132516000D01*
X120041428Y-132468380D01*
X120279523Y-132468380D01*
X120374761Y-132516000D01*
X120422380Y-132563619D01*
X120470000Y-132658857D01*
X120470000Y-132754095D01*
X120422380Y-132896952D01*
X119850952Y-133468380D01*
X120470000Y-133468380D01*
X101516666Y-103122380D02*
X101516666Y-103836666D01*
X101469047Y-103979523D01*
X101373809Y-104074761D01*
X101230952Y-104122380D01*
X101135714Y-104122380D01*
X102516666Y-104122380D02*
X101945238Y-104122380D01*
X102230952Y-104122380D02*
X102230952Y-103122380D01*
X102135714Y-103265238D01*
X102040476Y-103360476D01*
X101945238Y-103408095D01*
X134666666Y-103122380D02*
X134666666Y-103836666D01*
X134619047Y-103979523D01*
X134523809Y-104074761D01*
X134380952Y-104122380D01*
X134285714Y-104122380D01*
X135095238Y-103217619D02*
X135142857Y-103170000D01*
X135238095Y-103122380D01*
X135476190Y-103122380D01*
X135571428Y-103170000D01*
X135619047Y-103217619D01*
X135666666Y-103312857D01*
X135666666Y-103408095D01*
X135619047Y-103550952D01*
X135047619Y-104122380D01*
X135666666Y-104122380D01*
X114596380Y-147676380D02*
X113596380Y-147676380D01*
X113691619Y-147247809D02*
X113644000Y-147200190D01*
X113596380Y-147104952D01*
X113596380Y-146866857D01*
X113644000Y-146771619D01*
X113691619Y-146724000D01*
X113786857Y-146676380D01*
X113882095Y-146676380D01*
X114024952Y-146724000D01*
X114596380Y-147295428D01*
X114596380Y-146676380D01*
X114501142Y-145676380D02*
X114548761Y-145724000D01*
X114596380Y-145866857D01*
X114596380Y-145962095D01*
X114548761Y-146104952D01*
X114453523Y-146200190D01*
X114358285Y-146247809D01*
X114167809Y-146295428D01*
X114024952Y-146295428D01*
X113834476Y-146247809D01*
X113739238Y-146200190D01*
X113644000Y-146104952D01*
X113596380Y-145962095D01*
X113596380Y-145866857D01*
X113644000Y-145724000D01*
X113691619Y-145676380D01*
X114596380Y-144724000D02*
X114596380Y-145295428D01*
X114596380Y-145009714D02*
X113596380Y-145009714D01*
X113739238Y-145104952D01*
X113834476Y-145200190D01*
X113882095Y-145295428D01*
X105842971Y-160492152D02*
X105890590Y-160349295D01*
X105938209Y-160301676D01*
X106033447Y-160254057D01*
X106176304Y-160254057D01*
X106271542Y-160301676D01*
X106319161Y-160349295D01*
X106366780Y-160444533D01*
X106366780Y-160825485D01*
X105366780Y-160825485D01*
X105366780Y-160492152D01*
X105414400Y-160396914D01*
X105462019Y-160349295D01*
X105557257Y-160301676D01*
X105652495Y-160301676D01*
X105747733Y-160349295D01*
X105795352Y-160396914D01*
X105842971Y-160492152D01*
X105842971Y-160825485D01*
X106366780Y-159825485D02*
X105366780Y-159825485D01*
X106081066Y-159492152D01*
X105366780Y-159158819D01*
X106366780Y-159158819D01*
X105842971Y-158682628D02*
X105842971Y-158349295D01*
X106366780Y-158206438D02*
X106366780Y-158682628D01*
X105366780Y-158682628D01*
X105366780Y-158206438D01*
X105366780Y-157349295D02*
X105366780Y-157539771D01*
X105414400Y-157635009D01*
X105462019Y-157682628D01*
X105604876Y-157777866D01*
X105795352Y-157825485D01*
X106176304Y-157825485D01*
X106271542Y-157777866D01*
X106319161Y-157730247D01*
X106366780Y-157635009D01*
X106366780Y-157444533D01*
X106319161Y-157349295D01*
X106271542Y-157301676D01*
X106176304Y-157254057D01*
X105938209Y-157254057D01*
X105842971Y-157301676D01*
X105795352Y-157349295D01*
X105747733Y-157444533D01*
X105747733Y-157635009D01*
X105795352Y-157730247D01*
X105842971Y-157777866D01*
X105938209Y-157825485D01*
X105795352Y-156682628D02*
X105747733Y-156777866D01*
X105700114Y-156825485D01*
X105604876Y-156873104D01*
X105557257Y-156873104D01*
X105462019Y-156825485D01*
X105414400Y-156777866D01*
X105366780Y-156682628D01*
X105366780Y-156492152D01*
X105414400Y-156396914D01*
X105462019Y-156349295D01*
X105557257Y-156301676D01*
X105604876Y-156301676D01*
X105700114Y-156349295D01*
X105747733Y-156396914D01*
X105795352Y-156492152D01*
X105795352Y-156682628D01*
X105842971Y-156777866D01*
X105890590Y-156825485D01*
X105985828Y-156873104D01*
X106176304Y-156873104D01*
X106271542Y-156825485D01*
X106319161Y-156777866D01*
X106366780Y-156682628D01*
X106366780Y-156492152D01*
X106319161Y-156396914D01*
X106271542Y-156349295D01*
X106176304Y-156301676D01*
X105985828Y-156301676D01*
X105890590Y-156349295D01*
X105842971Y-156396914D01*
X105795352Y-156492152D01*
X105366780Y-155682628D02*
X105366780Y-155587390D01*
X105414400Y-155492152D01*
X105462019Y-155444533D01*
X105557257Y-155396914D01*
X105747733Y-155349295D01*
X105985828Y-155349295D01*
X106176304Y-155396914D01*
X106271542Y-155444533D01*
X106319161Y-155492152D01*
X106366780Y-155587390D01*
X106366780Y-155682628D01*
X106319161Y-155777866D01*
X106271542Y-155825485D01*
X106176304Y-155873104D01*
X105985828Y-155920723D01*
X105747733Y-155920723D01*
X105557257Y-155873104D01*
X105462019Y-155825485D01*
X105414400Y-155777866D01*
X105366780Y-155682628D01*
X102388571Y-160593752D02*
X102436190Y-160450895D01*
X102483809Y-160403276D01*
X102579047Y-160355657D01*
X102721904Y-160355657D01*
X102817142Y-160403276D01*
X102864761Y-160450895D01*
X102912380Y-160546133D01*
X102912380Y-160927085D01*
X101912380Y-160927085D01*
X101912380Y-160593752D01*
X101960000Y-160498514D01*
X102007619Y-160450895D01*
X102102857Y-160403276D01*
X102198095Y-160403276D01*
X102293333Y-160450895D01*
X102340952Y-160498514D01*
X102388571Y-160593752D01*
X102388571Y-160927085D01*
X102912380Y-159927085D02*
X101912380Y-159927085D01*
X102626666Y-159593752D01*
X101912380Y-159260419D01*
X102912380Y-159260419D01*
X102388571Y-158784228D02*
X102388571Y-158450895D01*
X102912380Y-158308038D02*
X102912380Y-158784228D01*
X101912380Y-158784228D01*
X101912380Y-158308038D01*
X102007619Y-157927085D02*
X101960000Y-157879466D01*
X101912380Y-157784228D01*
X101912380Y-157546133D01*
X101960000Y-157450895D01*
X102007619Y-157403276D01*
X102102857Y-157355657D01*
X102198095Y-157355657D01*
X102340952Y-157403276D01*
X102912380Y-157974704D01*
X102912380Y-157355657D01*
X102340952Y-156784228D02*
X102293333Y-156879466D01*
X102245714Y-156927085D01*
X102150476Y-156974704D01*
X102102857Y-156974704D01*
X102007619Y-156927085D01*
X101960000Y-156879466D01*
X101912380Y-156784228D01*
X101912380Y-156593752D01*
X101960000Y-156498514D01*
X102007619Y-156450895D01*
X102102857Y-156403276D01*
X102150476Y-156403276D01*
X102245714Y-156450895D01*
X102293333Y-156498514D01*
X102340952Y-156593752D01*
X102340952Y-156784228D01*
X102388571Y-156879466D01*
X102436190Y-156927085D01*
X102531428Y-156974704D01*
X102721904Y-156974704D01*
X102817142Y-156927085D01*
X102864761Y-156879466D01*
X102912380Y-156784228D01*
X102912380Y-156593752D01*
X102864761Y-156498514D01*
X102817142Y-156450895D01*
X102721904Y-156403276D01*
X102531428Y-156403276D01*
X102436190Y-156450895D01*
X102388571Y-156498514D01*
X102340952Y-156593752D01*
X101912380Y-155784228D02*
X101912380Y-155688990D01*
X101960000Y-155593752D01*
X102007619Y-155546133D01*
X102102857Y-155498514D01*
X102293333Y-155450895D01*
X102531428Y-155450895D01*
X102721904Y-155498514D01*
X102817142Y-155546133D01*
X102864761Y-155593752D01*
X102912380Y-155688990D01*
X102912380Y-155784228D01*
X102864761Y-155879466D01*
X102817142Y-155927085D01*
X102721904Y-155974704D01*
X102531428Y-156022323D01*
X102293333Y-156022323D01*
X102102857Y-155974704D01*
X102007619Y-155927085D01*
X101960000Y-155879466D01*
X101912380Y-155784228D01*
M02*
