G04 #@! TF.GenerationSoftware,KiCad,Pcbnew,(5.1.10)-1*
G04 #@! TF.CreationDate,2022-01-12T20:10:35+01:00*
G04 #@! TF.ProjectId,ttgot5,7474676f-7435-42e6-9b69-6361645f7063,rev?*
G04 #@! TF.SameCoordinates,Original*
G04 #@! TF.FileFunction,Legend,Bot*
G04 #@! TF.FilePolarity,Positive*
%FSLAX46Y46*%
G04 Gerber Fmt 4.6, Leading zero omitted, Abs format (unit mm)*
G04 Created by KiCad (PCBNEW (5.1.10)-1) date 2022-01-12 20:10:35*
%MOMM*%
%LPD*%
G01*
G04 APERTURE LIST*
%ADD10C,0.300000*%
%ADD11C,0.150000*%
%ADD12C,0.010000*%
%ADD13C,0.120000*%
G04 APERTURE END LIST*
D10*
X111686857Y-157359285D02*
X111758285Y-157287857D01*
X111901142Y-157216428D01*
X112044000Y-157216428D01*
X112186857Y-157287857D01*
X112258285Y-157359285D01*
X112329714Y-157502142D01*
X112329714Y-157645000D01*
X112258285Y-157787857D01*
X112186857Y-157859285D01*
X112044000Y-157930714D01*
X111901142Y-157930714D01*
X111758285Y-157859285D01*
X111686857Y-157787857D01*
X111686857Y-157216428D02*
X111686857Y-157787857D01*
X111615428Y-157859285D01*
X111544000Y-157859285D01*
X111401142Y-157787857D01*
X111329714Y-157645000D01*
X111329714Y-157287857D01*
X111472571Y-157073571D01*
X111686857Y-156930714D01*
X111972571Y-156859285D01*
X112258285Y-156930714D01*
X112472571Y-157073571D01*
X112615428Y-157287857D01*
X112686857Y-157573571D01*
X112615428Y-157859285D01*
X112472571Y-158073571D01*
X112258285Y-158216428D01*
X111972571Y-158287857D01*
X111686857Y-158216428D01*
X111472571Y-158073571D01*
X110758285Y-158002142D02*
X110544000Y-158073571D01*
X110186857Y-158073571D01*
X110044000Y-158002142D01*
X109972571Y-157930714D01*
X109901142Y-157787857D01*
X109901142Y-157645000D01*
X109972571Y-157502142D01*
X110044000Y-157430714D01*
X110186857Y-157359285D01*
X110472571Y-157287857D01*
X110615428Y-157216428D01*
X110686857Y-157145000D01*
X110758285Y-157002142D01*
X110758285Y-156859285D01*
X110686857Y-156716428D01*
X110615428Y-156645000D01*
X110472571Y-156573571D01*
X110115428Y-156573571D01*
X109901142Y-156645000D01*
X109258285Y-158073571D02*
X109258285Y-156573571D01*
X108686857Y-156573571D01*
X108544000Y-156645000D01*
X108472571Y-156716428D01*
X108401142Y-156859285D01*
X108401142Y-157073571D01*
X108472571Y-157216428D01*
X108544000Y-157287857D01*
X108686857Y-157359285D01*
X109258285Y-157359285D01*
X107758285Y-158073571D02*
X107758285Y-156573571D01*
X107186857Y-156573571D02*
X106186857Y-156573571D01*
X107186857Y-158073571D01*
X106186857Y-158073571D01*
X105615428Y-158073571D02*
X105615428Y-156573571D01*
X104115428Y-156645000D02*
X104258285Y-156573571D01*
X104472571Y-156573571D01*
X104686857Y-156645000D01*
X104829714Y-156787857D01*
X104901142Y-156930714D01*
X104972571Y-157216428D01*
X104972571Y-157430714D01*
X104901142Y-157716428D01*
X104829714Y-157859285D01*
X104686857Y-158002142D01*
X104472571Y-158073571D01*
X104329714Y-158073571D01*
X104115428Y-158002142D01*
X104044000Y-157930714D01*
X104044000Y-157430714D01*
X104329714Y-157430714D01*
X112222571Y-159123571D02*
X112079714Y-159123571D01*
X111936857Y-159195000D01*
X111865428Y-159266428D01*
X111794000Y-159409285D01*
X111722571Y-159695000D01*
X111722571Y-160052142D01*
X111794000Y-160337857D01*
X111865428Y-160480714D01*
X111936857Y-160552142D01*
X112079714Y-160623571D01*
X112222571Y-160623571D01*
X112365428Y-160552142D01*
X112436857Y-160480714D01*
X112508285Y-160337857D01*
X112579714Y-160052142D01*
X112579714Y-159695000D01*
X112508285Y-159409285D01*
X112436857Y-159266428D01*
X112365428Y-159195000D01*
X112222571Y-159123571D01*
X111151142Y-159266428D02*
X111079714Y-159195000D01*
X110936857Y-159123571D01*
X110579714Y-159123571D01*
X110436857Y-159195000D01*
X110365428Y-159266428D01*
X110294000Y-159409285D01*
X110294000Y-159552142D01*
X110365428Y-159766428D01*
X111222571Y-160623571D01*
X110294000Y-160623571D01*
X108579714Y-159052142D02*
X109865428Y-160980714D01*
X108151142Y-159266428D02*
X108079714Y-159195000D01*
X107936857Y-159123571D01*
X107579714Y-159123571D01*
X107436857Y-159195000D01*
X107365428Y-159266428D01*
X107294000Y-159409285D01*
X107294000Y-159552142D01*
X107365428Y-159766428D01*
X108222571Y-160623571D01*
X107294000Y-160623571D01*
X106365428Y-159123571D02*
X106222571Y-159123571D01*
X106079714Y-159195000D01*
X106008285Y-159266428D01*
X105936857Y-159409285D01*
X105865428Y-159695000D01*
X105865428Y-160052142D01*
X105936857Y-160337857D01*
X106008285Y-160480714D01*
X106079714Y-160552142D01*
X106222571Y-160623571D01*
X106365428Y-160623571D01*
X106508285Y-160552142D01*
X106579714Y-160480714D01*
X106651142Y-160337857D01*
X106722571Y-160052142D01*
X106722571Y-159695000D01*
X106651142Y-159409285D01*
X106579714Y-159266428D01*
X106508285Y-159195000D01*
X106365428Y-159123571D01*
X105294000Y-159266428D02*
X105222571Y-159195000D01*
X105079714Y-159123571D01*
X104722571Y-159123571D01*
X104579714Y-159195000D01*
X104508285Y-159266428D01*
X104436857Y-159409285D01*
X104436857Y-159552142D01*
X104508285Y-159766428D01*
X105365428Y-160623571D01*
X104436857Y-160623571D01*
X103865428Y-159266428D02*
X103794000Y-159195000D01*
X103651142Y-159123571D01*
X103294000Y-159123571D01*
X103151142Y-159195000D01*
X103079714Y-159266428D01*
X103008285Y-159409285D01*
X103008285Y-159552142D01*
X103079714Y-159766428D01*
X103936857Y-160623571D01*
X103008285Y-160623571D01*
X128438571Y-123304571D02*
X128438571Y-124376000D01*
X128510000Y-124590285D01*
X128652857Y-124733142D01*
X128867142Y-124804571D01*
X129010000Y-124804571D01*
X127010000Y-124804571D02*
X127724285Y-124804571D01*
X127724285Y-123304571D01*
X125652857Y-124661714D02*
X125724285Y-124733142D01*
X125938571Y-124804571D01*
X126081428Y-124804571D01*
X126295714Y-124733142D01*
X126438571Y-124590285D01*
X126510000Y-124447428D01*
X126581428Y-124161714D01*
X126581428Y-123947428D01*
X126510000Y-123661714D01*
X126438571Y-123518857D01*
X126295714Y-123376000D01*
X126081428Y-123304571D01*
X125938571Y-123304571D01*
X125724285Y-123376000D01*
X125652857Y-123447428D01*
X124581428Y-123304571D02*
X124581428Y-124376000D01*
X124652857Y-124590285D01*
X124795714Y-124733142D01*
X125010000Y-124804571D01*
X125152857Y-124804571D01*
X123152857Y-124804571D02*
X123867142Y-124804571D01*
X123867142Y-123304571D01*
X121795714Y-124661714D02*
X121867142Y-124733142D01*
X122081428Y-124804571D01*
X122224285Y-124804571D01*
X122438571Y-124733142D01*
X122581428Y-124590285D01*
X122652857Y-124447428D01*
X122724285Y-124161714D01*
X122724285Y-123947428D01*
X122652857Y-123661714D01*
X122581428Y-123518857D01*
X122438571Y-123376000D01*
X122224285Y-123304571D01*
X122081428Y-123304571D01*
X121867142Y-123376000D01*
X121795714Y-123447428D01*
X120724285Y-123304571D02*
X120724285Y-124376000D01*
X120795714Y-124590285D01*
X120938571Y-124733142D01*
X121152857Y-124804571D01*
X121295714Y-124804571D01*
X119295714Y-124804571D02*
X120010000Y-124804571D01*
X120010000Y-123304571D01*
X117938571Y-124661714D02*
X118010000Y-124733142D01*
X118224285Y-124804571D01*
X118367142Y-124804571D01*
X118581428Y-124733142D01*
X118724285Y-124590285D01*
X118795714Y-124447428D01*
X118867142Y-124161714D01*
X118867142Y-123947428D01*
X118795714Y-123661714D01*
X118724285Y-123518857D01*
X118581428Y-123376000D01*
X118367142Y-123304571D01*
X118224285Y-123304571D01*
X118010000Y-123376000D01*
X117938571Y-123447428D01*
X116867142Y-123304571D02*
X116867142Y-124376000D01*
X116938571Y-124590285D01*
X117081428Y-124733142D01*
X117295714Y-124804571D01*
X117438571Y-124804571D01*
X115438571Y-124804571D02*
X116152857Y-124804571D01*
X116152857Y-123304571D01*
X114081428Y-124661714D02*
X114152857Y-124733142D01*
X114367142Y-124804571D01*
X114510000Y-124804571D01*
X114724285Y-124733142D01*
X114867142Y-124590285D01*
X114938571Y-124447428D01*
X115010000Y-124161714D01*
X115010000Y-123947428D01*
X114938571Y-123661714D01*
X114867142Y-123518857D01*
X114724285Y-123376000D01*
X114510000Y-123304571D01*
X114367142Y-123304571D01*
X114152857Y-123376000D01*
X114081428Y-123447428D01*
D11*
X119552380Y-114345452D02*
X119076190Y-114012119D01*
X119552380Y-113774023D02*
X118552380Y-113774023D01*
X118552380Y-114154976D01*
X118600000Y-114250214D01*
X118647619Y-114297833D01*
X118742857Y-114345452D01*
X118885714Y-114345452D01*
X118980952Y-114297833D01*
X119028571Y-114250214D01*
X119076190Y-114154976D01*
X119076190Y-113774023D01*
X119028571Y-115107357D02*
X119028571Y-114774023D01*
X119552380Y-114774023D02*
X118552380Y-114774023D01*
X118552380Y-115250214D01*
X119552380Y-115631166D02*
X118552380Y-115631166D01*
X119266666Y-115964500D01*
X118552380Y-116297833D01*
X119552380Y-116297833D01*
X119552380Y-118345452D02*
X119552380Y-118535928D01*
X119504761Y-118631166D01*
X119457142Y-118678785D01*
X119314285Y-118774023D01*
X119123809Y-118821642D01*
X118742857Y-118821642D01*
X118647619Y-118774023D01*
X118600000Y-118726404D01*
X118552380Y-118631166D01*
X118552380Y-118440690D01*
X118600000Y-118345452D01*
X118647619Y-118297833D01*
X118742857Y-118250214D01*
X118980952Y-118250214D01*
X119076190Y-118297833D01*
X119123809Y-118345452D01*
X119171428Y-118440690D01*
X119171428Y-118631166D01*
X119123809Y-118726404D01*
X119076190Y-118774023D01*
X118980952Y-118821642D01*
X118552380Y-119726404D02*
X118552380Y-119250214D01*
X119028571Y-119202595D01*
X118980952Y-119250214D01*
X118933333Y-119345452D01*
X118933333Y-119583547D01*
X118980952Y-119678785D01*
X119028571Y-119726404D01*
X119123809Y-119774023D01*
X119361904Y-119774023D01*
X119457142Y-119726404D01*
X119504761Y-119678785D01*
X119552380Y-119583547D01*
X119552380Y-119345452D01*
X119504761Y-119250214D01*
X119457142Y-119202595D01*
X121202380Y-113916880D02*
X120202380Y-113916880D01*
X120916666Y-114250214D01*
X120202380Y-114583547D01*
X121202380Y-114583547D01*
X120202380Y-115250214D02*
X120202380Y-115440690D01*
X120250000Y-115535928D01*
X120345238Y-115631166D01*
X120535714Y-115678785D01*
X120869047Y-115678785D01*
X121059523Y-115631166D01*
X121154761Y-115535928D01*
X121202380Y-115440690D01*
X121202380Y-115250214D01*
X121154761Y-115154976D01*
X121059523Y-115059738D01*
X120869047Y-115012119D01*
X120535714Y-115012119D01*
X120345238Y-115059738D01*
X120250000Y-115154976D01*
X120202380Y-115250214D01*
X121154761Y-116059738D02*
X121202380Y-116202595D01*
X121202380Y-116440690D01*
X121154761Y-116535928D01*
X121107142Y-116583547D01*
X121011904Y-116631166D01*
X120916666Y-116631166D01*
X120821428Y-116583547D01*
X120773809Y-116535928D01*
X120726190Y-116440690D01*
X120678571Y-116250214D01*
X120630952Y-116154976D01*
X120583333Y-116107357D01*
X120488095Y-116059738D01*
X120392857Y-116059738D01*
X120297619Y-116107357D01*
X120250000Y-116154976D01*
X120202380Y-116250214D01*
X120202380Y-116488309D01*
X120250000Y-116631166D01*
X121202380Y-117059738D02*
X120202380Y-117059738D01*
X121202380Y-118821642D02*
X121202380Y-118250214D01*
X121202380Y-118535928D02*
X120202380Y-118535928D01*
X120345238Y-118440690D01*
X120440476Y-118345452D01*
X120488095Y-118250214D01*
X120202380Y-119726404D02*
X120202380Y-119250214D01*
X120678571Y-119202595D01*
X120630952Y-119250214D01*
X120583333Y-119345452D01*
X120583333Y-119583547D01*
X120630952Y-119678785D01*
X120678571Y-119726404D01*
X120773809Y-119774023D01*
X121011904Y-119774023D01*
X121107142Y-119726404D01*
X121154761Y-119678785D01*
X121202380Y-119583547D01*
X121202380Y-119345452D01*
X121154761Y-119250214D01*
X121107142Y-119202595D01*
X122852380Y-113916880D02*
X121852380Y-113916880D01*
X122566666Y-114250214D01*
X121852380Y-114583547D01*
X122852380Y-114583547D01*
X122852380Y-115059738D02*
X121852380Y-115059738D01*
X122804761Y-115488309D02*
X122852380Y-115631166D01*
X122852380Y-115869261D01*
X122804761Y-115964500D01*
X122757142Y-116012119D01*
X122661904Y-116059738D01*
X122566666Y-116059738D01*
X122471428Y-116012119D01*
X122423809Y-115964500D01*
X122376190Y-115869261D01*
X122328571Y-115678785D01*
X122280952Y-115583547D01*
X122233333Y-115535928D01*
X122138095Y-115488309D01*
X122042857Y-115488309D01*
X121947619Y-115535928D01*
X121900000Y-115583547D01*
X121852380Y-115678785D01*
X121852380Y-115916880D01*
X121900000Y-116059738D01*
X121852380Y-116678785D02*
X121852380Y-116869261D01*
X121900000Y-116964500D01*
X121995238Y-117059738D01*
X122185714Y-117107357D01*
X122519047Y-117107357D01*
X122709523Y-117059738D01*
X122804761Y-116964500D01*
X122852380Y-116869261D01*
X122852380Y-116678785D01*
X122804761Y-116583547D01*
X122709523Y-116488309D01*
X122519047Y-116440690D01*
X122185714Y-116440690D01*
X121995238Y-116488309D01*
X121900000Y-116583547D01*
X121852380Y-116678785D01*
X121852380Y-118488309D02*
X121852380Y-118583547D01*
X121900000Y-118678785D01*
X121947619Y-118726404D01*
X122042857Y-118774023D01*
X122233333Y-118821642D01*
X122471428Y-118821642D01*
X122661904Y-118774023D01*
X122757142Y-118726404D01*
X122804761Y-118678785D01*
X122852380Y-118583547D01*
X122852380Y-118488309D01*
X122804761Y-118393071D01*
X122757142Y-118345452D01*
X122661904Y-118297833D01*
X122471428Y-118250214D01*
X122233333Y-118250214D01*
X122042857Y-118297833D01*
X121947619Y-118345452D01*
X121900000Y-118393071D01*
X121852380Y-118488309D01*
X121947619Y-119202595D02*
X121900000Y-119250214D01*
X121852380Y-119345452D01*
X121852380Y-119583547D01*
X121900000Y-119678785D01*
X121947619Y-119726404D01*
X122042857Y-119774023D01*
X122138095Y-119774023D01*
X122280952Y-119726404D01*
X122852380Y-119154976D01*
X122852380Y-119774023D01*
X124407142Y-114535928D02*
X124454761Y-114488309D01*
X124502380Y-114345452D01*
X124502380Y-114250214D01*
X124454761Y-114107357D01*
X124359523Y-114012119D01*
X124264285Y-113964500D01*
X124073809Y-113916880D01*
X123930952Y-113916880D01*
X123740476Y-113964500D01*
X123645238Y-114012119D01*
X123550000Y-114107357D01*
X123502380Y-114250214D01*
X123502380Y-114345452D01*
X123550000Y-114488309D01*
X123597619Y-114535928D01*
X124502380Y-115440690D02*
X124502380Y-114964500D01*
X123502380Y-114964500D01*
X124502380Y-115774023D02*
X123502380Y-115774023D01*
X124502380Y-116345452D02*
X123930952Y-115916880D01*
X123502380Y-116345452D02*
X124073809Y-115774023D01*
X124502380Y-118821642D02*
X124502380Y-118250214D01*
X124502380Y-118535928D02*
X123502380Y-118535928D01*
X123645238Y-118440690D01*
X123740476Y-118345452D01*
X123788095Y-118250214D01*
X123835714Y-119678785D02*
X124502380Y-119678785D01*
X123454761Y-119440690D02*
X124169047Y-119202595D01*
X124169047Y-119821642D01*
X126152380Y-114631166D02*
X125676190Y-114297833D01*
X126152380Y-114059738D02*
X125152380Y-114059738D01*
X125152380Y-114440690D01*
X125200000Y-114535928D01*
X125247619Y-114583547D01*
X125342857Y-114631166D01*
X125485714Y-114631166D01*
X125580952Y-114583547D01*
X125628571Y-114535928D01*
X125676190Y-114440690D01*
X125676190Y-114059738D01*
X126104761Y-115012119D02*
X126152380Y-115154976D01*
X126152380Y-115393071D01*
X126104761Y-115488309D01*
X126057142Y-115535928D01*
X125961904Y-115583547D01*
X125866666Y-115583547D01*
X125771428Y-115535928D01*
X125723809Y-115488309D01*
X125676190Y-115393071D01*
X125628571Y-115202595D01*
X125580952Y-115107357D01*
X125533333Y-115059738D01*
X125438095Y-115012119D01*
X125342857Y-115012119D01*
X125247619Y-115059738D01*
X125200000Y-115107357D01*
X125152380Y-115202595D01*
X125152380Y-115440690D01*
X125200000Y-115583547D01*
X125152380Y-115869261D02*
X125152380Y-116440690D01*
X126152380Y-116154976D02*
X125152380Y-116154976D01*
X125152380Y-118202595D02*
X125152380Y-118821642D01*
X125533333Y-118488309D01*
X125533333Y-118631166D01*
X125580952Y-118726404D01*
X125628571Y-118774023D01*
X125723809Y-118821642D01*
X125961904Y-118821642D01*
X126057142Y-118774023D01*
X126104761Y-118726404D01*
X126152380Y-118631166D01*
X126152380Y-118345452D01*
X126104761Y-118250214D01*
X126057142Y-118202595D01*
X125485714Y-119678785D02*
X126152380Y-119678785D01*
X125104761Y-119440690D02*
X125819047Y-119202595D01*
X125819047Y-119821642D01*
X127802380Y-114250214D02*
X126802380Y-114250214D01*
X127802380Y-115297833D02*
X127326190Y-114964500D01*
X127802380Y-114726404D02*
X126802380Y-114726404D01*
X126802380Y-115107357D01*
X126850000Y-115202595D01*
X126897619Y-115250214D01*
X126992857Y-115297833D01*
X127135714Y-115297833D01*
X127230952Y-115250214D01*
X127278571Y-115202595D01*
X127326190Y-115107357D01*
X127326190Y-114726404D01*
X127897619Y-116393071D02*
X127850000Y-116297833D01*
X127754761Y-116202595D01*
X127611904Y-116059738D01*
X127564285Y-115964500D01*
X127564285Y-115869261D01*
X127802380Y-115916880D02*
X127754761Y-115821642D01*
X127659523Y-115726404D01*
X127469047Y-115678785D01*
X127135714Y-115678785D01*
X126945238Y-115726404D01*
X126850000Y-115821642D01*
X126802380Y-115916880D01*
X126802380Y-116107357D01*
X126850000Y-116202595D01*
X126945238Y-116297833D01*
X127135714Y-116345452D01*
X127469047Y-116345452D01*
X127659523Y-116297833D01*
X127754761Y-116202595D01*
X127802380Y-116107357D01*
X127802380Y-115916880D01*
X126897619Y-118250214D02*
X126850000Y-118297833D01*
X126802380Y-118393071D01*
X126802380Y-118631166D01*
X126850000Y-118726404D01*
X126897619Y-118774023D01*
X126992857Y-118821642D01*
X127088095Y-118821642D01*
X127230952Y-118774023D01*
X127802380Y-118202595D01*
X127802380Y-118821642D01*
X126802380Y-119726404D02*
X126802380Y-119250214D01*
X127278571Y-119202595D01*
X127230952Y-119250214D01*
X127183333Y-119345452D01*
X127183333Y-119583547D01*
X127230952Y-119678785D01*
X127278571Y-119726404D01*
X127373809Y-119774023D01*
X127611904Y-119774023D01*
X127707142Y-119726404D01*
X127754761Y-119678785D01*
X127802380Y-119583547D01*
X127802380Y-119345452D01*
X127754761Y-119250214D01*
X127707142Y-119202595D01*
X129357142Y-115393071D02*
X129404761Y-115345452D01*
X129452380Y-115202595D01*
X129452380Y-115107357D01*
X129404761Y-114964500D01*
X129309523Y-114869261D01*
X129214285Y-114821642D01*
X129023809Y-114774023D01*
X128880952Y-114774023D01*
X128690476Y-114821642D01*
X128595238Y-114869261D01*
X128500000Y-114964500D01*
X128452380Y-115107357D01*
X128452380Y-115202595D01*
X128500000Y-115345452D01*
X128547619Y-115393071D01*
X129404761Y-115774023D02*
X129452380Y-115916880D01*
X129452380Y-116154976D01*
X129404761Y-116250214D01*
X129357142Y-116297833D01*
X129261904Y-116345452D01*
X129166666Y-116345452D01*
X129071428Y-116297833D01*
X129023809Y-116250214D01*
X128976190Y-116154976D01*
X128928571Y-115964500D01*
X128880952Y-115869261D01*
X128833333Y-115821642D01*
X128738095Y-115774023D01*
X128642857Y-115774023D01*
X128547619Y-115821642D01*
X128500000Y-115869261D01*
X128452380Y-115964500D01*
X128452380Y-116202595D01*
X128500000Y-116345452D01*
X128547619Y-118250214D02*
X128500000Y-118297833D01*
X128452380Y-118393071D01*
X128452380Y-118631166D01*
X128500000Y-118726404D01*
X128547619Y-118774023D01*
X128642857Y-118821642D01*
X128738095Y-118821642D01*
X128880952Y-118774023D01*
X129452380Y-118202595D01*
X129452380Y-118821642D01*
X128452380Y-119678785D02*
X128452380Y-119488309D01*
X128500000Y-119393071D01*
X128547619Y-119345452D01*
X128690476Y-119250214D01*
X128880952Y-119202595D01*
X129261904Y-119202595D01*
X129357142Y-119250214D01*
X129404761Y-119297833D01*
X129452380Y-119393071D01*
X129452380Y-119583547D01*
X129404761Y-119678785D01*
X129357142Y-119726404D01*
X129261904Y-119774023D01*
X129023809Y-119774023D01*
X128928571Y-119726404D01*
X128880952Y-119678785D01*
X128833333Y-119583547D01*
X128833333Y-119393071D01*
X128880952Y-119297833D01*
X128928571Y-119250214D01*
X129023809Y-119202595D01*
X134336952Y-157725428D02*
X133575047Y-157725428D01*
X134082952Y-161535428D02*
X133321047Y-161535428D01*
X133702000Y-161916380D02*
X133702000Y-161154476D01*
D10*
X107427857Y-117959142D02*
X107427857Y-118459142D01*
X108213571Y-118673428D02*
X108213571Y-117959142D01*
X106713571Y-117959142D01*
X106713571Y-118673428D01*
X107642142Y-119316285D02*
X107642142Y-120459142D01*
X108213571Y-121173428D02*
X106713571Y-121173428D01*
X108213571Y-121887714D02*
X106713571Y-121887714D01*
X108213571Y-122744857D01*
X106713571Y-122744857D01*
X108213571Y-123459142D02*
X106713571Y-123459142D01*
X108213571Y-124316285D02*
X107356428Y-123673428D01*
X106713571Y-124316285D02*
X107570714Y-123459142D01*
X108213571Y-127316285D02*
X108213571Y-127244857D01*
X108142142Y-127102000D01*
X107927857Y-126887714D01*
X107499285Y-126530571D01*
X107285000Y-126387714D01*
X107070714Y-126316285D01*
X106927857Y-126316285D01*
X106785000Y-126387714D01*
X106713571Y-126530571D01*
X106713571Y-126602000D01*
X106785000Y-126744857D01*
X106927857Y-126816285D01*
X106999285Y-126816285D01*
X107142142Y-126744857D01*
X107213571Y-126673428D01*
X107499285Y-126244857D01*
X107570714Y-126173428D01*
X107713571Y-126102000D01*
X107927857Y-126102000D01*
X108070714Y-126173428D01*
X108142142Y-126244857D01*
X108213571Y-126387714D01*
X108213571Y-126602000D01*
X108142142Y-126744857D01*
X108070714Y-126816285D01*
X107785000Y-127030571D01*
X107570714Y-127102000D01*
X107427857Y-127102000D01*
X110763571Y-118387714D02*
X110763571Y-117673428D01*
X109263571Y-117673428D01*
X109263571Y-119173428D02*
X109263571Y-119459142D01*
X109335000Y-119602000D01*
X109477857Y-119744857D01*
X109763571Y-119816285D01*
X110263571Y-119816285D01*
X110549285Y-119744857D01*
X110692142Y-119602000D01*
X110763571Y-119459142D01*
X110763571Y-119173428D01*
X110692142Y-119030571D01*
X110549285Y-118887714D01*
X110263571Y-118816285D01*
X109763571Y-118816285D01*
X109477857Y-118887714D01*
X109335000Y-119030571D01*
X109263571Y-119173428D01*
X110763571Y-121316285D02*
X110049285Y-120816285D01*
X110763571Y-120459142D02*
X109263571Y-120459142D01*
X109263571Y-121030571D01*
X109335000Y-121173428D01*
X109406428Y-121244857D01*
X109549285Y-121316285D01*
X109763571Y-121316285D01*
X109906428Y-121244857D01*
X109977857Y-121173428D01*
X110049285Y-121030571D01*
X110049285Y-120459142D01*
X110335000Y-121887714D02*
X110335000Y-122602000D01*
X110763571Y-121744857D02*
X109263571Y-122244857D01*
X110763571Y-122744857D01*
X109263571Y-124173428D02*
X109263571Y-125030571D01*
X110763571Y-124602000D02*
X109263571Y-124602000D01*
X109263571Y-125316285D02*
X109263571Y-126173428D01*
X110763571Y-125744857D02*
X109263571Y-125744857D01*
X110763571Y-126673428D02*
X109263571Y-126673428D01*
X110763571Y-127530571D01*
X109263571Y-127530571D01*
D12*
G36*
X131174700Y-137791696D02*
G01*
X131308612Y-137854039D01*
X131436331Y-137932311D01*
X131556250Y-138039824D01*
X131660188Y-138165643D01*
X131739961Y-138298834D01*
X131787390Y-138428463D01*
X131797000Y-138506755D01*
X131772022Y-138647811D01*
X131698427Y-138788969D01*
X131604292Y-138900825D01*
X131473362Y-139032551D01*
X131485796Y-139319925D01*
X131490255Y-139452817D01*
X131489053Y-139550953D01*
X131480519Y-139630220D01*
X131462979Y-139706506D01*
X131436130Y-139791637D01*
X131374030Y-139975975D01*
X131604565Y-140099223D01*
X131707288Y-140153921D01*
X131841377Y-140225000D01*
X131993207Y-140305254D01*
X132149151Y-140387477D01*
X132240597Y-140435586D01*
X132379063Y-140510576D01*
X132508359Y-140584675D01*
X132618913Y-140652089D01*
X132701152Y-140707023D01*
X132739608Y-140737600D01*
X132827039Y-140851201D01*
X132871525Y-140977197D01*
X132876477Y-141107207D01*
X132845309Y-141232850D01*
X132781431Y-141345747D01*
X132688258Y-141437517D01*
X132569200Y-141499780D01*
X132427671Y-141524156D01*
X132419300Y-141524231D01*
X132351635Y-141518710D01*
X132268985Y-141500355D01*
X132162790Y-141466580D01*
X132024493Y-141414801D01*
X131924000Y-141374608D01*
X131797860Y-141323858D01*
X131689519Y-141281254D01*
X131607097Y-141249913D01*
X131558719Y-141232947D01*
X131549427Y-141230948D01*
X131549455Y-141257095D01*
X131555110Y-141321153D01*
X131565240Y-141410685D01*
X131568535Y-141437162D01*
X131586344Y-141550340D01*
X131606670Y-141620874D01*
X131632058Y-141656921D01*
X131638308Y-141660893D01*
X131677639Y-141690163D01*
X131738957Y-141744783D01*
X131809332Y-141813205D01*
X131812748Y-141816671D01*
X131937740Y-141978747D01*
X132022079Y-142165298D01*
X132064838Y-142369138D01*
X132065095Y-142583084D01*
X132021923Y-142799951D01*
X131960088Y-142961046D01*
X131845108Y-143149387D01*
X131695071Y-143302850D01*
X131514319Y-143417610D01*
X131383335Y-143469350D01*
X131359463Y-143478396D01*
X131354424Y-143485710D01*
X131372329Y-143491485D01*
X131417287Y-143495914D01*
X131493408Y-143499190D01*
X131604804Y-143501504D01*
X131755583Y-143503051D01*
X131949857Y-143504021D01*
X132133550Y-143504500D01*
X132990800Y-143506200D01*
X132990800Y-137791200D01*
X131174700Y-137791696D01*
G37*
X131174700Y-137791696D02*
X131308612Y-137854039D01*
X131436331Y-137932311D01*
X131556250Y-138039824D01*
X131660188Y-138165643D01*
X131739961Y-138298834D01*
X131787390Y-138428463D01*
X131797000Y-138506755D01*
X131772022Y-138647811D01*
X131698427Y-138788969D01*
X131604292Y-138900825D01*
X131473362Y-139032551D01*
X131485796Y-139319925D01*
X131490255Y-139452817D01*
X131489053Y-139550953D01*
X131480519Y-139630220D01*
X131462979Y-139706506D01*
X131436130Y-139791637D01*
X131374030Y-139975975D01*
X131604565Y-140099223D01*
X131707288Y-140153921D01*
X131841377Y-140225000D01*
X131993207Y-140305254D01*
X132149151Y-140387477D01*
X132240597Y-140435586D01*
X132379063Y-140510576D01*
X132508359Y-140584675D01*
X132618913Y-140652089D01*
X132701152Y-140707023D01*
X132739608Y-140737600D01*
X132827039Y-140851201D01*
X132871525Y-140977197D01*
X132876477Y-141107207D01*
X132845309Y-141232850D01*
X132781431Y-141345747D01*
X132688258Y-141437517D01*
X132569200Y-141499780D01*
X132427671Y-141524156D01*
X132419300Y-141524231D01*
X132351635Y-141518710D01*
X132268985Y-141500355D01*
X132162790Y-141466580D01*
X132024493Y-141414801D01*
X131924000Y-141374608D01*
X131797860Y-141323858D01*
X131689519Y-141281254D01*
X131607097Y-141249913D01*
X131558719Y-141232947D01*
X131549427Y-141230948D01*
X131549455Y-141257095D01*
X131555110Y-141321153D01*
X131565240Y-141410685D01*
X131568535Y-141437162D01*
X131586344Y-141550340D01*
X131606670Y-141620874D01*
X131632058Y-141656921D01*
X131638308Y-141660893D01*
X131677639Y-141690163D01*
X131738957Y-141744783D01*
X131809332Y-141813205D01*
X131812748Y-141816671D01*
X131937740Y-141978747D01*
X132022079Y-142165298D01*
X132064838Y-142369138D01*
X132065095Y-142583084D01*
X132021923Y-142799951D01*
X131960088Y-142961046D01*
X131845108Y-143149387D01*
X131695071Y-143302850D01*
X131514319Y-143417610D01*
X131383335Y-143469350D01*
X131359463Y-143478396D01*
X131354424Y-143485710D01*
X131372329Y-143491485D01*
X131417287Y-143495914D01*
X131493408Y-143499190D01*
X131604804Y-143501504D01*
X131755583Y-143503051D01*
X131949857Y-143504021D01*
X132133550Y-143504500D01*
X132990800Y-143506200D01*
X132990800Y-137791200D01*
X131174700Y-137791696D01*
G36*
X129660781Y-143239399D02*
G01*
X129518009Y-143364985D01*
X129359775Y-143452818D01*
X129269700Y-143482366D01*
X129276635Y-143486550D01*
X129329368Y-143490406D01*
X129422897Y-143493826D01*
X129552222Y-143496702D01*
X129712341Y-143498927D01*
X129898253Y-143500393D01*
X130104956Y-143500991D01*
X130133300Y-143501000D01*
X130342356Y-143500523D01*
X130531275Y-143499165D01*
X130695056Y-143497033D01*
X130828698Y-143494236D01*
X130927199Y-143490881D01*
X130985559Y-143487076D01*
X130998776Y-143482929D01*
X130996900Y-143482366D01*
X130835785Y-143419155D01*
X130682759Y-143313612D01*
X130605820Y-143239399D01*
X130496423Y-143120717D01*
X129770178Y-143120717D01*
X129660781Y-143239399D01*
G37*
X129660781Y-143239399D02*
X129518009Y-143364985D01*
X129359775Y-143452818D01*
X129269700Y-143482366D01*
X129276635Y-143486550D01*
X129329368Y-143490406D01*
X129422897Y-143493826D01*
X129552222Y-143496702D01*
X129712341Y-143498927D01*
X129898253Y-143500393D01*
X130104956Y-143500991D01*
X130133300Y-143501000D01*
X130342356Y-143500523D01*
X130531275Y-143499165D01*
X130695056Y-143497033D01*
X130828698Y-143494236D01*
X130927199Y-143490881D01*
X130985559Y-143487076D01*
X130998776Y-143482929D01*
X130996900Y-143482366D01*
X130835785Y-143419155D01*
X130682759Y-143313612D01*
X130605820Y-143239399D01*
X130496423Y-143120717D01*
X129770178Y-143120717D01*
X129660781Y-143239399D01*
G36*
X127275800Y-143506200D02*
G01*
X128133050Y-143504500D01*
X128363974Y-143503845D01*
X128548208Y-143502763D01*
X128689863Y-143501062D01*
X128793049Y-143498551D01*
X128861876Y-143495035D01*
X128900455Y-143490323D01*
X128912895Y-143484221D01*
X128903308Y-143476538D01*
X128883266Y-143469350D01*
X128694452Y-143385816D01*
X128533080Y-143266017D01*
X128400937Y-143116824D01*
X128299806Y-142945106D01*
X128231474Y-142757736D01*
X128197725Y-142561584D01*
X128200345Y-142363520D01*
X128241118Y-142170416D01*
X128321831Y-141989142D01*
X128444268Y-141826569D01*
X128453853Y-141816671D01*
X128524698Y-141747636D01*
X128587503Y-141691655D01*
X128629136Y-141660407D01*
X128630283Y-141659780D01*
X128657496Y-141631745D01*
X128678283Y-141574811D01*
X128695633Y-141479607D01*
X128701233Y-141437226D01*
X128711897Y-141343399D01*
X128718196Y-141271617D01*
X128719079Y-141234493D01*
X128718351Y-141232125D01*
X128693553Y-141238708D01*
X128629948Y-141261577D01*
X128535688Y-141297640D01*
X128418927Y-141343807D01*
X128342600Y-141374608D01*
X128181262Y-141438265D01*
X128057095Y-141482387D01*
X127961540Y-141509558D01*
X127886037Y-141522365D01*
X127847300Y-141524231D01*
X127704567Y-141502174D01*
X127584151Y-141441750D01*
X127489466Y-141351342D01*
X127423921Y-141239330D01*
X127390930Y-141114096D01*
X127393904Y-140984019D01*
X127436255Y-140857482D01*
X127521395Y-140742865D01*
X127527008Y-140737434D01*
X127574369Y-140701831D01*
X127660189Y-140646944D01*
X127777742Y-140576703D01*
X127920300Y-140495035D01*
X128081135Y-140405866D01*
X128253520Y-140313126D01*
X128256368Y-140311618D01*
X128892199Y-139974867D01*
X128830285Y-139791083D01*
X128802607Y-139702913D01*
X128785519Y-139626864D01*
X128777353Y-139547064D01*
X128776442Y-139447638D01*
X128780805Y-139319925D01*
X128793239Y-139032551D01*
X128662309Y-138900825D01*
X128550715Y-138762605D01*
X128486109Y-138621154D01*
X128469600Y-138506755D01*
X128491200Y-138385467D01*
X128550544Y-138253400D01*
X128639451Y-138121489D01*
X128749740Y-138000667D01*
X128873229Y-137901870D01*
X128957989Y-137854039D01*
X129091900Y-137791696D01*
X127275800Y-137791200D01*
X127275800Y-143506200D01*
G37*
X127275800Y-143506200D02*
X128133050Y-143504500D01*
X128363974Y-143503845D01*
X128548208Y-143502763D01*
X128689863Y-143501062D01*
X128793049Y-143498551D01*
X128861876Y-143495035D01*
X128900455Y-143490323D01*
X128912895Y-143484221D01*
X128903308Y-143476538D01*
X128883266Y-143469350D01*
X128694452Y-143385816D01*
X128533080Y-143266017D01*
X128400937Y-143116824D01*
X128299806Y-142945106D01*
X128231474Y-142757736D01*
X128197725Y-142561584D01*
X128200345Y-142363520D01*
X128241118Y-142170416D01*
X128321831Y-141989142D01*
X128444268Y-141826569D01*
X128453853Y-141816671D01*
X128524698Y-141747636D01*
X128587503Y-141691655D01*
X128629136Y-141660407D01*
X128630283Y-141659780D01*
X128657496Y-141631745D01*
X128678283Y-141574811D01*
X128695633Y-141479607D01*
X128701233Y-141437226D01*
X128711897Y-141343399D01*
X128718196Y-141271617D01*
X128719079Y-141234493D01*
X128718351Y-141232125D01*
X128693553Y-141238708D01*
X128629948Y-141261577D01*
X128535688Y-141297640D01*
X128418927Y-141343807D01*
X128342600Y-141374608D01*
X128181262Y-141438265D01*
X128057095Y-141482387D01*
X127961540Y-141509558D01*
X127886037Y-141522365D01*
X127847300Y-141524231D01*
X127704567Y-141502174D01*
X127584151Y-141441750D01*
X127489466Y-141351342D01*
X127423921Y-141239330D01*
X127390930Y-141114096D01*
X127393904Y-140984019D01*
X127436255Y-140857482D01*
X127521395Y-140742865D01*
X127527008Y-140737434D01*
X127574369Y-140701831D01*
X127660189Y-140646944D01*
X127777742Y-140576703D01*
X127920300Y-140495035D01*
X128081135Y-140405866D01*
X128253520Y-140313126D01*
X128256368Y-140311618D01*
X128892199Y-139974867D01*
X128830285Y-139791083D01*
X128802607Y-139702913D01*
X128785519Y-139626864D01*
X128777353Y-139547064D01*
X128776442Y-139447638D01*
X128780805Y-139319925D01*
X128793239Y-139032551D01*
X128662309Y-138900825D01*
X128550715Y-138762605D01*
X128486109Y-138621154D01*
X128469600Y-138506755D01*
X128491200Y-138385467D01*
X128550544Y-138253400D01*
X128639451Y-138121489D01*
X128749740Y-138000667D01*
X128873229Y-137901870D01*
X128957989Y-137854039D01*
X129091900Y-137791696D01*
X127275800Y-137791200D01*
X127275800Y-143506200D01*
G36*
X131079502Y-141828165D02*
G01*
X130937201Y-141903973D01*
X130828144Y-141999097D01*
X130718232Y-142143291D01*
X130644059Y-142301329D01*
X130603882Y-142466646D01*
X130595957Y-142632675D01*
X130618540Y-142792849D01*
X130669889Y-142940601D01*
X130748259Y-143069365D01*
X130851907Y-143172575D01*
X130979089Y-143243663D01*
X131128062Y-143276063D01*
X131167535Y-143277351D01*
X131257040Y-143265634D01*
X131359008Y-143236087D01*
X131403300Y-143217837D01*
X131558160Y-143118461D01*
X131684452Y-142981754D01*
X131777218Y-142815370D01*
X131831496Y-142626959D01*
X131841745Y-142541409D01*
X131835621Y-142352083D01*
X131792756Y-142185349D01*
X131718783Y-142044220D01*
X131619337Y-141931711D01*
X131500052Y-141850837D01*
X131366561Y-141804612D01*
X131224500Y-141796050D01*
X131079502Y-141828165D01*
G37*
X131079502Y-141828165D02*
X130937201Y-141903973D01*
X130828144Y-141999097D01*
X130718232Y-142143291D01*
X130644059Y-142301329D01*
X130603882Y-142466646D01*
X130595957Y-142632675D01*
X130618540Y-142792849D01*
X130669889Y-142940601D01*
X130748259Y-143069365D01*
X130851907Y-143172575D01*
X130979089Y-143243663D01*
X131128062Y-143276063D01*
X131167535Y-143277351D01*
X131257040Y-143265634D01*
X131359008Y-143236087D01*
X131403300Y-143217837D01*
X131558160Y-143118461D01*
X131684452Y-142981754D01*
X131777218Y-142815370D01*
X131831496Y-142626959D01*
X131841745Y-142541409D01*
X131835621Y-142352083D01*
X131792756Y-142185349D01*
X131718783Y-142044220D01*
X131619337Y-141931711D01*
X131500052Y-141850837D01*
X131366561Y-141804612D01*
X131224500Y-141796050D01*
X131079502Y-141828165D01*
G36*
X128856387Y-141814793D02*
G01*
X128718575Y-141876031D01*
X128598767Y-141979281D01*
X128543204Y-142053885D01*
X128466553Y-142201935D01*
X128428251Y-142351767D01*
X128423648Y-142522533D01*
X128424856Y-142541409D01*
X128457231Y-142722535D01*
X128523703Y-142885619D01*
X128618339Y-143026168D01*
X128735206Y-143139693D01*
X128868371Y-143221702D01*
X129011903Y-143267705D01*
X129159868Y-143273211D01*
X129306334Y-143233730D01*
X129326809Y-143224146D01*
X129460823Y-143131316D01*
X129562794Y-143006382D01*
X129632003Y-142857232D01*
X129667731Y-142691754D01*
X129669260Y-142517836D01*
X129635869Y-142343368D01*
X129566841Y-142176237D01*
X129461456Y-142024333D01*
X129438457Y-141999097D01*
X129303239Y-141887720D01*
X129156181Y-141820181D01*
X129004743Y-141796024D01*
X128856387Y-141814793D01*
G37*
X128856387Y-141814793D02*
X128718575Y-141876031D01*
X128598767Y-141979281D01*
X128543204Y-142053885D01*
X128466553Y-142201935D01*
X128428251Y-142351767D01*
X128423648Y-142522533D01*
X128424856Y-142541409D01*
X128457231Y-142722535D01*
X128523703Y-142885619D01*
X128618339Y-143026168D01*
X128735206Y-143139693D01*
X128868371Y-143221702D01*
X129011903Y-143267705D01*
X129159868Y-143273211D01*
X129306334Y-143233730D01*
X129326809Y-143224146D01*
X129460823Y-143131316D01*
X129562794Y-143006382D01*
X129632003Y-142857232D01*
X129667731Y-142691754D01*
X129669260Y-142517836D01*
X129635869Y-142343368D01*
X129566841Y-142176237D01*
X129461456Y-142024333D01*
X129438457Y-141999097D01*
X129303239Y-141887720D01*
X129156181Y-141820181D01*
X129004743Y-141796024D01*
X128856387Y-141814793D01*
G36*
X130051957Y-141231731D02*
G01*
X129910486Y-141269797D01*
X129781582Y-141343859D01*
X129673315Y-141453916D01*
X129601188Y-141581334D01*
X129569210Y-141678314D01*
X129569708Y-141755518D01*
X129605688Y-141831945D01*
X129650150Y-141890968D01*
X129766357Y-142062318D01*
X129841843Y-142247259D01*
X129880832Y-142457286D01*
X129886371Y-142533261D01*
X129888835Y-142662426D01*
X129883391Y-142770903D01*
X129870802Y-142844428D01*
X129869455Y-142848529D01*
X129852027Y-142904837D01*
X129846919Y-142934940D01*
X129847436Y-142935971D01*
X129878090Y-142942635D01*
X129945458Y-142948760D01*
X130035458Y-142953776D01*
X130134004Y-142957111D01*
X130227012Y-142958193D01*
X130300397Y-142956452D01*
X130318680Y-142955086D01*
X130385844Y-142945958D01*
X130413281Y-142930917D01*
X130412009Y-142901737D01*
X130407580Y-142888729D01*
X130399170Y-142840642D01*
X130392683Y-142755381D01*
X130388931Y-142646562D01*
X130388353Y-142566400D01*
X130390380Y-142438782D01*
X130397036Y-142346256D01*
X130410964Y-142273153D01*
X130434811Y-142203802D01*
X130458754Y-142149243D01*
X130512115Y-142047632D01*
X130575681Y-141946155D01*
X130616451Y-141890968D01*
X130677407Y-141804695D01*
X130700905Y-141730141D01*
X130689951Y-141648307D01*
X130665413Y-141581334D01*
X130582139Y-141439422D01*
X130471087Y-141333506D01*
X130340326Y-141263585D01*
X130197927Y-141229660D01*
X130051957Y-141231731D01*
G37*
X130051957Y-141231731D02*
X129910486Y-141269797D01*
X129781582Y-141343859D01*
X129673315Y-141453916D01*
X129601188Y-141581334D01*
X129569210Y-141678314D01*
X129569708Y-141755518D01*
X129605688Y-141831945D01*
X129650150Y-141890968D01*
X129766357Y-142062318D01*
X129841843Y-142247259D01*
X129880832Y-142457286D01*
X129886371Y-142533261D01*
X129888835Y-142662426D01*
X129883391Y-142770903D01*
X129870802Y-142844428D01*
X129869455Y-142848529D01*
X129852027Y-142904837D01*
X129846919Y-142934940D01*
X129847436Y-142935971D01*
X129878090Y-142942635D01*
X129945458Y-142948760D01*
X130035458Y-142953776D01*
X130134004Y-142957111D01*
X130227012Y-142958193D01*
X130300397Y-142956452D01*
X130318680Y-142955086D01*
X130385844Y-142945958D01*
X130413281Y-142930917D01*
X130412009Y-142901737D01*
X130407580Y-142888729D01*
X130399170Y-142840642D01*
X130392683Y-142755381D01*
X130388931Y-142646562D01*
X130388353Y-142566400D01*
X130390380Y-142438782D01*
X130397036Y-142346256D01*
X130410964Y-142273153D01*
X130434811Y-142203802D01*
X130458754Y-142149243D01*
X130512115Y-142047632D01*
X130575681Y-141946155D01*
X130616451Y-141890968D01*
X130677407Y-141804695D01*
X130700905Y-141730141D01*
X130689951Y-141648307D01*
X130665413Y-141581334D01*
X130582139Y-141439422D01*
X130471087Y-141333506D01*
X130340326Y-141263585D01*
X130197927Y-141229660D01*
X130051957Y-141231731D01*
G36*
X131095432Y-140349935D02*
G01*
X130938948Y-140489246D01*
X130784449Y-140591542D01*
X130614551Y-140666769D01*
X130461330Y-140712755D01*
X130270094Y-140751075D01*
X130097008Y-140759648D01*
X129919044Y-140738473D01*
X129805271Y-140712755D01*
X129610915Y-140651425D01*
X129445552Y-140570589D01*
X129291729Y-140460271D01*
X129171823Y-140350589D01*
X129096616Y-140277061D01*
X129036156Y-140219252D01*
X128998624Y-140184913D01*
X128990522Y-140178800D01*
X128967070Y-140190161D01*
X128904588Y-140222204D01*
X128808954Y-140271865D01*
X128686046Y-140336080D01*
X128541745Y-140411786D01*
X128381927Y-140495919D01*
X128377200Y-140498412D01*
X128164366Y-140611816D01*
X127993180Y-140706267D01*
X127859553Y-140784921D01*
X127759399Y-140850933D01*
X127688627Y-140907460D01*
X127643150Y-140957656D01*
X127618880Y-141004679D01*
X127611728Y-141051684D01*
X127614820Y-141086906D01*
X127641314Y-141167230D01*
X127684864Y-141235728D01*
X127685622Y-141236542D01*
X127727672Y-141271561D01*
X127778256Y-141291066D01*
X127843591Y-141293996D01*
X127929895Y-141279291D01*
X128043384Y-141245891D01*
X128190274Y-141192735D01*
X128376784Y-141118763D01*
X128377186Y-141118600D01*
X128519259Y-141062002D01*
X128648176Y-141012844D01*
X128755400Y-140974208D01*
X128832393Y-140949174D01*
X128869723Y-140940800D01*
X128915298Y-140949746D01*
X128944172Y-140981016D01*
X128957724Y-141041260D01*
X128957331Y-141137125D01*
X128944372Y-141275259D01*
X128942436Y-141291670D01*
X128930598Y-141400876D01*
X128923237Y-141489972D01*
X128921136Y-141547814D01*
X128923297Y-141563829D01*
X128953890Y-141571251D01*
X129016131Y-141575449D01*
X129042140Y-141575800D01*
X129140039Y-141585121D01*
X129239520Y-141607958D01*
X129251354Y-141611907D01*
X129353694Y-141648015D01*
X129369157Y-141565592D01*
X129413447Y-141443245D01*
X129495351Y-141317619D01*
X129604078Y-141200855D01*
X129728838Y-141105089D01*
X129821997Y-141056180D01*
X130003511Y-141005775D01*
X130188422Y-141000222D01*
X130368660Y-141035988D01*
X130536152Y-141109543D01*
X130682829Y-141217354D01*
X130800620Y-141355890D01*
X130880722Y-141519450D01*
X130922611Y-141643188D01*
X131010556Y-141611426D01*
X131089639Y-141592085D01*
X131188360Y-141579753D01*
X131232151Y-141577732D01*
X131365801Y-141575800D01*
X131352087Y-141480550D01*
X131327360Y-141301803D01*
X131311896Y-141167037D01*
X131306199Y-141070192D01*
X131310771Y-141005211D01*
X131326115Y-140966033D01*
X131352733Y-140946602D01*
X131391129Y-140940857D01*
X131396878Y-140940800D01*
X131437324Y-140950090D01*
X131516096Y-140975905D01*
X131624656Y-141015164D01*
X131754466Y-141064783D01*
X131889415Y-141118600D01*
X132076007Y-141192612D01*
X132222968Y-141245807D01*
X132336515Y-141279245D01*
X132422865Y-141293985D01*
X132488235Y-141291088D01*
X132538842Y-141271614D01*
X132580902Y-141236624D01*
X132580979Y-141236542D01*
X132624658Y-141168559D01*
X132651580Y-141088120D01*
X132651781Y-141086906D01*
X132654421Y-141037972D01*
X132643012Y-140991396D01*
X132613465Y-140944044D01*
X132561691Y-140892785D01*
X132483602Y-140834484D01*
X132375109Y-140766010D01*
X132232124Y-140684228D01*
X132050556Y-140586007D01*
X131882832Y-140497696D01*
X131270164Y-140177491D01*
X131095432Y-140349935D01*
G37*
X131095432Y-140349935D02*
X130938948Y-140489246D01*
X130784449Y-140591542D01*
X130614551Y-140666769D01*
X130461330Y-140712755D01*
X130270094Y-140751075D01*
X130097008Y-140759648D01*
X129919044Y-140738473D01*
X129805271Y-140712755D01*
X129610915Y-140651425D01*
X129445552Y-140570589D01*
X129291729Y-140460271D01*
X129171823Y-140350589D01*
X129096616Y-140277061D01*
X129036156Y-140219252D01*
X128998624Y-140184913D01*
X128990522Y-140178800D01*
X128967070Y-140190161D01*
X128904588Y-140222204D01*
X128808954Y-140271865D01*
X128686046Y-140336080D01*
X128541745Y-140411786D01*
X128381927Y-140495919D01*
X128377200Y-140498412D01*
X128164366Y-140611816D01*
X127993180Y-140706267D01*
X127859553Y-140784921D01*
X127759399Y-140850933D01*
X127688627Y-140907460D01*
X127643150Y-140957656D01*
X127618880Y-141004679D01*
X127611728Y-141051684D01*
X127614820Y-141086906D01*
X127641314Y-141167230D01*
X127684864Y-141235728D01*
X127685622Y-141236542D01*
X127727672Y-141271561D01*
X127778256Y-141291066D01*
X127843591Y-141293996D01*
X127929895Y-141279291D01*
X128043384Y-141245891D01*
X128190274Y-141192735D01*
X128376784Y-141118763D01*
X128377186Y-141118600D01*
X128519259Y-141062002D01*
X128648176Y-141012844D01*
X128755400Y-140974208D01*
X128832393Y-140949174D01*
X128869723Y-140940800D01*
X128915298Y-140949746D01*
X128944172Y-140981016D01*
X128957724Y-141041260D01*
X128957331Y-141137125D01*
X128944372Y-141275259D01*
X128942436Y-141291670D01*
X128930598Y-141400876D01*
X128923237Y-141489972D01*
X128921136Y-141547814D01*
X128923297Y-141563829D01*
X128953890Y-141571251D01*
X129016131Y-141575449D01*
X129042140Y-141575800D01*
X129140039Y-141585121D01*
X129239520Y-141607958D01*
X129251354Y-141611907D01*
X129353694Y-141648015D01*
X129369157Y-141565592D01*
X129413447Y-141443245D01*
X129495351Y-141317619D01*
X129604078Y-141200855D01*
X129728838Y-141105089D01*
X129821997Y-141056180D01*
X130003511Y-141005775D01*
X130188422Y-141000222D01*
X130368660Y-141035988D01*
X130536152Y-141109543D01*
X130682829Y-141217354D01*
X130800620Y-141355890D01*
X130880722Y-141519450D01*
X130922611Y-141643188D01*
X131010556Y-141611426D01*
X131089639Y-141592085D01*
X131188360Y-141579753D01*
X131232151Y-141577732D01*
X131365801Y-141575800D01*
X131352087Y-141480550D01*
X131327360Y-141301803D01*
X131311896Y-141167037D01*
X131306199Y-141070192D01*
X131310771Y-141005211D01*
X131326115Y-140966033D01*
X131352733Y-140946602D01*
X131391129Y-140940857D01*
X131396878Y-140940800D01*
X131437324Y-140950090D01*
X131516096Y-140975905D01*
X131624656Y-141015164D01*
X131754466Y-141064783D01*
X131889415Y-141118600D01*
X132076007Y-141192612D01*
X132222968Y-141245807D01*
X132336515Y-141279245D01*
X132422865Y-141293985D01*
X132488235Y-141291088D01*
X132538842Y-141271614D01*
X132580902Y-141236624D01*
X132580979Y-141236542D01*
X132624658Y-141168559D01*
X132651580Y-141088120D01*
X132651781Y-141086906D01*
X132654421Y-141037972D01*
X132643012Y-140991396D01*
X132613465Y-140944044D01*
X132561691Y-140892785D01*
X132483602Y-140834484D01*
X132375109Y-140766010D01*
X132232124Y-140684228D01*
X132050556Y-140586007D01*
X131882832Y-140497696D01*
X131270164Y-140177491D01*
X131095432Y-140349935D01*
G36*
X129972107Y-139187177D02*
G01*
X129843172Y-139223445D01*
X129731912Y-139290995D01*
X129647089Y-139370124D01*
X129543478Y-139512739D01*
X129476980Y-139675014D01*
X129449954Y-139845381D01*
X129464761Y-140012274D01*
X129496236Y-140109515D01*
X129566408Y-140228251D01*
X129666653Y-140343327D01*
X129779426Y-140435936D01*
X129826768Y-140463845D01*
X129919941Y-140496593D01*
X130039266Y-140518691D01*
X130164214Y-140528144D01*
X130274256Y-140522955D01*
X130323965Y-140512188D01*
X130484225Y-140435363D01*
X130625002Y-140321139D01*
X130733995Y-140180612D01*
X130770365Y-140109515D01*
X130812467Y-139950649D01*
X130811264Y-139781092D01*
X130769116Y-139612411D01*
X130757274Y-139589493D01*
X130471922Y-139589493D01*
X130471853Y-139650905D01*
X130450017Y-139727121D01*
X130386596Y-139837878D01*
X130289899Y-139913656D01*
X130168306Y-139948551D01*
X130133300Y-139950200D01*
X130005891Y-139926376D01*
X129940207Y-139892221D01*
X129855848Y-139806322D01*
X129816584Y-139727121D01*
X129794679Y-139650506D01*
X129794748Y-139589094D01*
X129816584Y-139512878D01*
X129876763Y-139405937D01*
X129963866Y-139333502D01*
X130067536Y-139295571D01*
X130177413Y-139292146D01*
X130283140Y-139323225D01*
X130374357Y-139388810D01*
X130440706Y-139488899D01*
X130450017Y-139512878D01*
X130471922Y-139589493D01*
X130757274Y-139589493D01*
X130688383Y-139456173D01*
X130619512Y-139370124D01*
X130511907Y-139273811D01*
X130398125Y-139213362D01*
X130263583Y-139182965D01*
X130133300Y-139176379D01*
X129972107Y-139187177D01*
G37*
X129972107Y-139187177D02*
X129843172Y-139223445D01*
X129731912Y-139290995D01*
X129647089Y-139370124D01*
X129543478Y-139512739D01*
X129476980Y-139675014D01*
X129449954Y-139845381D01*
X129464761Y-140012274D01*
X129496236Y-140109515D01*
X129566408Y-140228251D01*
X129666653Y-140343327D01*
X129779426Y-140435936D01*
X129826768Y-140463845D01*
X129919941Y-140496593D01*
X130039266Y-140518691D01*
X130164214Y-140528144D01*
X130274256Y-140522955D01*
X130323965Y-140512188D01*
X130484225Y-140435363D01*
X130625002Y-140321139D01*
X130733995Y-140180612D01*
X130770365Y-140109515D01*
X130812467Y-139950649D01*
X130811264Y-139781092D01*
X130769116Y-139612411D01*
X130757274Y-139589493D01*
X130471922Y-139589493D01*
X130471853Y-139650905D01*
X130450017Y-139727121D01*
X130386596Y-139837878D01*
X130289899Y-139913656D01*
X130168306Y-139948551D01*
X130133300Y-139950200D01*
X130005891Y-139926376D01*
X129940207Y-139892221D01*
X129855848Y-139806322D01*
X129816584Y-139727121D01*
X129794679Y-139650506D01*
X129794748Y-139589094D01*
X129816584Y-139512878D01*
X129876763Y-139405937D01*
X129963866Y-139333502D01*
X130067536Y-139295571D01*
X130177413Y-139292146D01*
X130283140Y-139323225D01*
X130374357Y-139388810D01*
X130440706Y-139488899D01*
X130450017Y-139512878D01*
X130471922Y-139589493D01*
X130757274Y-139589493D01*
X130688383Y-139456173D01*
X130619512Y-139370124D01*
X130511907Y-139273811D01*
X130398125Y-139213362D01*
X130263583Y-139182965D01*
X130133300Y-139176379D01*
X129972107Y-139187177D01*
G36*
X129962743Y-138263015D02*
G01*
X129911826Y-138272304D01*
X129687457Y-138342889D01*
X129489319Y-138452539D01*
X129320297Y-138595485D01*
X129183274Y-138765959D01*
X129081134Y-138958192D01*
X129016761Y-139166413D01*
X128993040Y-139384854D01*
X129012854Y-139607746D01*
X129079088Y-139829320D01*
X129104692Y-139886891D01*
X129158460Y-139994837D01*
X129196569Y-140056322D01*
X129221624Y-140070473D01*
X129236230Y-140036417D01*
X129242992Y-139953283D01*
X129244522Y-139840042D01*
X129246255Y-139714574D01*
X129252756Y-139625458D01*
X129266365Y-139558305D01*
X129289420Y-139498727D01*
X129305052Y-139467600D01*
X129401406Y-139311140D01*
X129506362Y-139187038D01*
X129598874Y-139112634D01*
X129684813Y-139059521D01*
X129623307Y-138998015D01*
X129580693Y-138940500D01*
X129561850Y-138885582D01*
X129561800Y-138883400D01*
X129581632Y-138824625D01*
X129629797Y-138763811D01*
X129689302Y-138718626D01*
X129732794Y-138705600D01*
X129812988Y-138728307D01*
X129870650Y-138787172D01*
X129892000Y-138865790D01*
X129892000Y-138946900D01*
X130374600Y-138946900D01*
X130374600Y-138865790D01*
X130397169Y-138785101D01*
X130455672Y-138727082D01*
X130533807Y-138705600D01*
X130590331Y-138726220D01*
X130648818Y-138776302D01*
X130692272Y-138838176D01*
X130704800Y-138883400D01*
X130687543Y-138937453D01*
X130645764Y-138995502D01*
X130643294Y-138998015D01*
X130581788Y-139059521D01*
X130667727Y-139112634D01*
X130773673Y-139200572D01*
X130877983Y-139329284D01*
X130961549Y-139467600D01*
X130990014Y-139528397D01*
X131007978Y-139589589D01*
X131017746Y-139665443D01*
X131021624Y-139770227D01*
X131022079Y-139842221D01*
X131022715Y-139950285D01*
X131024256Y-140036442D01*
X131026450Y-140090068D01*
X131028290Y-140102571D01*
X131044478Y-140083504D01*
X131078608Y-140035183D01*
X131098417Y-140005682D01*
X131190912Y-139823742D01*
X131249177Y-139616882D01*
X131271538Y-139399182D01*
X131256319Y-139184718D01*
X131215315Y-139023100D01*
X131115981Y-138813160D01*
X130979363Y-138630814D01*
X130811909Y-138479777D01*
X130620071Y-138363763D01*
X130410297Y-138286488D01*
X130189038Y-138251667D01*
X129962743Y-138263015D01*
G37*
X129962743Y-138263015D02*
X129911826Y-138272304D01*
X129687457Y-138342889D01*
X129489319Y-138452539D01*
X129320297Y-138595485D01*
X129183274Y-138765959D01*
X129081134Y-138958192D01*
X129016761Y-139166413D01*
X128993040Y-139384854D01*
X129012854Y-139607746D01*
X129079088Y-139829320D01*
X129104692Y-139886891D01*
X129158460Y-139994837D01*
X129196569Y-140056322D01*
X129221624Y-140070473D01*
X129236230Y-140036417D01*
X129242992Y-139953283D01*
X129244522Y-139840042D01*
X129246255Y-139714574D01*
X129252756Y-139625458D01*
X129266365Y-139558305D01*
X129289420Y-139498727D01*
X129305052Y-139467600D01*
X129401406Y-139311140D01*
X129506362Y-139187038D01*
X129598874Y-139112634D01*
X129684813Y-139059521D01*
X129623307Y-138998015D01*
X129580693Y-138940500D01*
X129561850Y-138885582D01*
X129561800Y-138883400D01*
X129581632Y-138824625D01*
X129629797Y-138763811D01*
X129689302Y-138718626D01*
X129732794Y-138705600D01*
X129812988Y-138728307D01*
X129870650Y-138787172D01*
X129892000Y-138865790D01*
X129892000Y-138946900D01*
X130374600Y-138946900D01*
X130374600Y-138865790D01*
X130397169Y-138785101D01*
X130455672Y-138727082D01*
X130533807Y-138705600D01*
X130590331Y-138726220D01*
X130648818Y-138776302D01*
X130692272Y-138838176D01*
X130704800Y-138883400D01*
X130687543Y-138937453D01*
X130645764Y-138995502D01*
X130643294Y-138998015D01*
X130581788Y-139059521D01*
X130667727Y-139112634D01*
X130773673Y-139200572D01*
X130877983Y-139329284D01*
X130961549Y-139467600D01*
X130990014Y-139528397D01*
X131007978Y-139589589D01*
X131017746Y-139665443D01*
X131021624Y-139770227D01*
X131022079Y-139842221D01*
X131022715Y-139950285D01*
X131024256Y-140036442D01*
X131026450Y-140090068D01*
X131028290Y-140102571D01*
X131044478Y-140083504D01*
X131078608Y-140035183D01*
X131098417Y-140005682D01*
X131190912Y-139823742D01*
X131249177Y-139616882D01*
X131271538Y-139399182D01*
X131256319Y-139184718D01*
X131215315Y-139023100D01*
X131115981Y-138813160D01*
X130979363Y-138630814D01*
X130811909Y-138479777D01*
X130620071Y-138363763D01*
X130410297Y-138286488D01*
X130189038Y-138251667D01*
X129962743Y-138263015D01*
G36*
X131016877Y-138034722D02*
G01*
X130897137Y-138087947D01*
X130867031Y-138109166D01*
X130777163Y-138177711D01*
X130901654Y-138261548D01*
X131012313Y-138348591D01*
X131125656Y-138458633D01*
X131227530Y-138576373D01*
X131303784Y-138686509D01*
X131316963Y-138710623D01*
X131350295Y-138769863D01*
X131375496Y-138803952D01*
X131380926Y-138807200D01*
X131405735Y-138790321D01*
X131450483Y-138747959D01*
X131469570Y-138728035D01*
X131520691Y-138662545D01*
X131555111Y-138598989D01*
X131559292Y-138586034D01*
X131560379Y-138486159D01*
X131522744Y-138373507D01*
X131452771Y-138258664D01*
X131356848Y-138152213D01*
X131246754Y-138068037D01*
X131136083Y-138027796D01*
X131016877Y-138034722D01*
G37*
X131016877Y-138034722D02*
X130897137Y-138087947D01*
X130867031Y-138109166D01*
X130777163Y-138177711D01*
X130901654Y-138261548D01*
X131012313Y-138348591D01*
X131125656Y-138458633D01*
X131227530Y-138576373D01*
X131303784Y-138686509D01*
X131316963Y-138710623D01*
X131350295Y-138769863D01*
X131375496Y-138803952D01*
X131380926Y-138807200D01*
X131405735Y-138790321D01*
X131450483Y-138747959D01*
X131469570Y-138728035D01*
X131520691Y-138662545D01*
X131555111Y-138598989D01*
X131559292Y-138586034D01*
X131560379Y-138486159D01*
X131522744Y-138373507D01*
X131452771Y-138258664D01*
X131356848Y-138152213D01*
X131246754Y-138068037D01*
X131136083Y-138027796D01*
X131016877Y-138034722D01*
G36*
X129052196Y-138050434D02*
G01*
X129023743Y-138065806D01*
X128906288Y-138156323D01*
X128807793Y-138265985D01*
X128736535Y-138382981D01*
X128700792Y-138495501D01*
X128698200Y-138530336D01*
X128715097Y-138598542D01*
X128756969Y-138678551D01*
X128810587Y-138748681D01*
X128852107Y-138782606D01*
X128885921Y-138792044D01*
X128914311Y-138771337D01*
X128949000Y-138711872D01*
X128949390Y-138711108D01*
X129017468Y-138604714D01*
X129114655Y-138487063D01*
X129226774Y-138373490D01*
X129339650Y-138279331D01*
X129364947Y-138261548D01*
X129489438Y-138177711D01*
X129399570Y-138109166D01*
X129282552Y-138044869D01*
X129163604Y-138024927D01*
X129052196Y-138050434D01*
G37*
X129052196Y-138050434D02*
X129023743Y-138065806D01*
X128906288Y-138156323D01*
X128807793Y-138265985D01*
X128736535Y-138382981D01*
X128700792Y-138495501D01*
X128698200Y-138530336D01*
X128715097Y-138598542D01*
X128756969Y-138678551D01*
X128810587Y-138748681D01*
X128852107Y-138782606D01*
X128885921Y-138792044D01*
X128914311Y-138771337D01*
X128949000Y-138711872D01*
X128949390Y-138711108D01*
X129017468Y-138604714D01*
X129114655Y-138487063D01*
X129226774Y-138373490D01*
X129339650Y-138279331D01*
X129364947Y-138261548D01*
X129489438Y-138177711D01*
X129399570Y-138109166D01*
X129282552Y-138044869D01*
X129163604Y-138024927D01*
X129052196Y-138050434D01*
G36*
X130133300Y-137794498D02*
G01*
X129929799Y-137795268D01*
X129746202Y-137796986D01*
X129587720Y-137799522D01*
X129459566Y-137802746D01*
X129366951Y-137806531D01*
X129315085Y-137810746D01*
X129307965Y-137814932D01*
X129463065Y-137882770D01*
X129597296Y-137980991D01*
X129627851Y-138011779D01*
X129680079Y-138063792D01*
X129718799Y-138082943D01*
X129761898Y-138076309D01*
X129777123Y-138070819D01*
X129890214Y-138043008D01*
X130034649Y-138029033D01*
X130192977Y-138028601D01*
X130347747Y-138041422D01*
X130481508Y-138067203D01*
X130531460Y-138083443D01*
X130577469Y-138077948D01*
X130616638Y-138034939D01*
X130685722Y-137961785D01*
X130790004Y-137890860D01*
X130914477Y-137832144D01*
X130930410Y-137826266D01*
X130948917Y-137817505D01*
X130947682Y-137810431D01*
X130922659Y-137804883D01*
X130869806Y-137800700D01*
X130785075Y-137797721D01*
X130664424Y-137795785D01*
X130503808Y-137794731D01*
X130299181Y-137794396D01*
X130133300Y-137794498D01*
G37*
X130133300Y-137794498D02*
X129929799Y-137795268D01*
X129746202Y-137796986D01*
X129587720Y-137799522D01*
X129459566Y-137802746D01*
X129366951Y-137806531D01*
X129315085Y-137810746D01*
X129307965Y-137814932D01*
X129463065Y-137882770D01*
X129597296Y-137980991D01*
X129627851Y-138011779D01*
X129680079Y-138063792D01*
X129718799Y-138082943D01*
X129761898Y-138076309D01*
X129777123Y-138070819D01*
X129890214Y-138043008D01*
X130034649Y-138029033D01*
X130192977Y-138028601D01*
X130347747Y-138041422D01*
X130481508Y-138067203D01*
X130531460Y-138083443D01*
X130577469Y-138077948D01*
X130616638Y-138034939D01*
X130685722Y-137961785D01*
X130790004Y-137890860D01*
X130914477Y-137832144D01*
X130930410Y-137826266D01*
X130948917Y-137817505D01*
X130947682Y-137810431D01*
X130922659Y-137804883D01*
X130869806Y-137800700D01*
X130785075Y-137797721D01*
X130664424Y-137795785D01*
X130503808Y-137794731D01*
X130299181Y-137794396D01*
X130133300Y-137794498D01*
D13*
X130144000Y-146422000D02*
X128684000Y-146422000D01*
X130144000Y-149582000D02*
X127984000Y-149582000D01*
X130144000Y-149582000D02*
X130144000Y-148652000D01*
X130144000Y-146422000D02*
X130144000Y-147352000D01*
X122274000Y-159488000D02*
X123734000Y-159488000D01*
X122274000Y-156328000D02*
X124434000Y-156328000D01*
X122274000Y-156328000D02*
X122274000Y-157258000D01*
X122274000Y-159488000D02*
X122274000Y-158558000D01*
X127359252Y-157602000D02*
X126836748Y-157602000D01*
X127359252Y-156182000D02*
X126836748Y-156182000D01*
X107778000Y-138548000D02*
X105093000Y-138548000D01*
X105093000Y-138548000D02*
X105093000Y-136628000D01*
X105093000Y-136628000D02*
X107778000Y-136628000D01*
X122781748Y-131440000D02*
X123304252Y-131440000D01*
X122781748Y-130020000D02*
X123304252Y-130020000D01*
X122772748Y-133472000D02*
X123295252Y-133472000D01*
X122772748Y-132052000D02*
X123295252Y-132052000D01*
X125141000Y-148263252D02*
X125141000Y-147740748D01*
X123721000Y-148263252D02*
X123721000Y-147740748D01*
X125336000Y-105366000D02*
X127336000Y-105366000D01*
X127336000Y-105366000D02*
X127336000Y-109266000D01*
X125336000Y-105366000D02*
X125336000Y-109266000D01*
X127876000Y-105366000D02*
X129876000Y-105366000D01*
X129876000Y-105366000D02*
X129876000Y-109266000D01*
X127876000Y-105366000D02*
X127876000Y-109266000D01*
X130416000Y-105366000D02*
X132416000Y-105366000D01*
X132416000Y-105366000D02*
X132416000Y-109266000D01*
X130416000Y-105366000D02*
X130416000Y-109266000D01*
X132500400Y-155631200D02*
X132500400Y-150431200D01*
X132500400Y-150431200D02*
X135160400Y-150431200D01*
X135160400Y-150431200D02*
X135160400Y-155631200D01*
X135160400Y-155631200D02*
X132500400Y-155631200D01*
X135160400Y-154681200D02*
X141160400Y-154681200D01*
X141160400Y-154681200D02*
X141160400Y-153921200D01*
X141160400Y-153921200D02*
X135160400Y-153921200D01*
X135160400Y-154621200D02*
X141160400Y-154621200D01*
X135160400Y-154501200D02*
X141160400Y-154501200D01*
X135160400Y-154381200D02*
X141160400Y-154381200D01*
X135160400Y-154261200D02*
X141160400Y-154261200D01*
X135160400Y-154141200D02*
X141160400Y-154141200D01*
X135160400Y-154021200D02*
X141160400Y-154021200D01*
X132170400Y-154681200D02*
X132500400Y-154681200D01*
X132170400Y-153921200D02*
X132500400Y-153921200D01*
X132500400Y-153031200D02*
X135160400Y-153031200D01*
X135160400Y-152141200D02*
X141160400Y-152141200D01*
X141160400Y-152141200D02*
X141160400Y-151381200D01*
X141160400Y-151381200D02*
X135160400Y-151381200D01*
X132103329Y-152141200D02*
X132500400Y-152141200D01*
X132103329Y-151381200D02*
X132500400Y-151381200D01*
X129790400Y-154301200D02*
X129790400Y-155571200D01*
X129790400Y-155571200D02*
X131060400Y-155571200D01*
X132440000Y-162330000D02*
X132440000Y-157130000D01*
X132440000Y-157130000D02*
X135100000Y-157130000D01*
X135100000Y-157130000D02*
X135100000Y-162330000D01*
X135100000Y-162330000D02*
X132440000Y-162330000D01*
X135100000Y-161380000D02*
X141100000Y-161380000D01*
X141100000Y-161380000D02*
X141100000Y-160620000D01*
X141100000Y-160620000D02*
X135100000Y-160620000D01*
X135100000Y-161320000D02*
X141100000Y-161320000D01*
X135100000Y-161200000D02*
X141100000Y-161200000D01*
X135100000Y-161080000D02*
X141100000Y-161080000D01*
X135100000Y-160960000D02*
X141100000Y-160960000D01*
X135100000Y-160840000D02*
X141100000Y-160840000D01*
X135100000Y-160720000D02*
X141100000Y-160720000D01*
X132110000Y-161380000D02*
X132440000Y-161380000D01*
X132110000Y-160620000D02*
X132440000Y-160620000D01*
X132440000Y-159730000D02*
X135100000Y-159730000D01*
X135100000Y-158840000D02*
X141100000Y-158840000D01*
X141100000Y-158840000D02*
X141100000Y-158080000D01*
X141100000Y-158080000D02*
X135100000Y-158080000D01*
X132042929Y-158840000D02*
X132440000Y-158840000D01*
X132042929Y-158080000D02*
X132440000Y-158080000D01*
X129730000Y-161000000D02*
X129730000Y-162270000D01*
X129730000Y-162270000D02*
X131000000Y-162270000D01*
X122832000Y-161456748D02*
X122832000Y-161979252D01*
X124252000Y-161456748D02*
X124252000Y-161979252D01*
X120546000Y-161456748D02*
X120546000Y-161979252D01*
X121966000Y-161456748D02*
X121966000Y-161979252D01*
X114250000Y-105760000D02*
X114500000Y-105260000D01*
X114750000Y-105760000D02*
X114250000Y-105760000D01*
X114500000Y-105260000D02*
X114750000Y-105760000D01*
X102408000Y-149533252D02*
X102408000Y-149010748D01*
X100988000Y-149533252D02*
X100988000Y-149010748D01*
X109116000Y-129960748D02*
X109116000Y-130483252D01*
X110536000Y-129960748D02*
X110536000Y-130483252D01*
X106581000Y-111200000D02*
X106881000Y-111500000D01*
X106881000Y-110900000D02*
X106881000Y-111500000D01*
X106581000Y-111200000D02*
X106881000Y-110900000D01*
X106381000Y-110450000D02*
X104381000Y-110450000D01*
X106381000Y-114550000D02*
X106381000Y-110450000D01*
X104381000Y-114550000D02*
X106381000Y-114550000D01*
X104381000Y-110450000D02*
X104381000Y-114550000D01*
X123086000Y-107998748D02*
X123086000Y-108521252D01*
X124506000Y-107998748D02*
X124506000Y-108521252D01*
X115974000Y-145596252D02*
X115974000Y-145073748D01*
X117394000Y-145596252D02*
X117394000Y-145073748D01*
X126700748Y-158468000D02*
X127223252Y-158468000D01*
X126700748Y-159888000D02*
X127223252Y-159888000D01*
X120673000Y-107980748D02*
X120673000Y-108503252D01*
X122093000Y-107980748D02*
X122093000Y-108503252D01*
X112441000Y-153978252D02*
X112441000Y-153455748D01*
X111021000Y-153978252D02*
X111021000Y-153455748D01*
X127223252Y-154150000D02*
X126700748Y-154150000D01*
X127223252Y-155570000D02*
X126700748Y-155570000D01*
X108989000Y-153978252D02*
X108989000Y-153455748D01*
X110409000Y-153978252D02*
X110409000Y-153455748D01*
X122093000Y-145082748D02*
X122093000Y-145605252D01*
X120673000Y-145082748D02*
X120673000Y-145605252D01*
X119680000Y-145064748D02*
X119680000Y-145587252D01*
X118260000Y-145064748D02*
X118260000Y-145587252D01*
X127241252Y-160500000D02*
X126718748Y-160500000D01*
X127241252Y-161920000D02*
X126718748Y-161920000D01*
X123721000Y-152209252D02*
X123721000Y-151686748D01*
X125141000Y-152209252D02*
X125141000Y-151686748D01*
X121902000Y-155835000D02*
X119452000Y-155835000D01*
X120102000Y-152615000D02*
X121902000Y-152615000D01*
X129387000Y-127908000D02*
X129387000Y-128808000D01*
X129737000Y-127908000D02*
X129387000Y-127908000D01*
X113537000Y-111708000D02*
X113937000Y-111708000D01*
X113537000Y-127908000D02*
X113537000Y-111708000D01*
X113937000Y-127908000D02*
X113537000Y-127908000D01*
X129737000Y-111708000D02*
X129337000Y-111708000D01*
X129737000Y-127908000D02*
X129737000Y-111708000D01*
X127427000Y-151668748D02*
X127427000Y-152191252D01*
X126007000Y-151668748D02*
X126007000Y-152191252D01*
X104671000Y-153978252D02*
X104671000Y-153455748D01*
X106091000Y-153978252D02*
X106091000Y-153455748D01*
X106830000Y-153455748D02*
X106830000Y-153978252D01*
X108250000Y-153455748D02*
X108250000Y-153978252D01*
X113434000Y-145469252D02*
X113434000Y-144946748D01*
X114854000Y-145469252D02*
X114854000Y-144946748D01*
X103782000Y-147755252D02*
X103782000Y-147232748D01*
X105202000Y-147755252D02*
X105202000Y-147232748D01*
X119426000Y-107980748D02*
X119426000Y-108503252D01*
X118006000Y-107980748D02*
X118006000Y-108503252D01*
X113148000Y-151730000D02*
X113148000Y-155470000D01*
X118188000Y-151730000D02*
X118188000Y-155470000D01*
X114428000Y-155470000D02*
X113148000Y-155470000D01*
X118188000Y-155470000D02*
X116908000Y-155470000D01*
X116028000Y-151730000D02*
X115308000Y-151730000D01*
X118188000Y-151730000D02*
X117808000Y-151730000D01*
X113528000Y-151730000D02*
X113148000Y-151730000D01*
D11*
X130384000Y-145866761D02*
X130241142Y-145914380D01*
X130003047Y-145914380D01*
X129907809Y-145866761D01*
X129860190Y-145819142D01*
X129812571Y-145723904D01*
X129812571Y-145628666D01*
X129860190Y-145533428D01*
X129907809Y-145485809D01*
X130003047Y-145438190D01*
X130193523Y-145390571D01*
X130288761Y-145342952D01*
X130336380Y-145295333D01*
X130384000Y-145200095D01*
X130384000Y-145104857D01*
X130336380Y-145009619D01*
X130288761Y-144962000D01*
X130193523Y-144914380D01*
X129955428Y-144914380D01*
X129812571Y-144962000D01*
X129384000Y-145914380D02*
X129384000Y-144914380D01*
X128955428Y-145009619D02*
X128907809Y-144962000D01*
X128812571Y-144914380D01*
X128574476Y-144914380D01*
X128479238Y-144962000D01*
X128431619Y-145009619D01*
X128384000Y-145104857D01*
X128384000Y-145200095D01*
X128431619Y-145342952D01*
X129003047Y-145914380D01*
X128384000Y-145914380D01*
X120986000Y-158566761D02*
X120843142Y-158614380D01*
X120605047Y-158614380D01*
X120509809Y-158566761D01*
X120462190Y-158519142D01*
X120414571Y-158423904D01*
X120414571Y-158328666D01*
X120462190Y-158233428D01*
X120509809Y-158185809D01*
X120605047Y-158138190D01*
X120795523Y-158090571D01*
X120890761Y-158042952D01*
X120938380Y-157995333D01*
X120986000Y-157900095D01*
X120986000Y-157804857D01*
X120938380Y-157709619D01*
X120890761Y-157662000D01*
X120795523Y-157614380D01*
X120557428Y-157614380D01*
X120414571Y-157662000D01*
X119986000Y-158614380D02*
X119986000Y-157614380D01*
X118986000Y-158614380D02*
X119557428Y-158614380D01*
X119271714Y-158614380D02*
X119271714Y-157614380D01*
X119366952Y-157757238D01*
X119462190Y-157852476D01*
X119557428Y-157900095D01*
X129741142Y-155995142D02*
X129788761Y-155947523D01*
X129836380Y-155804666D01*
X129836380Y-155709428D01*
X129788761Y-155566571D01*
X129693523Y-155471333D01*
X129598285Y-155423714D01*
X129407809Y-155376095D01*
X129264952Y-155376095D01*
X129074476Y-155423714D01*
X128979238Y-155471333D01*
X128884000Y-155566571D01*
X128836380Y-155709428D01*
X128836380Y-155804666D01*
X128884000Y-155947523D01*
X128931619Y-155995142D01*
X129836380Y-156947523D02*
X129836380Y-156376095D01*
X129836380Y-156661809D02*
X128836380Y-156661809D01*
X128979238Y-156566571D01*
X129074476Y-156471333D01*
X129122095Y-156376095D01*
X128931619Y-157328476D02*
X128884000Y-157376095D01*
X128836380Y-157471333D01*
X128836380Y-157709428D01*
X128884000Y-157804666D01*
X128931619Y-157852285D01*
X129026857Y-157899904D01*
X129122095Y-157899904D01*
X129264952Y-157852285D01*
X129836380Y-157280857D01*
X129836380Y-157899904D01*
X104468095Y-138040380D02*
X104468095Y-137040380D01*
X104230000Y-137040380D01*
X104087142Y-137088000D01*
X103991904Y-137183238D01*
X103944285Y-137278476D01*
X103896666Y-137468952D01*
X103896666Y-137611809D01*
X103944285Y-137802285D01*
X103991904Y-137897523D01*
X104087142Y-137992761D01*
X104230000Y-138040380D01*
X104468095Y-138040380D01*
X102991904Y-137040380D02*
X103468095Y-137040380D01*
X103515714Y-137516571D01*
X103468095Y-137468952D01*
X103372857Y-137421333D01*
X103134761Y-137421333D01*
X103039523Y-137468952D01*
X102991904Y-137516571D01*
X102944285Y-137611809D01*
X102944285Y-137849904D01*
X102991904Y-137945142D01*
X103039523Y-137992761D01*
X103134761Y-138040380D01*
X103372857Y-138040380D01*
X103468095Y-137992761D01*
X103515714Y-137945142D01*
X120374857Y-131182380D02*
X120708190Y-130706190D01*
X120946285Y-131182380D02*
X120946285Y-130182380D01*
X120565333Y-130182380D01*
X120470095Y-130230000D01*
X120422476Y-130277619D01*
X120374857Y-130372857D01*
X120374857Y-130515714D01*
X120422476Y-130610952D01*
X120470095Y-130658571D01*
X120565333Y-130706190D01*
X120946285Y-130706190D01*
X119422476Y-131182380D02*
X119993904Y-131182380D01*
X119708190Y-131182380D02*
X119708190Y-130182380D01*
X119803428Y-130325238D01*
X119898666Y-130420476D01*
X119993904Y-130468095D01*
X119089142Y-130182380D02*
X118422476Y-130182380D01*
X118851047Y-131182380D01*
X120374857Y-133214380D02*
X120708190Y-132738190D01*
X120946285Y-133214380D02*
X120946285Y-132214380D01*
X120565333Y-132214380D01*
X120470095Y-132262000D01*
X120422476Y-132309619D01*
X120374857Y-132404857D01*
X120374857Y-132547714D01*
X120422476Y-132642952D01*
X120470095Y-132690571D01*
X120565333Y-132738190D01*
X120946285Y-132738190D01*
X119422476Y-133214380D02*
X119993904Y-133214380D01*
X119708190Y-133214380D02*
X119708190Y-132214380D01*
X119803428Y-132357238D01*
X119898666Y-132452476D01*
X119993904Y-132500095D01*
X118565333Y-132214380D02*
X118755809Y-132214380D01*
X118851047Y-132262000D01*
X118898666Y-132309619D01*
X118993904Y-132452476D01*
X119041523Y-132642952D01*
X119041523Y-133023904D01*
X118993904Y-133119142D01*
X118946285Y-133166761D01*
X118851047Y-133214380D01*
X118660571Y-133214380D01*
X118565333Y-133166761D01*
X118517714Y-133119142D01*
X118470095Y-133023904D01*
X118470095Y-132785809D01*
X118517714Y-132690571D01*
X118565333Y-132642952D01*
X118660571Y-132595333D01*
X118851047Y-132595333D01*
X118946285Y-132642952D01*
X118993904Y-132690571D01*
X119041523Y-132785809D01*
X126438142Y-147359142D02*
X126485761Y-147311523D01*
X126533380Y-147168666D01*
X126533380Y-147073428D01*
X126485761Y-146930571D01*
X126390523Y-146835333D01*
X126295285Y-146787714D01*
X126104809Y-146740095D01*
X125961952Y-146740095D01*
X125771476Y-146787714D01*
X125676238Y-146835333D01*
X125581000Y-146930571D01*
X125533380Y-147073428D01*
X125533380Y-147168666D01*
X125581000Y-147311523D01*
X125628619Y-147359142D01*
X126533380Y-148311523D02*
X126533380Y-147740095D01*
X126533380Y-148025809D02*
X125533380Y-148025809D01*
X125676238Y-147930571D01*
X125771476Y-147835333D01*
X125819095Y-147740095D01*
X125533380Y-148930571D02*
X125533380Y-149025809D01*
X125581000Y-149121047D01*
X125628619Y-149168666D01*
X125723857Y-149216285D01*
X125914333Y-149263904D01*
X126152428Y-149263904D01*
X126342904Y-149216285D01*
X126438142Y-149168666D01*
X126485761Y-149121047D01*
X126533380Y-149025809D01*
X126533380Y-148930571D01*
X126485761Y-148835333D01*
X126438142Y-148787714D01*
X126342904Y-148740095D01*
X126152428Y-148692476D01*
X125914333Y-148692476D01*
X125723857Y-148740095D01*
X125628619Y-148787714D01*
X125581000Y-148835333D01*
X125533380Y-148930571D01*
X126788380Y-106877904D02*
X125788380Y-106877904D01*
X125788380Y-107116000D01*
X125836000Y-107258857D01*
X125931238Y-107354095D01*
X126026476Y-107401714D01*
X126216952Y-107449333D01*
X126359809Y-107449333D01*
X126550285Y-107401714D01*
X126645523Y-107354095D01*
X126740761Y-107258857D01*
X126788380Y-107116000D01*
X126788380Y-106877904D01*
X125788380Y-107782666D02*
X125788380Y-108401714D01*
X126169333Y-108068380D01*
X126169333Y-108211238D01*
X126216952Y-108306476D01*
X126264571Y-108354095D01*
X126359809Y-108401714D01*
X126597904Y-108401714D01*
X126693142Y-108354095D01*
X126740761Y-108306476D01*
X126788380Y-108211238D01*
X126788380Y-107925523D01*
X126740761Y-107830285D01*
X126693142Y-107782666D01*
X129328380Y-106877904D02*
X128328380Y-106877904D01*
X128328380Y-107116000D01*
X128376000Y-107258857D01*
X128471238Y-107354095D01*
X128566476Y-107401714D01*
X128756952Y-107449333D01*
X128899809Y-107449333D01*
X129090285Y-107401714D01*
X129185523Y-107354095D01*
X129280761Y-107258857D01*
X129328380Y-107116000D01*
X129328380Y-106877904D01*
X128423619Y-107830285D02*
X128376000Y-107877904D01*
X128328380Y-107973142D01*
X128328380Y-108211238D01*
X128376000Y-108306476D01*
X128423619Y-108354095D01*
X128518857Y-108401714D01*
X128614095Y-108401714D01*
X128756952Y-108354095D01*
X129328380Y-107782666D01*
X129328380Y-108401714D01*
X131868380Y-106877904D02*
X130868380Y-106877904D01*
X130868380Y-107116000D01*
X130916000Y-107258857D01*
X131011238Y-107354095D01*
X131106476Y-107401714D01*
X131296952Y-107449333D01*
X131439809Y-107449333D01*
X131630285Y-107401714D01*
X131725523Y-107354095D01*
X131820761Y-107258857D01*
X131868380Y-107116000D01*
X131868380Y-106877904D01*
X131868380Y-108401714D02*
X131868380Y-107830285D01*
X131868380Y-108116000D02*
X130868380Y-108116000D01*
X131011238Y-108020761D01*
X131106476Y-107925523D01*
X131154095Y-107830285D01*
X134360761Y-151129619D02*
X134408380Y-151272476D01*
X134408380Y-151510571D01*
X134360761Y-151605809D01*
X134313142Y-151653428D01*
X134217904Y-151701047D01*
X134122666Y-151701047D01*
X134027428Y-151653428D01*
X133979809Y-151605809D01*
X133932190Y-151510571D01*
X133884571Y-151320095D01*
X133836952Y-151224857D01*
X133789333Y-151177238D01*
X133694095Y-151129619D01*
X133598857Y-151129619D01*
X133503619Y-151177238D01*
X133456000Y-151224857D01*
X133408380Y-151320095D01*
X133408380Y-151558190D01*
X133456000Y-151701047D01*
X134408380Y-152129619D02*
X133408380Y-152129619D01*
X134408380Y-152558190D02*
X133884571Y-152558190D01*
X133789333Y-152510571D01*
X133741714Y-152415333D01*
X133741714Y-152272476D01*
X133789333Y-152177238D01*
X133836952Y-152129619D01*
X134408380Y-153177238D02*
X134360761Y-153082000D01*
X134313142Y-153034380D01*
X134217904Y-152986761D01*
X133932190Y-152986761D01*
X133836952Y-153034380D01*
X133789333Y-153082000D01*
X133741714Y-153177238D01*
X133741714Y-153320095D01*
X133789333Y-153415333D01*
X133836952Y-153462952D01*
X133932190Y-153510571D01*
X134217904Y-153510571D01*
X134313142Y-153462952D01*
X134360761Y-153415333D01*
X134408380Y-153320095D01*
X134408380Y-153177238D01*
X133741714Y-153796285D02*
X133741714Y-154177238D01*
X133408380Y-153939142D02*
X134265523Y-153939142D01*
X134360761Y-153986761D01*
X134408380Y-154082000D01*
X134408380Y-154177238D01*
X134408380Y-155034380D02*
X134408380Y-154462952D01*
X134408380Y-154748666D02*
X133408380Y-154748666D01*
X133551238Y-154653428D01*
X133646476Y-154558190D01*
X133694095Y-154462952D01*
X133884571Y-158471714D02*
X133932190Y-158614571D01*
X133979809Y-158662190D01*
X134075047Y-158709809D01*
X134217904Y-158709809D01*
X134313142Y-158662190D01*
X134360761Y-158614571D01*
X134408380Y-158519333D01*
X134408380Y-158138380D01*
X133408380Y-158138380D01*
X133408380Y-158471714D01*
X133456000Y-158566952D01*
X133503619Y-158614571D01*
X133598857Y-158662190D01*
X133694095Y-158662190D01*
X133789333Y-158614571D01*
X133836952Y-158566952D01*
X133884571Y-158471714D01*
X133884571Y-158138380D01*
X134122666Y-159090761D02*
X134122666Y-159566952D01*
X134408380Y-158995523D02*
X133408380Y-159328857D01*
X134408380Y-159662190D01*
X133408380Y-159852666D02*
X133408380Y-160424095D01*
X134408380Y-160138380D02*
X133408380Y-160138380D01*
X134408380Y-161281238D02*
X134408380Y-160709809D01*
X134408380Y-160995523D02*
X133408380Y-160995523D01*
X133551238Y-160900285D01*
X133646476Y-160805047D01*
X133694095Y-160709809D01*
X119885942Y-161389933D02*
X119933561Y-161342314D01*
X119981180Y-161199457D01*
X119981180Y-161104219D01*
X119933561Y-160961361D01*
X119838323Y-160866123D01*
X119743085Y-160818504D01*
X119552609Y-160770885D01*
X119409752Y-160770885D01*
X119219276Y-160818504D01*
X119124038Y-160866123D01*
X119028800Y-160961361D01*
X118981180Y-161104219D01*
X118981180Y-161199457D01*
X119028800Y-161342314D01*
X119076419Y-161389933D01*
X119981180Y-161866123D02*
X119981180Y-162056600D01*
X119933561Y-162151838D01*
X119885942Y-162199457D01*
X119743085Y-162294695D01*
X119552609Y-162342314D01*
X119171657Y-162342314D01*
X119076419Y-162294695D01*
X119028800Y-162247076D01*
X118981180Y-162151838D01*
X118981180Y-161961361D01*
X119028800Y-161866123D01*
X119076419Y-161818504D01*
X119171657Y-161770885D01*
X119409752Y-161770885D01*
X119504990Y-161818504D01*
X119552609Y-161866123D01*
X119600228Y-161961361D01*
X119600228Y-162151838D01*
X119552609Y-162247076D01*
X119504990Y-162294695D01*
X119409752Y-162342314D01*
X118565142Y-161306333D02*
X118612761Y-161258714D01*
X118660380Y-161115857D01*
X118660380Y-161020619D01*
X118612761Y-160877761D01*
X118517523Y-160782523D01*
X118422285Y-160734904D01*
X118231809Y-160687285D01*
X118088952Y-160687285D01*
X117898476Y-160734904D01*
X117803238Y-160782523D01*
X117708000Y-160877761D01*
X117660380Y-161020619D01*
X117660380Y-161115857D01*
X117708000Y-161258714D01*
X117755619Y-161306333D01*
X118088952Y-161877761D02*
X118041333Y-161782523D01*
X117993714Y-161734904D01*
X117898476Y-161687285D01*
X117850857Y-161687285D01*
X117755619Y-161734904D01*
X117708000Y-161782523D01*
X117660380Y-161877761D01*
X117660380Y-162068238D01*
X117708000Y-162163476D01*
X117755619Y-162211095D01*
X117850857Y-162258714D01*
X117898476Y-162258714D01*
X117993714Y-162211095D01*
X118041333Y-162163476D01*
X118088952Y-162068238D01*
X118088952Y-161877761D01*
X118136571Y-161782523D01*
X118184190Y-161734904D01*
X118279428Y-161687285D01*
X118469904Y-161687285D01*
X118565142Y-161734904D01*
X118612761Y-161782523D01*
X118660380Y-161877761D01*
X118660380Y-162068238D01*
X118612761Y-162163476D01*
X118565142Y-162211095D01*
X118469904Y-162258714D01*
X118279428Y-162258714D01*
X118184190Y-162211095D01*
X118136571Y-162163476D01*
X118088952Y-162068238D01*
X109738666Y-101221752D02*
X109738666Y-101697942D01*
X110024380Y-101126514D02*
X109024380Y-101459847D01*
X110024380Y-101793180D01*
X110024380Y-102126514D02*
X109024380Y-102126514D01*
X110024380Y-102697942D01*
X109024380Y-102697942D01*
X109024380Y-103031276D02*
X109024380Y-103602704D01*
X110024380Y-103316990D02*
X109024380Y-103316990D01*
X110024380Y-104459847D02*
X110024380Y-103888419D01*
X110024380Y-104174133D02*
X109024380Y-104174133D01*
X109167238Y-104078895D01*
X109262476Y-103983657D01*
X109310095Y-103888419D01*
X102150380Y-152031142D02*
X101674190Y-151697809D01*
X102150380Y-151459714D02*
X101150380Y-151459714D01*
X101150380Y-151840666D01*
X101198000Y-151935904D01*
X101245619Y-151983523D01*
X101340857Y-152031142D01*
X101483714Y-152031142D01*
X101578952Y-151983523D01*
X101626571Y-151935904D01*
X101674190Y-151840666D01*
X101674190Y-151459714D01*
X102150380Y-152983523D02*
X102150380Y-152412095D01*
X102150380Y-152697809D02*
X101150380Y-152697809D01*
X101293238Y-152602571D01*
X101388476Y-152507333D01*
X101436095Y-152412095D01*
X101150380Y-153888285D02*
X101150380Y-153412095D01*
X101626571Y-153364476D01*
X101578952Y-153412095D01*
X101531333Y-153507333D01*
X101531333Y-153745428D01*
X101578952Y-153840666D01*
X101626571Y-153888285D01*
X101721809Y-153935904D01*
X101959904Y-153935904D01*
X102055142Y-153888285D01*
X102102761Y-153840666D01*
X102150380Y-153745428D01*
X102150380Y-153507333D01*
X102102761Y-153412095D01*
X102055142Y-153364476D01*
X110278380Y-132881142D02*
X109802190Y-132547809D01*
X110278380Y-132309714D02*
X109278380Y-132309714D01*
X109278380Y-132690666D01*
X109326000Y-132785904D01*
X109373619Y-132833523D01*
X109468857Y-132881142D01*
X109611714Y-132881142D01*
X109706952Y-132833523D01*
X109754571Y-132785904D01*
X109802190Y-132690666D01*
X109802190Y-132309714D01*
X110278380Y-133833523D02*
X110278380Y-133262095D01*
X110278380Y-133547809D02*
X109278380Y-133547809D01*
X109421238Y-133452571D01*
X109516476Y-133357333D01*
X109564095Y-133262095D01*
X109278380Y-134452571D02*
X109278380Y-134547809D01*
X109326000Y-134643047D01*
X109373619Y-134690666D01*
X109468857Y-134738285D01*
X109659333Y-134785904D01*
X109897428Y-134785904D01*
X110087904Y-134738285D01*
X110183142Y-134690666D01*
X110230761Y-134643047D01*
X110278380Y-134547809D01*
X110278380Y-134452571D01*
X110230761Y-134357333D01*
X110183142Y-134309714D01*
X110087904Y-134262095D01*
X109897428Y-134214476D01*
X109659333Y-134214476D01*
X109468857Y-134262095D01*
X109373619Y-134309714D01*
X109326000Y-134357333D01*
X109278380Y-134452571D01*
X108246380Y-111702361D02*
X107770190Y-111369028D01*
X108246380Y-111130933D02*
X107246380Y-111130933D01*
X107246380Y-111511885D01*
X107294000Y-111607123D01*
X107341619Y-111654742D01*
X107436857Y-111702361D01*
X107579714Y-111702361D01*
X107674952Y-111654742D01*
X107722571Y-111607123D01*
X107770190Y-111511885D01*
X107770190Y-111130933D01*
X107722571Y-112130933D02*
X107722571Y-112464266D01*
X108246380Y-112607123D02*
X108246380Y-112130933D01*
X107246380Y-112130933D01*
X107246380Y-112607123D01*
X108198761Y-112988076D02*
X108246380Y-113130933D01*
X108246380Y-113369028D01*
X108198761Y-113464266D01*
X108151142Y-113511885D01*
X108055904Y-113559504D01*
X107960666Y-113559504D01*
X107865428Y-113511885D01*
X107817809Y-113464266D01*
X107770190Y-113369028D01*
X107722571Y-113178552D01*
X107674952Y-113083314D01*
X107627333Y-113035695D01*
X107532095Y-112988076D01*
X107436857Y-112988076D01*
X107341619Y-113035695D01*
X107294000Y-113083314D01*
X107246380Y-113178552D01*
X107246380Y-113416647D01*
X107294000Y-113559504D01*
X108246380Y-114511885D02*
X108246380Y-113940457D01*
X108246380Y-114226171D02*
X107246380Y-114226171D01*
X107389238Y-114130933D01*
X107484476Y-114035695D01*
X107532095Y-113940457D01*
X123994380Y-104909333D02*
X123518190Y-104576000D01*
X123994380Y-104337904D02*
X122994380Y-104337904D01*
X122994380Y-104718857D01*
X123042000Y-104814095D01*
X123089619Y-104861714D01*
X123184857Y-104909333D01*
X123327714Y-104909333D01*
X123422952Y-104861714D01*
X123470571Y-104814095D01*
X123518190Y-104718857D01*
X123518190Y-104337904D01*
X123994380Y-105385523D02*
X123994380Y-105576000D01*
X123946761Y-105671238D01*
X123899142Y-105718857D01*
X123756285Y-105814095D01*
X123565809Y-105861714D01*
X123184857Y-105861714D01*
X123089619Y-105814095D01*
X123042000Y-105766476D01*
X122994380Y-105671238D01*
X122994380Y-105480761D01*
X123042000Y-105385523D01*
X123089619Y-105337904D01*
X123184857Y-105290285D01*
X123422952Y-105290285D01*
X123518190Y-105337904D01*
X123565809Y-105385523D01*
X123613428Y-105480761D01*
X123613428Y-105671238D01*
X123565809Y-105766476D01*
X123518190Y-105814095D01*
X123422952Y-105861714D01*
X117041142Y-142247333D02*
X117088761Y-142199714D01*
X117136380Y-142056857D01*
X117136380Y-141961619D01*
X117088761Y-141818761D01*
X116993523Y-141723523D01*
X116898285Y-141675904D01*
X116707809Y-141628285D01*
X116564952Y-141628285D01*
X116374476Y-141675904D01*
X116279238Y-141723523D01*
X116184000Y-141818761D01*
X116136380Y-141961619D01*
X116136380Y-142056857D01*
X116184000Y-142199714D01*
X116231619Y-142247333D01*
X117136380Y-143199714D02*
X117136380Y-142628285D01*
X117136380Y-142914000D02*
X116136380Y-142914000D01*
X116279238Y-142818761D01*
X116374476Y-142723523D01*
X116422095Y-142628285D01*
X129741142Y-159265333D02*
X129788761Y-159217714D01*
X129836380Y-159074857D01*
X129836380Y-158979619D01*
X129788761Y-158836761D01*
X129693523Y-158741523D01*
X129598285Y-158693904D01*
X129407809Y-158646285D01*
X129264952Y-158646285D01*
X129074476Y-158693904D01*
X128979238Y-158741523D01*
X128884000Y-158836761D01*
X128836380Y-158979619D01*
X128836380Y-159074857D01*
X128884000Y-159217714D01*
X128931619Y-159265333D01*
X128931619Y-159646285D02*
X128884000Y-159693904D01*
X128836380Y-159789142D01*
X128836380Y-160027238D01*
X128884000Y-160122476D01*
X128931619Y-160170095D01*
X129026857Y-160217714D01*
X129122095Y-160217714D01*
X129264952Y-160170095D01*
X129836380Y-159598666D01*
X129836380Y-160217714D01*
X121765542Y-105010933D02*
X121813161Y-104963314D01*
X121860780Y-104820457D01*
X121860780Y-104725219D01*
X121813161Y-104582361D01*
X121717923Y-104487123D01*
X121622685Y-104439504D01*
X121432209Y-104391885D01*
X121289352Y-104391885D01*
X121098876Y-104439504D01*
X121003638Y-104487123D01*
X120908400Y-104582361D01*
X120860780Y-104725219D01*
X120860780Y-104820457D01*
X120908400Y-104963314D01*
X120956019Y-105010933D01*
X120860780Y-105344266D02*
X120860780Y-105963314D01*
X121241733Y-105629980D01*
X121241733Y-105772838D01*
X121289352Y-105868076D01*
X121336971Y-105915695D01*
X121432209Y-105963314D01*
X121670304Y-105963314D01*
X121765542Y-105915695D01*
X121813161Y-105868076D01*
X121860780Y-105772838D01*
X121860780Y-105487123D01*
X121813161Y-105391885D01*
X121765542Y-105344266D01*
X112056380Y-150375333D02*
X111580190Y-150042000D01*
X112056380Y-149803904D02*
X111056380Y-149803904D01*
X111056380Y-150184857D01*
X111104000Y-150280095D01*
X111151619Y-150327714D01*
X111246857Y-150375333D01*
X111389714Y-150375333D01*
X111484952Y-150327714D01*
X111532571Y-150280095D01*
X111580190Y-150184857D01*
X111580190Y-149803904D01*
X112056380Y-151327714D02*
X112056380Y-150756285D01*
X112056380Y-151042000D02*
X111056380Y-151042000D01*
X111199238Y-150946761D01*
X111294476Y-150851523D01*
X111342095Y-150756285D01*
X124216666Y-155312380D02*
X124550000Y-154836190D01*
X124788095Y-155312380D02*
X124788095Y-154312380D01*
X124407142Y-154312380D01*
X124311904Y-154360000D01*
X124264285Y-154407619D01*
X124216666Y-154502857D01*
X124216666Y-154645714D01*
X124264285Y-154740952D01*
X124311904Y-154788571D01*
X124407142Y-154836190D01*
X124788095Y-154836190D01*
X123835714Y-154407619D02*
X123788095Y-154360000D01*
X123692857Y-154312380D01*
X123454761Y-154312380D01*
X123359523Y-154360000D01*
X123311904Y-154407619D01*
X123264285Y-154502857D01*
X123264285Y-154598095D01*
X123311904Y-154740952D01*
X123883333Y-155312380D01*
X123264285Y-155312380D01*
X110024380Y-150375333D02*
X109548190Y-150042000D01*
X110024380Y-149803904D02*
X109024380Y-149803904D01*
X109024380Y-150184857D01*
X109072000Y-150280095D01*
X109119619Y-150327714D01*
X109214857Y-150375333D01*
X109357714Y-150375333D01*
X109452952Y-150327714D01*
X109500571Y-150280095D01*
X109548190Y-150184857D01*
X109548190Y-149803904D01*
X109024380Y-150708666D02*
X109024380Y-151327714D01*
X109405333Y-150994380D01*
X109405333Y-151137238D01*
X109452952Y-151232476D01*
X109500571Y-151280095D01*
X109595809Y-151327714D01*
X109833904Y-151327714D01*
X109929142Y-151280095D01*
X109976761Y-151232476D01*
X110024380Y-151137238D01*
X110024380Y-150851523D01*
X109976761Y-150756285D01*
X109929142Y-150708666D01*
X121911580Y-142247333D02*
X121435390Y-141914000D01*
X121911580Y-141675904D02*
X120911580Y-141675904D01*
X120911580Y-142056857D01*
X120959200Y-142152095D01*
X121006819Y-142199714D01*
X121102057Y-142247333D01*
X121244914Y-142247333D01*
X121340152Y-142199714D01*
X121387771Y-142152095D01*
X121435390Y-142056857D01*
X121435390Y-141675904D01*
X121244914Y-143104476D02*
X121911580Y-143104476D01*
X120863961Y-142866380D02*
X121578247Y-142628285D01*
X121578247Y-143247333D01*
X119422380Y-142145733D02*
X118946190Y-141812400D01*
X119422380Y-141574304D02*
X118422380Y-141574304D01*
X118422380Y-141955257D01*
X118470000Y-142050495D01*
X118517619Y-142098114D01*
X118612857Y-142145733D01*
X118755714Y-142145733D01*
X118850952Y-142098114D01*
X118898571Y-142050495D01*
X118946190Y-141955257D01*
X118946190Y-141574304D01*
X118422380Y-143050495D02*
X118422380Y-142574304D01*
X118898571Y-142526685D01*
X118850952Y-142574304D01*
X118803333Y-142669542D01*
X118803333Y-142907638D01*
X118850952Y-143002876D01*
X118898571Y-143050495D01*
X118993809Y-143098114D01*
X119231904Y-143098114D01*
X119327142Y-143050495D01*
X119374761Y-143002876D01*
X119422380Y-142907638D01*
X119422380Y-142669542D01*
X119374761Y-142574304D01*
X119327142Y-142526685D01*
X127264666Y-163440380D02*
X127598000Y-162964190D01*
X127836095Y-163440380D02*
X127836095Y-162440380D01*
X127455142Y-162440380D01*
X127359904Y-162488000D01*
X127312285Y-162535619D01*
X127264666Y-162630857D01*
X127264666Y-162773714D01*
X127312285Y-162868952D01*
X127359904Y-162916571D01*
X127455142Y-162964190D01*
X127836095Y-162964190D01*
X126407523Y-162440380D02*
X126598000Y-162440380D01*
X126693238Y-162488000D01*
X126740857Y-162535619D01*
X126836095Y-162678476D01*
X126883714Y-162868952D01*
X126883714Y-163249904D01*
X126836095Y-163345142D01*
X126788476Y-163392761D01*
X126693238Y-163440380D01*
X126502761Y-163440380D01*
X126407523Y-163392761D01*
X126359904Y-163345142D01*
X126312285Y-163249904D01*
X126312285Y-163011809D01*
X126359904Y-162916571D01*
X126407523Y-162868952D01*
X126502761Y-162821333D01*
X126693238Y-162821333D01*
X126788476Y-162868952D01*
X126836095Y-162916571D01*
X126883714Y-163011809D01*
X123232380Y-151391333D02*
X122756190Y-151058000D01*
X123232380Y-150819904D02*
X122232380Y-150819904D01*
X122232380Y-151200857D01*
X122280000Y-151296095D01*
X122327619Y-151343714D01*
X122422857Y-151391333D01*
X122565714Y-151391333D01*
X122660952Y-151343714D01*
X122708571Y-151296095D01*
X122756190Y-151200857D01*
X122756190Y-150819904D01*
X122232380Y-151724666D02*
X122232380Y-152391333D01*
X123232380Y-151962761D01*
X121081047Y-156090380D02*
X120509619Y-156090380D01*
X120795333Y-157090380D02*
X120795333Y-156090380D01*
X120176285Y-157090380D02*
X120176285Y-156090380D01*
X119795333Y-156090380D01*
X119700095Y-156138000D01*
X119652476Y-156185619D01*
X119604857Y-156280857D01*
X119604857Y-156423714D01*
X119652476Y-156518952D01*
X119700095Y-156566571D01*
X119795333Y-156614190D01*
X120176285Y-156614190D01*
X118700095Y-157090380D02*
X119176285Y-157090380D01*
X119176285Y-156090380D01*
X117890571Y-156090380D02*
X118366761Y-156090380D01*
X118414380Y-156566571D01*
X118366761Y-156518952D01*
X118271523Y-156471333D01*
X118033428Y-156471333D01*
X117938190Y-156518952D01*
X117890571Y-156566571D01*
X117842952Y-156661809D01*
X117842952Y-156899904D01*
X117890571Y-156995142D01*
X117938190Y-157042761D01*
X118033428Y-157090380D01*
X118271523Y-157090380D01*
X118366761Y-157042761D01*
X118414380Y-156995142D01*
X116890571Y-157090380D02*
X117462000Y-157090380D01*
X117176285Y-157090380D02*
X117176285Y-156090380D01*
X117271523Y-156233238D01*
X117366761Y-156328476D01*
X117462000Y-156376095D01*
X115938190Y-157090380D02*
X116509619Y-157090380D01*
X116223904Y-157090380D02*
X116223904Y-156090380D01*
X116319142Y-156233238D01*
X116414380Y-156328476D01*
X116509619Y-156376095D01*
X115780780Y-118842895D02*
X116590304Y-118842895D01*
X116685542Y-118890514D01*
X116733161Y-118938133D01*
X116780780Y-119033371D01*
X116780780Y-119223847D01*
X116733161Y-119319085D01*
X116685542Y-119366704D01*
X116590304Y-119414323D01*
X115780780Y-119414323D01*
X115876019Y-119842895D02*
X115828400Y-119890514D01*
X115780780Y-119985752D01*
X115780780Y-120223847D01*
X115828400Y-120319085D01*
X115876019Y-120366704D01*
X115971257Y-120414323D01*
X116066495Y-120414323D01*
X116209352Y-120366704D01*
X116780780Y-119795276D01*
X116780780Y-120414323D01*
X129074380Y-151645333D02*
X128598190Y-151312000D01*
X129074380Y-151073904D02*
X128074380Y-151073904D01*
X128074380Y-151454857D01*
X128122000Y-151550095D01*
X128169619Y-151597714D01*
X128264857Y-151645333D01*
X128407714Y-151645333D01*
X128502952Y-151597714D01*
X128550571Y-151550095D01*
X128598190Y-151454857D01*
X128598190Y-151073904D01*
X128502952Y-152216761D02*
X128455333Y-152121523D01*
X128407714Y-152073904D01*
X128312476Y-152026285D01*
X128264857Y-152026285D01*
X128169619Y-152073904D01*
X128122000Y-152121523D01*
X128074380Y-152216761D01*
X128074380Y-152407238D01*
X128122000Y-152502476D01*
X128169619Y-152550095D01*
X128264857Y-152597714D01*
X128312476Y-152597714D01*
X128407714Y-152550095D01*
X128455333Y-152502476D01*
X128502952Y-152407238D01*
X128502952Y-152216761D01*
X128550571Y-152121523D01*
X128598190Y-152073904D01*
X128693428Y-152026285D01*
X128883904Y-152026285D01*
X128979142Y-152073904D01*
X129026761Y-152121523D01*
X129074380Y-152216761D01*
X129074380Y-152407238D01*
X129026761Y-152502476D01*
X128979142Y-152550095D01*
X128883904Y-152597714D01*
X128693428Y-152597714D01*
X128598190Y-152550095D01*
X128550571Y-152502476D01*
X128502952Y-152407238D01*
X105103142Y-150629333D02*
X105150761Y-150581714D01*
X105198380Y-150438857D01*
X105198380Y-150343619D01*
X105150761Y-150200761D01*
X105055523Y-150105523D01*
X104960285Y-150057904D01*
X104769809Y-150010285D01*
X104626952Y-150010285D01*
X104436476Y-150057904D01*
X104341238Y-150105523D01*
X104246000Y-150200761D01*
X104198380Y-150343619D01*
X104198380Y-150438857D01*
X104246000Y-150581714D01*
X104293619Y-150629333D01*
X104531714Y-151486476D02*
X105198380Y-151486476D01*
X104150761Y-151248380D02*
X104865047Y-151010285D01*
X104865047Y-151629333D01*
X107897142Y-150375333D02*
X107944761Y-150327714D01*
X107992380Y-150184857D01*
X107992380Y-150089619D01*
X107944761Y-149946761D01*
X107849523Y-149851523D01*
X107754285Y-149803904D01*
X107563809Y-149756285D01*
X107420952Y-149756285D01*
X107230476Y-149803904D01*
X107135238Y-149851523D01*
X107040000Y-149946761D01*
X106992380Y-150089619D01*
X106992380Y-150184857D01*
X107040000Y-150327714D01*
X107087619Y-150375333D01*
X106992380Y-151280095D02*
X106992380Y-150803904D01*
X107468571Y-150756285D01*
X107420952Y-150803904D01*
X107373333Y-150899142D01*
X107373333Y-151137238D01*
X107420952Y-151232476D01*
X107468571Y-151280095D01*
X107563809Y-151327714D01*
X107801904Y-151327714D01*
X107897142Y-151280095D01*
X107944761Y-151232476D01*
X107992380Y-151137238D01*
X107992380Y-150899142D01*
X107944761Y-150803904D01*
X107897142Y-150756285D01*
X114501142Y-142247333D02*
X114548761Y-142199714D01*
X114596380Y-142056857D01*
X114596380Y-141961619D01*
X114548761Y-141818761D01*
X114453523Y-141723523D01*
X114358285Y-141675904D01*
X114167809Y-141628285D01*
X114024952Y-141628285D01*
X113834476Y-141675904D01*
X113739238Y-141723523D01*
X113644000Y-141818761D01*
X113596380Y-141961619D01*
X113596380Y-142056857D01*
X113644000Y-142199714D01*
X113691619Y-142247333D01*
X113596380Y-143104476D02*
X113596380Y-142914000D01*
X113644000Y-142818761D01*
X113691619Y-142771142D01*
X113834476Y-142675904D01*
X114024952Y-142628285D01*
X114405904Y-142628285D01*
X114501142Y-142675904D01*
X114548761Y-142723523D01*
X114596380Y-142818761D01*
X114596380Y-143009238D01*
X114548761Y-143104476D01*
X114501142Y-143152095D01*
X114405904Y-143199714D01*
X114167809Y-143199714D01*
X114072571Y-143152095D01*
X114024952Y-143104476D01*
X113977333Y-143009238D01*
X113977333Y-142818761D01*
X114024952Y-142723523D01*
X114072571Y-142675904D01*
X114167809Y-142628285D01*
X106722380Y-146851142D02*
X106246190Y-146517809D01*
X106722380Y-146279714D02*
X105722380Y-146279714D01*
X105722380Y-146660666D01*
X105770000Y-146755904D01*
X105817619Y-146803523D01*
X105912857Y-146851142D01*
X106055714Y-146851142D01*
X106150952Y-146803523D01*
X106198571Y-146755904D01*
X106246190Y-146660666D01*
X106246190Y-146279714D01*
X106722380Y-147803523D02*
X106722380Y-147232095D01*
X106722380Y-147517809D02*
X105722380Y-147517809D01*
X105865238Y-147422571D01*
X105960476Y-147327333D01*
X106008095Y-147232095D01*
X105817619Y-148184476D02*
X105770000Y-148232095D01*
X105722380Y-148327333D01*
X105722380Y-148565428D01*
X105770000Y-148660666D01*
X105817619Y-148708285D01*
X105912857Y-148755904D01*
X106008095Y-148755904D01*
X106150952Y-148708285D01*
X106722380Y-148136857D01*
X106722380Y-148755904D01*
X119123942Y-104960133D02*
X119171561Y-104912514D01*
X119219180Y-104769657D01*
X119219180Y-104674419D01*
X119171561Y-104531561D01*
X119076323Y-104436323D01*
X118981085Y-104388704D01*
X118790609Y-104341085D01*
X118647752Y-104341085D01*
X118457276Y-104388704D01*
X118362038Y-104436323D01*
X118266800Y-104531561D01*
X118219180Y-104674419D01*
X118219180Y-104769657D01*
X118266800Y-104912514D01*
X118314419Y-104960133D01*
X118219180Y-105293466D02*
X118219180Y-105960133D01*
X119219180Y-105531561D01*
X116212438Y-154093180D02*
X116545771Y-153616990D01*
X116783866Y-154093180D02*
X116783866Y-153093180D01*
X116402914Y-153093180D01*
X116307676Y-153140800D01*
X116260057Y-153188419D01*
X116212438Y-153283657D01*
X116212438Y-153426514D01*
X116260057Y-153521752D01*
X116307676Y-153569371D01*
X116402914Y-153616990D01*
X116783866Y-153616990D01*
X115926723Y-153093180D02*
X115593390Y-154093180D01*
X115260057Y-153093180D01*
X114402914Y-154093180D02*
X114974342Y-154093180D01*
X114688628Y-154093180D02*
X114688628Y-153093180D01*
X114783866Y-153236038D01*
X114879104Y-153331276D01*
X114974342Y-153378895D01*
M02*
