M48
; DRILL file {KiCad (5.1.10)-1} date 01/12/22 20:10:31
; FORMAT={-:-/ absolute / inch / decimal}
; #@! TF.CreationDate,2022-01-12T20:10:31+01:00
; #@! TF.GenerationSoftware,Kicad,Pcbnew,(5.1.10)-1
FMAT,2
INCH
T1C0.0157
T2C0.0394
%
G90
G05
T1
X3.9839Y-6.1469
X3.9989Y-5.9319
X4.0042Y-6.027
X4.0389Y-6.2205
X4.0839Y-5.4169
X4.0939Y-5.9769
X4.1289Y-6.1469
X4.1589Y-5.9574
X4.1789Y-4.9669
X4.1879Y-6.1469
X4.2039Y-5.6969
X4.2339Y-5.8169
X4.2464Y-5.4194
X4.3139Y-5.6369
X4.3189Y-5.9269
X4.3439Y-5.8069
X4.3739Y-4.6769
X4.3789Y-4.1769
X4.3789Y-4.2169
X4.3789Y-4.2619
X4.3789Y-4.3016
X4.3813Y-4.3401
X4.3839Y-5.3169
X4.4239Y-4.3769
X4.4689Y-4.4119
X4.5139Y-4.9569
X4.5139Y-5.2369
X4.5889Y-4.2845
X4.5891Y-4.1664
X4.5891Y-4.2057
X4.5891Y-4.2451
X4.5939Y-4.3219
X4.5939Y-5.7622
X4.6439Y-6.2144
X4.6839Y-5.7869
X4.7039Y-5.9669
X4.7239Y-5.2169
X4.7253Y-6.0154
X4.8939Y-5.5469
X4.8939Y-5.7269
X4.8939Y-5.8769
X4.947Y-6.1753
X4.9589Y-6.3469
X5.0539Y-4.1069
X5.1239Y-5.2169
X5.1339Y-5.0319
X5.1839Y-4.6169
X5.2439Y-4.8169
T2
X4.0098Y-4.1732
X4.0098Y-4.2732
X4.0098Y-4.3732
X4.0098Y-4.4732
X4.0098Y-4.5732
X4.0098Y-4.6732
X4.0098Y-4.7732
X4.0098Y-4.8732
X4.0098Y-4.9732
X4.0098Y-5.0732
X4.0098Y-5.1732
X4.0098Y-5.2732
X4.0098Y-5.3732
X4.0139Y-5.5269
X4.0139Y-5.6269
X4.0139Y-5.7269
X4.2939Y-6.3869
X4.3939Y-6.3869
X4.4882Y-5.8661
X4.5039Y-5.3569
X4.5882Y-5.8661
X4.6039Y-5.3569
X4.6882Y-5.8661
X4.7039Y-5.3569
X4.7882Y-5.8661
X4.8039Y-5.3569
X4.9039Y-5.3569
X5.0039Y-5.3569
X5.1575Y-6.0749
X5.1575Y-6.2386
X5.1575Y-6.3386
X5.1599Y-5.9749
X5.315Y-4.1732
X5.315Y-4.2732
X5.315Y-4.3732
X5.315Y-4.4732
X5.315Y-4.5732
X5.315Y-4.6732
X5.315Y-4.7732
X5.315Y-4.8732
X5.315Y-4.9732
X5.315Y-5.0732
X5.315Y-5.1732
X5.315Y-5.2732
X5.315Y-5.3732
T0
M30
