G04 #@! TF.GenerationSoftware,KiCad,Pcbnew,(5.1.10)-1*
G04 #@! TF.CreationDate,2022-01-12T20:10:35+01:00*
G04 #@! TF.ProjectId,ttgot5,7474676f-7435-42e6-9b69-6361645f7063,rev?*
G04 #@! TF.SameCoordinates,Original*
G04 #@! TF.FileFunction,Paste,Bot*
G04 #@! TF.FilePolarity,Positive*
%FSLAX46Y46*%
G04 Gerber Fmt 4.6, Leading zero omitted, Abs format (unit mm)*
G04 Created by KiCad (PCBNEW (5.1.10)-1) date 2022-01-12 20:10:35*
%MOMM*%
%LPD*%
G01*
G04 APERTURE LIST*
%ADD10R,0.900000X0.800000*%
%ADD11R,1.200000X0.900000*%
%ADD12R,1.270000X3.600000*%
%ADD13R,1.350000X4.200000*%
%ADD14R,1.060000X0.650000*%
%ADD15R,1.000000X2.000000*%
%ADD16R,1.300000X1.600000*%
%ADD17R,2.000000X1.600000*%
G04 APERTURE END LIST*
D10*
X130384000Y-148002000D03*
X128384000Y-147052000D03*
X128384000Y-148952000D03*
X122034000Y-157908000D03*
X124034000Y-158858000D03*
X124034000Y-156958000D03*
G36*
G01*
X126648000Y-156441999D02*
X126648000Y-157342001D01*
G75*
G02*
X126398001Y-157592000I-249999J0D01*
G01*
X125747999Y-157592000D01*
G75*
G02*
X125498000Y-157342001I0J249999D01*
G01*
X125498000Y-156441999D01*
G75*
G02*
X125747999Y-156192000I249999J0D01*
G01*
X126398001Y-156192000D01*
G75*
G02*
X126648000Y-156441999I0J-249999D01*
G01*
G37*
G36*
G01*
X128698000Y-156441999D02*
X128698000Y-157342001D01*
G75*
G02*
X128448001Y-157592000I-249999J0D01*
G01*
X127797999Y-157592000D01*
G75*
G02*
X127548000Y-157342001I0J249999D01*
G01*
X127548000Y-156441999D01*
G75*
G02*
X127797999Y-156192000I249999J0D01*
G01*
X128448001Y-156192000D01*
G75*
G02*
X128698000Y-156441999I0J-249999D01*
G01*
G37*
G36*
G01*
X107228000Y-138044250D02*
X107228000Y-137131750D01*
G75*
G02*
X107471750Y-136888000I243750J0D01*
G01*
X107959250Y-136888000D01*
G75*
G02*
X108203000Y-137131750I0J-243750D01*
G01*
X108203000Y-138044250D01*
G75*
G02*
X107959250Y-138288000I-243750J0D01*
G01*
X107471750Y-138288000D01*
G75*
G02*
X107228000Y-138044250I0J243750D01*
G01*
G37*
G36*
G01*
X105353000Y-138044250D02*
X105353000Y-137131750D01*
G75*
G02*
X105596750Y-136888000I243750J0D01*
G01*
X106084250Y-136888000D01*
G75*
G02*
X106328000Y-137131750I0J-243750D01*
G01*
X106328000Y-138044250D01*
G75*
G02*
X106084250Y-138288000I-243750J0D01*
G01*
X105596750Y-138288000D01*
G75*
G02*
X105353000Y-138044250I0J243750D01*
G01*
G37*
G36*
G01*
X123493000Y-131180001D02*
X123493000Y-130279999D01*
G75*
G02*
X123742999Y-130030000I249999J0D01*
G01*
X124393001Y-130030000D01*
G75*
G02*
X124643000Y-130279999I0J-249999D01*
G01*
X124643000Y-131180001D01*
G75*
G02*
X124393001Y-131430000I-249999J0D01*
G01*
X123742999Y-131430000D01*
G75*
G02*
X123493000Y-131180001I0J249999D01*
G01*
G37*
G36*
G01*
X121443000Y-131180001D02*
X121443000Y-130279999D01*
G75*
G02*
X121692999Y-130030000I249999J0D01*
G01*
X122343001Y-130030000D01*
G75*
G02*
X122593000Y-130279999I0J-249999D01*
G01*
X122593000Y-131180001D01*
G75*
G02*
X122343001Y-131430000I-249999J0D01*
G01*
X121692999Y-131430000D01*
G75*
G02*
X121443000Y-131180001I0J249999D01*
G01*
G37*
G36*
G01*
X123484000Y-133212001D02*
X123484000Y-132311999D01*
G75*
G02*
X123733999Y-132062000I249999J0D01*
G01*
X124384001Y-132062000D01*
G75*
G02*
X124634000Y-132311999I0J-249999D01*
G01*
X124634000Y-133212001D01*
G75*
G02*
X124384001Y-133462000I-249999J0D01*
G01*
X123733999Y-133462000D01*
G75*
G02*
X123484000Y-133212001I0J249999D01*
G01*
G37*
G36*
G01*
X121434000Y-133212001D02*
X121434000Y-132311999D01*
G75*
G02*
X121683999Y-132062000I249999J0D01*
G01*
X122334001Y-132062000D01*
G75*
G02*
X122584000Y-132311999I0J-249999D01*
G01*
X122584000Y-133212001D01*
G75*
G02*
X122334001Y-133462000I-249999J0D01*
G01*
X121683999Y-133462000D01*
G75*
G02*
X121434000Y-133212001I0J249999D01*
G01*
G37*
G36*
G01*
X124881001Y-147552000D02*
X123980999Y-147552000D01*
G75*
G02*
X123731000Y-147302001I0J249999D01*
G01*
X123731000Y-146651999D01*
G75*
G02*
X123980999Y-146402000I249999J0D01*
G01*
X124881001Y-146402000D01*
G75*
G02*
X125131000Y-146651999I0J-249999D01*
G01*
X125131000Y-147302001D01*
G75*
G02*
X124881001Y-147552000I-249999J0D01*
G01*
G37*
G36*
G01*
X124881001Y-149602000D02*
X123980999Y-149602000D01*
G75*
G02*
X123731000Y-149352001I0J249999D01*
G01*
X123731000Y-148701999D01*
G75*
G02*
X123980999Y-148452000I249999J0D01*
G01*
X124881001Y-148452000D01*
G75*
G02*
X125131000Y-148701999I0J-249999D01*
G01*
X125131000Y-149352001D01*
G75*
G02*
X124881001Y-149602000I-249999J0D01*
G01*
G37*
D11*
X126336000Y-109266000D03*
X126336000Y-105966000D03*
X128876000Y-109266000D03*
X128876000Y-105966000D03*
X131416000Y-109266000D03*
X131416000Y-105966000D03*
G36*
G01*
X123091999Y-162168000D02*
X123992001Y-162168000D01*
G75*
G02*
X124242000Y-162417999I0J-249999D01*
G01*
X124242000Y-163068001D01*
G75*
G02*
X123992001Y-163318000I-249999J0D01*
G01*
X123091999Y-163318000D01*
G75*
G02*
X122842000Y-163068001I0J249999D01*
G01*
X122842000Y-162417999D01*
G75*
G02*
X123091999Y-162168000I249999J0D01*
G01*
G37*
G36*
G01*
X123091999Y-160118000D02*
X123992001Y-160118000D01*
G75*
G02*
X124242000Y-160367999I0J-249999D01*
G01*
X124242000Y-161018001D01*
G75*
G02*
X123992001Y-161268000I-249999J0D01*
G01*
X123091999Y-161268000D01*
G75*
G02*
X122842000Y-161018001I0J249999D01*
G01*
X122842000Y-160367999D01*
G75*
G02*
X123091999Y-160118000I249999J0D01*
G01*
G37*
G36*
G01*
X120805999Y-162168000D02*
X121706001Y-162168000D01*
G75*
G02*
X121956000Y-162417999I0J-249999D01*
G01*
X121956000Y-163068001D01*
G75*
G02*
X121706001Y-163318000I-249999J0D01*
G01*
X120805999Y-163318000D01*
G75*
G02*
X120556000Y-163068001I0J249999D01*
G01*
X120556000Y-162417999D01*
G75*
G02*
X120805999Y-162168000I249999J0D01*
G01*
G37*
G36*
G01*
X120805999Y-160118000D02*
X121706001Y-160118000D01*
G75*
G02*
X121956000Y-160367999I0J-249999D01*
G01*
X121956000Y-161018001D01*
G75*
G02*
X121706001Y-161268000I-249999J0D01*
G01*
X120805999Y-161268000D01*
G75*
G02*
X120556000Y-161018001I0J249999D01*
G01*
X120556000Y-160367999D01*
G75*
G02*
X120805999Y-160118000I249999J0D01*
G01*
G37*
D12*
X114500000Y-102800000D03*
D13*
X117325000Y-103000000D03*
X111675000Y-103000000D03*
G36*
G01*
X102148001Y-148822000D02*
X101247999Y-148822000D01*
G75*
G02*
X100998000Y-148572001I0J249999D01*
G01*
X100998000Y-147921999D01*
G75*
G02*
X101247999Y-147672000I249999J0D01*
G01*
X102148001Y-147672000D01*
G75*
G02*
X102398000Y-147921999I0J-249999D01*
G01*
X102398000Y-148572001D01*
G75*
G02*
X102148001Y-148822000I-249999J0D01*
G01*
G37*
G36*
G01*
X102148001Y-150872000D02*
X101247999Y-150872000D01*
G75*
G02*
X100998000Y-150622001I0J249999D01*
G01*
X100998000Y-149971999D01*
G75*
G02*
X101247999Y-149722000I249999J0D01*
G01*
X102148001Y-149722000D01*
G75*
G02*
X102398000Y-149971999I0J-249999D01*
G01*
X102398000Y-150622001D01*
G75*
G02*
X102148001Y-150872000I-249999J0D01*
G01*
G37*
G36*
G01*
X109375999Y-130672000D02*
X110276001Y-130672000D01*
G75*
G02*
X110526000Y-130921999I0J-249999D01*
G01*
X110526000Y-131572001D01*
G75*
G02*
X110276001Y-131822000I-249999J0D01*
G01*
X109375999Y-131822000D01*
G75*
G02*
X109126000Y-131572001I0J249999D01*
G01*
X109126000Y-130921999D01*
G75*
G02*
X109375999Y-130672000I249999J0D01*
G01*
G37*
G36*
G01*
X109375999Y-128622000D02*
X110276001Y-128622000D01*
G75*
G02*
X110526000Y-128871999I0J-249999D01*
G01*
X110526000Y-129522001D01*
G75*
G02*
X110276001Y-129772000I-249999J0D01*
G01*
X109375999Y-129772000D01*
G75*
G02*
X109126000Y-129522001I0J249999D01*
G01*
X109126000Y-128871999D01*
G75*
G02*
X109375999Y-128622000I249999J0D01*
G01*
G37*
G36*
G01*
X123345999Y-108710000D02*
X124246001Y-108710000D01*
G75*
G02*
X124496000Y-108959999I0J-249999D01*
G01*
X124496000Y-109610001D01*
G75*
G02*
X124246001Y-109860000I-249999J0D01*
G01*
X123345999Y-109860000D01*
G75*
G02*
X123096000Y-109610001I0J249999D01*
G01*
X123096000Y-108959999D01*
G75*
G02*
X123345999Y-108710000I249999J0D01*
G01*
G37*
G36*
G01*
X123345999Y-106660000D02*
X124246001Y-106660000D01*
G75*
G02*
X124496000Y-106909999I0J-249999D01*
G01*
X124496000Y-107560001D01*
G75*
G02*
X124246001Y-107810000I-249999J0D01*
G01*
X123345999Y-107810000D01*
G75*
G02*
X123096000Y-107560001I0J249999D01*
G01*
X123096000Y-106909999D01*
G75*
G02*
X123345999Y-106660000I249999J0D01*
G01*
G37*
G36*
G01*
X117134001Y-146935000D02*
X116233999Y-146935000D01*
G75*
G02*
X115984000Y-146685001I0J249999D01*
G01*
X115984000Y-146034999D01*
G75*
G02*
X116233999Y-145785000I249999J0D01*
G01*
X117134001Y-145785000D01*
G75*
G02*
X117384000Y-146034999I0J-249999D01*
G01*
X117384000Y-146685001D01*
G75*
G02*
X117134001Y-146935000I-249999J0D01*
G01*
G37*
G36*
G01*
X117134001Y-144885000D02*
X116233999Y-144885000D01*
G75*
G02*
X115984000Y-144635001I0J249999D01*
G01*
X115984000Y-143984999D01*
G75*
G02*
X116233999Y-143735000I249999J0D01*
G01*
X117134001Y-143735000D01*
G75*
G02*
X117384000Y-143984999I0J-249999D01*
G01*
X117384000Y-144635001D01*
G75*
G02*
X117134001Y-144885000I-249999J0D01*
G01*
G37*
G36*
G01*
X125362000Y-159628001D02*
X125362000Y-158727999D01*
G75*
G02*
X125611999Y-158478000I249999J0D01*
G01*
X126262001Y-158478000D01*
G75*
G02*
X126512000Y-158727999I0J-249999D01*
G01*
X126512000Y-159628001D01*
G75*
G02*
X126262001Y-159878000I-249999J0D01*
G01*
X125611999Y-159878000D01*
G75*
G02*
X125362000Y-159628001I0J249999D01*
G01*
G37*
G36*
G01*
X127412000Y-159628001D02*
X127412000Y-158727999D01*
G75*
G02*
X127661999Y-158478000I249999J0D01*
G01*
X128312001Y-158478000D01*
G75*
G02*
X128562000Y-158727999I0J-249999D01*
G01*
X128562000Y-159628001D01*
G75*
G02*
X128312001Y-159878000I-249999J0D01*
G01*
X127661999Y-159878000D01*
G75*
G02*
X127412000Y-159628001I0J249999D01*
G01*
G37*
G36*
G01*
X120932999Y-108692000D02*
X121833001Y-108692000D01*
G75*
G02*
X122083000Y-108941999I0J-249999D01*
G01*
X122083000Y-109592001D01*
G75*
G02*
X121833001Y-109842000I-249999J0D01*
G01*
X120932999Y-109842000D01*
G75*
G02*
X120683000Y-109592001I0J249999D01*
G01*
X120683000Y-108941999D01*
G75*
G02*
X120932999Y-108692000I249999J0D01*
G01*
G37*
G36*
G01*
X120932999Y-106642000D02*
X121833001Y-106642000D01*
G75*
G02*
X122083000Y-106891999I0J-249999D01*
G01*
X122083000Y-107542001D01*
G75*
G02*
X121833001Y-107792000I-249999J0D01*
G01*
X120932999Y-107792000D01*
G75*
G02*
X120683000Y-107542001I0J249999D01*
G01*
X120683000Y-106891999D01*
G75*
G02*
X120932999Y-106642000I249999J0D01*
G01*
G37*
G36*
G01*
X112181001Y-153267000D02*
X111280999Y-153267000D01*
G75*
G02*
X111031000Y-153017001I0J249999D01*
G01*
X111031000Y-152366999D01*
G75*
G02*
X111280999Y-152117000I249999J0D01*
G01*
X112181001Y-152117000D01*
G75*
G02*
X112431000Y-152366999I0J-249999D01*
G01*
X112431000Y-153017001D01*
G75*
G02*
X112181001Y-153267000I-249999J0D01*
G01*
G37*
G36*
G01*
X112181001Y-155317000D02*
X111280999Y-155317000D01*
G75*
G02*
X111031000Y-155067001I0J249999D01*
G01*
X111031000Y-154416999D01*
G75*
G02*
X111280999Y-154167000I249999J0D01*
G01*
X112181001Y-154167000D01*
G75*
G02*
X112431000Y-154416999I0J-249999D01*
G01*
X112431000Y-155067001D01*
G75*
G02*
X112181001Y-155317000I-249999J0D01*
G01*
G37*
G36*
G01*
X126512000Y-154409999D02*
X126512000Y-155310001D01*
G75*
G02*
X126262001Y-155560000I-249999J0D01*
G01*
X125611999Y-155560000D01*
G75*
G02*
X125362000Y-155310001I0J249999D01*
G01*
X125362000Y-154409999D01*
G75*
G02*
X125611999Y-154160000I249999J0D01*
G01*
X126262001Y-154160000D01*
G75*
G02*
X126512000Y-154409999I0J-249999D01*
G01*
G37*
G36*
G01*
X128562000Y-154409999D02*
X128562000Y-155310001D01*
G75*
G02*
X128312001Y-155560000I-249999J0D01*
G01*
X127661999Y-155560000D01*
G75*
G02*
X127412000Y-155310001I0J249999D01*
G01*
X127412000Y-154409999D01*
G75*
G02*
X127661999Y-154160000I249999J0D01*
G01*
X128312001Y-154160000D01*
G75*
G02*
X128562000Y-154409999I0J-249999D01*
G01*
G37*
G36*
G01*
X110149001Y-155317000D02*
X109248999Y-155317000D01*
G75*
G02*
X108999000Y-155067001I0J249999D01*
G01*
X108999000Y-154416999D01*
G75*
G02*
X109248999Y-154167000I249999J0D01*
G01*
X110149001Y-154167000D01*
G75*
G02*
X110399000Y-154416999I0J-249999D01*
G01*
X110399000Y-155067001D01*
G75*
G02*
X110149001Y-155317000I-249999J0D01*
G01*
G37*
G36*
G01*
X110149001Y-153267000D02*
X109248999Y-153267000D01*
G75*
G02*
X108999000Y-153017001I0J249999D01*
G01*
X108999000Y-152366999D01*
G75*
G02*
X109248999Y-152117000I249999J0D01*
G01*
X110149001Y-152117000D01*
G75*
G02*
X110399000Y-152366999I0J-249999D01*
G01*
X110399000Y-153017001D01*
G75*
G02*
X110149001Y-153267000I-249999J0D01*
G01*
G37*
G36*
G01*
X120932999Y-143744000D02*
X121833001Y-143744000D01*
G75*
G02*
X122083000Y-143993999I0J-249999D01*
G01*
X122083000Y-144644001D01*
G75*
G02*
X121833001Y-144894000I-249999J0D01*
G01*
X120932999Y-144894000D01*
G75*
G02*
X120683000Y-144644001I0J249999D01*
G01*
X120683000Y-143993999D01*
G75*
G02*
X120932999Y-143744000I249999J0D01*
G01*
G37*
G36*
G01*
X120932999Y-145794000D02*
X121833001Y-145794000D01*
G75*
G02*
X122083000Y-146043999I0J-249999D01*
G01*
X122083000Y-146694001D01*
G75*
G02*
X121833001Y-146944000I-249999J0D01*
G01*
X120932999Y-146944000D01*
G75*
G02*
X120683000Y-146694001I0J249999D01*
G01*
X120683000Y-146043999D01*
G75*
G02*
X120932999Y-145794000I249999J0D01*
G01*
G37*
G36*
G01*
X118519999Y-143726000D02*
X119420001Y-143726000D01*
G75*
G02*
X119670000Y-143975999I0J-249999D01*
G01*
X119670000Y-144626001D01*
G75*
G02*
X119420001Y-144876000I-249999J0D01*
G01*
X118519999Y-144876000D01*
G75*
G02*
X118270000Y-144626001I0J249999D01*
G01*
X118270000Y-143975999D01*
G75*
G02*
X118519999Y-143726000I249999J0D01*
G01*
G37*
G36*
G01*
X118519999Y-145776000D02*
X119420001Y-145776000D01*
G75*
G02*
X119670000Y-146025999I0J-249999D01*
G01*
X119670000Y-146676001D01*
G75*
G02*
X119420001Y-146926000I-249999J0D01*
G01*
X118519999Y-146926000D01*
G75*
G02*
X118270000Y-146676001I0J249999D01*
G01*
X118270000Y-146025999D01*
G75*
G02*
X118519999Y-145776000I249999J0D01*
G01*
G37*
G36*
G01*
X126530000Y-160759999D02*
X126530000Y-161660001D01*
G75*
G02*
X126280001Y-161910000I-249999J0D01*
G01*
X125629999Y-161910000D01*
G75*
G02*
X125380000Y-161660001I0J249999D01*
G01*
X125380000Y-160759999D01*
G75*
G02*
X125629999Y-160510000I249999J0D01*
G01*
X126280001Y-160510000D01*
G75*
G02*
X126530000Y-160759999I0J-249999D01*
G01*
G37*
G36*
G01*
X128580000Y-160759999D02*
X128580000Y-161660001D01*
G75*
G02*
X128330001Y-161910000I-249999J0D01*
G01*
X127679999Y-161910000D01*
G75*
G02*
X127430000Y-161660001I0J249999D01*
G01*
X127430000Y-160759999D01*
G75*
G02*
X127679999Y-160510000I249999J0D01*
G01*
X128330001Y-160510000D01*
G75*
G02*
X128580000Y-160759999I0J-249999D01*
G01*
G37*
G36*
G01*
X124881001Y-153548000D02*
X123980999Y-153548000D01*
G75*
G02*
X123731000Y-153298001I0J249999D01*
G01*
X123731000Y-152647999D01*
G75*
G02*
X123980999Y-152398000I249999J0D01*
G01*
X124881001Y-152398000D01*
G75*
G02*
X125131000Y-152647999I0J-249999D01*
G01*
X125131000Y-153298001D01*
G75*
G02*
X124881001Y-153548000I-249999J0D01*
G01*
G37*
G36*
G01*
X124881001Y-151498000D02*
X123980999Y-151498000D01*
G75*
G02*
X123731000Y-151248001I0J249999D01*
G01*
X123731000Y-150597999D01*
G75*
G02*
X123980999Y-150348000I249999J0D01*
G01*
X124881001Y-150348000D01*
G75*
G02*
X125131000Y-150597999I0J-249999D01*
G01*
X125131000Y-151248001D01*
G75*
G02*
X124881001Y-151498000I-249999J0D01*
G01*
G37*
D14*
X119902000Y-155175000D03*
X119902000Y-154225000D03*
X119902000Y-153275000D03*
X122102000Y-153275000D03*
X122102000Y-155175000D03*
X122102000Y-154225000D03*
D15*
X128637000Y-127808000D03*
X126637000Y-127808000D03*
X124637000Y-127808000D03*
X122637000Y-127808000D03*
X120637000Y-127808000D03*
X118637000Y-127808000D03*
X116637000Y-127808000D03*
X114637000Y-127808000D03*
X114637000Y-111808000D03*
X116637000Y-111808000D03*
X118637000Y-111808000D03*
X120637000Y-111808000D03*
X122637000Y-111808000D03*
X124637000Y-111808000D03*
X126637000Y-111808000D03*
X128637000Y-111808000D03*
G36*
G01*
X126266999Y-150330000D02*
X127167001Y-150330000D01*
G75*
G02*
X127417000Y-150579999I0J-249999D01*
G01*
X127417000Y-151230001D01*
G75*
G02*
X127167001Y-151480000I-249999J0D01*
G01*
X126266999Y-151480000D01*
G75*
G02*
X126017000Y-151230001I0J249999D01*
G01*
X126017000Y-150579999D01*
G75*
G02*
X126266999Y-150330000I249999J0D01*
G01*
G37*
G36*
G01*
X126266999Y-152380000D02*
X127167001Y-152380000D01*
G75*
G02*
X127417000Y-152629999I0J-249999D01*
G01*
X127417000Y-153280001D01*
G75*
G02*
X127167001Y-153530000I-249999J0D01*
G01*
X126266999Y-153530000D01*
G75*
G02*
X126017000Y-153280001I0J249999D01*
G01*
X126017000Y-152629999D01*
G75*
G02*
X126266999Y-152380000I249999J0D01*
G01*
G37*
G36*
G01*
X105831001Y-155317000D02*
X104930999Y-155317000D01*
G75*
G02*
X104681000Y-155067001I0J249999D01*
G01*
X104681000Y-154416999D01*
G75*
G02*
X104930999Y-154167000I249999J0D01*
G01*
X105831001Y-154167000D01*
G75*
G02*
X106081000Y-154416999I0J-249999D01*
G01*
X106081000Y-155067001D01*
G75*
G02*
X105831001Y-155317000I-249999J0D01*
G01*
G37*
G36*
G01*
X105831001Y-153267000D02*
X104930999Y-153267000D01*
G75*
G02*
X104681000Y-153017001I0J249999D01*
G01*
X104681000Y-152366999D01*
G75*
G02*
X104930999Y-152117000I249999J0D01*
G01*
X105831001Y-152117000D01*
G75*
G02*
X106081000Y-152366999I0J-249999D01*
G01*
X106081000Y-153017001D01*
G75*
G02*
X105831001Y-153267000I-249999J0D01*
G01*
G37*
G36*
G01*
X107089999Y-154167000D02*
X107990001Y-154167000D01*
G75*
G02*
X108240000Y-154416999I0J-249999D01*
G01*
X108240000Y-155067001D01*
G75*
G02*
X107990001Y-155317000I-249999J0D01*
G01*
X107089999Y-155317000D01*
G75*
G02*
X106840000Y-155067001I0J249999D01*
G01*
X106840000Y-154416999D01*
G75*
G02*
X107089999Y-154167000I249999J0D01*
G01*
G37*
G36*
G01*
X107089999Y-152117000D02*
X107990001Y-152117000D01*
G75*
G02*
X108240000Y-152366999I0J-249999D01*
G01*
X108240000Y-153017001D01*
G75*
G02*
X107990001Y-153267000I-249999J0D01*
G01*
X107089999Y-153267000D01*
G75*
G02*
X106840000Y-153017001I0J249999D01*
G01*
X106840000Y-152366999D01*
G75*
G02*
X107089999Y-152117000I249999J0D01*
G01*
G37*
G36*
G01*
X114594001Y-146808000D02*
X113693999Y-146808000D01*
G75*
G02*
X113444000Y-146558001I0J249999D01*
G01*
X113444000Y-145907999D01*
G75*
G02*
X113693999Y-145658000I249999J0D01*
G01*
X114594001Y-145658000D01*
G75*
G02*
X114844000Y-145907999I0J-249999D01*
G01*
X114844000Y-146558001D01*
G75*
G02*
X114594001Y-146808000I-249999J0D01*
G01*
G37*
G36*
G01*
X114594001Y-144758000D02*
X113693999Y-144758000D01*
G75*
G02*
X113444000Y-144508001I0J249999D01*
G01*
X113444000Y-143857999D01*
G75*
G02*
X113693999Y-143608000I249999J0D01*
G01*
X114594001Y-143608000D01*
G75*
G02*
X114844000Y-143857999I0J-249999D01*
G01*
X114844000Y-144508001D01*
G75*
G02*
X114594001Y-144758000I-249999J0D01*
G01*
G37*
G36*
G01*
X104942001Y-149094000D02*
X104041999Y-149094000D01*
G75*
G02*
X103792000Y-148844001I0J249999D01*
G01*
X103792000Y-148193999D01*
G75*
G02*
X104041999Y-147944000I249999J0D01*
G01*
X104942001Y-147944000D01*
G75*
G02*
X105192000Y-148193999I0J-249999D01*
G01*
X105192000Y-148844001D01*
G75*
G02*
X104942001Y-149094000I-249999J0D01*
G01*
G37*
G36*
G01*
X104942001Y-147044000D02*
X104041999Y-147044000D01*
G75*
G02*
X103792000Y-146794001I0J249999D01*
G01*
X103792000Y-146143999D01*
G75*
G02*
X104041999Y-145894000I249999J0D01*
G01*
X104942001Y-145894000D01*
G75*
G02*
X105192000Y-146143999I0J-249999D01*
G01*
X105192000Y-146794001D01*
G75*
G02*
X104942001Y-147044000I-249999J0D01*
G01*
G37*
G36*
G01*
X118265999Y-106642000D02*
X119166001Y-106642000D01*
G75*
G02*
X119416000Y-106891999I0J-249999D01*
G01*
X119416000Y-107542001D01*
G75*
G02*
X119166001Y-107792000I-249999J0D01*
G01*
X118265999Y-107792000D01*
G75*
G02*
X118016000Y-107542001I0J249999D01*
G01*
X118016000Y-106891999D01*
G75*
G02*
X118265999Y-106642000I249999J0D01*
G01*
G37*
G36*
G01*
X118265999Y-108692000D02*
X119166001Y-108692000D01*
G75*
G02*
X119416000Y-108941999I0J-249999D01*
G01*
X119416000Y-109592001D01*
G75*
G02*
X119166001Y-109842000I-249999J0D01*
G01*
X118265999Y-109842000D01*
G75*
G02*
X118016000Y-109592001I0J249999D01*
G01*
X118016000Y-108941999D01*
G75*
G02*
X118265999Y-108692000I249999J0D01*
G01*
G37*
D16*
X114418000Y-152150000D03*
D17*
X115668000Y-155050000D03*
D16*
X116918000Y-152150000D03*
M02*
